<svg width="20" height="20" viewBox="0 0 20 20" fill="none" xmlns="http://www.w3.org/2000/svg">
<path d="M10.0001 12.2182C9.89969 12.2182 9.80621 12.2021 9.71969 12.1701C9.63315 12.138 9.55088 12.083 9.47289 12.005L5.72771 8.25983C5.61232 8.14446 5.55329 7.99943 5.55062 7.82475C5.54794 7.65007 5.60697 7.50237 5.72771 7.38164C5.84843 7.26092 5.99479 7.20056 6.16679 7.20056C6.33879 7.20056 6.48515 7.26092 6.60587 7.38164L10.0001 10.7759L13.3944 7.38164C13.5097 7.26627 13.6548 7.20724 13.8295 7.20456C14.0041 7.20189 14.1518 7.26092 14.2725 7.38164C14.3933 7.50237 14.4536 7.64873 14.4536 7.82075C14.4536 7.99275 14.3933 8.13911 14.2725 8.25983L10.5274 12.005C10.4494 12.083 10.3671 12.138 10.2806 12.1701C10.194 12.2021 10.1006 12.2182 10.0001 12.2182Z" fill="#595959"/>
</svg>
