<svg width="16" height="16" viewBox="0 0 16 16" fill="currentColor" xmlns="http://www.w3.org/2000/svg">
<path d="M6.0385 11.6667C5.70172 11.6667 5.41667 11.55 5.18333 11.3167C4.95 11.0833 4.83333 10.7983 4.83333 10.4615V2.87183C4.83333 2.53506 4.95 2.25 5.18333 2.01667C5.41667 1.78333 5.70172 1.66667 6.0385 1.66667H11.6282C11.9649 1.66667 12.25 1.78333 12.4833 2.01667C12.7167 2.25 12.8333 2.53506 12.8333 2.87183V10.4615C12.8333 10.7983 12.7167 11.0833 12.4833 11.3167C12.25 11.55 11.9649 11.6667 11.6282 11.6667H6.0385ZM6.0385 10.6667H11.6282C11.6795 10.6667 11.7265 10.6453 11.7692 10.6025C11.8119 10.5598 11.8333 10.5128 11.8333 10.4615V2.87183C11.8333 2.8205 11.8119 2.7735 11.7692 2.73083C11.7265 2.68806 11.6795 2.66667 11.6282 2.66667H6.0385C5.98717 2.66667 5.94017 2.68806 5.8975 2.73083C5.85472 2.7735 5.83333 2.8205 5.83333 2.87183V10.4615C5.83333 10.5128 5.85472 10.5598 5.8975 10.6025C5.94017 10.6453 5.98717 10.6667 6.0385 10.6667ZM3.70517 14C3.36839 14 3.08333 13.8833 2.85 13.65C2.61667 13.4167 2.5 13.1316 2.5 12.7948V4.70517C2.5 4.56328 2.54789 4.44445 2.64367 4.34867C2.73933 4.253 2.85811 4.20517 3 4.20517C3.14189 4.20517 3.26072 4.253 3.3565 4.34867C3.45217 4.44445 3.5 4.56328 3.5 4.70517V12.7948C3.5 12.8462 3.52139 12.8932 3.56417 12.9358C3.60683 12.9786 3.65383 13 3.70517 13H9.79483C9.93672 13 10.0556 13.0478 10.1513 13.1435C10.247 13.2393 10.2948 13.3581 10.2948 13.5C10.2948 13.6419 10.247 13.7607 10.1513 13.8563C10.0556 13.9521 9.93672 14 9.79483 14H3.70517Z" />
</svg>
