<svg width="21" height="20" viewBox="0 0 21 20" fill="currentColor" xmlns="http://www.w3.org/2000/svg">
<path d="M9.25016 15.8333V14.1667H4.08991C3.66897 14.1667 3.31266 14.0208 3.021 13.7292C2.72933 13.4375 2.5835 13.0812 2.5835 12.6603V4.42309C2.5835 4.00214 2.72933 3.64584 3.021 3.35417C3.31266 3.06251 3.66897 2.91667 4.08991 2.91667H16.9104C17.3313 2.91667 17.6876 3.06251 17.9793 3.35417C18.271 3.64584 18.4168 4.00214 18.4168 4.42309V12.6603C18.4168 13.0812 18.271 13.4375 17.9793 13.7292C17.6876 14.0208 17.3313 14.1667 16.9104 14.1667H11.7501V15.8333H12.7918C12.9691 15.8333 13.1176 15.8931 13.2373 16.0128C13.357 16.1325 13.4168 16.281 13.4168 16.4583C13.4168 16.6356 13.357 16.7841 13.2373 16.9038C13.1176 17.0235 12.9691 17.0833 12.7918 17.0833H8.2085C8.03115 17.0833 7.88265 17.0235 7.763 16.9038C7.64333 16.7841 7.5835 16.6356 7.5835 16.4583C7.5835 16.281 7.64333 16.1325 7.763 16.0128C7.88265 15.8931 8.03115 15.8333 8.2085 15.8333H9.25016ZM4.08991 12.9167H16.9104C16.9745 12.9167 17.0333 12.89 17.0867 12.8365C17.1401 12.7831 17.1668 12.7244 17.1668 12.6603V4.42309C17.1668 4.35898 17.1401 4.30021 17.0867 4.24678C17.0333 4.19336 16.9745 4.16665 16.9104 4.16665H4.08991C4.0258 4.16665 3.96703 4.19336 3.9136 4.24678C3.86018 4.30021 3.83348 4.35898 3.83348 4.42309V12.6603C3.83348 12.7244 3.86018 12.7831 3.9136 12.8365C3.96703 12.89 4.0258 12.9167 4.08991 12.9167Z" />
</svg>
