<svg width="16" height="16" viewBox="0 0 16 16" fill="currentColor" xmlns="http://www.w3.org/2000/svg">
<path fill-rule="evenodd" clip-rule="evenodd" d="M7.24651 11.638C7.10485 11.638 6.9861 11.59 6.89026 11.4942C6.79444 11.3983 6.74653 11.2795 6.74653 11.1378C6.74653 10.996 6.79444 10.8773 6.89026 10.7816C6.9861 10.6859 7.10485 10.638 7.24651 10.638H8.53496C8.67663 10.638 8.79538 10.6859 8.89121 10.7818C8.98705 10.8777 9.03496 10.9965 9.03496 11.1382C9.03496 11.2799 8.98705 11.3987 8.89121 11.4944C8.79538 11.5901 8.67663 11.638 8.53496 11.638H7.24651ZM4.66318 8.47132C4.52152 8.47132 4.40278 8.42339 4.30695 8.32752C4.21111 8.23164 4.1632 8.11284 4.1632 7.97112C4.1632 7.82939 4.21111 7.71066 4.30695 7.61494C4.40278 7.51922 4.52152 7.47135 4.66318 7.47135H11.1183C11.26 7.47135 11.3787 7.51929 11.4745 7.61515C11.5704 7.71103 11.6183 7.82983 11.6183 7.97155C11.6183 8.11329 11.5704 8.23202 11.4745 8.32774C11.3787 8.42346 11.26 8.47132 11.1183 8.47132H4.66318ZM2.7273 5.30467C2.58563 5.30467 2.46688 5.25673 2.37105 5.16085C2.27521 5.06499 2.22729 4.94619 2.22729 4.80445C2.22729 4.66273 2.27521 4.54401 2.37105 4.44829C2.46688 4.35255 2.58563 4.30469 2.7273 4.30469H13.0606C13.2023 4.30469 13.321 4.35263 13.4168 4.4485C13.5127 4.54438 13.5606 4.66318 13.5606 4.8049C13.5606 4.94664 13.5127 5.06537 13.4168 5.16109C13.321 5.25681 13.2023 5.30467 13.0606 5.30467H2.7273Z" />
</svg>
