<svg width="20" height="20" viewBox="0 0 20 20" fill="currentColor" xmlns="http://www.w3.org/2000/svg">
<path fill-rule="evenodd" clip-rule="evenodd" d="M9.11719 15.6902C9.36198 15.935 9.65624 16.0574 9.99998 16.0574C10.3437 16.0574 10.638 15.935 10.8828 15.6902C11.1276 15.4454 11.25 15.1511 11.25 14.8074C11.25 14.4636 11.1276 14.1694 10.8828 13.9246C10.638 13.6798 10.3437 13.5574 9.99998 13.5574C9.65624 13.5574 9.36198 13.6798 9.11719 13.9246C8.8724 14.1694 8.75 14.4636 8.75 14.8074C8.75 15.1511 8.8724 15.4454 9.11719 15.6902ZM9.11719 10.8825C9.36198 11.1273 9.65624 11.2497 9.99998 11.2497C10.3437 11.2497 10.638 11.1273 10.8828 10.8825C11.1276 10.6377 11.25 10.3434 11.25 9.99971C11.25 9.65597 11.1276 9.36171 10.8828 9.11692C10.638 8.87212 10.3437 8.74973 9.99998 8.74973C9.65624 8.74973 9.36198 8.87212 9.11719 9.11692C8.8724 9.36171 8.75 9.65597 8.75 9.99971C8.75 10.3434 8.8724 10.6377 9.11719 10.8825ZM9.11719 6.07481C9.36198 6.3196 9.65624 6.442 9.99998 6.442C10.3437 6.442 10.638 6.3196 10.8828 6.07481C11.1276 5.83003 11.25 5.53577 11.25 5.19202C11.25 4.84829 11.1276 4.55402 10.8828 4.30923C10.638 4.06445 10.3437 3.94206 9.99998 3.94206C9.65624 3.94206 9.36198 4.06445 9.11719 4.30923C8.8724 4.55402 8.75 4.84829 8.75 5.19202C8.75 5.53577 8.8724 5.83003 9.11719 6.07481Z" />
</svg>
