<svg width="21" height="20" viewBox="0 0 21 20" fill="currentColor" xmlns="http://www.w3.org/2000/svg">
<path d="M6.58991 18.7499C6.16897 18.7499 5.81266 18.6041 5.521 18.3124C5.22933 18.0208 5.0835 17.6645 5.0835 17.2435V2.75642C5.0835 2.33547 5.22933 1.97917 5.521 1.6875C5.81266 1.39583 6.16897 1.25 6.58991 1.25H14.4104C14.8313 1.25 15.1876 1.39583 15.4793 1.6875C15.771 1.97917 15.9168 2.33547 15.9168 2.75642V17.2435C15.9168 17.6645 15.771 18.0208 15.4793 18.3125C15.1876 18.6041 14.8313 18.75 14.4104 18.75L6.58991 18.7499ZM6.33347 14.8077V17.2436C6.33347 17.3077 6.36018 17.3664 6.4136 17.4199C6.46703 17.4733 6.5258 17.5 6.58991 17.5H14.4104C14.4745 17.5 14.5333 17.4733 14.5867 17.4199C14.6401 17.3664 14.6668 17.3077 14.6668 17.2436V14.8077H6.33347ZM10.5001 16.891C10.7042 16.891 10.8781 16.8192 11.0218 16.6755C11.1655 16.5318 11.2373 16.3579 11.2373 16.1538C11.2373 15.9498 11.1655 15.7759 11.0218 15.6322C10.8781 15.4885 10.7042 15.4166 10.5001 15.4166C10.2961 15.4166 10.1222 15.4885 9.97852 15.6322C9.83482 15.7759 9.76297 15.9498 9.76297 16.1538C9.76297 16.3579 9.83482 16.5317 9.97852 16.6754C10.1222 16.8191 10.2961 16.891 10.5001 16.891ZM6.33347 13.5577H14.6668V4.79163H6.33347V13.5577ZM6.33347 3.54167H14.6668V2.75642C14.6668 2.69231 14.6401 2.63354 14.5867 2.5801C14.5333 2.52669 14.4745 2.49998 14.4104 2.49998H6.58991C6.5258 2.49998 6.46703 2.52669 6.4136 2.5801C6.36018 2.63354 6.33347 2.69231 6.33347 2.75642V3.54167Z" />
</svg>
