<svg xmlns="http://www.w3.org/2000/svg" xmlns:xlink="http://www.w3.org/1999/xlink" width="20" height="20" viewBox="0 0 20 20">
    <defs>
        <circle id="bnggwvf14a" cx="10" cy="10" r="10"/>
    </defs>
    <g fill="none" fill-rule="evenodd">
        <mask id="bv3kq8tghb" fill="#fff">
            <use xlink:href="#bnggwvf14a"/>
        </mask>
        <g mask="url(#bv3kq8tghb)">
            <g>
                <path fill="#009" fill-rule="nonzero" d="M0 2H21.905V20H0z" transform="translate(-.952)"/>
                <path fill="#C00" fill-rule="nonzero" d="M0 0H21.905V10H0z" transform="translate(-.952)"/>
                <path fill="#FF0" stroke="#000" stroke-width=".1" d="M5.331 10.693L16.573 10.693 16.573 11.938 5.331 11.938z" transform="translate(-.952)"/>
                <path fill="#FF0" stroke="#000" stroke-width=".1" d="M5.259 11.919L5.071 12.211 16.829 12.211 16.641 11.919zM5.243 10.399L16.661 10.399 16.661 10.693 5.243 10.693z" transform="translate(-.952)"/>
                <path fill="#FF0" stroke="#000" stroke-width=".1" d="M16.755 10.556l.023-.906s.009.255-.195.255H5.335c-.204 0-.228-.255-.228-.255l.022.906h11.626z" transform="translate(-.952)"/>
                <path fill="#FF0" stroke="#000" stroke-width=".1" d="M16.656 10.38l.022-.708s.045.255-.155.255H5.486c-.2 0-.267-.255-.267-.255l.023.708h11.414z" transform="translate(-.952)"/>
                <path fill="#FF0" fill-rule="nonzero" stroke="#000" stroke-width=".1" d="M7.386 10.402H14.52V11.885H7.386z" transform="translate(-.952)"/>
                <path fill="#FF0" stroke="#000" stroke-width=".1" d="M7.37 11.883L7.159 12.232 14.697 12.232 14.486 11.883z" transform="translate(-.952)"/>
                <path fill="#FF0" stroke="#000" stroke-width=".1" d="M9.929 11.883L9.753 12.232 12.126 12.232 11.951 11.883zM7.346 10.379L14.56 10.379 14.56 10.728 7.346 10.728z" transform="translate(-.952)"/>
                <path fill="#FF0" stroke="#000" stroke-width=".1" d="M10.208 11.884L10.109 12.231 11.81 12.231 11.711 11.884z" transform="translate(-.952)"/>
                <path fill="#FF0" fill-rule="nonzero" stroke="#000" stroke-width=".1" d="M9.937 10.371H11.95V11.881H9.937z" transform="translate(-.952)"/>
                <path fill="#FF0" fill-rule="nonzero" stroke="#000" stroke-width=".1" d="M10.262 10.049H11.642V11.878H10.262z" transform="translate(-.952)"/>
                <path fill="#FF0" stroke="#000" stroke-width=".1" d="M7.558 11.883L7.391 12.232 9.418 12.232 9.251 11.883z" transform="translate(-.952)"/>
                <path fill="#FF0" stroke="#000" stroke-width=".1" d="M7.851 11.886L7.746 12.229 9.054 12.229 8.949 11.886zM7.569 10.403L9.243 10.403 9.243 11.883 7.569 11.883z" transform="translate(-.952)"/>
                <path fill="#FF0" stroke="#000" stroke-width=".1" d="M7.926 10.398L8.887 10.398 8.887 11.888 7.926 11.888z" transform="translate(-.952)"/>
                <path fill="#FF0" stroke="#000" stroke-width=".1" d="M8.059 10.407L8.745 10.407 8.745 12.231 8.059 12.231z" transform="translate(-.952)"/>
                <path fill="#FF0" stroke="#000" stroke-width=".1" d="M8.15 10.408L8.654 10.408 8.654 12.231 8.15 12.231zM7.265 10.053L14.64 10.053 14.64 10.402 7.265 10.402z" transform="translate(-.952)"/>
                <path fill="#FF0" stroke="#000" stroke-width=".1" d="M14.76 10.239l.014-1.078s.006.303-.124.303H7.31c-.129 0-.172-.303-.172-.303l.014 1.078h7.608z" transform="translate(-.952)"/>
                <path fill="#FF0" stroke="#000" stroke-width=".1" d="M14.619 10.03l.014-.843s-.018.303-.145.303H7.423c-.127 0-.17-.303-.17-.303l.015.843h7.35zM14.332 11.883L14.499 12.231 12.472 12.231 12.639 11.883z" transform="translate(-.952)"/>
                <path fill="#FF0" stroke="#000" stroke-width=".1" d="M14.04 11.886L14.145 12.228 12.837 12.228 12.942 11.886zM5.409 11.924L5.273 12.209 6.929 12.209 6.793 11.924z" transform="translate(-.952)"/>
                <path fill="#FF0" stroke="#000" stroke-width=".1" d="M5.65 11.927L5.564 12.206 6.633 12.206 6.547 11.927zM16.49 11.924L16.626 12.209 14.97 12.209 15.106 11.924z" transform="translate(-.952)"/>
                <path fill="#FF0" stroke="#000" stroke-width=".1" d="M16.251 11.927L16.336 12.206 15.268 12.206 15.354 11.927z" transform="translate(-.952)"/>
                <path fill="#FF0" stroke="#000" stroke-width=".1" d="M4.636 12.136L17.221 12.136 17.221 12.224 4.636 12.224zM4.722 12.227L17.135 12.227 17.135 12.611 4.722 12.611z" transform="translate(-.952)"/>
                <path fill="#FF0" stroke="#000" stroke-width=".1" d="M4.203 12.527L17.701 12.527 17.701 12.624 4.203 12.624zM4.28 12.629L17.625 12.629 17.625 12.978 4.28 12.978zM3.701 13.051L18.237 13.051 18.237 13.487 3.701 13.487z" transform="translate(-.952)"/>
                <path fill="#FF0" stroke="#000" stroke-width=".1" d="M3.613 12.935L18.291 12.935 18.291 13.055 3.613 13.055zM5.256 12.136L6.937 12.136 6.937 12.224 5.256 12.224zM5.314 12.226L6.879 12.226 6.879 12.612 5.314 12.612z" transform="translate(-.952)"/>
                <path fill="#FF0" stroke="#000" stroke-width=".1" d="M5.239 12.527L6.963 12.527 6.963 12.625 5.239 12.625zM5.28 12.629L6.921 12.629 6.921 12.979 5.28 12.979zM5.216 13.05L6.99 13.05 6.99 13.488 5.216 13.488z" transform="translate(-.952)"/>
                <path fill="#FF0" stroke="#000" stroke-width=".1" d="M5.176 12.934L7.025 12.934 7.025 13.055 5.176 13.055zM9.81 12.135L12.085 12.135 12.085 12.224 9.81 12.224zM9.889 12.226L12.007 12.226 12.007 12.612 9.889 12.612z" transform="translate(-.952)"/>
                <path fill="#FF0" stroke="#000" stroke-width=".1" d="M9.786 12.527L12.119 12.527 12.119 12.625 9.786 12.625zM9.842 12.629L12.064 12.629 12.064 12.98 9.842 12.98zM9.755 13.05L12.156 13.05 12.156 13.489 9.755 13.489z" transform="translate(-.952)"/>
                <path fill="#FF0" stroke="#000" stroke-width=".1" d="M9.701 12.934L12.204 12.934 12.204 13.055 9.701 13.055zM7.369 12.136L9.443 12.136 9.443 12.224 7.369 12.224zM7.44 12.226L9.372 12.226 9.372 12.612 7.44 12.612z" transform="translate(-.952)"/>
                <path fill="#FF0" stroke="#000" stroke-width=".1" d="M7.347 12.527L9.474 12.527 9.474 12.625 7.347 12.625zM7.398 12.629L9.423 12.629 9.423 12.979 7.398 12.979zM7.319 13.05L9.508 13.05 9.508 13.488 7.319 13.488z" transform="translate(-.952)"/>
                <path fill="#FF0" stroke="#000" stroke-width=".1" d="M7.269 12.934L9.55 12.934 9.55 13.055 7.269 13.055z" transform="translate(-.952)"/>
                <path fill="#FF0" stroke="#000" stroke-width=".1" d="M8.059 12.142L8.746 12.142 8.746 13.489 8.059 13.489z" transform="translate(-.952)"/>
                <path fill="#FF0" stroke="#000" stroke-width=".1" d="M8.15 12.142L8.655 12.142 8.655 13.488 8.15 13.488zM9.804 9.994L12.1 9.994 12.1 10.369 9.804 10.369z" transform="translate(-.952)"/>
                <path fill="#FF0" stroke="#000" stroke-width=".1" d="M12.134 10.24l.014-1.391s-.044.303-.177.303H9.934c-.133 0-.178-.303-.178-.303l.015 1.391h2.363z" transform="translate(-.952)"/>
                <path fill="#FF0" stroke="#000" stroke-width=".1" d="M11.949 9.737l.012-.963s-.037.243-.148.243h-1.705c-.111 0-.148-.243-.148-.243l.012.963h1.977zM10.391 9.887L10.936 10.392 11.512 9.887zM11.283 7.115l.002-.266c-.256 0-.192-.29-.192-.4.075-.11.096-.265-.114-.377-.206.125-.19.264-.114.368.001.122.084.409-.197.409l.002.266h.613z" transform="translate(-.952)"/>
                <path fill="#FF0" stroke="#000" stroke-width=".1" d="M11.473 7.456l.003-.351s.075-.065.05-.157c-.024-.092-.133.116-.133.116h-.834s-.126-.208-.15-.116c-.024.092.067.157.067.157l.003.35h.994zM10.602 6.645L11.351 6.645 11.351 6.84 10.602 6.84z" transform="translate(-.952)"/>
                <path fill="#FF0" stroke="#000" stroke-width=".1" d="M10.547 6.86L11.389 6.86 11.389 7.053 10.547 7.053z" transform="translate(-.952)"/>
                <path fill="#FF0" stroke="#000" stroke-width=".1" d="M10.647 7.063l-.003-.2c.053-.053.074.102.074.102s.022-.217.25-.313c.227.096.25.327.25.327s.02-.169.073-.117l-.003.2h-.64 0zM10.702 6.454L11.253 6.454 11.253 6.64 10.702 6.64z" transform="translate(-.952)"/>
                <path fill="#FF0" stroke="#000" stroke-width=".1" d="M10.597 7.483l-.003-.23c.06-.06.084.118.084.118s.025-.25.287-.36c.262.11.287.375.287.375s.023-.193.085-.133l-.004.23h-.736 0z" transform="translate(-.952)"/>
                <path fill="#FF0" stroke="#000" stroke-width=".1" d="M11.593 7.938l.003-.436s.093-.08.063-.194-.166.144-.166.144H10.46s-.156-.258-.186-.144c-.03.114.083.194.083.194l.004.436h1.233z" transform="translate(-.952)"/>
                <path fill="#FF0" stroke="#000" stroke-width=".1" d="M10.551 7.941l-.004-.263c.07-.069.097.135.097.135s.029-.285.328-.412c.3.127.329.43.329.43s.027-.222.097-.153l-.004.263h-.843 0z" transform="translate(-.952)"/>
                <path fill="#FF0" stroke="#000" stroke-width=".1" d="M11.692 8.508l.004-.515s.107-.095.072-.23c-.034-.134-.192.17-.192.17H10.38s-.18-.304-.215-.17c-.035.135.096.23.096.23l.004.515h1.427z" transform="translate(-.952)"/>
                <path fill="#FF0" stroke="#000" stroke-width=".1" d="M10.485 8.503l-.005-.305c.08-.079.112.157.112.157s.033-.33.38-.477c.347.147.38.497.38.497s.031-.256.112-.177l-.005.305h-.974 0z" transform="translate(-.952)"/>
                <path fill="#FF0" stroke="#000" stroke-width=".1" d="M11.751 9.112l.005-.565s.118-.104.08-.252c-.038-.149-.212.186-.212.186h-1.317s-.2-.335-.238-.186c-.038.148.106.252.106.252l.005.565h1.571z" transform="translate(-.952)"/>
                <path fill="#FF0" stroke="#000" stroke-width=".1" d="M11.805 9.338l.005-.45s.126-.082.086-.2c-.041-.118-.227.148-.227.148h-1.412s-.214-.266-.255-.148c-.04.118.114.2.114.2l.005.45h1.684z" transform="translate(-.952)"/>
                <path fill="#FF0" stroke="#000" stroke-width=".1" d="M10.393 9.079l-.006-.355c.094-.092.131.183.131.183s.039-.384.442-.555c.403.17.442.578.442.578s.036-.298.13-.206l-.006.355h-1.133 0z" transform="translate(-.952)"/>
                <path fill="#FF0" stroke="#000" stroke-width=".1" d="M10.252 9.73v-.448c.116-.081.183.354.183.354s.017-.656.518-.806c.501.15.518.806.518.806s.067-.435.184-.354v.447h-1.403 0z" transform="translate(-.952)"/>
                <path fill="#FF0" stroke="#000" stroke-width=".1" d="M10.12 10.387l-.008-.578c.138-.15.192.297.192.297s.057-.626.649-.904c.592.278.649.942.649.942s.053-.485.191-.335l-.008.579H10.12h0zM9.381 10.993L9.808 10.993 9.808 11.607 9.381 11.607zM7.45 10.035L9.372 10.035 9.372 10.413 7.45 10.413z" transform="translate(-.952)"/>
                <path fill="#FF0" stroke="#000" stroke-width=".1" d="M9.367 10.257l.015-1.235s-.045.303-.178.303H7.581c-.133 0-.178-.303-.178-.303l.015 1.235h1.949z" transform="translate(-.952)"/>
                <path fill="#FF0" stroke="#000" stroke-width=".1" d="M9.213 9.98l.012-.99s-.11.243-.22.243H7.785c-.111 0-.221-.242-.221-.242l.012.989h1.636z" transform="translate(-.952)"/>
                <path fill="#FF0" stroke="#000" stroke-width=".1" d="M7.981 9.776L8.392 10.157 8.827 9.776zM8.653 7.992l.001-.2c-.193 0-.145-.22-.145-.302.057-.084.073-.2-.086-.285-.155.095-.143.2-.086.278.001.092.064.308-.148.308l.002.201h.462z" transform="translate(-.952)"/>
                <path fill="#FF0" stroke="#000" stroke-width=".1" d="M8.797 8.25l.002-.266s.056-.048.038-.118c-.018-.07-.1.088-.1.088h-.63s-.095-.157-.113-.088c-.018.07.05.118.05.118l.002.265h.75zM8.139 7.637L8.704 7.637 8.704 7.784 8.139 7.784z" transform="translate(-.952)"/>
                <path fill="#FF0" stroke="#000" stroke-width=".1" d="M8.098 7.799L8.733 7.799 8.733 7.945 8.098 7.945z" transform="translate(-.952)"/>
                <path fill="#FF0" stroke="#000" stroke-width=".1" d="M8.174 7.953L8.172 7.8c.04-.039.055.078.055.078s.017-.164.189-.236c.171.072.188.246.188.246s.016-.127.056-.088l-.003.152h-.483 0zM8.214 7.493L8.63 7.493 8.63 7.634 8.214 7.634z" transform="translate(-.952)"/>
                <path fill="#FF0" stroke="#000" stroke-width=".1" d="M8.135 8.244l-.002-.174c.046-.045.064.09.064.09s.019-.189.216-.273c.197.084.216.284.216.284s.018-.146.064-.101l-.003.174h-.555 0z" transform="translate(-.952)"/>
                <path fill="#FF0" stroke="#000" stroke-width=".1" d="M8.887 8.587l.003-.329s.07-.06.047-.146c-.022-.086-.125.108-.125.108h-.78s-.118-.194-.14-.108c-.023.086.062.146.062.146l.003.33h.93z" transform="translate(-.952)"/>
                <path fill="#FF0" stroke="#000" stroke-width=".1" d="M8.1 8.59l-.002-.2c.052-.051.073.103.073.103s.022-.216.248-.312c.226.096.248.325.248.325s.02-.167.073-.116l-.004.2h-.635 0z" transform="translate(-.952)"/>
                <path fill="#FF0" stroke="#000" stroke-width=".1" d="M8.961 8.99l.004-.388s.08-.07.054-.173c-.026-.101-.144.129-.144.129h-.903s-.137-.23-.163-.129c-.026.102.073.173.073.173l.003.389h1.076z" transform="translate(-.952)"/>
                <path fill="#FF0" stroke="#000" stroke-width=".1" d="M8.05 8.909l-.003-.23c.061-.06.085.118.085.118s.025-.25.286-.36c.262.11.287.375.287.375s.024-.193.085-.133l-.004.23h-.735 0z" transform="translate(-.952)"/>
                <path fill="#FF0" stroke="#000" stroke-width=".1" d="M9.007 9.394l.004-.426s.089-.079.06-.19c-.029-.112-.16.14-.16.14h-.994s-.15-.252-.18-.14c-.028.111.08.19.08.19l.004.426h1.186z" transform="translate(-.952)"/>
                <path fill="#FF0" stroke="#000" stroke-width=".1" d="M9.047 9.538L9.05 9.2s.095-.062.064-.15c-.03-.09-.17.111-.17.111H7.878s-.162-.2-.192-.112c-.031.089.085.151.085.151l.004.34h1.27z" transform="translate(-.952)"/>
                <path fill="#FF0" stroke="#000" stroke-width=".1" d="M7.981 9.343l-.004-.267c.071-.07.099.137.099.137s.029-.29.333-.418c.304.129.333.436.333.436s.028-.225.099-.155l-.005.267h-.855 0z" transform="translate(-.952)"/>
                <path fill="#FF0" stroke="#000" stroke-width=".1" d="M7.962 9.778v-.282c.073-.051.115.223.115.223s.01-.413.327-.508c.315.095.326.508.326.508s.042-.274.116-.223v.282h-.884 0z" transform="translate(-.952)"/>
                <path fill="#FF0" stroke="#000" stroke-width=".1" d="M7.84 10.404l-.006-.447c.093-.116.13.23.13.23s.038-.484.436-.7c.399.216.437.73.437.73s.036-.376.13-.26l-.007.447H7.84h0z" transform="translate(-.952)"/>
                <path fill="#FF0" fill-rule="nonzero" stroke="#000" stroke-width=".1" d="M10.475 10.408H11.475V12.229H10.475z" transform="translate(-.952)"/>
                <path fill="#FF0" stroke="#000" stroke-width=".1" d="M10.632 10.408L11.266 10.408 11.266 12.228 10.632 12.228z" transform="translate(-.952)"/>
                <path fill="#FF0" fill-rule="nonzero" stroke="#000" stroke-width=".1" d="M10.474 12.139H11.474V13.482999999999999H10.474z" transform="translate(-.952)"/>
                <path fill="#FF0" stroke="#000" stroke-width=".1" d="M10.632 12.139L11.266 12.139 11.266 13.484 10.632 13.484zM10.39 10.396s.049-.628.562-.908c.514.28.563.908.563.908-.011.004-1.118 0-1.126 0h0zM8.034 10.388s.032-.49.36-.708c.33.218.361.708.361.708-.007.003-.716 0-.72 0h0zM14.321 10.402L12.646 10.402 12.646 11.883 14.321 11.883z" transform="translate(-.952)"/>
                <path fill="#FF0" fill-rule="nonzero" stroke="#000" stroke-width=".1" d="M13.003 10.398H14.003V11.888H13.003z" transform="translate(-.952) matrix(-1 0 0 1 26.965 0)"/>
                <path fill="#FF0" stroke="#000" stroke-width=".1" d="M13.83 10.406L13.144 10.406 13.144 12.231 13.83 12.231zM16.645 12.136L14.964 12.136 14.964 12.224 16.645 12.224zM16.587 12.226L15.022 12.226 15.022 12.612 16.587 12.612z" transform="translate(-.952)"/>
                <path fill="#FF0" stroke="#000" stroke-width=".1" d="M16.663 12.527L14.939 12.527 14.939 12.625 16.663 12.625zM16.622 12.629L14.981 12.629 14.981 12.979 16.622 12.979zM16.686 13.05L14.912 13.05 14.912 13.488 16.686 13.488z" transform="translate(-.952)"/>
                <path fill="#FF0" stroke="#000" stroke-width=".1" d="M16.726 12.934L14.877 12.934 14.877 13.055 16.726 13.055zM13.739 10.408L13.235 10.408 13.235 12.231 13.739 12.231z" transform="translate(-.952)"/>
                <path fill="#FF0" stroke="#000" stroke-width=".1" d="M14.544 12.136L12.464 12.136 12.464 12.224 14.544 12.224zM14.473 12.226L12.536 12.226 12.536 12.612 14.473 12.612z" transform="translate(-.952)"/>
                <path fill="#FF0" stroke="#000" stroke-width=".1" d="M14.567 12.527L12.433 12.527 12.433 12.625 14.567 12.625zM14.516 12.629L12.484 12.629 12.484 12.979 14.516 12.979zM14.595 13.05L12.399 13.05 12.399 13.488 14.595 13.488z" transform="translate(-.952)"/>
                <path fill="#FF0" stroke="#000" stroke-width=".1" d="M14.644 12.934L12.356 12.934 12.356 13.055 14.644 13.055z" transform="translate(-.952)"/>
                <path fill="#FF0" stroke="#000" stroke-width=".1" d="M13.831 12.141L13.145 12.141 13.145 13.489 13.831 13.489z" transform="translate(-.952)"/>
                <path fill="#FF0" stroke="#000" stroke-width=".1" d="M13.739 12.141L13.235 12.141 13.235 13.488 13.739 13.488zM12.508 10.992L12.081 10.992 12.081 11.607 12.508 11.607zM14.44 10.034L12.518 10.034 12.518 10.412 14.44 10.412z" transform="translate(-.952)"/>
                <path fill="#FF0" stroke="#000" stroke-width=".1" d="M12.523 10.256l-.015-1.234s.044.303.177.303h1.624c.133 0 .177-.303.177-.303l-.014 1.234h-1.95 0z" transform="translate(-.952)"/>
                <path fill="#FF0" stroke="#000" stroke-width=".1" d="M12.677 9.98l-.012-.99s.11.243.221.243h1.218c.111 0 .221-.243.221-.243l-.012.99h-1.636 0z" transform="translate(-.952)"/>
                <path fill="#FF0" stroke="#000" stroke-width=".1" d="M13.909 9.775L13.498 10.156 13.063 9.775zM13.237 7.992l-.002-.202c.194 0 .146-.218.146-.301-.057-.083-.073-.2.086-.284.155.094.143.199.086.277-.001.092-.064.308.148.308l-.002.202h-.462 0z" transform="translate(-.952)"/>
                <path fill="#FF0" stroke="#000" stroke-width=".1" d="M13.093 8.25l-.003-.266s-.056-.049-.038-.118c.018-.07.101.087.101.087h.63s.094-.157.113-.087c.018.07-.05.118-.05.118l-.003.265h-.75 0zM13.75 7.637L13.185 7.637 13.185 7.784 13.75 7.784z" transform="translate(-.952)"/>
                <path fill="#FF0" stroke="#000" stroke-width=".1" d="M13.792 7.799L13.156 7.799 13.156 7.945 13.792 7.945z" transform="translate(-.952)"/>
                <path fill="#FF0" stroke="#000" stroke-width=".1" d="M13.715 7.952l.003-.15c-.04-.04-.056.077-.056.077s-.016-.164-.188-.237c-.172.073-.189.247-.189.247s-.015-.127-.055-.088l.002.151h.483zM13.676 7.493L13.26 7.493 13.26 7.633 13.676 7.633z" transform="translate(-.952)"/>
                <path fill="#FF0" stroke="#000" stroke-width=".1" d="M13.754 8.243l.003-.174c-.046-.045-.064.09-.064.09s-.019-.189-.216-.272c-.198.083-.217.283-.217.283s-.017-.146-.063-.1l.002.173h.555z" transform="translate(-.952)"/>
                <path fill="#FF0" stroke="#000" stroke-width=".1" d="M13.002 8.586L13 8.258s-.07-.06-.047-.147c.023-.086.125.109.125.109h.78s.119-.195.141-.109c.023.086-.063.147-.063.147l-.002.328h-.93 0z" transform="translate(-.952)"/>
                <path fill="#FF0" stroke="#000" stroke-width=".1" d="M13.789 8.59l.003-.2c-.053-.051-.073.102-.073.102s-.022-.215-.248-.31c-.226.095-.248.323-.248.323s-.02-.166-.073-.115l.003.2h.636z" transform="translate(-.952)"/>
                <path fill="#FF0" stroke="#000" stroke-width=".1" d="M12.928 8.99l-.003-.388s-.08-.072-.055-.173c.026-.102.145.128.145.128h.903s.136-.23.162-.128c.026.101-.072.173-.072.173l-.003.388h-1.077 0z" transform="translate(-.952)"/>
                <path fill="#FF0" stroke="#000" stroke-width=".1" d="M13.84 8.908l.003-.23c-.06-.06-.085.119-.085.119s-.025-.25-.286-.36c-.262.11-.287.375-.287.375s-.024-.193-.085-.134l.004.23h.735z" transform="translate(-.952)"/>
                <path fill="#FF0" stroke="#000" stroke-width=".1" d="M12.883 9.394l-.004-.427s-.089-.078-.06-.19c.029-.111.16.141.16.141h.994s.15-.252.18-.14c.028.111-.08.19-.08.19l-.004.426h-1.186 0z" transform="translate(-.952)"/>
                <path fill="#FF0" stroke="#000" stroke-width=".1" d="M12.843 9.538l-.004-.34s-.095-.062-.064-.15c.03-.09.17.112.17.112h1.066s.162-.201.192-.112c.031.088-.085.15-.085.15l-.004.34h-1.27 0z" transform="translate(-.952)"/>
                <path fill="#FF0" stroke="#000" stroke-width=".1" d="M13.908 9.343l.005-.268c-.071-.07-.099.138-.099.138s-.03-.29-.333-.419c-.304.13-.334.436-.334.436s-.027-.224-.098-.155l.004.268h.855z" transform="translate(-.952)"/>
                <path fill="#FF0" stroke="#000" stroke-width=".1" d="M13.928 9.777v-.282c-.073-.05-.116.223-.116.223s-.01-.413-.326-.508c-.316.095-.326.508-.326.508s-.042-.274-.116-.223v.282h.884z" transform="translate(-.952)"/>
                <path fill="#FF0" stroke="#000" stroke-width=".1" d="M14.05 10.404l.005-.448c-.093-.115-.129.23-.129.23s-.038-.484-.437-.7c-.398.216-.437.73-.437.73s-.036-.375-.129-.26l.006.448h1.12z" transform="translate(-.952)"/>
                <path fill="#FF0" stroke="#000" stroke-width=".1" d="M13.855 10.387s-.032-.49-.36-.708c-.329.218-.36.708-.36.708.007.004.715 0 .72 0h0zM5.478 10.713L6.728 10.713 6.728 11.925 5.478 11.925z" transform="translate(-.952)"/>
                <path fill="#FF0" stroke="#000" stroke-width=".1" d="M5.711 10.71L6.496 10.71 6.496 11.928 5.711 11.928z" transform="translate(-.952)"/>
                <path fill="#FF0" stroke="#000" stroke-width=".1" d="M5.82 10.717L6.382 10.717 6.382 12.208 5.82 12.208z" transform="translate(-.952)"/>
                <path fill="#FF0" stroke="#000" stroke-width=".1" d="M5.894 10.718L6.306 10.718 6.306 12.208 5.894 12.208z" transform="translate(-.952)"/>
                <path fill="#FF0" stroke="#000" stroke-width=".1" d="M5.813 12.139L6.38 12.139 6.38 13.489 5.813 13.489z" transform="translate(-.952)"/>
                <path fill="#FF0" stroke="#000" stroke-width=".1" d="M5.888 12.139L6.305 12.139 6.305 13.489 5.888 13.489zM5.381 10.413L6.833 10.413 6.833 10.723 5.381 10.723z" transform="translate(-.952)"/>
                <path fill="#FF0" stroke="#000" stroke-width=".1" d="M6.85 10.595l.011-1.01s-.034.248-.138.248H5.461c-.103 0-.137-.247-.137-.247l.011 1.01H6.85z" transform="translate(-.952)"/>
                <path fill="#FF0" stroke="#000" stroke-width=".1" d="M6.763 10.369l.01-.809s-.09.199-.18.199h-.996c-.091 0-.181-.199-.181-.199l.01.809h1.337z" transform="translate(-.952)"/>
                <path fill="#FF0" stroke="#000" stroke-width=".1" d="M5.756 10.202L6.092 10.513 6.448 10.202zM6.305 8.744l.002-.164c-.158 0-.119-.179-.119-.246.047-.068.06-.164-.07-.233-.127.077-.117.163-.07.227 0 .075.051.252-.122.252l.002.164h.377z" transform="translate(-.952)"/>
                <path fill="#FF0" stroke="#000" stroke-width=".1" d="M6.422 8.955l.001-.217s.046-.04.032-.097c-.015-.056-.083.072-.083.072h-.514s-.078-.128-.092-.072c-.015.057.04.097.04.097l.003.217h.613zM5.886 8.454L6.347 8.454 6.347 8.574 5.886 8.574z" transform="translate(-.952)"/>
                <path fill="#FF0" stroke="#000" stroke-width=".1" d="M5.851 8.587L6.37 8.587 6.37 8.706 5.851 8.706z" transform="translate(-.952)"/>
                <path fill="#FF0" stroke="#000" stroke-width=".1" d="M5.914 8.712l-.002-.123c.033-.032.045.063.045.063s.014-.134.154-.193c.14.06.154.201.154.201s.013-.103.046-.071l-.002.123h-.395 0zM5.946 8.337L6.286 8.337 6.286 8.452 5.946 8.452z" transform="translate(-.952)"/>
                <path fill="#FF0" stroke="#000" stroke-width=".1" d="M5.882 8.95l-.002-.142c.037-.037.052.073.052.073s.015-.154.177-.222c.161.068.177.231.177.231s.014-.119.052-.082l-.003.142h-.453 0z" transform="translate(-.952)"/>
                <path fill="#FF0" stroke="#000" stroke-width=".1" d="M6.496 9.23l.003-.268s.057-.05.038-.12c-.018-.07-.102.089-.102.089h-.638s-.096-.16-.114-.089c-.019.07.05.12.05.12l.003.269h.76z" transform="translate(-.952)"/>
                <path fill="#FF0" stroke="#000" stroke-width=".1" d="M5.854 9.233l-.002-.163c.043-.042.06.083.06.083s.017-.176.202-.254c.185.078.202.265.202.265s.017-.136.06-.094l-.002.163h-.52 0z" transform="translate(-.952)"/>
                <path fill="#FF0" stroke="#000" stroke-width=".1" d="M6.557 9.56l.003-.317s.066-.059.045-.142c-.022-.083-.119.105-.119.105H5.75s-.112-.188-.133-.105c-.021.083.06.142.06.142l.002.317h.88z" transform="translate(-.952)"/>
                <path fill="#FF0" stroke="#000" stroke-width=".1" d="M5.813 9.493l-.003-.188c.05-.049.069.097.069.097s.02-.204.234-.294c.214.09.235.306.235.306s.019-.158.069-.109l-.003.188h-.601 0z" transform="translate(-.952)"/>
                <path fill="#FF0" stroke="#000" stroke-width=".1" d="M6.594 9.89l.003-.348s.073-.064.05-.156c-.024-.091-.131.116-.131.116h-.813s-.123-.207-.146-.116c-.023.092.065.156.065.156l.003.348h.97z" transform="translate(-.952)"/>
                <path fill="#FF0" stroke="#000" stroke-width=".1" d="M6.627 10.008l.003-.277s.078-.051.053-.124c-.025-.072-.14.092-.14.092h-.87s-.132-.164-.158-.092c-.025.073.07.124.07.124l.003.277h1.039z" transform="translate(-.952)"/>
                <path fill="#FF0" stroke="#000" stroke-width=".1" d="M5.756 9.849l-.004-.22c.058-.056.08.113.08.113s.025-.237.273-.342c.249.105.273.357.273.357s.022-.184.08-.127l-.003.219h-.7 0z" transform="translate(-.952)"/>
                <path fill="#FF0" stroke="#000" stroke-width=".1" d="M5.74 10.204v-.23c.06-.043.094.181.094.181s.009-.337.267-.415c.258.078.267.415.267.415s.034-.224.094-.182v.23H5.74h0z" transform="translate(-.952)"/>
                <path fill="#FF0" stroke="#000" stroke-width=".1" d="M5.64 10.715l-.004-.365c.076-.095.105.188.105.188s.031-.396.357-.572c.326.176.357.596.357.596s.03-.307.106-.212l-.005.365H5.64h0z" transform="translate(-.952)"/>
                <path fill="#FF0" stroke="#000" stroke-width=".1" d="M5.799 10.702s.026-.4.294-.579c.27.179.295.579.295.579-.006.003-.585 0-.589 0h0zM6.905 11.19L7.199 11.19 7.199 11.614 6.905 11.614zM16.422 10.713L15.172 10.713 15.172 11.925 16.422 11.925z" transform="translate(-.952)"/>
                <path fill="#FF0" stroke="#000" stroke-width=".1" d="M16.188 10.71L15.404 10.71 15.404 11.928 16.188 11.928z" transform="translate(-.952)"/>
                <path fill="#FF0" stroke="#000" stroke-width=".1" d="M16.08 10.717L15.519 10.717 15.519 12.208 16.08 12.208z" transform="translate(-.952)"/>
                <path fill="#FF0" stroke="#000" stroke-width=".1" d="M16.007 10.718L15.595 10.718 15.595 12.208 16.007 12.208z" transform="translate(-.952)"/>
                <path fill="#FF0" stroke="#000" stroke-width=".1" d="M16.087 12.139L15.52 12.139 15.52 13.489 16.087 13.489z" transform="translate(-.952)"/>
                <path fill="#FF0" stroke="#000" stroke-width=".1" d="M16.011 12.139L15.595 12.139 15.595 13.489 16.011 13.489zM16.52 10.413L15.068 10.413 15.068 10.723 16.52 10.723z" transform="translate(-.952)"/>
                <path fill="#FF0" stroke="#000" stroke-width=".1" d="M15.05 10.595l-.01-1.01s.034.248.137.248h1.262c.103 0 .138-.247.138-.247l-.012 1.01h-1.514 0z" transform="translate(-.952)"/>
                <path fill="#FF0" stroke="#000" stroke-width=".1" d="M15.138 10.369l-.01-.809s.09.199.18.199h.996c.09 0 .18-.199.18-.199l-.01.809h-1.336 0z" transform="translate(-.952)"/>
                <path fill="#FF0" stroke="#000" stroke-width=".1" d="M16.145 10.202L15.809 10.513 15.453 10.202zM15.595 8.744l-.002-.164c.158 0 .119-.179.119-.246-.047-.068-.06-.164.07-.233.127.077.117.163.07.227 0 .075-.051.252.122.252l-.002.164h-.377 0z" transform="translate(-.952)"/>
                <path fill="#FF0" stroke="#000" stroke-width=".1" d="M15.478 8.955l-.002-.217s-.046-.04-.031-.097c.014-.056.082.072.082.072h.514s.078-.128.093-.072c.014.057-.042.097-.042.097l-.001.217h-.613 0zM16.014 8.454L15.553 8.454 15.553 8.574 16.014 8.574z" transform="translate(-.952)"/>
                <path fill="#FF0" stroke="#000" stroke-width=".1" d="M16.049 8.587L15.53 8.587 15.53 8.706 16.049 8.706z" transform="translate(-.952)"/>
                <path fill="#FF0" stroke="#000" stroke-width=".1" d="M15.986 8.712l.002-.123c-.032-.032-.045.063-.045.063s-.014-.134-.154-.193c-.14.06-.154.201-.154.201s-.013-.103-.046-.071l.003.123h.394zM15.954 8.337L15.614 8.337 15.614 8.452 15.954 8.452z" transform="translate(-.952)"/>
                <path fill="#FF0" stroke="#000" stroke-width=".1" d="M16.018 8.95l.002-.142c-.037-.037-.052.073-.052.073s-.015-.154-.177-.222c-.161.068-.176.231-.176.231s-.015-.119-.053-.082l.003.142h.453z" transform="translate(-.952)"/>
                <path fill="#FF0" stroke="#000" stroke-width=".1" d="M15.404 9.23l-.003-.268s-.057-.05-.038-.12c.018-.07.102.089.102.089h.637s.097-.16.115-.089c.019.07-.05.12-.05.12l-.003.269h-.76 0z" transform="translate(-.952)"/>
                <path fill="#FF0" stroke="#000" stroke-width=".1" d="M16.046 9.233l.003-.163c-.043-.042-.06.083-.06.083s-.018-.176-.202-.254c-.185.078-.203.265-.203.265s-.017-.136-.06-.094l.003.163h.52z" transform="translate(-.952)"/>
                <path fill="#FF0" stroke="#000" stroke-width=".1" d="M15.342 9.56l-.002-.317s-.066-.059-.045-.142c.021-.083.118.105.118.105h.738s.112-.188.133-.105c.021.083-.06.142-.06.142l-.002.317h-.88 0z" transform="translate(-.952)"/>
                <path fill="#FF0" stroke="#000" stroke-width=".1" d="M16.087 9.493l.004-.188c-.05-.049-.07.097-.07.097s-.02-.204-.234-.294c-.214.09-.234.306-.234.306s-.02-.158-.07-.109l.004.188h.6z" transform="translate(-.952)"/>
                <path fill="#FF0" stroke="#000" stroke-width=".1" d="M15.306 9.89l-.003-.348s-.073-.064-.05-.156c.024-.091.131.116.131.116h.813s.123-.207.146-.116c.024.092-.065.156-.065.156l-.003.348h-.969 0z" transform="translate(-.952)"/>
                <path fill="#FF0" stroke="#000" stroke-width=".1" d="M15.273 10.008l-.003-.277s-.078-.051-.053-.124c.025-.072.14.092.14.092h.87s.132-.164.158-.092c.025.073-.07.124-.07.124l-.003.277h-1.039 0z" transform="translate(-.952)"/>
                <path fill="#FF0" stroke="#000" stroke-width=".1" d="M16.144 9.849l.003-.22c-.058-.056-.08.113-.08.113s-.024-.237-.272-.342c-.249.105-.273.357-.273.357s-.022-.184-.08-.127l.003.219h.699z" transform="translate(-.952)"/>
                <path fill="#FF0" stroke="#000" stroke-width=".1" d="M16.16 10.203v-.23c-.06-.042-.094.182-.094.182s-.009-.337-.267-.415c-.258.078-.267.415-.267.415s-.034-.224-.094-.182v.23h.722z" transform="translate(-.952)"/>
                <path fill="#FF0" stroke="#000" stroke-width=".1" d="M16.26 10.715l.005-.365c-.076-.095-.106.188-.106.188s-.031-.396-.357-.572c-.326.176-.357.596-.357.596s-.03-.307-.105-.212l.004.365h.916z" transform="translate(-.952)"/>
                <path fill="#FF0" stroke="#000" stroke-width=".1" d="M16.1 10.702s-.026-.4-.295-.579c-.268.179-.294.579-.294.579.006.003.585 0 .589 0h0zM14.995 11.19L14.701 11.19 14.701 11.614 14.995 11.614zM5.888 12.759L6.305 12.759 6.305 12.849 5.888 12.849z" transform="translate(-.952)"/>
                <path fill="#FF0" stroke="#000" stroke-width=".1" d="M5.888 12.842L6.305 12.842 6.305 12.932 5.888 12.932z" transform="translate(-.952)"/>
                <path fill="#FF0" stroke="#000" stroke-width=".1" d="M5.888 12.922L6.305 12.922 6.305 13.012 5.888 13.012z" transform="translate(-.952)"/>
                <path fill="#FF0" stroke="#000" stroke-width=".1" d="M5.888 13.002L6.305 13.002 6.305 13.092 5.888 13.092z" transform="translate(-.952)"/>
                <path fill="#FF0" stroke="#000" stroke-width=".1" d="M5.888 13.082L6.305 13.082 6.305 13.172 5.888 13.172z" transform="translate(-.952)"/>
                <path fill="#FF0" stroke="#000" stroke-width=".1" d="M5.888 13.162L6.305 13.162 6.305 13.252 5.888 13.252z" transform="translate(-.952)"/>
                <path fill="#FF0" stroke="#000" stroke-width=".1" d="M5.888 13.242L6.305 13.242 6.305 13.332 5.888 13.332z" transform="translate(-.952)"/>
                <path fill="#FF0" stroke="#000" stroke-width=".1" d="M5.888 13.322L6.305 13.322 6.305 13.412 5.888 13.412z" transform="translate(-.952)"/>
                <path fill="#FF0" stroke="#000" stroke-width=".1" d="M5.888 13.402L6.305 13.402 6.305 13.492 5.888 13.492zM5.888 12.682L6.305 12.682 6.305 12.772 5.888 12.772zM5.888 12.497L6.305 12.497 6.305 12.587 5.888 12.587zM5.888 12.222L6.305 12.222 6.305 12.312 5.888 12.312z" transform="translate(-.952)"/>
                <path fill="#FF0" stroke="#000" stroke-width=".1" d="M5.888 12.142L6.305 12.142 6.305 12.232 5.888 12.232zM5.888 12.595L6.305 12.595 6.305 12.685 5.888 12.685zM5.888 12.402L6.305 12.402 6.305 12.492 5.888 12.492z" transform="translate(-.952)"/>
                <path fill="#FF0" stroke="#000" stroke-width=".1" d="M5.888 12.322L6.305 12.322 6.305 12.412 5.888 12.412zM8.151 12.759L8.654 12.759 8.654 12.849 8.151 12.849z" transform="translate(-.952)"/>
                <path fill="#FF0" stroke="#000" stroke-width=".1" d="M8.151 12.842L8.654 12.842 8.654 12.932 8.151 12.932z" transform="translate(-.952)"/>
                <path fill="#FF0" stroke="#000" stroke-width=".1" d="M8.151 12.922L8.654 12.922 8.654 13.012 8.151 13.012z" transform="translate(-.952)"/>
                <path fill="#FF0" stroke="#000" stroke-width=".1" d="M8.151 13.002L8.654 13.002 8.654 13.092 8.151 13.092z" transform="translate(-.952)"/>
                <path fill="#FF0" stroke="#000" stroke-width=".1" d="M8.151 13.082L8.654 13.082 8.654 13.172 8.151 13.172z" transform="translate(-.952)"/>
                <path fill="#FF0" stroke="#000" stroke-width=".1" d="M8.151 13.162L8.654 13.162 8.654 13.252 8.151 13.252z" transform="translate(-.952)"/>
                <path fill="#FF0" stroke="#000" stroke-width=".1" d="M8.151 13.242L8.654 13.242 8.654 13.332 8.151 13.332z" transform="translate(-.952)"/>
                <path fill="#FF0" stroke="#000" stroke-width=".1" d="M8.151 13.322L8.654 13.322 8.654 13.412 8.151 13.412z" transform="translate(-.952)"/>
                <path fill="#FF0" stroke="#000" stroke-width=".1" d="M8.151 13.402L8.654 13.402 8.654 13.492 8.151 13.492zM8.151 12.682L8.654 12.682 8.654 12.772 8.151 12.772zM8.151 12.497L8.654 12.497 8.654 12.587 8.151 12.587zM8.151 12.222L8.654 12.222 8.654 12.312 8.151 12.312z" transform="translate(-.952)"/>
                <path fill="#FF0" stroke="#000" stroke-width=".1" d="M8.151 12.142L8.654 12.142 8.654 12.232 8.151 12.232zM8.151 12.595L8.654 12.595 8.654 12.685 8.151 12.685zM8.151 12.402L8.654 12.402 8.654 12.492 8.151 12.492z" transform="translate(-.952)"/>
                <path fill="#FF0" stroke="#000" stroke-width=".1" d="M8.151 12.322L8.654 12.322 8.654 12.412 8.151 12.412zM16.01 12.759L15.594 12.759 15.594 12.849 16.01 12.849z" transform="translate(-.952)"/>
                <path fill="#FF0" stroke="#000" stroke-width=".1" d="M16.01 12.842L15.594 12.842 15.594 12.932 16.01 12.932z" transform="translate(-.952)"/>
                <path fill="#FF0" stroke="#000" stroke-width=".1" d="M16.01 12.922L15.594 12.922 15.594 13.012 16.01 13.012z" transform="translate(-.952)"/>
                <path fill="#FF0" stroke="#000" stroke-width=".1" d="M16.01 13.002L15.594 13.002 15.594 13.092 16.01 13.092z" transform="translate(-.952)"/>
                <path fill="#FF0" stroke="#000" stroke-width=".1" d="M16.01 13.082L15.594 13.082 15.594 13.172 16.01 13.172z" transform="translate(-.952)"/>
                <path fill="#FF0" stroke="#000" stroke-width=".1" d="M16.01 13.162L15.594 13.162 15.594 13.252 16.01 13.252z" transform="translate(-.952)"/>
                <path fill="#FF0" stroke="#000" stroke-width=".1" d="M16.01 13.242L15.594 13.242 15.594 13.332 16.01 13.332z" transform="translate(-.952)"/>
                <path fill="#FF0" stroke="#000" stroke-width=".1" d="M16.01 13.322L15.594 13.322 15.594 13.412 16.01 13.412z" transform="translate(-.952)"/>
                <path fill="#FF0" stroke="#000" stroke-width=".1" d="M16.01 13.402L15.594 13.402 15.594 13.492 16.01 13.492zM16.01 12.682L15.594 12.682 15.594 12.772 16.01 12.772zM16.01 12.497L15.594 12.497 15.594 12.587 16.01 12.587zM16.01 12.222L15.594 12.222 15.594 12.312 16.01 12.312z" transform="translate(-.952)"/>
                <path fill="#FF0" stroke="#000" stroke-width=".1" d="M16.01 12.142L15.594 12.142 15.594 12.232 16.01 12.232zM16.01 12.595L15.594 12.595 15.594 12.685 16.01 12.685zM16.01 12.402L15.594 12.402 15.594 12.492 16.01 12.492z" transform="translate(-.952)"/>
                <path fill="#FF0" stroke="#000" stroke-width=".1" d="M16.01 12.322L15.594 12.322 15.594 12.412 16.01 12.412zM13.747 12.759L13.244 12.759 13.244 12.849 13.747 12.849z" transform="translate(-.952)"/>
                <path fill="#FF0" stroke="#000" stroke-width=".1" d="M13.747 12.842L13.244 12.842 13.244 12.932 13.747 12.932z" transform="translate(-.952)"/>
                <path fill="#FF0" stroke="#000" stroke-width=".1" d="M13.747 12.922L13.244 12.922 13.244 13.012 13.747 13.012z" transform="translate(-.952)"/>
                <path fill="#FF0" stroke="#000" stroke-width=".1" d="M13.747 13.002L13.244 13.002 13.244 13.092 13.747 13.092z" transform="translate(-.952)"/>
                <path fill="#FF0" stroke="#000" stroke-width=".1" d="M13.747 13.082L13.244 13.082 13.244 13.172 13.747 13.172z" transform="translate(-.952)"/>
                <path fill="#FF0" stroke="#000" stroke-width=".1" d="M13.747 13.162L13.244 13.162 13.244 13.252 13.747 13.252z" transform="translate(-.952)"/>
                <path fill="#FF0" stroke="#000" stroke-width=".1" d="M13.747 13.242L13.244 13.242 13.244 13.332 13.747 13.332z" transform="translate(-.952)"/>
                <path fill="#FF0" stroke="#000" stroke-width=".1" d="M13.747 13.322L13.244 13.322 13.244 13.412 13.747 13.412z" transform="translate(-.952)"/>
                <path fill="#FF0" stroke="#000" stroke-width=".1" d="M13.747 13.402L13.244 13.402 13.244 13.492 13.747 13.492zM13.747 12.682L13.244 12.682 13.244 12.772 13.747 12.772zM13.747 12.497L13.244 12.497 13.244 12.587 13.747 12.587zM13.747 12.222L13.244 12.222 13.244 12.312 13.747 12.312z" transform="translate(-.952)"/>
                <path fill="#FF0" stroke="#000" stroke-width=".1" d="M13.747 12.142L13.244 12.142 13.244 12.232 13.747 12.232zM13.747 12.595L13.244 12.595 13.244 12.685 13.747 12.685zM13.747 12.402L13.244 12.402 13.244 12.492 13.747 12.492z" transform="translate(-.952)"/>
                <path fill="#FF0" stroke="#000" stroke-width=".1" d="M13.747 12.322L13.244 12.322 13.244 12.412 13.747 12.412zM10.631 12.759L11.263 12.759 11.263 12.849 10.631 12.849z" transform="translate(-.952)"/>
                <path fill="#FF0" stroke="#000" stroke-width=".1" d="M10.631 12.842L11.263 12.842 11.263 12.932 10.631 12.932z" transform="translate(-.952)"/>
                <path fill="#FF0" stroke="#000" stroke-width=".1" d="M10.631 12.922L11.263 12.922 11.263 13.012 10.631 13.012z" transform="translate(-.952)"/>
                <path fill="#FF0" stroke="#000" stroke-width=".1" d="M10.631 13.002L11.263 13.002 11.263 13.092 10.631 13.092z" transform="translate(-.952)"/>
                <path fill="#FF0" stroke="#000" stroke-width=".1" d="M10.631 13.082L11.263 13.082 11.263 13.172 10.631 13.172z" transform="translate(-.952)"/>
                <path fill="#FF0" stroke="#000" stroke-width=".1" d="M10.631 13.162L11.263 13.162 11.263 13.252 10.631 13.252z" transform="translate(-.952)"/>
                <path fill="#FF0" stroke="#000" stroke-width=".1" d="M10.631 13.242L11.263 13.242 11.263 13.332 10.631 13.332z" transform="translate(-.952)"/>
                <path fill="#FF0" stroke="#000" stroke-width=".1" d="M10.631 13.322L11.263 13.322 11.263 13.412 10.631 13.412z" transform="translate(-.952)"/>
                <path fill="#FF0" stroke="#000" stroke-width=".1" d="M10.631 13.402L11.263 13.402 11.263 13.492 10.631 13.492zM10.631 12.682L11.263 12.682 11.263 12.772 10.631 12.772zM10.631 12.497L11.263 12.497 11.263 12.587 10.631 12.587zM10.631 12.222L11.263 12.222 11.263 12.312 10.631 12.312z" transform="translate(-.952)"/>
                <path fill="#FF0" stroke="#000" stroke-width=".1" d="M10.631 12.142L11.263 12.142 11.263 12.232 10.631 12.232zM10.631 12.595L11.263 12.595 11.263 12.685 10.631 12.685zM10.631 12.402L11.263 12.402 11.263 12.492 10.631 12.492z" transform="translate(-.952)"/>
                <path fill="#FF0" stroke="#000" stroke-width=".1" d="M10.631 12.322L11.263 12.322 11.263 12.412 10.631 12.412z" transform="translate(-.952)"/>
            </g>
        </g>
    </g>
</svg>
