<svg width="29" height="34" viewBox="0 0 29 34" fill="none" xmlns="http://www.w3.org/2000/svg">
<path fill-rule="evenodd" clip-rule="evenodd" d="M21.7804 0.175903L28.8239 7.21038C28.9379 7.31622 29.0019 7.46525 29 7.62072V31.7372C28.9935 32.9843 27.9829 33.9936 26.7343 34H4.26565C3.01703 33.9936 2.00642 32.9843 2 31.7372V28.7241C2 28.4004 2.26279 28.1379 2.58696 28.1379C2.91112 28.1379 3.17391 28.4004 3.17391 28.7241V31.7372C3.17391 32.3394 3.6627 32.8276 4.26565 32.8276H26.7343C27.3373 32.8276 27.826 32.3394 27.826 31.7372V8.20693H21.3695C21.0454 8.20693 20.7826 7.94447 20.7826 7.62072V1.17245H4.26565C3.6627 1.17245 3.17391 1.66062 3.17391 2.2628V13.4828C3.17391 13.8065 2.91112 14.069 2.58696 14.069C2.26279 14.069 2 13.8065 2 13.4828V2.2628C2.00642 1.01578 3.01703 0.00645255 4.26565 4.10107e-05H21.3695C21.5252 -0.00185425 21.6744 0.0620167 21.7804 0.175903ZM27 7L22 2V7H27Z" fill="#0E9729"/>
<path fill-rule="evenodd" clip-rule="evenodd" d="M25 16.944V25.056C25.0032 25.5725 24.801 26.0689 24.4386 26.4341C24.0763 26.7994 23.5839 27.0032 23.0714 27H1.9286C1.41614 27.0032 0.923748 26.7994 0.561377 26.4341C0.199006 26.0689 -0.00315573 25.5725 3.72562e-05 25.056V16.944C-0.00315573 16.4275 0.199006 15.9311 0.561377 15.5659C0.923748 15.2006 1.41614 14.9968 1.9286 15H23.0714C23.5839 14.9968 24.0763 15.2006 24.4386 15.5659C24.801 15.9311 25.0032 16.4275 25 16.944ZM6.50368 23.0418C5.9076 23.0474 5.33549 22.8344 4.9231 22.4534C4.47573 22.0656 4.23039 21.5308 4.2457 20.9768C4.22526 20.4316 4.47227 19.9053 4.9231 19.5334C5.33445 19.1877 5.87405 18.9864 6.44096 18.9672C6.77591 18.9566 7.10956 19.0096 7.41942 19.1226C7.74989 19.2557 8.04809 19.4443 8.29752 19.6778L9 19.0005C8.37112 18.3563 7.45299 17.9906 6.49114 18.0013C5.55683 17.9772 4.65147 18.2897 3.98227 18.8673C2.67258 20.0607 2.67258 21.9595 3.98227 23.1529C4.64995 23.7302 5.55876 24.0358 6.49114 23.9966C7.45669 24.0003 8.3748 23.6265 9 22.9752L8.28497 22.3313C8.03491 22.5514 7.74699 22.735 7.43196 22.8753C7.13834 22.9855 6.82261 23.0421 6.50368 23.0418ZM14.3448 23.531C13.8679 23.8584 13.2776 24.0235 12.6784 23.9973C11.6867 24.002 10.7298 23.6687 10 23.0646L10.6789 22.3207C11.2257 22.7916 11.9465 23.0644 12.7031 23.0868C12.9993 23.1015 13.2931 23.0315 13.5425 22.887C13.7422 22.7652 13.8587 22.5599 13.851 22.3429C13.8599 22.1344 13.7478 21.9368 13.5548 21.821C13.247 21.6559 12.9081 21.543 12.555 21.4879C12.1915 21.4094 11.833 21.313 11.4812 21.1993C11.2429 21.1239 11.0214 21.0111 10.827 20.8662C10.4317 20.5785 10.2193 20.1341 10.2592 19.6781C10.2272 19.1904 10.4738 18.7216 10.9134 18.4345C11.3806 18.1352 11.9447 17.983 12.518 18.0015C12.9374 17.9997 13.3544 18.0597 13.7523 18.1792C14.1355 18.292 14.4914 18.4691 14.8015 18.701L14.2213 19.4338C13.9949 19.2598 13.7298 19.1311 13.4437 19.0563C13.1347 18.9565 12.8093 18.9039 12.481 18.9009C12.2087 18.8963 11.9402 18.9577 11.7033 19.0785C11.5065 19.1911 11.3931 19.3909 11.4071 19.6004C11.3943 19.8157 11.5064 20.0216 11.7033 20.1445C12.1126 20.3312 12.5488 20.4658 12.9994 20.5442C13.5418 20.6381 14.0529 20.8432 14.4929 21.1437C14.8313 21.4311 15.0157 21.8357 14.9989 22.2541C15.0048 22.7395 14.7583 23.1995 14.3324 23.4976L14.3448 23.531ZM17.4069 24H18.5585L21 18H19.8484L18.0058 22.4798L16.1516 18H15L17.4069 24Z" fill="#0E9729"/>
</svg>
