<?xml version="1.0" encoding="UTF-8"?>
<svg width="157px" height="100px" viewBox="0 0 157 100" version="1.1" xmlns="http://www.w3.org/2000/svg" xmlns:xlink="http://www.w3.org/1999/xlink">
    <!-- Generator: sketchtool 55.2 (78181) - https://sketchapp.com -->
    <title>21364566-EDCC-4D16-AB3A-B04990A50F26</title>
    <desc>Created with sketchtool.</desc>
    <defs>
        <polygon id="path-1" points="0 0 156.122449 0 156.122449 100 0 100"></polygon>
    </defs>
    <g id="Overview" stroke="none" stroke-width="1" fill="none" fill-rule="evenodd">
        <g id="04_Lead_Collection_Overview_DeleteConfirmation" transform="translate(-672.000000, -320.000000)">
            <g id="Popup" transform="translate(410.000000, 275.000000)">
                <g id="Group-13" transform="translate(262.000000, 45.000000)">
                    <g id="Group-3-Copy-2" opacity="0.104306176" transform="translate(-0.000000, 0.000000)">
                        <mask id="mask-2" fill="white">
                            <use xlink:href="#path-1"></use>
                        </mask>
                        <g id="Clip-2"></g>
                        <path d="M76.234807,10.8660292 C70.644885,10.1888479 65.416566,8.10882562 60.1402532,6.34997216 C54.2718175,4.40341675 48.2851971,2.84090042 42.2175874,1.67181581 C35.7535792,0.423499485 29.0897971,-0.390027054 22.6091412,0.191712594 C16.1284852,0.773452243 9.80545869,2.86559405 5.67199702,6.69083523 C-1.33059097,13.1793532 -0.739667932,23.0143892 1.57288089,31.6829159 C4.31752343,41.9678911 9.06305538,52.1347004 16.8305437,60.894124 C22.3511748,67.1205562 29.2789225,72.5107376 36.1448783,77.8615304 C40.0265227,80.8808198 43.9438626,83.9213184 48.477922,86.2952404 C52.6953728,88.5010032 57.3522663,90.0826079 61.9761641,91.6414883 C66.913521,93.30793 71.8628764,94.9834614 76.9607125,96.2575318 C93.2320933,100.32365 110.361362,100.196394 127.109681,99.8343217 C133.003914,99.7085811 139.165111,99.5010334 144.109967,97.1755897 C147.962965,95.3576533 150.709108,92.4125964 152.789337,89.2721112 C155.511482,85.1575152 157.230258,80.2475719 155.29686,75.6587975 C152.447231,68.8900143 142.680503,64.9026738 139.429077,58.236907 C135.262469,49.6835162 143.355415,40.6423125 141.065364,31.738969 C140.112838,28.0349235 137.426837,24.6868907 134.580208,21.5645849 C127.790592,14.1201353 118.766118,7.33923255 106.637347,8.33000789 C96.3680349,9.16625863 87.0019047,12.1719135 76.234807,10.8660292" id="Fill-1" fill="#6EB1F4" mask="url(#mask-2)"></path>
                    </g>
                    <g id="Group-12" transform="translate(46.000000, 0.000000)" fill-rule="nonzero">
                        <path d="M49.5150602,74.4292812 C48.2148143,76.0500276 46.5708076,77.3617351 44.7018072,78.2696426 C44.87249,78.4744619 45.0431727,78.6963495 45.2138554,78.9353053 C45.5920937,79.6461039 45.6480071,80.4848052 45.3674699,81.2395222 C45.2906248,81.4242972 45.1871154,81.5968129 45.060241,81.7515703 C49.6345382,83.3901246 52.1435743,83.6632169 52.5873494,82.5708475 C52.7053398,82.1111136 52.6114146,81.6227023 52.3313253,81.2395222 L51.8704819,80.4714499 C56.7861446,81.5296828 60.0803213,81.8369117 61.753012,81.3931366 C62.2650602,81.290727 62.5722892,81.102976 62.6746988,80.8298836 L62.7259036,80.4714499 L49.4126506,74.4292812 L49.5150602,74.4292812 Z M8.7560241,16.2094017 C10.2064084,14.121867 12.0933737,12.374677 14.2861446,11.0889197 C19.0142985,8.05930085 24.8872213,7.41517384 30.1596386,9.34795589 C25.687751,5.49052617 20.9086345,4.09092777 15.8222892,5.14916071 C13.5150183,5.57166643 11.3294758,6.49833642 9.42168675,7.86301613 C5.56425703,10.4232571 2.93574297,13.1371125 1.53614458,16.0045824 C0.914704107,17.042232 0.579036461,18.2259022 0.563253012,19.4353053 C0.768072289,21.7565904 2.81626506,24.6240603 6.70783133,28.0377149 C7.75233096,25.6429947 9.09421079,23.3893248 10.7018072,21.3298836 L8.7560241,23.0708475 C7.3564257,24.0266707 6.36646586,23.9925342 5.78614458,22.9684378 C5.81463861,22.3439227 5.91778188,21.7250631 6.09337349,21.1250643 C6.68029789,19.3406711 7.58208699,17.6758297 8.7560241,16.2094017 L8.7560241,16.2094017 Z M27.8554217,34.6431366 C27.0572172,34.4159119 26.2223947,34.3463434 25.3975904,34.4383173 C24.7148594,34.540727 24.3222892,35.1551848 24.2198795,36.2816908 C24.1197339,37.4613659 24.6442041,38.6074303 25.6024096,39.3027752 C26.3925607,40.0497046 27.3628943,40.5789775 28.4186747,40.8389197 C29.5278607,40.9439443 30.6465782,40.8041046 31.6957831,40.4292812 C32.9837365,40.0970491 33.9502152,39.0298956 34.1536145,37.7154258 C34.1536145,36.4523736 32.9588353,35.6501647 30.5692771,35.3087993 C32.003012,35.854984 32.2931727,36.5206467 31.439759,37.3057872 C30.829497,37.9574471 29.977129,38.3280418 29.0843373,38.3298836 C28.3431567,38.1525842 27.7002672,37.6933774 27.2921687,37.0497631 C26.8285853,36.5571781 26.6540859,35.8591804 26.8313253,35.2063896 C26.9966141,34.8036293 27.4340401,34.5849163 27.8554217,34.6943414 L27.8554217,34.6431366 Z M24.7831325,26.9624137 C24.6124498,26.3479559 24.3564257,26.0065904 24.0150602,25.9383173 C23.5713563,25.894572 23.1335277,26.0658962 22.8373494,26.3991607 C22.3784835,26.9055323 22.0606529,27.5235361 21.9156627,28.1913294 C21.7297375,28.8091711 21.7297375,29.468066 21.9156627,30.0859077 C22.0180723,30.666229 22.2570281,31.0075944 22.6325301,31.1100041 C23.0080321,31.2124137 23.4176707,31.041731 23.8614458,30.5979559 C24.261701,30.1057432 24.5421623,29.5272918 24.6807229,28.9081969 C24.8778993,28.2970772 24.9304849,27.6485212 24.8343373,27.0136185 L24.7831325,26.9624137 Z M24.7319277,27.3720523 C24.8199531,27.7250816 24.8199531,28.0943241 24.7319277,28.4473535 C24.6350323,28.8142425 24.4188692,29.1384872 24.1174699,29.3690402 C23.852865,29.5655887 23.5098305,29.6227611 23.1957831,29.5226547 C22.9101076,29.3753397 22.6774355,29.1426676 22.5301205,28.856992 C22.4274256,28.5059141 22.4274256,28.1327688 22.5301205,27.7816908 C22.6119939,27.4066579 22.8089043,27.0665399 23.0933735,26.8087993 C23.3535278,26.6459452 23.6730088,26.6083592 23.9638554,26.7063896 C24.2837882,26.7583345 24.5545589,26.971083 24.6807229,27.2696426 L24.7319277,27.3720523 Z M37.3795181,29.5738595 C37.618475,29.4088028 37.9162752,29.3529653 38.1987952,29.420245 C38.5127526,29.4854151 38.7780627,29.693873 38.9156627,29.9834981 C39.0524427,30.3465442 39.0524427,30.7469579 38.9156627,31.1100041 C38.8283374,31.4566536 38.6518054,31.7744112 38.4036145,32.0316908 C38.1363885,32.2210383 37.8041972,32.2948586 37.4819277,32.2365101 C37.1633339,32.1559253 36.9223504,31.8948599 36.8674699,31.5708475 C36.710553,31.2531158 36.6741677,30.8892636 36.7650602,30.5467511 C36.6935252,30.6928244 36.6418617,30.8478147 36.6114458,31.0075944 C36.4335597,31.6230954 36.3985333,32.2710832 36.5090361,32.9021728 C36.6797189,33.5166306 36.9528112,33.857996 37.3283133,33.9262691 C37.7038153,33.9945422 38.0793173,33.8238595 38.4548193,33.4142209 C39.3678364,32.4414437 39.7499366,31.0849879 39.4789157,29.7786788 C39.3423695,29.1983575 39.1034137,28.856992 38.7620482,28.7545824 C38.3142544,28.6765441 37.8602452,28.8541999 37.5843373,29.2154258 C37.325517,29.5213395 37.1180056,29.8671918 36.9698795,30.2395222 C37.0927514,29.9846483 37.2670985,29.757997 37.4819277,29.5738595 L37.3795181,29.5738595 Z M50.2831325,10.5256667 C49.0200102,9.93903932 47.6257403,9.69195352 46.2379518,9.80879926 C43.8896302,9.78878741 41.559633,10.2234884 39.376506,11.0889197 L39.2740964,11.1401246 C42.0643787,11.4794073 44.7515374,12.4042087 47.1596386,13.85398 C52.4849398,16.9945422 55.3694779,21.7736587 55.813253,28.1913294 L56.0180723,31.0587993 C55.9156627,32.8680362 55.1475904,33.4654258 53.7138554,32.8509679 C53.0209466,32.2201887 52.4934652,31.4289666 52.1777108,30.5467511 L52.996988,34.9503655 C53.0993976,35.7013695 53.1676707,36.4353053 53.2018072,37.1521728 C55.0022427,36.6585613 56.7254955,35.9175626 58.3222892,34.9503655 C61.565261,33.106992 63.0502008,31.0929358 62.7771084,28.9081969 C62.3108033,26.3367435 61.5013639,23.8395368 60.3704819,21.4834981 C57.8785141,16.1240603 54.4819277,12.4885181 50.1807229,10.5768715 L50.2831325,10.5256667 Z" id="Shape" fill="#3389F0"></path>
                        <path d="M34.2048193,84.8238595 C31.9210843,84.8238595 30.5692771,84.106992 30.1596386,82.7756667 L29.7807229,82.7756667 C29.6178661,82.7972576 29.4569378,82.8314977 29.2993976,82.8780764 C28.8692771,84.1377149 27.5174699,84.8238595 25.2439759,84.8238595 C22.826928,84.7844366 20.4220903,84.4718077 18.0753012,83.8919318 C15.3614458,83.2160282 13.9789157,82.427474 13.610241,81.4033776 C13.276125,80.5122184 13.3394954,79.5206574 13.7843373,78.6792812 L13.7843373,78.6178354 C10.8451807,76.9895222 8.97108434,75.2075944 8.19277108,73.3334981 C7.41154121,71.4320319 7.17055614,69.3517638 7.49638554,67.3220523 L10.476506,55.4015703 C11.0670352,53.0992646 11.3697472,50.7326072 11.3777108,48.3557872 L11.3777108,45.3654258 C10.8478956,44.3221097 10.4258337,43.2274939 10.1180723,42.0985583 C9.2389486,39.4106024 8.789644,36.6007206 8.78674699,33.7726547 C8.36373255,34.1605471 7.86516724,34.4568971 7.32228916,34.6431366 C6.73245059,34.8619463 6.07246749,34.7736928 5.56084337,34.4075944 C5.03666433,33.8649016 4.81435961,33.0983337 4.96686747,32.3594017 C5.10763453,30.9116104 5.4847201,29.4966746 6.08313253,28.1708475 C2.20180723,24.7503655 0.215060241,21.9033776 4.97379915e-14,19.4762691 C0.00141573527,18.1708683 0.355229559,16.8900623 1.02409639,15.7690402 C2.45783133,12.8401246 5.12048193,10.0341005 9.08373494,7.43289565 C11.045032,6.03440459 13.2894192,5.08351157 15.6584337,4.64735348 C19.3666294,3.84943446 23.2381396,4.4128937 26.5650602,6.23470288 C25.9749665,5.36621793 25.9749665,4.22547698 26.5650602,3.35699203 C26.6433516,3.24853575 26.7609748,3.17502127 26.8927711,3.15217275 C27.5885475,3.09887142 28.2842881,3.25585904 28.889759,3.60277516 C30.0251017,4.2205633 31.0164154,5.07225534 31.7981928,6.10157035 C31.7640562,5.68510448 31.746988,5.26522496 31.746988,4.84193179 C31.746988,2.23048601 32.5457831,0.602172755 34.1228916,0.00819685117 C34.1838514,-0.00273228372 34.2462691,-0.00273228372 34.3072289,0.00819685117 C35.1258628,0.0860764391 35.8480634,0.576554936 36.2222892,1.30879926 C37.0927711,2.61964263 37.4512048,4.73952215 37.2463855,7.79132938 C37.9446181,7.40526063 38.6663073,7.06322786 39.4072289,6.767233 C41.7421687,5.90699203 43.360241,5.89675107 44.3740964,6.767233 C44.5422116,6.90617446 44.6038672,7.13635562 44.5277108,7.34072697 C44.1601571,8.25147784 43.5640787,9.05212751 42.796988,9.66542577 C43.9004187,9.47972891 45.0166593,9.38043144 46.1355422,9.36843782 C47.601466,9.25164603 49.0726635,9.5162499 50.4060241,10.1365101 C54.7891566,12.0822932 58.3018072,15.840727 60.8415663,21.2889197 C61.9903822,23.6879488 62.8135276,26.2297116 63.2891566,28.8467511 C63.5963855,31.2636185 62.0090361,33.4654258 58.5783133,35.4214499 C57.0682394,36.3349349 55.4471641,37.0508238 53.7548193,37.5515703 C53.9519225,39.1011785 53.861659,40.673846 53.4885542,42.190727 C53.3255744,43.0281919 52.6605322,43.676914 51.8192771,43.8190402 C51.0307229,43.9009679 50.1909639,43.3479559 49.0849398,42.0678354 L48.9825301,42.4262691 C48.6453238,43.4764148 48.2381885,44.5028063 47.7638554,45.4985583 L47.5692771,48.417233 C47.5832317,50.7808135 47.8893693,53.1336012 48.4807229,55.4220523 L51.4506024,67.3015703 C51.7863104,69.3436649 51.548784,71.4388606 50.7644578,73.35398 C50.6335787,73.6608094 50.4759421,73.9555213 50.2933735,74.2347029 L62.9921687,80.0208475 C63.2016356,80.1147484 63.323014,80.3365779 63.2891566,80.5636185 L63.2379518,80.9220523 C63.2407546,80.9561313 63.2407546,80.9903829 63.2379518,81.0244619 C62.9946024,81.5323742 62.4988701,81.8719703 61.9373494,81.9154258 C60.3295181,82.3455462 57.3903614,82.120245 52.976506,81.2292812 C53.2384013,81.7024692 53.2868034,82.2646789 53.1096386,82.7756667 C52.5361446,84.1991607 50.0987952,84.0660282 45.2240964,82.3557872 C44.0832135,83.1308019 42.7923122,83.6576292 41.4349398,83.9021728 C39.0677978,84.4833843 36.6420701,84.792613 34.2048193,84.8238595 L34.2048193,84.8238595 Z M31.0813253,82.2636185 C31.0813253,82.6630161 31.3066265,83.7997631 34.2048193,83.7997631 C36.5648873,83.7805192 38.9150435,83.4919035 41.2096386,82.9395222 C43.4626506,82.3865101 44.3638554,81.8334981 44.7325301,81.4648234 C44.8210234,81.3525381 44.8934087,81.228449 44.9475904,81.0961487 C45.174196,80.4857518 45.1294862,79.8076532 44.8246988,79.2322932 C44.6915663,79.0581969 44.5379518,78.8533776 44.3740964,78.6587993 C43.1935152,77.3746655 41.5979805,76.5478885 39.8680723,76.3238595 L36.8674699,76.3238595 C34.296988,76.7334981 32.5662651,77.8395222 31.6445783,79.6726547 C31.2472925,80.458782 31.0536273,81.3320359 31.0813253,82.2124137 L31.0813253,82.2636185 Z M22.5506024,76.3238595 L19.560241,76.3238595 C17.5797101,76.571081 15.7969557,77.6466885 14.6548193,79.2834981 C14.3689608,79.862588 14.3392382,80.5350607 14.5728916,81.1371125 C14.6650602,81.4238595 15.2283133,82.1612089 18.3108434,82.9497631 C20.582468,83.4934813 22.9082831,83.7786255 25.2439759,83.7997631 C27.0156627,83.7997631 28.05,83.3798836 28.3162651,82.5503655 C28.3125682,82.5129063 28.3125682,82.4751741 28.3162651,82.4377149 C28.3210878,82.4003196 28.3210878,82.3624597 28.3162651,82.3250643 L28.3162651,82.3250643 C28.3562056,81.4206298 28.1622068,80.5211808 27.753012,79.7136185 C26.9337349,77.7883173 25.2439759,76.6822932 22.5506024,76.2624137 L22.5506024,76.3238595 Z M45.8692771,81.5365101 C51.4198795,83.4515703 52.0855422,82.6322932 52.1572289,82.4377149 C52.2035351,82.1225862 52.1224644,81.8019885 51.9319277,81.5467511 L51.4813253,80.727474 C51.3746706,80.5530269 51.3820202,80.3318518 51.5000207,80.1648701 C51.6180211,79.9978883 51.8240497,79.917113 52.0240964,79.9594017 C56.8373494,80.9834981 60.0837349,81.3112089 61.6710843,80.8913294 C61.8250212,80.8582876 61.9733522,80.8030947 62.1114458,80.727474 L49.6686747,75.0642209 C48.5207193,76.425595 47.1321574,77.5642209 45.5722892,78.4232571 L45.7259036,78.6792812 C46.19545,79.5218868 46.2776034,80.526399 45.9512048,81.4341005 L45.8692771,81.5365101 Z M22.6325301,75.2485583 C25.7048193,75.7196426 27.753012,77.040727 28.7771084,79.1708475 C29.1873321,80.0045634 29.4176178,80.9152386 29.453012,81.843739 L29.6783133,81.843739 L30.046988,81.843739 C30.0928019,80.9396901 30.3228047,80.0545279 30.7228916,79.2425342 C31.746988,77.1021728 33.7951807,75.7913294 36.7855422,75.320245 L39.939759,75.320245 C41.7897089,75.5395569 43.5165936,76.3598272 44.8554217,77.6551848 C46.5027425,76.7997556 47.95097,75.6062765 49.1054217,74.1527752 L49.1054217,74.1527752 C49.3962245,73.7867753 49.6372759,73.3838752 49.8222892,72.9545824 C50.5323936,71.2282499 50.7521116,69.339384 50.4572289,67.4961487 L47.4771084,55.6575944 C46.8622552,53.2754777 46.5457745,50.8261922 46.5349398,48.3660282 L46.5963855,47.5160282 C45.3390474,49.5319873 43.4950962,51.1150694 41.3120482,52.0527752 L41.1789157,52.0527752 C40.6694898,52.1156003 40.1922454,51.7915995 40.0626506,51.2949438 C39.9591037,50.5337536 40.1297165,49.7605511 40.5439759,49.1136185 L36.2427711,51.530486 C33.723494,52.6160282 32.1463855,52.7696426 31.3066265,52.0425342 C30.7463311,51.4788127 30.5245107,50.6615798 30.7228916,49.8919318 L27.5789157,49.8100041 C25.7584914,49.7250916 23.9698744,49.3013804 22.3048193,48.5606065 C22.3098542,48.6014156 22.3098542,48.6426889 22.3048193,48.6834981 C22.0419605,49.2907462 21.450629,49.6902945 20.7891566,49.7075944 C19.2120482,49.7075944 17.0716867,47.843739 14.0915663,43.9931366 C13.9996514,44.4854388 13.8447649,44.963866 13.6307229,45.4166306 C13.4156627,45.9389197 13.1084337,46.2359077 12.7090361,46.2871125 C12.6275111,46.2986005 12.544778,46.2986005 12.463253,46.2871125 L12.463253,48.3353053 C12.4525261,50.7988488 12.1360504,53.2515353 11.5210843,55.6371125 L8.55120482,67.5166306 C8.26722401,69.3474832 8.49036389,71.2211498 9.19638554,72.9341005 C9.89277108,74.6238595 11.6849398,76.2624137 14.5012048,77.7985583 L14.5012048,77.7985583 C15.8118994,76.3793031 17.5819696,75.4688776 19.4987952,75.2280764 L22.6325301,75.2485583 Z M21.9668675,47.290727 C22.0730243,47.2899207 22.1768074,47.3221292 22.2638554,47.3828956 C23.9179347,48.2885502 25.7653094,48.783759 27.6506024,48.8268715 L31.3885542,48.980486 C31.5432144,48.9852296 31.6874352,49.0596552 31.7809102,49.1829626 C31.8743851,49.3062699 31.9070881,49.4652333 31.8698795,49.6154258 C31.726506,50.2401246 31.6240964,51.0491607 32.003012,51.3666306 C32.3819277,51.6841005 33.1704819,51.8581969 35.8331325,50.7214499 L41.6295181,47.4033776 C41.8316146,47.2856456 42.0878001,47.319817 42.2519726,47.4864039 C42.4161452,47.6529907 42.4465732,47.9096477 42.3259036,48.1100041 C41.0457831,50.2708475 41.0662651,50.9057872 41.096988,51.0491607 L41.096988,51.0491607 C43.6273304,49.8139003 45.6324257,47.7143621 46.75,45.1298836 L46.75,45.1298836 C47.2164773,44.161302 47.6167917,43.1622268 47.9481928,42.1395222 L48.3578313,40.7877149 C48.4068365,40.598427 48.5593618,40.453571 48.7509241,40.4143878 C48.9424863,40.3752046 49.1396407,40.4485352 49.2590361,40.6033776 C50.8463855,42.743739 51.5222892,42.8359077 51.6656627,42.8359077 C52.1118406,42.7573587 52.453388,42.3949852 52.5054217,41.9449438 C52.8597892,40.4069773 52.9257649,38.8166156 52.7,37.2545824 L52.7,37.2545824 L52.7,37.2545824 C52.7,36.5479559 52.5975904,35.8310884 52.4951807,35.10398 L51.6759036,30.7208475 C51.6221723,30.4380511 51.8078663,30.1652415 52.0906627,30.1115101 C52.3734591,30.0577788 52.6462687,30.2434728 52.7,30.5262691 C52.9663434,31.3091863 53.4239587,32.0132098 54.0313253,32.5744619 C54.3458828,32.7466255 54.7199465,32.77281 55.0554217,32.6461487 C55.3319277,32.4720523 55.5162651,31.9497631 55.5572289,31.1816908 L55.3524096,28.3756667 C54.9222892,22.1286788 52.0957831,17.4280764 46.9548193,14.3967511 C44.6077875,12.9880216 41.9910789,12.0878738 39.2740964,11.7545824 C39.0512963,11.7274053 38.8721662,11.5582964 38.8322219,11.3374278 C38.7922776,11.1165592 38.9008313,10.8954224 39.1,10.7919318 L39.2024096,10.7919318 L39.2024096,10.7919318 C41.3939759,9.76783541 42.8174699,8.65157035 43.4319277,7.45337757 C42.6843373,7.1051848 41.4349398,7.23831733 39.7963855,7.8425342 C38.8140538,8.22039853 37.8680112,8.68656442 36.9698795,9.23530528 C36.8049712,9.33673433 36.5969575,9.33648134 36.4322964,9.23465146 C36.2676353,9.13282159 36.1744866,8.94682935 36.1915663,8.75397998 C36.4578313,5.47687155 36.1915663,3.19313661 35.3518072,1.96422095 C35.1162651,1.60578721 34.7578313,1.17566673 34.3277108,1.12446191 C33.3036145,1.58530528 32.7096386,2.87566673 32.7096386,4.95458239 C32.709232,6.05236451 32.8433644,7.14605902 33.1090361,8.2112089 C33.1754953,8.45735499 33.0507409,8.71489465 32.8163955,8.81532841 C32.58205,8.91576216 32.3095182,8.82848801 32.1771084,8.61060649 C31.2899107,6.97538375 29.9816984,5.60706442 28.3879518,4.64735348 C28.027726,4.45537734 27.6356136,4.33045659 27.2307229,4.27867878 C26.923494,4.94434143 27.3024096,5.90699203 28.346988,7.13590769 L30.4975904,9.08169083 C30.5885518,9.16441036 30.6467129,9.27709743 30.6614458,9.39916071 L30.6614458,9.39916071 C30.665674,9.43659188 30.665674,9.47438013 30.6614458,9.51181131 L30.6614458,9.51181131 C30.653075,9.60046574 30.6212636,9.6852959 30.5692771,9.75759444 L30.4975904,9.83952215 C30.4312557,9.90049562 30.3500069,9.94288634 30.2620482,9.96241372 L30.0981928,9.96241372 L29.9855422,9.96241372 C24.8581498,8.09633208 19.154535,8.72081545 14.5524096,11.6521728 C12.4231856,12.9009108 10.5891179,14.59524 9.17590361,16.6190402 C8.0502307,18.0463936 7.1868398,19.6622175 6.62590361,21.3913294 C6.4796543,21.9030648 6.38361817,22.4278336 6.33915663,22.9581969 C6.4446007,23.1503869 6.62101777,23.2937257 6.83072289,23.3575944 C7.42313903,23.3931184 8.00641758,23.1986922 8.45903614,22.8148234 L10.3433735,21.1148234 C10.5426912,20.9355722 10.846523,20.9403858 11.0400623,21.125861 C11.2336016,21.3113362 11.251334,21.6146883 11.0807229,21.8214499 C9.50720393,23.8281431 8.18964103,26.0229346 7.15843373,28.3551848 L7.15843373,28.3551848 C6.52441172,29.664704 6.12576311,31.0755735 5.98072289,32.5232571 C5.98072289,33.106992 5.98072289,33.5473535 6.21626506,33.680486 C6.48039489,33.7974833 6.7816533,33.7974833 7.04578313,33.680486 C7.83747274,33.3841362 8.50533482,32.8281862 8.94036145,32.1033776 C9.07162188,31.9135277 9.31367085,31.83496 9.53140867,31.9115272 C9.7491465,31.9880943 9.88874578,32.2008679 9.87228916,32.4310884 C9.66173833,35.6075853 10.075766,38.7945547 11.0909639,41.8118113 C11.3808239,42.9045528 11.7894849,43.9622637 12.3096386,44.9660282 L12.3096386,44.9660282 C12.3688011,45.0520223 12.437512,45.1310399 12.5144578,45.2015703 C12.5586313,45.1335527 12.5963457,45.0615524 12.6271084,44.9865101 C13.1622603,44.1735943 13.2132569,43.1340466 12.760241,42.2726547 C12.5962191,42.0407616 12.6512395,41.7198091 12.8831325,41.5557872 C13.1150256,41.3917653 13.4359781,41.4467857 13.6,41.6786788 C17.7783133,47.4136185 19.7445783,48.6425342 20.7686747,48.6630161 C20.9222892,48.6630161 21.1271084,48.6630161 21.3524096,48.2636185 L21.4855422,47.6798836 C21.5383964,47.4455117 21.7470942,47.2794054 21.9873494,47.280486 L21.9668675,47.290727 Z M53.1813253,33.127474 L53.4987952,34.8581969 C53.5807229,35.4112089 53.6319277,35.95398 53.6728916,36.4762691 C55.1947719,35.999645 56.6529065,35.3393576 58.0150602,34.5100041 C61.0873494,32.7792812 62.4698795,30.9154258 62.2240964,28.9696426 C61.7618888,26.4516596 60.9663387,24.0064623 59.8584337,21.6985583 C57.4313253,16.4859077 54.0927711,12.8913294 49.9246988,11.0479559 C48.7382017,10.4972218 47.4289401,10.2643073 46.1253012,10.3720523 C44.4898389,10.3811588 42.8621557,10.5979538 41.2813253,11.017233 C43.420541,11.5226779 45.4713077,12.3478181 47.3644578,13.4648234 C52.8228916,16.680486 55.823494,21.6575944 56.2740964,28.2630161 L56.4789157,31.130486 C56.5508866,32.0313186 56.1662867,32.9082065 55.4548193,33.4654258 C54.8154504,33.8095457 54.0459954,33.8095457 53.4066265,33.4654258 C53.3406182,33.4371245 53.2813017,33.3952541 53.2325301,33.3425342 L53.1813253,33.127474 Z M18.996988,5.32325709 C15.6663522,5.35758268 12.4216346,6.38448232 9.67771084,8.27265468 C5.88855422,10.7919318 3.29759036,13.4545824 1.94578313,16.2298836 C1.36932721,17.1869242 1.05170087,18.2774412 1.02409639,19.3943414 C1.20843373,21.4425342 3.07228916,24.0949438 6.53373494,27.1979559 C7.0935743,26.030486 7.67048193,24.9551848 8.26445783,23.9720523 C7.75602821,24.2527325 7.16435929,24.3434793 6.59518072,24.2280764 C6.06214641,24.0795602 5.62067982,23.7054359 5.38674699,23.20398 C5.34558035,23.1286562 5.32442417,23.0440315 5.3253012,22.9581969 C5.35326645,22.2884357 5.46332613,21.6246382 5.65301205,20.9816908 C6.23855592,19.1280254 7.15068825,17.3939336 8.34638554,15.8612089 C9.83049181,13.7444374 11.7511599,11.9704385 13.9789157,10.6587993 C18.0649261,8.02191857 23.0387091,7.13637857 27.7837349,8.20096794 C25.2156478,6.37043165 22.1504084,5.36654788 18.996988,5.32325709 L18.996988,5.32325709 Z M40.0831325,67.6292812 C39.7102315,67.6281317 39.3376417,67.6076222 38.9668675,67.5678354 L34.4608434,66.3901246 C31.2144578,65.130486 29.9036145,62.7955462 30.610241,59.6413294 C30.7474356,57.7543598 31.3681638,55.9344976 32.4126506,54.356992 C33.9078313,52.370245 36.3246988,51.8377149 39.5813253,52.7901246 C41.1269222,53.247447 42.5820077,53.9680608 43.8825301,54.920245 C44.0307093,55.028178 44.1100509,55.2069648 44.0906678,55.3892581 C44.0712847,55.5715515 43.9561216,55.7296568 43.7885593,55.8040172 C43.6209971,55.8783776 43.4264924,55.8576961 43.2783133,55.7497631 C42.0698854,54.8696737 40.7187723,54.2045104 39.2843373,53.7834981 C36.4475904,52.95398 34.4710843,53.3431366 33.2319277,54.9816908 C32.2951929,56.444366 31.7487111,58.122594 31.6445783,59.8563896 C31.0506024,62.580486 32.0849398,64.4033776 34.8090361,65.4581969 L39.1512048,66.5642209 C40.2872209,66.7922934 41.4674451,66.5760411 42.4487952,65.9600041 C42.9125476,65.546294 43.1895236,64.9627978 43.2168675,64.3419318 C43.1076149,63.2543915 42.9193668,62.1762431 42.6536145,61.1160282 C42.5687755,60.8332318 42.7292518,60.5352044 43.0120482,60.4503655 C43.2948446,60.3655266 43.5928719,60.5260029 43.6777108,60.8087993 C43.957341,61.9328023 44.1524642,63.0761555 44.2614458,64.2292812 C44.2649382,64.2633284 44.2649382,64.2976436 44.2614458,64.3316908 C44.2325073,65.2567893 43.820829,66.1283605 43.1246988,66.7383173 C42.2492761,67.3879985 41.1707342,67.703935 40.0831325,67.6292812 L40.0831325,67.6292812 Z M19.3656627,67.1581969 C18.2859072,67.233555 17.2146832,66.921266 16.3445783,66.277474 C15.6484481,65.6675171 15.2367698,64.7959459 15.2078313,63.8708475 C15.2043389,63.8368002 15.2043389,63.802485 15.2078313,63.7684378 C15.3162394,62.6152363 15.5113698,61.4718402 15.7915663,60.3479559 C15.8764052,60.0651595 16.1744325,59.9046832 16.4572289,59.9895222 C16.7400253,60.0743611 16.9005016,60.3723884 16.8156627,60.6551848 C16.5623745,61.7027627 16.3844096,62.76713 16.2831325,63.8401246 C16.2994325,64.4753894 16.5773636,65.0757205 17.0512048,65.4991607 C18.0584825,66.1268122 19.2697937,66.3397093 20.4307229,66.0931366 L24.7626506,64.9768715 C27.4253012,63.9527752 28.4596386,62.1196426 27.8349398,59.4365101 C27.7424498,57.6875743 27.2029759,55.9915812 26.2680723,54.5106065 C25.0289157,52.8720523 23.0524096,52.4624137 20.2156627,53.3124137 C18.7813021,53.7336171 17.4302206,54.3987649 16.2216867,55.2786788 C15.9926217,55.4455286 15.6716692,55.3950932 15.5048193,55.1660282 C15.3379694,54.9369631 15.3884048,54.6160106 15.6174699,54.4491607 C16.9182055,53.4973274 18.3732278,52.776745 19.9186747,52.3190402 C23.1650602,51.3666306 25.5819277,51.8991607 27.0873494,53.8859077 C28.1142575,55.4863432 28.7136641,57.3233483 28.8283133,59.2214499 C29.5144578,62.293739 28.2036145,64.6594017 25.0289157,65.9087993 L20.5638554,67.0557872 C20.1665318,67.1109272 19.7665807,67.145111 19.3656627,67.1581969 L19.3656627,67.1581969 Z M29.0945783,41.4533841 C28.8407066,41.4538045 28.5872337,41.4332527 28.336747,41.3919318 C27.1798724,41.1324705 26.1126051,40.5705649 25.2439759,39.7636185 C24.1512955,38.955539 23.5608537,37.6348138 23.6873494,36.2816908 C23.8512048,34.9094017 24.3939759,34.1413294 25.2951807,33.9979559 C26.1667089,33.8956334 27.0497793,33.9616899 27.8963855,34.1925342 L28.1114458,34.1925342 L30.6614458,34.806992 L30.6614458,34.806992 C33.2831325,35.1756667 34.6349398,36.1587993 34.6349398,37.7154258 C34.4459466,39.2761969 33.327083,40.5653223 31.8084337,40.9720523 C30.9310047,41.2595303 30.0173534,41.4215741 29.0945783,41.4533841 L29.0945783,41.4533841 Z M26.0222892,34.9503655 C25.8313903,34.9361101 25.6396941,34.9361101 25.4487952,34.9503655 C25.0596386,35.0118113 24.8036145,35.4828956 24.7012048,36.3533776 C24.6236394,37.363153 25.0825767,38.339367 25.9096386,38.9238595 C26.6290465,39.6049143 27.510209,40.091316 28.4698795,40.3371125 C29.5108458,40.4295128 30.5594271,40.2931972 31.5421687,39.9377149 C32.658963,39.6511543 33.4897601,38.7149878 33.6415663,37.5720523 C33.6415663,37.0292812 33.2216867,36.5479559 32.4024096,36.240727 C32.4846958,36.8079279 32.2486391,37.3744638 31.7879518,37.7154258 C31.0659104,38.4571207 30.0679822,38.8651954 29.0331325,38.8419318 C28.1250499,38.6604919 27.3279782,38.1217305 26.8210843,37.3467511 C26.2361151,36.7213676 26.0257439,35.8331337 26.2680723,35.0118113 L26.2680723,34.9606065 L26.0222892,34.9503655 Z M27.5584337,35.1756667 C27.4025609,35.169785 27.262912,35.2713478 27.2204819,35.4214499 C27.0975904,35.7286788 27.2204819,36.1895222 27.6301205,36.7527752 C27.9848651,37.2809469 28.5328212,37.6487027 29.1560241,37.7768715 C29.8908776,37.7395151 30.5819286,37.4160444 31.0813253,36.8756667 C31.3271084,36.6503655 31.3987952,36.4865101 31.3783133,36.4045824 C31.3578313,36.3226547 31.2963855,36.0973535 30.3542169,35.7389197 L27.8144578,35.1551848 L27.6915663,35.1551848 L27.5584337,35.1756667 Z M37.4614458,34.4690402 C37.3435154,34.4689091 37.2262284,34.451661 37.113253,34.4178354 C36.5807229,34.3256667 36.1710843,33.8545824 35.9457831,33.0353053 C35.8253516,32.3130129 35.877998,31.5724535 36.0993976,30.8744619 C36.1378034,30.6865142 36.1997369,30.5041544 36.2837349,30.3316908 L36.2837349,30.3316908 C36.2837349,30.2497631 36.2837349,30.2497631 36.2837349,30.1780764 L36.2837349,30.0859077 C36.4535065,29.6690363 36.6885784,29.2818591 36.9801205,28.9389197 C37.3819155,28.424835 38.0424915,28.1860726 38.6801205,28.3244619 C39.2024096,28.4268715 39.5813253,28.8877149 39.7656627,29.6762691 C40.0759514,31.1435959 39.6561029,32.6703176 38.6391566,33.7726547 C38.3604948,34.1484762 37.9444888,34.398816 37.4819277,34.4690402 L37.4614458,34.4690402 Z M36.9289157,32.5949438 C36.9254999,32.6631742 36.9254999,32.7315327 36.9289157,32.7997631 C36.9289157,32.9533776 37.113253,33.3834981 37.3385542,33.4244619 C37.5638554,33.4654258 37.7481928,33.3425342 37.9939759,33.0660282 C38.117883,32.9494079 38.2278539,32.8188175 38.3216867,32.6768715 C38.0020277,32.8269377 37.6406356,32.8630769 37.2975904,32.7792812 C37.1652693,32.7388489 37.0406541,32.6765413 36.9289157,32.5949438 L36.9289157,32.5949438 Z M37.2463855,30.7106065 C37.1863376,30.9370563 37.2118598,31.177694 37.3180723,31.3865101 C37.4307229,31.7449438 37.5331325,31.7654258 37.5843373,31.7859077 C37.7563848,31.8082031 37.9307343,31.768248 38.0759036,31.6732571 C38.2383156,31.4881713 38.3541796,31.2669763 38.4138554,31.0280764 C38.5114277,30.7707501 38.5114277,30.4866075 38.4138554,30.2292812 C38.341258,30.09674 38.2138206,30.003036 38.0656627,29.9732571 C37.925306,29.9338886 37.7746698,29.9602499 37.6560241,30.0449438 C37.5115593,30.1788496 37.3934582,30.3386335 37.3078313,30.5160282 L37.3078313,30.5160282 L37.3078313,30.5160282 C37.2950194,30.5863713 37.2744103,30.6550681 37.2463855,30.7208475 L37.2463855,30.7106065 Z M32.4126506,33.3630161 C32.3180296,33.3608397 32.2258632,33.3324808 32.1463855,33.2810884 L30.7433735,32.4106065 L30.8253012,32.55398 C30.9197203,32.7320972 30.9008411,32.9490399 30.7770735,33.1081697 C30.6533059,33.2672994 30.4476855,33.338999 30.2518072,33.2913294 L29.3403614,33.0353053 C28.8049953,32.860962 28.2340692,32.8257196 27.6813253,32.9328956 C27.3985289,33.0149066 27.1027941,32.8521378 27.0207832,32.5693414 C26.9387722,32.286545 27.101541,31.9908102 27.3843373,31.9087993 C28.0560536,31.7353629 28.7608139,31.7353629 29.4325301,31.9087993 L29.2584337,31.5913294 C29.0130032,31.5008775 28.7514292,31.4625133 28.4903614,31.4786788 C28.3074242,31.4969725 28.1286237,31.4162808 28.0213123,31.2669994 C27.9140008,31.117718 27.8944816,30.9225263 27.9701074,30.7549512 C28.0457332,30.587376 28.2050146,30.4728761 28.3879518,30.4545824 C28.8710159,30.4206202 29.355267,30.5013287 29.8012048,30.6901246 L29.8012048,30.6901246 C30.302906,30.8850306 30.7890484,31.1178312 31.2554217,31.3865101 L32.7608434,32.3184378 C32.9498615,32.4404097 33.0371356,32.6714628 32.9759573,32.8879396 C32.9147791,33.1044165 32.7194784,33.2556115 32.4945783,33.2606065 L32.4126506,33.3630161 Z M22.8168675,31.5708559 C22.6695633,31.5714113 22.5235294,31.5435954 22.386747,31.4889197 C22.0692771,31.4889197 21.536747,31.140727 21.3626506,30.1268715 C21.1768615,29.4292685 21.1982124,28.6926625 21.4240964,28.006992 C21.5779349,27.2455753 21.9313625,26.5387201 22.4481928,25.9587993 C22.862549,25.4941968 23.479632,25.264228 24.096988,25.3443414 C24.65,25.456992 25.0391566,25.9178354 25.2644578,26.7371125 C25.3853594,27.4627866 25.3327186,28.2067758 25.1108434,28.9081969 C24.9791413,29.6328299 24.6733875,30.3146258 24.2198795,30.8949438 C23.8594455,31.2961876 23.3552903,31.5390653 22.8168675,31.5708559 Z M22.2638554,29.3895222 C22.2735436,29.5599789 22.3045066,29.7285555 22.3560241,29.8913294 C22.4174699,30.1883173 22.4993976,30.4853053 22.673494,30.5160282 C22.8475904,30.5467511 23.0933735,30.5160282 23.4518072,30.1473535 L23.523494,30.0654258 C23.384168,30.0842635 23.2429404,30.0842635 23.1036145,30.0654258 L23.0012048,30.0654258 C22.7024304,29.9244998 22.4475667,29.7050338 22.2638554,29.430486 L22.2638554,29.3895222 Z M23.3493976,29.0413294 C23.5071208,29.0615038 23.6654442,29.0087294 23.7795181,28.8979559 C23.9963786,28.7381014 24.1547004,28.5114134 24.2301205,28.2527752 C24.2865759,27.9959989 24.2830714,27.7296638 24.2198795,27.4744619 C24.155389,27.3491115 24.0323002,27.2644879 23.8921687,27.2491607 L23.789759,27.2491607 C23.6601858,27.2228043 23.5254476,27.2446537 23.4108434,27.3106065 C23.2313947,27.4945562 23.1072032,27.7251975 23.0524096,27.9762691 C22.9904171,28.2181433 22.9904171,28.4717444 23.0524096,28.7136185 C23.1239077,28.8563305 23.2251809,28.9820491 23.3493976,29.0822932 L23.3493976,29.0413294 Z" id="Shape" fill="#000000"></path>
                    </g>
                </g>
            </g>
        </g>
    </g>
</svg>