<svg xmlns="http://www.w3.org/2000/svg" xmlns:xlink="http://www.w3.org/1999/xlink" width="41" height="35" viewBox="0 0 41 35">
    <defs>
        <path id="prefix__a" d="M0 0.138L14.954 0.138 14.954 22.881 0 22.881z"/>
        <path id="prefix__c" d="M0.117 0.105L16.954 0.105 16.954 22 0.117 22z"/>
    </defs>
    <g fill="none" fill-rule="evenodd">
        <mask id="prefix__b" fill="#fff">
            <use xlink:href="#prefix__a"/>
        </mask>
        <path fill="#2A4975" d="M5.942 16.539c2.242-2.505 3.972-4.706 5.192-6.605 1.219-1.898 2.057-3.5 2.514-4.807.457-1.306.685-2.309.685-3.01 0-.78-.163-1.171-.49-1.171-.761 0-1.686.848-2.775 2.545C9.98 5.187 8.957 7.227 8 9.61c-.958 2.383-1.643 4.693-2.057 6.928m-4.669 4.443c.392 0 .817-.167 1.274-.504.457-.337.881-.734 1.273-1.192.392-.458.713-.869.963-1.232.25-.364.376-.586.376-.667.108-.727.26-1.521.457-2.383-.13-.485-.436-.727-.914-.727-.501 0-1.067.37-1.698 1.11-.632.742-1.181 1.583-1.649 2.525-.468.943-.702 1.71-.702 2.303 0 .458.207.714.62.767m5.975 1.899c-.827 0-1.415-.343-1.763-1.03-.348-.687-.522-1.515-.522-2.484l.033-.445c-.458.593-1.04 1.212-1.747 1.859-.708.646-1.367.969-1.976.969-.457 0-.783-.128-.98-.384-.195-.255-.293-.599-.293-1.03 0-.78.261-1.717.784-2.808.522-1.09 1.147-2.04 1.877-2.847.729-.808 1.409-1.212 2.04-1.212.48 0 .86.175 1.143.525.544-1.993 1.274-4.046 2.188-6.16C8.946 5.72 9.926 3.908 10.97 2.4 12.015.892 12.973.138 13.844.138c.304 0 .565.169.783.505.218.337.327.842.327 1.515 0 .888-.267 2.06-.8 3.514-.534 1.455-1.47 3.192-2.808 5.211-1.339 2.02-3.205 4.323-5.6 6.908-.087.54-.13 1.064-.13 1.576 0 .754.114 1.4.343 1.939.228.539.658.808 1.29.808.718 0 1.496-.35 2.334-1.05.838-.7 1.583-1.435 2.236-2.202.653-.768 1.11-1.327 1.372-1.677.065-.107.108-.161.13-.161.066-.108.142-.162.229-.162.065 0 .13.04.196.121.065.108.098.216.098.323 0 .081-.022.162-.066.243-.043.08-.277.39-.702.929-.424.539-.958 1.145-1.6 1.818-.642.673-1.338 1.272-2.09 1.797-.75.525-1.463.788-2.138.788" mask="url(#prefix__b)"/>
        <path fill="#2A4975" d="M15.71 12.31c.557-1.276.836-2.087.836-2.433 0-.08-.022-.12-.067-.12-.066 0-.183.094-.35.28-.168.186-.319.419-.452.698-.134.279-.201.592-.201.937 0 .266.078.478.234.638m.77 9.69c-.447 0-.76-.106-.937-.319-.179-.212-.268-.505-.268-.877 0-.505.128-1.097.385-1.775.256-.678.53-1.362.82-2.054.58-1.196.87-2.06.87-2.592 0-.239-.09-.418-.268-.538-.179-.12-.39-.232-.636-.339-.156-.053-.313-.12-.468-.2-.424.798-.86 1.556-1.305 2.274-.447.718-.815 1.263-1.104 1.635-.067.08-.146.12-.235.12-.088 0-.167-.04-.234-.12-.067-.08-.1-.173-.1-.28 0-.08.033-.159.1-.239.246-.319.58-.81 1.004-1.475.424-.664.847-1.409 1.272-2.233v-.04c-.38-.213-.57-.638-.57-1.276 0-.664.196-1.276.586-1.835.39-.558.753-.837 1.087-.837.513 0 .748.28.703.837 0 .4-.095.858-.284 1.376-.19.519-.385.99-.586 1.416.09.053.179.093.268.12.356.133.686.312.987.538.301.226.452.592.452 1.096 0 .4-.112.885-.335 1.456-.223.572-.468 1.176-.736 1.814-.268.585-.502 1.144-.703 1.675-.2.532-.3.957-.3 1.276 0 .373.178.572.534.599.647 0 1.49-.565 2.527-1.695 1.037-1.13 1.834-2.147 2.392-3.05.089-.107.178-.16.268-.16.066 0 .133.026.2.08.09.106.134.212.134.318 0 .08-.022.16-.067.24-.29.452-.753 1.076-1.388 1.874-.636.797-1.328 1.529-2.075 2.193-.747.665-1.41.997-1.99.997"/>
        <path fill="#2A4975" d="M22.303 20c-.402 0-.73-.132-.985-.397-.212-.264-.318-.613-.318-1.046 0-1.01.509-2.189 1.526-3.536.318-.41.779-.848 1.383-1.317.604-.47 1.32-.704 2.146-.704.318 0 .55.084.7.252.084.073.126.17.126.29 0 .071-.015.138-.047.198s-.09.102-.175.126c-.043 0-.085-.006-.127-.018-.043-.012-.085-.03-.127-.054-.043-.024-.09-.048-.143-.072-.054-.024-.123-.036-.207-.036-1.017 0-2.046.613-3.084 1.84-.403.505-.731 1.034-.986 1.587-.254.554-.381 1.035-.381 1.444 0 .24.053.42.159.54.106.145.286.217.54.217.424 0 .89-.27 1.4-.811.508-.542.995-1.149 1.462-1.823.466-.673.847-1.25 1.144-1.732.106-.144.233-.216.382-.216.084 0 .159.012.222.036.191.12.286.289.286.505 0 .049-.01.097-.031.145-.043.12-.085.252-.128.396v.073c-.127.457-.249.92-.365 1.389-.117.469-.175.884-.175 1.245 0 .24.042.433.127.577.021.049.064.096.127.144.064.049.17.072.318.072.466 0 .99-.21 1.574-.63.583-.422 1.129-.885 1.637-1.39.509-.505.89-.914 1.145-1.227.084-.096.18-.144.286-.144.063 0 .116.024.159.072.084.096.127.193.127.289 0 .096-.032.18-.095.252l-.032.036c-.127.169-.45.523-.97 1.065-.52.54-1.134 1.07-1.844 1.587-.71.518-1.372.776-1.987.776-.403 0-.72-.156-.953-.47-.17-.288-.255-.624-.255-1.01 0-.697.148-1.49.445-2.38-.7 1.082-1.388 1.996-2.066 2.741-.679.746-1.325 1.119-1.94 1.119"/>
        <g transform="translate(24 13)">
            <mask id="prefix__d" fill="#fff">
                <use xlink:href="#prefix__c"/>
            </mask>
            <path fill="#2A4975" d="M2.266 21.245c.77 0 1.507-.391 2.212-1.172.706-.782 1.369-1.762 1.989-2.94.62-1.18 1.18-2.399 1.683-3.657.503-1.258.936-2.403 1.3-3.436-2.267 1.324-4.036 2.556-5.308 3.695-1.272 1.139-2.16 2.166-2.662 3.08-.502.913-.754 1.688-.754 2.324 0 .689.172 1.212.514 1.57.342.357.684.536 1.026.536m0 .755c-.556 0-1.053-.252-1.492-.755-.438-.504-.657-1.18-.657-2.027 0-1.166.337-2.258 1.01-3.278.674-1.02 1.508-1.954 2.502-2.801.994-.848 1.999-1.596 3.014-2.245 1.015-.649 1.897-1.185 2.646-1.61.192-.105.374-.211.545-.318l1.764-5.125c-1.732 2.994-3.079 4.49-4.04 4.49-.407 0-.7-.152-.883-.457-.181-.304-.272-.696-.272-1.172 0-.795.214-1.71.641-2.742.427-1.033.983-1.934 1.668-2.702C9.396.49 10.133.105 10.924.105c.364 0 .642.126.834.378.193.252.289.563.289.934 0 .106-.032.198-.096.278-.064.08-.14.119-.225.119h-.032c-.085 0-.155-.04-.208-.12-.054-.079-.08-.171-.08-.277 0-.318-.16-.49-.482-.517-.662 0-1.293.358-1.892 1.073-.598.715-1.085 1.524-1.459 2.424-.374.9-.561 1.656-.561 2.265 0 .53.182.821.545.874.45 0 .946-.37 1.491-1.113.546-.74 1.053-1.51 1.524-2.304.32-.503.598-.927.834-1.272.235-.344.416-.516.545-.516.128 0 .25.06.369.178.117.12.176.285.176.497 0 .054-.07.285-.209.695-.139.411-.3.901-.48 1.47-.183.57-.37 1.12-.562 1.65-.15.45-.278.828-.385 1.132-.107.305-.16.471-.16.497 1.111-.662 2.165-1.397 3.159-2.205.994-.808 1.844-1.729 2.55-2.762.064-.08.138-.12.224-.12.043 0 .08.008.112.02.032.014.059.034.08.06.085.08.129.186.129.318 0 .08-.022.16-.065.238-.812 1.193-1.79 2.233-2.934 3.12-1.144.888-2.357 1.702-3.64 2.444-.813 2.304-1.635 4.397-2.47 6.278-.833 1.88-1.71 3.377-2.629 4.49C4.297 21.444 3.313 22 2.266 22" mask="url(#prefix__d)"/>
        </g>
    </g>
</svg>
