<?xml version="1.0" encoding="UTF-8"?>
<svg xmlns="http://www.w3.org/2000/svg" xmlns:xlink="http://www.w3.org/1999/xlink" width="480pt" height="480pt" viewBox="0 0 480 480" version="1.1">
<g id="surface8605934">
<path style=" stroke:none;fill-rule:nonzero;fill:rgb(0%,63.921569%,20.784314%);fill-opacity:1;" d="M 240 465 C 115.800781 465 15 364.199219 15 240 C 15 115.800781 115.800781 15 240 15 C 364.199219 15 465 115.800781 465 240 C 465 364.199219 364.199219 465 240 465 Z M 240 465 "/>
<path style=" stroke:none;fill-rule:nonzero;fill:rgb(36.862745%,61.176471%,46.27451%);fill-opacity:1;" d="M 240 18 C 362.398438 18 462 117.601562 462 240 C 462 362.398438 362.398438 462 240 462 C 117.601562 462 18 362.398438 18 240 C 18 117.601562 117.601562 18 240 18 M 240 12 C 114 12 12 114 12 240 C 12 366 114 468 240 468 C 366 468 468 366 468 240 C 468 114 366 12 240 12 Z M 240 12 "/>
<path style=" stroke:none;fill-rule:nonzero;fill:rgb(100%,100%,100%);fill-opacity:1;" d="M 204 336 L 121.199219 253.199219 L 147 228 L 204 285.601562 L 349.199219 140.398438 L 375 165.601562 Z M 204 336 "/>
</g>
</svg>
