<?xml version="1.0" encoding="UTF-8"?>
<svg width="234px" height="220px" viewBox="0 0 234 220" version="1.1" xmlns="http://www.w3.org/2000/svg" xmlns:xlink="http://www.w3.org/1999/xlink">
    <!-- Generator: sketchtool 55.2 (78181) - https://sketchapp.com -->
    <title>45506029-9919-40DE-9247-F52A08A672BE</title>
    <desc>Created with sketchtool.</desc>
    <g id="Lead-Collection---V1.0" stroke="none" stroke-width="1" fill="none" fill-rule="evenodd">
        <g id="Lead_Collection_Error" transform="translate(-604.000000, -269.000000)">
            <g id="Group-3" transform="translate(604.000000, 269.000000)">
                <path d="M0.0721958327,117.660333 C0.0721958327,117.660333 1.41900105,159.44065 36.3323362,187.290362 C71.2456714,215.140074 119.63857,217.135089 158.811033,219.785526 C197.983495,222.435963 228.067901,200.278079 232.597541,166.794032 C237.12718,133.309985 207.238465,123.484395 190.967446,85.360646 C174.696428,47.2368968 176.158344,34.7206244 141.814811,11.2806417 C107.471278,-12.159341 53.6969146,2.23121006 25.5176055,42.3959683 C-2.66170364,82.5607265 0.0721958327,117.660333 0.0721958327,117.660333 Z" id="Path" fill="#ECFAFF" fill-rule="nonzero"></path>
                <g id="Floor--inject-2" transform="translate(2.009132, 184.840183)" stroke="#263238" stroke-width="1.11330402">
                    <path d="M5.02283105,0.502283105 L0,0.502283105" id="Path"></path>
                    <path d="M220,0.502283105 L14.0639269,0.502283105" id="Path"></path>
                </g>
                <g id="yarn-ball--inject-2" transform="translate(14.063927, 165.753425)">
                    <ellipse id="Oval" fill="#263238" fill-rule="nonzero" cx="112.009132" cy="37.1689498" rx="17.5799087" ry="5.02283105"></ellipse>
                    <path d="M21.1794027,48.2191781 C2.97825267,48.2191781 0.290950408,45.6289815 0.0262482582,43.5375536 C-0.0956226772,42.6545156 0.211316038,41.7664472 0.854881075,41.1400631 C5.75762524,36.0730265 34.0117026,38.2154648 73.1070592,41.1797379 C78.5622253,41.5934892 84.2015319,42.0185762 89.9846985,42.4436632 C129.488617,45.3342545 145.393764,44.960178 148.679523,41.0493779 C149.347033,40.2502144 149.485138,39.252677 149.116857,37.9037344 C147.551662,32.2642473 126.628683,32.2359082 118.704882,32.6779986 C118.327581,32.6973995 118.004502,32.4145382 117.979828,32.0432021 C117.968846,31.8648159 118.030806,31.6895207 118.151887,31.5564194 C118.272967,31.423318 118.443095,31.3434833 118.62432,31.3347238 C121.656886,31.1590212 148.299733,29.8384177 150.434613,37.5693326 C150.923737,39.3490301 150.699316,40.7716544 149.732577,41.927891 C146.04401,46.3374598 130.944479,46.8078894 89.8868738,43.8039415 C84.0979528,43.3788545 78.4586462,42.9537675 73.0034801,42.5400162 C35.7380209,39.7061031 6.29853833,37.4786474 1.84463694,42.0865901 C1.48735527,42.4206042 1.31589078,42.9040375 1.38428538,43.3845223 C1.55116282,44.7221293 4.83692211,47.7147415 31.3071371,46.6718615 C46.1131943,46.1050789 60.9883043,44.5010841 61.1379185,44.4840806 C61.4973994,44.469777 61.8068161,44.7319124 61.8462138,45.084143 C61.8856116,45.4363735 61.6415534,45.7585677 61.2875328,45.8216876 C61.1379185,45.8216876 46.2167734,47.4313502 31.3646811,48.0151363 C27.5437631,48.1511642 24.1601791,48.2191781 21.1794027,48.2191781 Z" id="Path" stroke="#263238" stroke-width="1.11330402" fill="#FFFFFF" fill-rule="nonzero"></path>
                    <circle id="Oval" fill="#FFFFFF" fill-rule="nonzero" cx="104.977169" cy="20.5936073" r="20.5936073"></circle>
                    <g id="Group" transform="translate(85.388128, 0.000000)">
                        <path d="M20.462037,41.550239 C28.0593944,41.5552262 35.035155,37.310378 38.5835811,30.5230211 C42.1320072,23.7356642 41.6698973,15.5213341 37.3831177,9.18393695 C37.1600203,18.2002627 32.2347159,31.5109026 6.61855657,36.0884218 C10.3894498,39.602512 15.3320688,41.552575 20.462037,41.550239 Z" id="Path" fill="#2C87F3" fill-rule="nonzero"></path>
                        <path d="M20.462037,41.550239 C28.0593944,41.5552262 35.035155,37.310378 38.5835811,30.5230211 C42.1320072,23.7356642 41.6698973,15.5213341 37.3831177,9.18393695 C37.1600203,18.2002627 32.2347159,31.5109026 6.61855657,36.0884218 C10.3894498,39.602512 15.3320688,41.552575 20.462037,41.550239 Z" id="Path" fill="#FFFFFF" fill-rule="nonzero" opacity="0.3"></path>
                        <path d="M30.5414637,28.9678364 C26.8884954,25.3771889 22.4525655,22.7027131 17.5903729,21.1594671 C22.4525655,22.7027131 26.8884954,25.3771889 30.5414637,28.9678364 L31.6283486,28.9678364 C34.0393095,26.5529045 36.1156157,23.8193335 37.8007103,20.8415838 C28.2075216,10.5999625 18.8774734,11.6460874 18.8774734,11.6460874 C18.8774734,11.6460874 28.2361238,10.5999625 37.8293125,20.8531432 C38.3555936,19.8994933 38.796068,19.0036405 39.1564561,18.1771439 C35.1635845,12.5246012 28.2876078,8.669544 24.5979198,8.0915744 L23.7398529,7.88350535 C22.4174341,7.64059354 21.0642872,7.62106265 19.7355403,7.82570839 C21.0642872,7.62106265 22.4174341,7.64059354 23.7398529,7.88350535 L26.1824835,0.947870144 C25.028205,0.614529323 23.8471516,0.384381742 22.652968,0.26008632 C21.0684044,2.84361043 16.989726,11.0970163 16.989726,27.4708951 C16.989726,11.0970163 21.0684044,2.84361043 22.652968,0.26008632 C21.9665145,0.196509664 21.2800609,0.156051792 20.576446,0.156051792 C19.8022227,0.158373366 19.0287412,0.204684049 18.2596651,0.294764496 C15.8456367,3.98221055 11.2292364,12.6922124 10.9203323,25.7658848 C15.708346,27.5286921 22.1152461,28.8464628 30.5414637,28.9678364 Z M35.1693049,24.754438 C27.0119482,16.7206605 18.0079655,16.2987427 18.0079655,16.2987427 C18.0079655,16.2987427 27.0119482,16.7206605 35.1693049,24.754438 L35.1693049,24.754438 Z" id="Shape" stroke="#263238" stroke-width="1.11330402" stroke-linecap="round" stroke-linejoin="round"></path>
                        <path d="M10.8974505,25.800563 C11.2063546,12.7268906 15.8227549,4.01688872 18.2367834,0.329442672 C16.3479493,0.543552943 14.497772,1.022073 12.7394343,1.75124789 C8.403996,8.17741381 5.95490722,15.7109779 5.6746829,23.4829049 C7.35450469,24.3890105 9.10053089,25.163828 10.8974505,25.800563 Z" id="Path" stroke="#263238" stroke-width="1.11330402" stroke-linecap="round" stroke-linejoin="round"></path>
                        <path d="M12.7394343,1.7339088 C5.52320341,4.73989488 0.619078713,11.6212293 0.0858066971,19.4891349 C1.77017255,21.0539258 3.6489031,22.3906242 5.6746829,23.4655658 C5.95490722,15.6936388 8.403996,8.16007473 12.7394343,1.7339088 L12.7394343,1.7339088 Z" id="Path" stroke="#263238" stroke-width="1.11330402" stroke-linecap="round" stroke-linejoin="round"></path>
                        <path d="M39.1278539,18.1771439 C39.5736819,17.1818437 39.9558303,16.1586614 40.2719432,15.113905 C39.4167631,12.1661201 37.9261883,9.4462165 35.9072425,7.14948396 L34.3226788,12.4899231 L35.8786403,7.14948396 C34.6151883,5.71737168 33.1617737,4.46868734 31.5597032,3.43891912 L29.814967,10.0335523 L31.5711441,3.4678176 C29.896231,2.38542416 28.0728767,1.55777946 26.1596017,1.0114468 L23.7169711,7.947082 C27.4581431,8.49037343 33.2415145,10.7155564 39.1278539,18.1771439 Z" id="Path" stroke="#263238" stroke-width="1.11330402" stroke-linecap="round" stroke-linejoin="round"></path>
                        <path d="M41.0556443,21.8299118 C41.0556443,21.5293676 41.0556443,21.2519422 41.0556443,20.9282792 C41.0556443,18.9604777 40.7782033,17.0027092 40.2319001,15.113905 C39.9157872,16.1586614 39.5336387,17.1818437 39.0878108,18.1771439 L39.0878108,18.1771439 L39.0878108,18.1771439 C38.8423806,18.7879146 38.5517208,19.3791193 38.2183029,19.9457309 C38.2526256,19.9804091 37.7263445,20.818465 37.7606672,20.8531432 C37.7949899,20.8878214 37.1886225,21.8934885 37.1886225,21.8588103 C35.8271563,24.3036217 31.7198757,28.9851755 31.7885211,28.9851755 C31.7198757,28.9851755 29.5689878,30.9560518 28.3962963,31.9501595 L28.3962963,31.9501595 C26.2513079,33.7452291 23.9779087,35.3776255 21.5946854,36.8340026 L21.743417,36.8340026 L21.5946854,36.8340026 C19.250895,38.2652016 16.8270944,39.5581617 14.3354389,40.7063989 C16.3363159,41.3425356 18.4216418,41.6658286 20.5192415,41.6658286 C20.8681887,41.6658286 21.2114155,41.6658286 21.5489219,41.6658286 C25.7420091,39.3597298 32.4063293,34.1002064 41.0556443,21.8299118 Z" id="Path" stroke="#263238" stroke-width="1.11330402" stroke-linecap="round" stroke-linejoin="round"></path>
                        <path d="M41.0556443,21.8299118 C32.4063293,34.1002064 25.7420091,39.3597298 21.5832445,41.6138112 C32.1509796,41.0762657 40.5824386,32.5099288 41.0556443,21.8299118 L41.0556443,21.8299118 Z" id="Path" stroke="#263238" stroke-width="1.11330402" stroke-linecap="round" stroke-linejoin="round"></path>
                        <path d="M4.51343227,33.8516795 C7.05164824,37.0754567 10.4831015,39.4619079 14.3697615,40.7063989 C16.8614171,39.5581617 19.2852177,38.2652016 21.6290081,36.8340026 C16.7437468,37.7471946 9.10123034,35.4815538 4.51343227,33.8516795 Z" id="Path" stroke="#263238" stroke-width="1.11330402" stroke-linecap="round" stroke-linejoin="round"></path>
                        <path d="M21.6290081,36.8340026 C24.0122314,35.3776255 26.2856306,33.7452291 28.430619,31.9501595 C13.6775875,33.4759992 4.57635718,28.8580221 0.709335363,26.2340402 C1.4391669,29.0129418 2.73480341,31.6074319 4.51343227,33.8516795 C9.10123034,35.4815538 16.7437468,37.7471946 21.6290081,36.8340026 Z" id="Path" stroke="#263238" stroke-width="1.11330402" stroke-linecap="round" stroke-linejoin="round"></path>
                        <path d="M28.430619,31.9501595 C29.6033105,30.9560518 30.6615931,29.9619441 31.6283486,28.9793958 L30.5414637,28.9793958 C30.62155,29.0545318 30.7016362,29.1296679 30.776002,29.2105836 C30.7016362,29.1296679 30.62155,29.0545318 30.5414637,28.9793958 C22.1152461,28.8580221 15.708346,27.5402515 10.8974505,25.8121223 L10.8974505,25.8121223 C3.86702182,23.3499719 1.33286403,20.7028711 0.0858066971,19.5180334 C0.0514840183,19.9919685 0.0286022324,20.4601239 0.0286022324,20.9398386 C0.0292159362,22.7306128 0.258007446,24.5138565 0.709335363,26.2455995 C4.57635718,28.8580221 13.6775875,33.4759992 28.430619,31.9501595 Z" id="Path" stroke="#263238" stroke-width="1.11330402" stroke-linecap="round" stroke-linejoin="round"></path>
                    </g>
                    <circle id="Oval" stroke="#263238" stroke-width="1.11330402" stroke-linecap="round" stroke-linejoin="round" cx="104.977169" cy="20.5936073" r="20.5936073"></circle>
                </g>
                <g id="Plants--inject-2" transform="translate(127.579909, 107.488584)">
                    <path d="M30.1332746,43.2274546 C30.1332746,43.2274546 28.7246403,38.6168599 24.6194775,36.9582057 C21.7447137,35.7983077 18.4847315,36.1114802 15.5237247,36.6276348 C10.0156772,37.5961497 5.20907208,39.8057554 0,41.6905897 C0,41.6905897 2.23081674,40.8612626 11.3783153,45.361667 C14.7475385,47.0145217 18.599722,48.3020085 22.4519056,48.2150161 C25.5394019,48.1454223 30.2885118,47.2523008 30.1332746,43.2274546 Z" id="Path" fill="#2C87F3" fill-rule="nonzero"></path>
                    <path d="M30.1369863,30.0097993 C30.1369863,30.0097993 30.1369863,25.1518386 26.7206478,22.3583653 C24.3405986,20.4105155 21.1406282,19.7398487 18.1798015,19.3724399 C12.6794964,18.6901092 7.49804966,19.4074312 2.00913242,19.6931936 C2.00913242,19.6931936 4.36071211,19.5532283 11.757085,26.5631549 C14.4844619,29.1408484 17.7755347,31.508594 21.4367108,32.5525015 C24.3861498,33.392293 29.1348603,33.9288265 30.1369863,30.0097993 Z" id="Path" fill="#2C87F3" fill-rule="nonzero"></path>
                    <path d="M39.8006726,47.8531325 C39.8006726,47.8531325 36.175555,44.838796 36.1643836,40.3896122 C36.1643836,37.2942762 37.5999078,34.3377964 39.1248032,31.7631712 C41.9623376,26.9610612 45.6600693,23.2813721 49.2237443,19.086758 C49.2237443,19.086758 47.6820918,20.8687458 48.4305752,31.0804616 C48.7098601,34.8411501 48.4752608,38.9200508 47.0173938,42.4898121 C45.8723258,45.3595067 43.375519,49.4731214 39.8006726,47.8531325 Z" id="Path" fill="#2C87F3" fill-rule="nonzero"></path>
                    <path d="M53.2760333,55.6718989 C53.2760333,55.6718989 52.7463389,50.8832144 55.8669299,47.7216403 C58.031768,45.5270678 61.1696317,44.4847906 64.0887085,43.7783583 C69.535349,42.4581405 74.8207781,42.5565778 80.3652968,42.1917808 C80.3652968,42.1917808 77.993187,42.3249607 71.3604917,50.1072969 C68.9192913,53.0025113 65.8850635,55.6950606 62.3096262,57.1600391 C59.4596399,58.3354961 54.7499656,59.4183063 53.2760333,55.6718989 Z" id="Path" fill="#2C87F3" fill-rule="nonzero"></path>
                    <path d="M52.3067464,38.173516 C52.3067464,38.173516 47.4051092,37.5320578 45.0523234,33.7911644 C43.412503,31.1912719 43.1689065,27.9442445 43.1986133,24.9810483 C43.2580271,19.4633724 44.6958407,14.4282094 45.7355819,9.04109589 C45.7355819,9.04109589 45.266213,11.3458041 51.3383017,19.5485218 C53.57226,22.5741609 55.4972666,26.1277258 56.0914044,29.8970022 C56.5132423,32.9226414 56.4003561,37.6853266 52.3067464,38.173516 Z" id="Path" fill="#2C87F3" fill-rule="nonzero"></path>
                    <path d="M65.8786726,30.1899804 C65.8786726,30.1899804 69.3248265,33.591853 73.7647278,33.1025425 C76.8505755,32.7472099 79.6284195,30.9006455 82.0110891,29.0249555 C86.4509905,25.5298809 89.6763115,21.2542397 93.4246575,17.0776256 C93.4246575,17.0776256 91.8381483,18.877589 81.5578008,19.3028231 C77.7745864,19.4601014 73.7356709,20.1765917 70.347631,22.110533 C67.6279008,23.6367155 63.8330636,26.706556 65.8786726,30.1899804 Z" id="Path" fill="#2C87F3" fill-rule="nonzero"></path>
                    <path d="M61.9460324,27.0975081 C61.9460324,27.0975081 66.8131876,27.5731041 69.9874193,24.4387549 C72.1976251,22.2555977 73.2204331,19.1269787 73.9081833,16.2103723 C75.1896324,10.7839946 75.036799,5.51805886 75.3424658,0 C75.3424658,0 75.236658,2.36078946 67.4010083,9.04205283 C64.520687,11.5002535 61.7873208,14.5486515 60.3471601,18.1184861 C59.1773969,20.9892519 58.1251979,25.6879105 61.9460324,27.0975081 Z" id="Path" fill="#2C87F3" fill-rule="nonzero"></path>
                    <polyline id="Path" stroke="#263238" stroke-width="1.11330402" stroke-linecap="round" stroke-linejoin="round" points="45.2054795 72.3287671 36.8074495 52.2960912 27.1232877 29.1324201"></polyline>
                    <polyline id="Path" stroke="#263238" stroke-width="1.11330402" stroke-linecap="round" stroke-linejoin="round" points="47.2146119 69.3150685 55.4341898 41.3764035 64.2922374 24.109589"></polyline>
                    <path d="M50.2283105,58.2648402 L58.2648402,53.2420091" id="Path" stroke="#263238" stroke-width="1.11330402" stroke-linecap="round" stroke-linejoin="round"></path>
                    <path d="M55.2511416,41.1872146 L51.2328767,32.1461187" id="Path" stroke="#263238" stroke-width="1.11330402" stroke-linecap="round" stroke-linejoin="round"></path>
                    <path d="M60.2739726,32.1461187 L70.3196347,28.1278539" id="Path" stroke="#263238" stroke-width="1.11330402" stroke-linecap="round" stroke-linejoin="round"></path>
                    <path d="M39.1780822,56.2557078 L42.1917808,42.1917808" id="Path" stroke="#263238" stroke-width="1.11330402" stroke-linecap="round" stroke-linejoin="round"></path>
                    <path d="M34.1552511,46.2100457 L26.1187215,42.1917808" id="Path" stroke="#263238" stroke-width="1.11330402" stroke-linecap="round" stroke-linejoin="round"></path>
                    <path d="M49.1206699,83.3789954 L42.2948552,83.3789954 C39.9929737,83.3780557 38.0168161,81.7025089 37.5877917,79.3879649 L35.1598174,66.3013699 L56.2557078,66.3013699 L53.8334598,79.3879649 C53.4019499,81.7034174 51.4238882,83.3785409 49.1206699,83.3789954 Z" id="Path" stroke="#263238" stroke-width="1.11330402" fill="#263238" fill-rule="nonzero" stroke-linecap="round" stroke-linejoin="round"></path>
                </g>
                <path d="M82.8269236,163.744292 C69.9826528,163.744292 62.262242,152.220301 59.5214385,142.085023 L59.4291167,141.729092 C59.0314552,140.390767 59.3889978,138.939679 60.3611355,137.946492 C61.3332731,136.953305 62.7645004,136.576892 64.0919656,136.965281 C65.4194307,137.353671 66.4307893,138.444736 66.7283092,139.8094 L66.7975506,140.071972 C68.8805612,147.785752 74.552582,156.602335 83.6520497,156.094696 C87.112455,155.973418 90.359211,154.372101 92.5841841,151.689322 C97.5753316,145.901069 99.8083652,133.31512 99.3121355,126.966714 C99.1842353,125.857343 99.6658602,124.76594 100.567791,124.121291 C101.469722,123.476642 102.647856,123.381744 103.639331,123.873881 C104.630806,124.366017 105.277213,125.366558 105.324593,126.482414 C105.901604,133.548517 105.139949,148.736846 98.2677451,156.701529 C94.711696,160.935539 89.5676434,163.474054 84.079038,163.703448 C83.6578198,163.732622 83.2366016,163.744292 82.8269236,163.744292 Z" id="Path" fill="#FFFFFF" fill-rule="nonzero"></path>
                <g id="Group" transform="translate(68.310502, 123.561644)" fill-rule="nonzero">
                    <path d="M32.841512,0.00981317414 C31.2171897,0.143039143 30.0067299,1.57994585 30.1367176,3.2206075 C30.3738812,6.24890553 29.9729617,10.725768 28.9339593,15.1969274 C30.4179416,15.1335714 31.9017471,15.3264399 33.3214859,15.7672283 C32.9855528,20.057836 31.4936491,24.1738345 29.0073671,27.6694091 C23.5243705,35.3627689 15.302699,37.8207659 8.90492854,36.8968784 C6.04202507,36.4862617 2.76126192,34.9692612 0,33.4123396 C3.74663415,37.1024374 8.77071372,39.1709651 14.003946,39.1780822 C14.4048654,39.1780822 14.8170783,39.1780822 15.2292912,39.1438641 C20.6005547,38.9196567 25.6346317,36.4385359 29.1146554,32.3002528 C35.8399375,24.5156449 36.5627218,9.67071121 36.0206336,2.76436675 C35.9644475,1.97184582 35.5969047,1.23489447 34.999813,0.717543684 C34.4027214,0.200192902 33.6256327,-0.054622949 32.841512,0.00981317414 Z" id="Path" fill="#2C87F3"></path>
                    <path d="M32.841512,0.00981317414 C31.2171897,0.143039143 30.0067299,1.57994585 30.1367176,3.2206075 C30.3738812,6.24890553 29.9729617,10.725768 28.9339593,15.1969274 C30.4179416,15.1335714 31.9017471,15.3264399 33.3214859,15.7672283 C32.9855528,20.057836 31.4936491,24.1738345 29.0073671,27.6694091 C23.5243705,35.3627689 15.302699,37.8207659 8.90492854,36.8968784 C6.04202507,36.4862617 2.76126192,34.9692612 0,33.4123396 C3.74663415,37.1024374 8.77071372,39.1709651 14.003946,39.1780822 C14.4048654,39.1780822 14.8170783,39.1780822 15.2292912,39.1438641 C20.6005547,38.9196567 25.6346317,36.4385359 29.1146554,32.3002528 C35.8399375,24.5156449 36.5627218,9.67071121 36.0206336,2.76436675 C35.9644475,1.97184582 35.5969047,1.23489447 34.999813,0.717543684 C34.4027214,0.200192902 33.6256327,-0.054622949 32.841512,0.00981317414 Z" id="Path" fill="#FFFFFF" opacity="0.5"></path>
                </g>
                <path d="M82.8269236,163.744292 C69.9826528,163.744292 62.262242,152.220301 59.5214385,142.085023 L59.4291167,141.729092 C59.0314552,140.390767 59.3889978,138.939679 60.3611355,137.946492 C61.3332731,136.953305 62.7645004,136.576892 64.0919656,136.965281 C65.4194307,137.353671 66.4307893,138.444736 66.7283092,139.8094 L66.7975506,140.071972 C68.8805612,147.785752 74.552582,156.602335 83.6520497,156.094696 C87.112455,155.973418 90.359211,154.372101 92.5841841,151.689322 C97.5753316,145.901069 99.8083652,133.31512 99.3121355,126.966714 C99.1842353,125.857343 99.6658602,124.76594 100.567791,124.121291 C101.469722,123.476642 102.647856,123.381744 103.639331,123.873881 C104.630806,124.366017 105.277213,125.366558 105.324593,126.482414 C105.901604,133.548517 105.139949,148.736846 98.2677451,156.701529 C94.711696,160.935539 89.5676434,163.474054 84.079038,163.703448 C83.6578198,163.732622 83.2366016,163.744292 82.8269236,163.744292 Z" id="Path" stroke="#263238" stroke-width="1.11330402" stroke-linecap="round" stroke-linejoin="round"></path>
                <path d="M75.3228041,156.105077 C75.6337514,154.8487 72.1957308,156.81275 69.3150685,158.64347 C70.380644,159.430544 71.527682,160.129262 72.7413552,160.730594 C73.7680678,159.269094 75.0235907,157.315301 75.3228041,156.105077 Z" id="Path" stroke="#263238" stroke-width="1.11330402" fill="#2C87F3" fill-rule="nonzero" stroke-linecap="round" stroke-linejoin="round"></path>
                <path d="M82.6833433,163.744292 C83.0780226,163.744292 83.4838197,163.744292 83.8896168,163.70696 C85.0706442,163.632913 86.244003,163.447736 87.3972603,163.15339 C85.8630137,160.91423 83.7506452,157.953564 83.144729,157.729648 C82.449871,157.468413 81.1101846,161.281204 80.3652968,163.595002 C81.1347097,163.695381 81.9087185,163.745226 82.6833433,163.744292 L82.6833433,163.744292 Z" id="Path" stroke="#263238" stroke-width="1.11330402" fill="#2C87F3" fill-rule="nonzero" stroke-linecap="round" stroke-linejoin="round"></path>
                <path d="M67.1542023,139.819007 L67.0816806,139.561202 C66.7700654,138.221314 65.7107929,137.150056 64.3204381,136.768717 C62.9300832,136.387379 61.4310504,136.756959 60.412857,137.732115 C59.3946635,138.707271 59.0201821,140.132014 59.4366831,141.446043 L59.5333787,141.795512 C60.5410848,145.290256 62.0888682,148.624375 64.1264207,151.689498 L71.3242009,148.441154 C69.4367332,145.807647 68.0272833,142.893381 67.1542023,139.819007 Z" id="Path" stroke="#263238" stroke-width="1.11330402" fill="#2C87F3" fill-rule="nonzero" stroke-linecap="round" stroke-linejoin="round"></path>
                <path d="M98.0144572,156.342921 C98.5324361,155.722769 99.0125647,155.069857 99.4520548,154.387977 C97.312638,153.632924 94.1091726,152.591068 92.9206077,152.702277 C91.5113093,152.836899 93.4243328,157.519399 94.4091437,159.726027 C95.7347921,158.748115 96.9448449,157.612642 98.0144572,156.342921 Z" id="Path" stroke="#263238" stroke-width="1.11330402" fill="#2C87F3" fill-rule="nonzero" stroke-linecap="round" stroke-linejoin="round"></path>
                <path d="M98.4609459,144.465485 C98.2276214,144.971989 101.080014,147.225931 103.004941,148.675799 C103.615521,146.703618 104.106552,144.690184 104.474886,142.648402 C102.14164,143.154906 98.6884373,143.971643 98.4609459,144.465485 Z" id="Path" stroke="#263238" stroke-width="1.11330402" fill="#2C87F3" fill-rule="nonzero" stroke-linecap="round" stroke-linejoin="round"></path>
                <path d="M105.297775,135.607818 C105.415331,134.191773 105.474109,132.840319 105.479452,131.598174 C103.64131,132.537235 101.461187,133.839003 101.461187,134.693599 C101.461187,135.548195 103.50238,135.652535 105.297775,135.607818 Z" id="Path" stroke="#263238" stroke-width="1.11330402" fill="#2C87F3" fill-rule="nonzero" stroke-linecap="round" stroke-linejoin="round"></path>
                <path d="M74.7477579,91.1420759 C74.7477579,91.1420759 69.2319014,107.418496 72.2028519,120.083079 C73.9865886,127.595403 79.1113475,133.827779 86.0578201,136.932531 C86.0578201,136.932531 77.9970576,139.826632 79.809167,144.277758 C81.6212764,148.728884 88.5686425,145.863725 90.8351994,144.422463 C93.1017563,142.981201 95.9477338,138.663203 96.3453753,135.78068 C96.5980821,134.307946 96.6933153,132.811632 96.629405,131.317977 C96.629405,131.317977 105.814925,130.31083 112.035175,125.124602 C112.035175,125.124602 117.551032,129.587305 121.510406,128.724863 C125.469779,127.862421 131.12197,120.656111 130.553911,114.179115 C129.985852,107.702118 126.321869,107.707906 124.083715,108.6919 C122.92188,109.139536 121.862423,109.825075 120.970749,110.706194 C120.970749,110.706194 124.220049,106.654454 120.970749,101.057264 C119.027528,97.730568 115.690238,95.499852 111.921563,95.0085939 C111.921563,95.0085939 110.217385,85.7879902 105.138934,82.3324344 C100.060484,78.8768786 81.9564314,75.2997706 74.7477579,91.1420759 Z" id="Path" fill="#FFFFFF" fill-rule="nonzero"></path>
                <g id="Group" transform="translate(70.319635, 79.360731)">
                    <path d="M46.9555719,17.3654653 C41.4484488,26.4155007 31.8434337,32.2879384 21.1670497,33.1323836 C9.52517237,34.1402615 2.99866538,31.8812248 0,30.3114838 C0.363840516,24.0094021 1.54952833,17.7796617 3.52784162,11.7757973 C10.9892266,-4.07800705 29.7161859,-0.475132986 34.9844294,2.98293103 C40.2526729,6.44099504 42.0048342,15.6682915 42.0048342,15.6682915 C43.7578045,15.885008 45.4447199,16.4633034 46.9555719,17.3654653 L46.9555719,17.3654653 Z M54.5521909,29.3267755 C53.3496268,29.7747359 52.2530283,30.4607723 51.3300956,31.3425314 C52.0422201,30.3754171 52.5116944,29.2558868 52.7000741,28.0756166 C44.7918291,31.956526 45.4092014,40.2396609 44.4272855,40.2396609 C43.2160598,40.2396609 42.6163268,36.0749238 42.6163268,36.0749238 C42.6163268,36.0749238 41.1052346,42.0237207 32.0328019,46.1942502 C22.9603692,50.3647796 12.7002298,47.0862801 12.7002298,47.0862801 C12.7002298,47.0862801 14.8169348,51.8476346 9.37817897,51.2510171 C7.85186594,51.1072416 6.38835806,50.5807863 5.12712982,49.721823 C7.73519054,53.1472926 11.199013,55.8492534 15.1814784,57.5647354 C15.1814784,57.5647354 6.838133,60.4609364 8.7137688,64.9152935 C10.5894046,69.3696507 17.7862015,66.5024117 20.1263364,65.0601036 C22.4664714,63.6177955 25.4180989,59.2966636 25.8296804,56.4120474 C26.0912462,54.9382446 26.189818,53.4408451 26.1236672,51.9461054 C26.1236672,51.9461054 35.6312004,50.9382274 42.0695113,45.7482352 C42.0695113,45.7482352 47.778735,50.2141772 51.876911,49.3511093 C55.975087,48.4880414 61.8254244,41.2765009 61.2374508,34.794803 C60.6494772,28.3131051 56.8688069,28.3420671 54.5521909,29.3267755 Z" id="Shape" fill="#2C87F3" fill-rule="nonzero"></path>
                    <path d="M46.9555719,17.3654653 C41.4484488,26.4155007 31.8434337,32.2879384 21.1670497,33.1323836 C9.52517237,34.1402615 2.99866538,31.8812248 0,30.3114838 C0.363840516,24.0094021 1.54952833,17.7796617 3.52784162,11.7757973 C10.9892266,-4.07800705 29.7161859,-0.475132986 34.9844294,2.98293103 C40.2526729,6.44099504 42.0048342,15.6682915 42.0048342,15.6682915 C43.7578045,15.885008 45.4447199,16.4633034 46.9555719,17.3654653 L46.9555719,17.3654653 Z M54.5521909,29.3267755 C53.3496268,29.7747359 52.2530283,30.4607723 51.3300956,31.3425314 C52.0422201,30.3754171 52.5116944,29.2558868 52.7000741,28.0756166 C44.7918291,31.956526 45.4092014,40.2396609 44.4272855,40.2396609 C43.2160598,40.2396609 42.6163268,36.0749238 42.6163268,36.0749238 C42.6163268,36.0749238 41.1052346,42.0237207 32.0328019,46.1942502 C22.9603692,50.3647796 12.7002298,47.0862801 12.7002298,47.0862801 C12.7002298,47.0862801 14.8169348,51.8476346 9.37817897,51.2510171 C7.85186594,51.1072416 6.38835806,50.5807863 5.12712982,49.721823 C7.73519054,53.1472926 11.199013,55.8492534 15.1814784,57.5647354 C15.1814784,57.5647354 6.838133,60.4609364 8.7137688,64.9152935 C10.5894046,69.3696507 17.7862015,66.5024117 20.1263364,65.0601036 C22.4664714,63.6177955 25.4180989,59.2966636 25.8296804,56.4120474 C26.0912462,54.9382446 26.189818,53.4408451 26.1236672,51.9461054 C26.1236672,51.9461054 35.6312004,50.9382274 42.0695113,45.7482352 C42.0695113,45.7482352 47.778735,50.2141772 51.876911,49.3511093 C55.975087,48.4880414 61.8254244,41.2765009 61.2374508,34.794803 C60.6494772,28.3131051 56.8688069,28.3420671 54.5521909,29.3267755 Z" id="Shape" fill="#FFFFFF" fill-rule="nonzero" opacity="0.5"></path>
                    <path d="M26.1187215,51.2260947 C19.9084463,51.3836411 13.9722513,48.7890605 10.0456621,44.2009132" id="Path" stroke="#263238" stroke-width="1.11330402" stroke-linecap="round" stroke-linejoin="round"></path>
                </g>
                <path d="M74.7477579,91.1420759 C74.7477579,91.1420759 69.2319014,107.418496 72.2028519,120.083079 C73.9865886,127.595403 79.1113475,133.827779 86.0578201,136.932531 C86.0578201,136.932531 77.9970576,139.826632 79.809167,144.277758 C81.6212764,148.728884 88.5686425,145.863725 90.8351994,144.422463 C93.1017563,142.981201 95.9477338,138.663203 96.3453753,135.78068 C96.5980821,134.307946 96.6933153,132.811632 96.629405,131.317977 C96.629405,131.317977 105.814925,130.31083 112.035175,125.124602 C112.035175,125.124602 117.551032,129.587305 121.510406,128.724863 C125.469779,127.862421 131.12197,120.656111 130.553911,114.179115 C129.985852,107.702118 126.321869,107.707906 124.083715,108.6919 C122.92188,109.139536 121.862423,109.825075 120.970749,110.706194 C120.970749,110.706194 124.220049,106.654454 120.970749,101.057264 C119.027528,97.730568 115.690238,95.499852 111.921563,95.0085939 C111.921563,95.0085939 110.217385,85.7879902 105.138934,82.3324344 C100.060484,78.8768786 81.9564314,75.2997706 74.7477579,91.1420759 Z" id="Path" stroke="#263238" stroke-width="1.11330402" stroke-linecap="round" stroke-linejoin="round"></path>
                <path d="M121.552511,110.502283 C121.552511,110.502283 118.15184,112.47885 116.52968,118.538813" id="Path" stroke="#263238" stroke-width="1.11330402" stroke-linecap="round" stroke-linejoin="round"></path>
                <path d="M126.452374,113.028785 C126.128054,114.098799 125.240161,114.739632 124.474553,114.451551 C123.708945,114.16347 123.358041,113.06406 123.682361,111.994046 C124.006681,110.924032 124.894574,110.283199 125.660182,110.57128 C126.42579,110.859361 126.782011,111.958771 126.452374,113.028785 Z" id="Path" stroke="#263238" stroke-width="1.11330402" fill="#FFFFFF" fill-rule="nonzero" stroke-linecap="round" stroke-linejoin="round"></path>
                <path d="M129.466164,115.037917 C129.142086,116.107932 128.254856,116.748764 127.48982,116.460684 C126.724783,116.172603 126.368828,115.073193 126.698219,114.003178 C127.02761,112.933164 127.909527,112.292331 128.674564,112.580412 C129.439601,112.868493 129.795555,113.967903 129.466164,115.037917 Z" id="Path" stroke="#263238" stroke-width="1.11330402" fill="#FFFFFF" fill-rule="nonzero" stroke-linecap="round" stroke-linejoin="round"></path>
                <path d="M130.449135,118.048755 C130.033135,118.50266 129.147771,118.669116 128.423893,118.429516 C127.700016,118.189916 127.385307,117.626242 127.704007,117.140131 C128.022706,116.654019 128.86577,116.411798 129.632485,116.586057 C130.45873,116.854934 130.817448,117.497431 130.449135,118.048755 L130.449135,118.048755 Z" id="Path" stroke="#263238" stroke-width="1.11330402" fill="#FFFFFF" fill-rule="nonzero" stroke-linecap="round" stroke-linejoin="round"></path>
                <path d="M126.052394,122.201703 C125.116413,124.226076 123.24445,125.123029 121.866478,124.207389 C120.488505,123.29175 120.134912,120.918561 121.070893,118.894188 C122.006875,116.869815 123.878838,115.972861 125.25681,116.888501 C126.634783,117.804141 126.988376,120.177329 126.052394,122.201703 Z" id="Path" stroke="#263238" stroke-width="1.11330402" fill="#FFFFFF" fill-rule="nonzero" stroke-linecap="round" stroke-linejoin="round"></path>
                <path d="M85.3881279,136.621005 C87.2765132,137.739906 89.4229945,137.931442 91.4155251,137.158843" id="Path" stroke="#263238" stroke-width="1.11330402" stroke-linecap="round" stroke-linejoin="round"></path>
                <path d="M79.3607306,144.657534 C79.3607306,144.657534 79.9180489,141.710714 83.3789954,139.634703" id="Path" stroke="#263238" stroke-width="1.11330402" stroke-linecap="round" stroke-linejoin="round"></path>
                <path d="M83.3789954,146.666667 C83.3789954,146.666667 84.8679061,143.206622 87.3972603,141.643836" id="Path" stroke="#263238" stroke-width="1.11330402" stroke-linecap="round" stroke-linejoin="round"></path>
                <path d="M75.4848672,106.979645 C72.0797499,105.465506 69.0643646,103.16962 66.6743305,100.271386 C64.2737619,97.2092762 62.3992108,93.7552312 61.1301113,90.0556164 C59.6916946,86.0589403 58.6803925,81.9158912 58.113738,77.6982974 C57.5225018,73.1063842 57.23782,68.4788786 57.2616552,63.8476818 C57.2616552,33.3373551 67.4866494,18.0821918 87.936638,18.0821918 C108.386627,18.0821918 118.587005,33.3373551 118.537774,63.8476818 C118.558003,68.456699 118.282857,73.0621444 117.714094,77.6346297 C117.165943,81.8529323 116.163923,85.996974 114.726123,89.9919487 C113.457024,93.6915635 111.582472,97.1456085 109.181904,100.207718 C106.788787,103.1098 103.774804,105.414518 100.371367,106.944917 C96.4583247,108.707609 92.2142229,109.576826 87.936638,109.491624 C83.6568137,109.579174 79.4090602,108.722246 75.4848672,106.979645 L75.4848672,106.979645 Z M94.4538175,98.2186624 C96.1728169,97.474528 97.7330359,96.3986805 99.0478154,95.0508756 C100.379082,93.6124608 101.473567,91.9660153 102.289295,90.1746845 C103.189393,88.2767948 103.91717,86.2996092 104.463597,84.2676597 C105.039041,82.053718 105.458601,79.8010497 105.719099,77.526702 C106.027268,75.0171817 106.232714,72.718075 106.335437,70.6293819 C106.43816,68.5406888 106.487619,66.2724685 106.484018,63.824721 C106.484018,61.2572887 106.434355,58.8867571 106.335437,56.7131265 C106.236518,54.5394958 106.021561,52.2075723 105.690565,49.7173559 C105.406428,47.444593 104.977518,45.1928932 104.406528,42.9763982 C103.866427,40.9647882 103.138358,39.0100816 102.232226,37.1388678 C101.410275,35.3758439 100.313836,33.7586893 98.9850402,32.3495448 C97.6780863,31.028835 96.1264472,29.9837082 94.4195765,29.2744172 C90.5175956,27.7456661 86.1945443,27.7456661 82.2925634,29.2744172 C80.5982245,29.9751901 79.0579927,31.0106303 77.7613406,32.3205888 C76.4423821,33.723597 75.348581,35.3279757 74.5198614,37.0751646 C73.6056645,38.9295533 72.8864426,40.8764805 72.3740934,42.883739 C71.8169796,45.1135771 71.3976623,47.3765514 71.1185909,49.6594439 C70.7875947,52.1844075 70.5726375,54.535635 70.4737191,56.7131265 C70.3748007,58.8906179 70.3234393,61.2611495 70.3196347,63.824721 C70.3196347,66.2686077 70.3709962,68.54648 70.4737191,70.6583379 C70.576442,72.7701958 70.7799856,75.0866761 71.0843499,77.6077788 C71.3476197,79.881697 71.7671423,82.1341683 72.3398524,84.3487365 C72.8786151,86.3800052 73.598754,88.3571972 74.4913272,90.2557613 C75.2986754,92.0362116 76.3835733,93.6729515 77.7042723,95.1029964 C79.0092282,96.4421158 80.5603228,97.5085187 82.2697361,98.2418272 C86.1754524,99.855464 90.5481011,99.855464 94.4538175,98.2418272 L94.4538175,98.2186624 Z" id="Shape" fill="#284A75" fill-rule="nonzero"></path>
                <path d="M62.7000891,83.3970674 C62.7000891,83.3970674 56.4536194,91.69238 55.5629744,100.128962 C54.6723294,108.565543 55.7124115,114.188047 58.3903239,116.301431 C61.0682363,118.414814 63.7401712,117.5672 65.2285645,115.595086 C66.7169577,113.622971 64.3379195,106.734698 64.3379195,106.734698 C64.3379195,106.734698 66.8663948,100.128962 70.7338263,95.4896893 C74.6012579,90.8504171 75.3424658,90.1440724 75.3424658,90.1440724 C75.3424658,90.1440724 68.6476848,82.9732606 62.7000891,83.3970674 Z" id="Path" fill="#FFFFFF" fill-rule="nonzero"></path>
                <g id="Group" transform="translate(59.269406, 82.374429)" fill-rule="nonzero">
                    <path d="M3.56982412,0.0187629839 C2.22433914,1.99543831 1.03100056,4.07037666 0,6.22585716 C2.95026787,7.3992209 7.52318307,9.80461657 10.4262467,14.0639269 C10.7802788,13.5535137 11.146112,13.0489673 11.5237463,12.573755 C15.3413929,7.75709684 16.0730594,7.02374451 16.0730594,7.02374451 C16.0730594,7.02374451 9.44085719,-0.421248418 3.56982412,0.0187629839 Z" id="Path" fill="#2C87F3"></path>
                    <path d="M3.56982412,0.0187629839 C2.22433914,1.99543831 1.03100056,4.07037666 0,6.22585716 C2.95026787,7.3992209 7.52318307,9.80461657 10.4262467,14.0639269 C10.7802788,13.5535137 11.146112,13.0489673 11.5237463,12.573755 C15.3413929,7.75709684 16.0730594,7.02374451 16.0730594,7.02374451 C16.0730594,7.02374451 9.44085719,-0.421248418 3.56982412,0.0187629839 Z" id="Path" fill="#FFFFFF" opacity="0.5"></path>
                </g>
                <path d="M62.7000891,83.3970674 C62.7000891,83.3970674 56.4536194,91.69238 55.5629744,100.128962 C54.6723294,108.565543 55.7124115,114.188047 58.3903239,116.301431 C61.0682363,118.414814 63.7401712,117.5672 65.2285645,115.595086 C66.7169577,113.622971 64.3379195,106.734698 64.3379195,106.734698 C64.3379195,106.734698 66.8663948,100.128962 70.7338263,95.4896893 C74.6012579,90.8504171 75.3424658,90.1440724 75.3424658,90.1440724 C75.3424658,90.1440724 68.6476848,82.9732606 62.7000891,83.3970674 Z" id="Path" stroke="#263238" stroke-width="1.11330402" stroke-linecap="round" stroke-linejoin="round"></path>
                <path d="M58.2648402,116.52968 C57.5654358,114.603647 57.2255419,112.558579 57.2630756,110.502283" id="Path" stroke="#263238" stroke-width="1.11330402" stroke-linecap="round" stroke-linejoin="round"></path>
                <path d="M62.283105,117.534247 C62.283105,117.534247 61.3705321,114.936412 61.2785388,110.502283" id="Path" stroke="#263238" stroke-width="1.11330402" stroke-linecap="round" stroke-linejoin="round"></path>
                <path d="M64.2922374,98.3381039 C64.2922374,96.7875846 61.4743799,93.7575622 57.5575579,92.4200913 C57.0309968,93.861827 56.596092,95.3386544 56.2557078,96.8408467 C57.7774688,97.1143345 59.2552386,97.6103503 60.6459298,98.3144319 C62.7480515,99.5157884 64.2922374,100.10759 64.2922374,98.3381039 Z" id="Path" stroke="#263238" stroke-width="1.11330402" fill="#2C87F3" fill-rule="nonzero" stroke-linecap="round" stroke-linejoin="round"></path>
                <path d="M62.5329737,83.3789954 C61.7128241,84.8438108 60.9587888,86.3579987 60.2739726,87.9153243 C61.3446759,88.2470227 62.3717241,88.7484015 63.3266768,89.4055769 C67.2494018,92.0701486 68.00749,92.3860821 66.7457056,88.5114254 C65.9825295,86.0793331 64.1610827,84.4281333 62.5329737,83.3789954 Z" id="Path" stroke="#263238" stroke-width="1.11330402" fill="#2C87F3" fill-rule="nonzero" stroke-linecap="round" stroke-linejoin="round"></path>
                <path d="M109.937951,79.3607306 C109.937951,79.3607306 116.798621,87.0957899 118.507994,95.480184 C120.217367,103.864578 119.782781,109.60037 117.407042,111.964176 C115.031303,114.327983 112.371635,113.735607 110.73759,111.895825 C109.103546,110.056043 110.73759,102.930447 110.73759,102.930447 C110.73759,102.930447 107.631747,96.5339292 103.43654,92.2392056 C99.241333,87.944482 98.4474886,87.3122348 98.4474886,87.3122348 C98.4474886,87.3122348 104.155056,79.4917368 109.937951,79.3607306 Z" id="Path" fill="#FFFFFF" fill-rule="nonzero"></path>
                <g id="Group" transform="translate(98.447489, 78.356164)" fill-rule="nonzero">
                    <path d="M11.3712605,0 C5.65131055,0.136162197 0,8.28813374 0,8.28813374 C0,8.28813374 0.777913193,8.95118444 4.92487691,13.4090164 C5.70041431,14.25438 6.42988308,15.1437702 7.10989779,16.0730594 C9.27432548,12.2891653 12.3664244,9.16443674 16.0730594,7.0153132 C14.709094,4.53771726 13.1356736,2.19009728 11.3712605,0 L11.3712605,0 Z" id="Path" fill="#2C87F3"></path>
                    <path d="M11.3712605,0 C5.65131055,0.136162197 0,8.28813374 0,8.28813374 C0,8.28813374 0.777913193,8.95118444 4.92487691,13.4090164 C5.70041431,14.25438 6.42988308,15.1437702 7.10989779,16.0730594 C9.27432548,12.2891653 12.3664244,9.16443674 16.0730594,7.0153132 C14.709094,4.53771726 13.1356736,2.19009728 11.3712605,0 L11.3712605,0 Z" id="Path" fill="#FFFFFF" opacity="0.5"></path>
                </g>
                <path d="M109.937951,79.3607306 C109.937951,79.3607306 116.798621,87.0957899 118.507994,95.480184 C120.217367,103.864578 119.782781,109.60037 117.407042,111.964176 C115.031303,114.327983 112.371635,113.735607 110.73759,111.895825 C109.103546,110.056043 110.73759,102.930447 110.73759,102.930447 C110.73759,102.930447 107.631747,96.5339292 103.43654,92.2392056 C99.241333,87.944482 98.4474886,87.3122348 98.4474886,87.3122348 C98.4474886,87.3122348 104.155056,79.4917368 109.937951,79.3607306 Z" id="Path" stroke="#263238" stroke-width="1.11330402" stroke-linecap="round" stroke-linejoin="round"></path>
                <path d="M117.551946,111.506849 C118.002214,109.870362 118.128336,108.166014 117.923636,106.484018" id="Path" stroke="#263238" stroke-width="1.11330402" stroke-linecap="round" stroke-linejoin="round"></path>
                <path d="M113.515982,113.515982 C113.515982,113.515982 114.756187,110.832256 114.480586,106.484018" id="Path" stroke="#263238" stroke-width="1.11330402" stroke-linecap="round" stroke-linejoin="round"></path>
                <path d="M109.503473,94.485297 C109.359243,93.0522773 111.93809,89.9885801 115.803476,88.4018265 C116.472028,89.6814952 117.050232,91.0021402 117.534247,92.3549842 C116.012979,92.7586753 114.557098,93.3590767 113.207321,94.1393957 C111.18809,95.4296625 109.67655,96.0995031 109.503473,94.485297 Z" id="Path" stroke="#263238" stroke-width="1.11330402" fill="#2C87F3" fill-rule="nonzero" stroke-linecap="round" stroke-linejoin="round"></path>
                <path d="M110.411568,79.3607306 C111.522459,80.6439472 112.558763,81.982218 113.515982,83.3697347 C112.27965,83.7982736 111.111328,84.3822657 110.043145,85.1056505 C105.67643,88.0572727 104.806711,88.4191575 105.918019,84.6419857 C106.612586,82.2840806 108.593613,80.525547 110.411568,79.3607306 Z" id="Path" stroke="#263238" stroke-width="1.11330402" fill="#2C87F3" fill-rule="nonzero" stroke-linecap="round" stroke-linejoin="round"></path>
                <path d="M62.4486824,75.6974554 C62.4486824,75.6974554 60.6951721,81.6870671 61.3555851,84.1255712 C62.0159981,86.5640752 65.0789479,84.3503978 68.147591,87.0079637 C71.2162341,89.6655296 74.0571485,94.4618308 85.6770011,95.3496077 C97.2968537,96.2373846 104.310895,89.8903562 106.741898,86.3392486 C109.172901,82.788141 108.933786,78.5740831 113.095526,78.3550213 C117.257267,78.1359595 113.755939,69.9211407 112.440807,68.5894754 C112.440807,68.5894754 120.547945,56.3854254 120.547945,53.2782062 C120.547945,50.1709871 112.879184,50.8339374 103.468299,53.7220947 C103.468299,53.7220947 96.4542578,49.9461605 83.7413079,52.1656027 C71.028358,54.385045 67.3049951,58.1609792 67.3049951,58.1609792 C67.3049951,58.1609792 51.5234021,60.1555948 50.4303048,62.1502105 C49.3372074,64.1448261 52.5880334,72.5902362 62.4486824,75.6974554 Z" id="Path" fill="#FFFFFF" fill-rule="nonzero"></path>
                <g id="Group" transform="translate(49.223744, 60.273973)" fill-rule="nonzero">
                    <path d="M64.6492116,18.0168957 C68.8676982,17.7916806 65.3177149,9.56844507 63.9864712,8.23447919 C63.9864712,8.23447919 65.5482333,5.92458156 67.3059361,3.03720953 C62.5399683,0.542520085 57.8604449,-0.843418493 56.6156456,0.559844317 C53.9358692,3.57426072 55.3938981,9.3490048 56.6156456,14.9967045 C57.837393,20.6444042 52.956166,23.0524725 49.5444938,27.937906 C46.1328216,32.8233395 41.2631205,27.4470527 41.2631205,27.4470527 C39.5342326,34.5326637 32.2440883,29.8897695 32.2440883,29.8897695 C26.6424914,28.1573463 17.1393706,22.567394 19.087251,18.6578922 C21.0351314,14.7483905 21.524983,11.0872028 18.1133108,7.91686827 C14.7016386,4.74653377 1.09529035,2.10747573 1.09529035,2.10747573 L1.09529035,2.10747573 C0.380683334,4.51554401 3.83269628,12.4038444 13.4049726,15.3893871 C13.4049726,15.3893871 11.629981,21.3893462 12.2984843,23.8320629 C12.9669876,26.2747797 16.06746,24.057278 19.1736954,26.719435 C22.2799308,29.381592 25.1556477,34.1861791 36.9178488,35.0754897 C48.6800498,35.9648002 55.7800164,29.606807 58.2408002,26.0495647 C60.7015841,22.4923223 60.430725,18.2363359 64.6492116,18.0168957 Z" id="Path" fill="#2C87F3"></path>
                    <path d="M64.6492116,18.0168957 C68.8676982,17.7916806 65.3177149,9.56844507 63.9864712,8.23447919 C63.9864712,8.23447919 65.5482333,5.92458156 67.3059361,3.03720953 C62.5399683,0.542520085 57.8604449,-0.843418493 56.6156456,0.559844317 C53.9358692,3.57426072 55.3938981,9.3490048 56.6156456,14.9967045 C57.837393,20.6444042 52.956166,23.0524725 49.5444938,27.937906 C46.1328216,32.8233395 41.2631205,27.4470527 41.2631205,27.4470527 C39.5342326,34.5326637 32.2440883,29.8897695 32.2440883,29.8897695 C26.6424914,28.1573463 17.1393706,22.567394 19.087251,18.6578922 C21.0351314,14.7483905 21.524983,11.0872028 18.1133108,7.91686827 C14.7016386,4.74653377 1.09529035,2.10747573 1.09529035,2.10747573 L1.09529035,2.10747573 C0.380683334,4.51554401 3.83269628,12.4038444 13.4049726,15.3893871 C13.4049726,15.3893871 11.629981,21.3893462 12.2984843,23.8320629 C12.9669876,26.2747797 16.06746,24.057278 19.1736954,26.719435 C22.2799308,29.381592 25.1556477,34.1861791 36.9178488,35.0754897 C48.6800498,35.9648002 55.7800164,29.606807 58.2408002,26.0495647 C60.7015841,22.4923223 60.430725,18.2363359 64.6492116,18.0168957 Z" id="Path" fill="#FFFFFF" opacity="0.5"></path>
                    <path d="M47.207971,19.8154103 C47.3812254,21.1273657 44.1431601,22.5414815 39.9910283,22.9770077 C35.8388966,23.4125339 32.326014,22.7027875 32.1527595,21.3639478 C31.9795051,20.0251081 35.2175704,18.6432534 39.3756764,18.2077273 C43.5337825,17.7722011 47.0406908,18.5088318 47.207971,19.8154103 Z" id="Path" fill="#2C87F3"></path>
                    <path d="M47.207971,19.8154103 C47.3812254,21.1273657 44.1431601,22.5414815 39.9910283,22.9770077 C35.8388966,23.4125339 32.326014,22.7027875 32.1527595,21.3639478 C31.9795051,20.0251081 35.2175704,18.6432534 39.3756764,18.2077273 C43.5337825,17.7722011 47.0406908,18.5088318 47.207971,19.8154103 Z" id="Path" fill="#FFFFFF" opacity="0.5"></path>
                </g>
                <path d="M62.4486824,75.6974554 C62.4486824,75.6974554 60.6951721,81.6870671 61.3555851,84.1255712 C62.0159981,86.5640752 65.0789479,84.3503978 68.147591,87.0079637 C71.2162341,89.6655296 74.0571485,94.4618308 85.6770011,95.3496077 C97.2968537,96.2373846 104.310895,89.8903562 106.741898,86.3392486 C109.172901,82.788141 108.933786,78.5740831 113.095526,78.3550213 C117.257267,78.1359595 113.755939,69.9211407 112.440807,68.5894754 C112.440807,68.5894754 120.547945,56.3854254 120.547945,53.2782062 C120.547945,50.1709871 112.879184,50.8339374 103.468299,53.7220947 C103.468299,53.7220947 96.4542578,49.9461605 83.7413079,52.1656027 C71.028358,54.385045 67.3049951,58.1609792 67.3049951,58.1609792 C67.3049951,58.1609792 51.5234021,60.1555948 50.4303048,62.1502105 C49.3372074,64.1448261 52.5880334,72.5902362 62.4486824,75.6974554 Z" id="Path" stroke="#263238" stroke-width="1.11330402"></path>
                <path d="M108.067022,58.0202741 C102.490203,62.0183472 104.45882,66.0164202 106.951658,68.2355888 C108.474129,69.5920778 110.92793,69.4254915 112.606552,69.0447226 L112.606552,69.0447226 C112.606552,69.0447226 120.547945,56.4496026 120.547945,53.2428148 C120.553519,53.2130673 113.615956,53.9924535 108.067022,58.0202741 Z" id="Path" stroke="#263238" stroke-width="1.11330402" fill="#2C87F3" fill-rule="nonzero"></path>
                <path d="M50.3155099,62.301001 C49.628666,64.8476075 52.9465655,73.1897285 62.1469514,76.347032 C62.1469514,76.347032 69.1704851,75.5897677 66.8274608,69.3606583 C64.6395304,63.5468229 53.5780189,62.099471 50.3155099,62.301001 Z" id="Path" stroke="#263238" stroke-width="1.11330402" fill="#2C87F3" fill-rule="nonzero"></path>
                <path d="M83.4823861,51.9095709 C82.7502683,52.046097 82.046094,52.1885589 81.369863,52.3310209 C82.4876001,58.3262944 84.3262776,68.3105023 85.9693511,68.3105023 C87.6124247,68.3105023 88.8698789,57.3646762 89.4063927,51.2328767 C87.4199943,51.3217157 85.4411442,51.5477581 83.4823861,51.9095709 L83.4823861,51.9095709 Z" id="Path" stroke="#263238" stroke-width="1.11330402" fill="#2C87F3" fill-rule="nonzero"></path>
                <path d="M77.075177,66.204029 C78.6654606,65.1748435 78.4263984,57.438799 78.1717451,53.2420091 C76.5304004,53.6906619 74.9147472,54.2462584 73.3333333,54.9058591 C73.9102009,58.8339171 75.3757564,67.3018269 77.075177,66.204029 Z" id="Path" stroke="#263238" stroke-width="1.11330402" fill="#2C87F3" fill-rule="nonzero"></path>
                <path d="M94.3578709,63.2418524 C96.0000837,63.9151385 96.9235004,57.029258 97.4429224,51.7286601 C95.784383,51.4132811 94.107471,51.2475289 92.4270904,51.2328767 C92.3746235,55.5847532 92.5792443,62.5134793 94.3578709,63.2418524 Z" id="Path" stroke="#263238" stroke-width="1.11330402" fill="#2C87F3" fill-rule="nonzero"></path>
                <path d="M92.0243037,85.581132 C90.216975,85.1983747 88.2962087,85.3893452 86.6586207,86.1146104 C86.5130537,86.1823833 86.4157943,86.3015813 86.3962916,86.4361129 C86.3767888,86.5706446 86.4373359,86.7046901 86.5596001,86.7976622 L89.8458488,89.2905519 C89.9708524,89.3848767 90.1445632,89.4249751 90.3126045,89.3982951 C90.4806458,89.3716151 90.6224817,89.2814171 90.6937134,89.1559358 L92.3770649,86.1644682 C92.4379731,86.0499636 92.434055,85.9197797 92.36633,85.8077877 C92.298605,85.6957957 92.1737697,85.6130692 92.0243037,85.581132 L92.0243037,85.581132 Z" id="Path" stroke="#263238" stroke-width="1.11330402" fill="#2C87F3" fill-rule="nonzero" stroke-linecap="round" stroke-linejoin="round"></path>
                <path d="M84.1292016,80.9442834 C84.5904655,82.0321888 84.4072237,83.1031838 83.7184872,83.3342932 C83.0297508,83.5654026 82.0945857,82.8777112 81.6270032,81.7954426 C81.1594207,80.713174 81.3489811,79.6365423 82.0377176,79.4054328 C82.726454,79.1743234 83.6616191,79.8620149 84.1292016,80.9442834 Z" id="Path" fill="#263238" fill-rule="nonzero"></path>
                <path d="M92.4969278,80.1534331 C92.2356755,81.2421333 92.6619293,82.249181 93.4525614,82.3634945 C94.2431935,82.477808 95.0957011,81.6830569 95.3569534,80.5780262 C95.6182058,79.4729955 95.191952,78.4877219 94.4013199,78.3679649 C93.6106878,78.2482078 92.7581802,79.053846 92.4969278,80.1534331 Z" id="Path" fill="#263238" fill-rule="nonzero"></path>
                <path d="M90.4109589,89.4481846 C90.4109589,89.4481846 86.2061423,96.1627495 82.3744292,89.4063927" id="Path" stroke="#263238" stroke-width="1.11330402" stroke-linecap="round" stroke-linejoin="round"></path>
                <path d="M89.4063927,89.5023669 C89.4063927,89.5023669 92.0438431,92.6376866 94.8265768,90.8808817 C97.6093105,89.1240768 95.9441406,86.3926941 95.9441406,86.3926941" id="Path" stroke="#263238" stroke-width="1.11330402" stroke-linecap="round" stroke-linejoin="round"></path>
                <path d="M77.3515982,76.347032 C77.3515982,76.347032 78.4056355,72.5681677 83.3789954,73.473394" id="Path" stroke="#263238" stroke-width="3.33991206" stroke-linecap="round" stroke-linejoin="round"></path>
                <path d="M91.4155251,73.0106803 C91.4155251,73.0106803 95.0787423,70.8006233 98.4474886,74.3378995" id="Path" stroke="#263238" stroke-width="3.33991206" stroke-linecap="round" stroke-linejoin="round"></path>
                <path d="M74.3378995,85.3881279 L78.3561644,86.3926941" id="Path" stroke="#263238" stroke-width="1.11330402" stroke-linecap="round"></path>
                <path d="M77.3515982,87.4022831 L74.3378995,88.3968037" id="Path" stroke="#263238" stroke-width="1.11330402" stroke-linecap="round"></path>
                <path d="M78.3561644,89.4063927 L76.347032,90.4109589" id="Path" stroke="#263238" stroke-width="1.11330402" stroke-linecap="round"></path>
                <path d="M99.4520548,84.3835616 L102.465753,83.3789954" id="Path" stroke="#263238" stroke-width="1.11330402" stroke-linecap="round"></path>
                <path d="M100.456621,85.6392694 L102.465753,85.6392694" id="Path" stroke="#263238" stroke-width="1.11330402" stroke-linecap="round"></path>
                <path d="M100.456621,87.3972603 L103.47032,87.8995434" id="Path" stroke="#263238" stroke-width="1.11330402" stroke-linecap="round"></path>
                <text id="ops" font-family="Open Sans, sans-serif" font-size="59" font-style="condensed" font-weight="500" letter-spacing="0.3" fill="#284A75">
                    <tspan x="123.86884" y="104.232877">ops</tspan>
                </text>
            </g>
        </g>
    </g>
</svg>