<?xml version="1.0" encoding="UTF-8"?>
<svg width="157px" height="100px" viewBox="0 0 157 100" version="1.1" xmlns="http://www.w3.org/2000/svg" xmlns:xlink="http://www.w3.org/1999/xlink">
    <!-- Generator: sketchtool 55.2 (78181) - https://sketchapp.com -->
    <title>7A696F69-B88B-4508-AD3B-93F1AE70F462</title>
    <desc>Created with sketchtool.</desc>
    <defs>
        <polygon id="path-1" points="0 0 156.122449 0 156.122449 100 0 100"></polygon>
    </defs>
    <g id="Overview" stroke="none" stroke-width="1" fill="none" fill-rule="evenodd">
        <g id="04_Lead_Collection_Overview_ConfirmName" transform="translate(-645.000000, -320.000000)">
            <g id="Group-13" transform="translate(383.000000, 275.000000)">
                <g id="Group-12" transform="translate(262.000000, 45.000000)">
                    <g id="Group-3-Copy-2" opacity="0.104306176" transform="translate(-0.000000, 0.000000)">
                        <mask id="mask-2" fill="white">
                            <use xlink:href="#path-1"></use>
                        </mask>
                        <g id="Clip-2"></g>
                        <path d="M76.234807,10.8660292 C70.644885,10.1888479 65.416566,8.10882562 60.1402532,6.34997216 C54.2718175,4.40341675 48.2851971,2.84090042 42.2175874,1.67181581 C35.7535792,0.423499485 29.0897971,-0.390027054 22.6091412,0.191712594 C16.1284852,0.773452243 9.80545869,2.86559405 5.67199702,6.69083523 C-1.33059097,13.1793532 -0.739667932,23.0143892 1.57288089,31.6829159 C4.31752343,41.9678911 9.06305538,52.1347004 16.8305437,60.894124 C22.3511748,67.1205562 29.2789225,72.5107376 36.1448783,77.8615304 C40.0265227,80.8808198 43.9438626,83.9213184 48.477922,86.2952404 C52.6953728,88.5010032 57.3522663,90.0826079 61.9761641,91.6414883 C66.913521,93.30793 71.8628764,94.9834614 76.9607125,96.2575318 C93.2320933,100.32365 110.361362,100.196394 127.109681,99.8343217 C133.003914,99.7085811 139.165111,99.5010334 144.109967,97.1755897 C147.962965,95.3576533 150.709108,92.4125964 152.789337,89.2721112 C155.511482,85.1575152 157.230258,80.2475719 155.29686,75.6587975 C152.447231,68.8900143 142.680503,64.9026738 139.429077,58.236907 C135.262469,49.6835162 143.355415,40.6423125 141.065364,31.738969 C140.112838,28.0349235 137.426837,24.6868907 134.580208,21.5645849 C127.790592,14.1201353 118.766118,7.33923255 106.637347,8.33000789 C96.3680349,9.16625863 87.0019047,12.1719135 76.234807,10.8660292" id="Fill-1" fill="#6EB1F4" mask="url(#mask-2)"></path>
                    </g>
                    <circle id="Oval" fill="#3389F0" cx="93" cy="15" r="11"></circle>
                    <circle id="Oval" fill="#3389F0" cx="63" cy="15" r="11"></circle>
                    <g id="Group" transform="translate(51.020408, 7.142857)" fill="#000000" fill-rule="nonzero">
                        <polygon id="Path" points="23.3234694 52.405102 22.2418367 51.1571429 20.3673469 51.8520408 21.4214286 49.2438776 22.3663265 49.6255102 22.1785714 50.0928571 22.5510204 49.955102 23.094898 50.5826531 23.3989796 49.977551 23.2377551 49.5112245 24.2020408 49.177551 25.2 52.0591837 23.8571429 51.3408163"></polygon>
                        <g transform="translate(14.285714, 27.551020)">
                            <circle id="Oval" cx="1.62857143" cy="1.66122449" r="1"></circle>
                            <path d="M1.70102041,3.10408163 C0.905102041,3.14387755 0.226530612,2.52857143 0.186734694,1.73265306 C0.146938776,0.936734694 0.762244898,0.258163265 1.55816327,0.218367347 C2.35408163,0.178571429 3.03265306,0.793877551 3.07244898,1.58979592 C3.1122449,2.38571429 2.49591837,3.06428571 1.70102041,3.10408163 Z M1.60816327,1.2377551 C1.3744898,1.25 1.19387755,1.44897959 1.20510204,1.68265306 C1.21632653,1.91632653 1.41632653,2.09693878 1.65,2.08571429 C1.88367347,2.0744898 2.06428571,1.8744898 2.05306122,1.64081633 C2.04081633,1.40714286 1.84183673,1.22653061 1.60816327,1.2377551 Z" id="Shape"></path>
                        </g>
                        <g transform="translate(27.551020, 26.530612)">
                            <circle id="Oval" cx="2.39489796" cy="1.9877551" r="1"></circle>
                            <path d="M2.46734694,3.43061224 C1.67142857,3.47040816 0.991836735,2.85510204 0.953061224,2.05918367 C0.913265306,1.26326531 1.52755102,0.584693878 2.3244898,0.544897959 C3.12142857,0.505102041 3.79897959,1.12040816 3.8377551,1.91632653 C3.87755102,2.7122449 3.2622449,3.39081633 2.46734694,3.43061224 Z M2.3744898,1.56428571 C2.14081633,1.5755102 1.96020408,1.7755102 1.97142857,2.00918367 C1.98265306,2.24285714 2.18163265,2.42346939 2.41632653,2.4122449 C2.65,2.4 2.82959184,2.20102041 2.81938776,1.96734694 C2.80714286,1.73367347 2.60816327,1.55204082 2.3744898,1.56428571 Z" id="Shape"></path>
                        </g>
                        <g transform="translate(17.346939, 35.714286)" id="Path">
                            <path d="M8.96836735,1.79285714 C8.96836735,1.79285714 8.26734694,3.10408163 7.02857143,3.22959184 C5.78877551,3.35510204 4.90204082,1.99387755 4.90204082,1.99387755 C4.90204082,1.99387755 4.07346939,3.53571429 2.94693878,3.78265306 C1.82040816,4.03061224 0.853061224,2.76428571 0.853061224,2.76428571"></path>
                            <path d="M2.74387755,4.32244898 C1.46632653,4.38571429 0.490816327,3.13163265 0.447959184,3.07346939 L1.25714286,2.45306122 C1.26428571,2.4622449 2.05408163,3.45102041 2.83673469,3.28367347 C3.56836735,3.12346939 4.25102041,2.12346939 4.45204082,1.75102041 L4.85714286,1.00306122 L5.32755102,1.71326531 C5.33469388,1.7244898 6.03979592,2.81326531 6.97653061,2.72142857 C7.92346939,2.62653061 8.5122449,1.56122449 8.51836735,1.55 L9.41734694,2.03367347 C9.38367347,2.09693878 8.57040816,3.58571429 7.07857143,3.7377551 C6.15408163,3.82653061 5.40816327,3.29897959 4.95612245,2.84897959 C4.56122449,3.38469388 3.89693878,4.09591837 3.05612245,4.28061224 C2.95102041,4.30408163 2.84693878,4.31734694 2.74387755,4.32244898 Z"></path>
                        </g>
                        <ellipse id="Oval" transform="translate(11.132448, 34.615558) rotate(-2.837227) translate(-11.132448, -34.615558) " cx="11.1324479" cy="34.6155576" rx="2.2959777" ry="1"></ellipse>
                        <ellipse id="Oval" transform="translate(31.940960, 33.586104) rotate(-2.831505) translate(-31.940960, -33.586104) " cx="31.9409602" cy="33.5861041" rx="2.29596635" ry="1"></ellipse>
                        <path d="M25.4,48.9489796 L20.1653061,49.2081633 L22.6489796,37.8306122 L25.4,48.9489796 Z M21.4469388,48.122449 L24.1112245,47.9908163 L22.7112245,42.3306122 L21.4469388,48.122449 Z" id="Shape"></path>
                        <path d="M15.0704082,58.1632653 L14.2969388,57.4969388 C16.5204082,54.9173469 19.5744898,50.2653061 18.3,48.7673469 C16.644898,46.8265306 12.1877551,50.5010204 12.1428571,50.5387755 L11.4836735,49.7602041 C11.6969388,49.577551 16.7397959,45.3581633 19.077551,48.1061224 C21.3295918,50.7520408 15.7173469,57.4132653 15.0704082,58.1632653 Z" id="Path"></path>
                        <path d="M32.9653061,55.9846939 C32.3479592,55.6377551 26.9132653,52.522449 26.3,50.1479592 C26.1806122,49.6846939 26.2367347,49.2469388 26.4632653,48.8795918 C27.9612245,46.4479592 33.605102,49.1112245 34.2459184,49.4214286 L33.7989796,50.3397959 C32.0346939,49.4785714 28.1295918,48.1234694 27.3326531,49.4153061 C27.2816327,49.4979592 27.2234694,49.6367347 27.2877551,49.8928571 C27.7163265,51.55 31.8938776,54.2091837 33.4673469,55.0959184 L32.9653061,55.9846939 Z" id="Path"></path>
                        <path d="M39.1214286,85.3132653 C37.8683673,85.3755102 36.6071429,83.8510204 35.2683673,80.6612245 C33.5173469,80.9346939 31.6459184,81.1214286 29.7,81.2183673 C24.472449,81.4765306 19.7632653,81.0755102 15.6908163,80.0265306 C14.6683673,84.2153061 13.4704082,84.2755102 13.0663265,84.2959184 L12.9408163,84.294898 C12.4826531,84.2734694 11.1020408,84.2030612 10.5163265,78.1653061 C3.93061224,74.9969388 0.407142857,69.655102 0.0428571429,62.2836735 C-0.318367347,54.9734694 2.20306122,47.994898 7.14591837,42.6 C6.61734694,40.8744898 6.30714286,39.1357143 6.22244898,37.4285714 C5.89897959,30.877551 8.53979592,24.6795918 13.4857143,20.35 C12.1959184,18.5591837 10.8959184,15.9653061 9.87857143,13.1408163 C8.86122449,10.3153061 8.21530612,7.54081633 8.05918367,5.32857143 C7.8877551,2.87755102 8.34285714,1.38571429 9.37857143,1.01326531 C9.51122449,0.965306122 9.65204082,0.937755102 9.79591837,0.930612245 C12.105102,0.816326531 15.0061224,5.90204082 16.7255102,10.6755102 C17.5326531,12.9153061 18.1153061,15.172449 18.3928571,17.1173469 C20.9479592,15.9 23.6622449,15.2132653 26.4714286,15.0744898 C29.8826531,14.9061224 33.3040816,15.5693878 36.4112245,16.9989796 C36.6673469,15.0295918 37.2346939,12.7367347 38.0336735,10.4540816 C39.6612245,5.81122449 42.4530612,0.762244898 44.7377551,0.65 C44.9306122,0.640816327 45.1193878,0.666326531 45.2959184,0.728571429 C46.3346939,1.09183673 46.8040816,2.58061224 46.6520408,5.03265306 C46.5163265,7.24693878 45.894898,10.027551 44.9010204,12.8602041 C43.8989796,15.7214286 42.6102041,18.3418367 41.3255102,20.1459184 C45.8112245,23.9622449 48.5367347,29.4653061 48.8265306,35.3234694 C48.9591837,38.0020408 48.5908163,40.6479592 47.7295918,43.194898 C51.7295918,47.8173469 54.0010204,53.4836735 54.3040816,59.6020408 C54.8040816,69.7244898 50.2397959,76.3857143 40.7346939,79.4061224 C41.1561224,83.0836735 40.7,85.0091837 39.3428571,85.2877551 C39.2673469,85.3 39.194898,85.3102041 39.1214286,85.3132653 Z M35.9061224,79.5255102 L36.0581633,79.9030612 C37.3877551,83.1857143 38.4857143,84.3234694 39.0693878,84.2954211 L39.1346939,84.2867347 C39.672449,84.1765306 40.1346939,82.7540816 39.6683673,79.1091837 L39.6132653,78.6806122 L40.0255102,78.555102 C49.4336735,75.7112245 53.7693878,69.527551 53.2806122,59.6510204 C52.9846939,53.6673469 50.7316327,48.1326531 46.7632653,43.6438776 L46.5653061,43.4193878 L46.6653061,43.1367347 C47.5520408,40.6295918 47.9346939,38.0173469 47.8040816,35.3734694 C47.5204082,29.6428571 44.7877551,24.2683673 40.3030612,20.6265306 L39.9193878,20.3142857 L40.2193878,19.9214286 C41.5367347,18.1989796 42.8897959,15.5030612 43.9346939,12.5234694 C44.8969388,9.77653061 45.4989796,7.09387755 45.6295918,4.97142857 C45.7653061,2.77346939 45.3510204,1.83163265 44.955102,1.69285714 C44.9030612,1.6744898 44.8469388,1.66734694 44.7836735,1.66972279 C43.5153061,1.73367347 40.9387755,5.23877551 38.9918367,10.7928571 C38.1193878,13.2846939 37.5326531,15.7806122 37.3428571,17.8193878 L37.272449,18.5632653 L36.6061224,18.227551 C33.4836735,16.6612245 29.9959184,15.9234694 26.5183673,16.0959184 C23.6163265,16.2397959 20.8204082,16.9979592 18.2071429,18.35 L17.544898,18.6928571 L17.4653061,17.9510204 C17.2489796,15.9316327 16.6428571,13.4714286 15.7622449,11.022449 C13.5142857,4.77755102 10.7255102,1.62142857 9.72142857,1.97346939 C9.32653061,2.11632653 8.92040816,3.06122449 9.0744898,5.25816327 C9.22346939,7.37959184 9.84897959,10.0571429 10.8346939,12.7959184 C11.894898,15.7367347 13.2581633,18.405102 14.5795918,20.1163265 L14.8785714,20.5040816 L14.5030612,20.8183673 C9.57040816,24.9530612 6.92244898,30.9897959 7.2377551,37.3785714 C7.32244898,39.0918367 7.64693878,40.8397959 8.20204082,42.5744898 L8.29387755,42.8602041 L8.08877551,43.0795918 C3.20612245,48.3 0.708163265,55.1020408 1.06122449,62.2326531 C1.41020408,69.294898 4.8255102,74.3867347 11.2112245,77.3653061 L11.477551,77.4897959 L11.5040816,77.7816327 C11.8612245,81.7489796 12.6071429,83.2561224 12.9918367,83.2765306 L12.9918367,83.2765306 C13.3571429,83.2581633 14.1214286,82.3979592 14.8142857,79.2867347 L14.9306122,78.7642857 L15.4469388,78.9061224 C19.5295918,80.0285714 24.3081633,80.4632653 29.6479592,80.2 C31.7040816,80.0979592 33.672449,79.8928571 35.5020408,79.5908163 L35.9061224,79.5255102 Z" id="Shape"></path>
                        <ellipse id="Oval" transform="translate(13.168535, 11.707366) rotate(-18.342545) translate(-13.168535, -11.707366) " cx="13.1685351" cy="11.7073662" rx="1" ry="4.40003681"></ellipse>
                        <ellipse id="Oval" transform="translate(41.799692, 10.910129) rotate(20.187226) translate(-41.799692, -10.910129) " cx="41.7996917" cy="10.9101293" rx="1" ry="4.40014073"></ellipse>
                        <path d="M21.5836735,36.2193878 C21.6367347,36.4122449 21.7081633,36.5877551 21.7989796,36.7653061 C21.8744898,36.9122449 22.0867347,36.7714286 22.0122449,36.6265306 C21.9285714,36.4642857 21.872449,36.3132653 21.8255102,36.1387755 C21.7826531,35.9806122 21.5408163,36.0602041 21.5836735,36.2193878 L21.5836735,36.2193878 Z" id="Path"></path>
                        <path d="M22.577551,36.7112245 C22.5693878,36.4897959 22.655102,36.3112245 22.7377551,36.1132653 C22.8020408,35.9622449 22.5744898,35.8438776 22.5112245,35.9959184 C22.4102041,36.2377551 22.3132653,36.4581633 22.322449,36.7244898 C22.3285714,36.8877551 22.5836735,36.8755102 22.577551,36.7112245 L22.577551,36.7112245 Z" id="Path"></path>
                        <path d="M21.6408163,45.6632653 C21.8459184,45.6642857 22.0408163,45.6704082 22.244898,45.7010204 C22.4061224,45.7265306 22.4755102,45.4806122 22.3122449,45.4561224 C22.0877551,45.4214286 21.8683673,45.4091837 21.6408163,45.4081633 C21.4765306,45.4071429 21.4765306,45.6622449 21.6408163,45.6632653 L21.6408163,45.6632653 Z" id="Path"></path>
                        <path d="M21.4285714,46.9816327 C21.6979592,46.9816327 21.9673469,46.9816327 22.2367347,46.9816327 C22.4010204,46.9816327 22.4010204,46.7265306 22.2367347,46.7265306 C21.9673469,46.7265306 21.6979592,46.7265306 21.4285714,46.7265306 C21.2642857,46.7265306 21.2642857,46.9816327 21.4285714,46.9816327 L21.4285714,46.9816327 Z" id="Path"></path>
                    </g>
                </g>
            </g>
        </g>
    </g>
</svg>