<svg xmlns="http://www.w3.org/2000/svg" xmlns:xlink="http://www.w3.org/1999/xlink" width="280" height="198" viewBox="0 0 280 198">
    <defs>
        <path id="prefix__a" d="M0 0L280 0 280 178 0 178z"/>
        <path id="prefix__c" d="M0.059 0.095L236.082 0.095 236.082 154.366 0.059 154.366z"/>
        <path id="prefix__e" d="M0 0.321L237.069 0.321 237.069 12.954 0 12.954z"/>
        <path id="prefix__g" d="M0 161L241 161 241 0 0 0z"/>
    </defs>
    <g fill="none" fill-rule="evenodd">
        <g opacity=".104">
            <mask id="prefix__b" fill="#fff">
                <use xlink:href="#prefix__a"/>
            </mask>
            <path fill="#6EB1F4" d="M136.724 19.342c-10.025-1.206-19.402-4.908-28.865-8.039-10.524-3.465-21.261-6.246-32.143-8.327C64.123.754 52.172-.694 40.549.34 28.926 1.377 17.586 5.101 10.173 11.91c-12.56 11.55-11.5 29.056-7.352 44.486C7.743 74.703 16.254 92.8 30.185 108.392c9.901 11.083 22.326 20.677 34.64 30.202 6.961 5.374 13.987 10.786 22.118 15.012 7.564 3.926 15.916 6.741 24.209 9.516 8.855 2.966 17.731 5.949 26.874 8.216 29.182 7.238 59.903 7.012 89.94 6.367 10.572-.224 21.622-.593 30.49-4.732 6.91-3.236 11.835-8.479 15.566-14.069 4.882-7.324 7.965-16.063 4.497-24.231-5.11-12.049-22.627-19.146-28.458-31.011-7.473-15.225 7.042-31.319 2.935-47.167-1.709-6.593-6.526-12.552-11.631-18.11-12.177-13.251-28.362-25.321-50.115-23.558-18.417 1.489-35.215 6.839-54.526 4.515" mask="url(#prefix__b)"/>
        </g>
        <g transform="translate(4 37)">
            <g transform="translate(4.635)">
                <mask id="prefix__d" fill="#fff">
                    <use xlink:href="#prefix__c"/>
                </mask>
                <path fill="#DBDBDB" d="M232.181 154.366H3.961c-2.155 0-3.902-1.744-3.902-3.896V3.99C.06 1.838 1.806.095 3.96.095h228.221c2.155 0 3.901 1.743 3.901 3.895v146.48c0 2.152-1.746 3.896-3.9 3.896" mask="url(#prefix__d)"/>
            </g>
            <g transform="translate(0 148.046)">
                <mask id="prefix__f" fill="#fff">
                    <use xlink:href="#prefix__e"/>
                </mask>
                <path fill="#DBDBDB" d="M237.07 6.638c0 3.488-53.07 6.316-118.535 6.316S0 10.126 0 6.638C0 3.149 53.07.32 118.535.32c65.464 0 118.534 2.828 118.534 6.317" mask="url(#prefix__f)"/>
            </g>
            <path fill="#EFEFEF" d="M234.327 153.598H6.672c-2.15 0-3.891-1.737-3.891-3.88V3.879C2.78 1.738 4.523 0 6.672 0h227.655c2.15 0 3.892 1.737 3.892 3.879v145.84c0 2.142-1.742 3.879-3.892 3.879"/>
            <path fill="#6EB1F4" d="M6.025 2.776c1.28 0 2.317 1.036 2.317 2.313 0 1.278-1.037 2.313-2.317 2.313-1.28 0-2.317-1.035-2.317-2.313 0-1.277 1.037-2.313 2.317-2.313M13.44 2.776c1.28 0 2.318 1.036 2.318 2.313 0 1.278-1.038 2.313-2.318 2.313s-2.317-1.035-2.317-2.313c0-1.277 1.038-2.313 2.317-2.313M19.929 2.776c1.28 0 2.317 1.036 2.317 2.313 0 1.278-1.037 2.313-2.317 2.313-1.28 0-2.317-1.035-2.317-2.313 0-1.277 1.037-2.313 2.317-2.313"/>
            <mask id="prefix__h" fill="#fff">
                <use xlink:href="#prefix__g"/>
            </mask>
            <path fill="#6B6B6B" d="M1.488 153.962h235.243V1.486H1.488v152.476zm-.561.561h236.365V.925H.927v153.598z" mask="url(#prefix__h)"/>
            <path fill="#6B6B6B" d="M237.19 154.102H1.833c-.216 0-.642.07-.751-.063-.255-.31 0-1.914 0-2.298V.158L.102.42H235.46c.215 0 .641-.07.75.063.255.31 0 1.913 0 2.298v151.583c0-.08.98-.168.98-.263V2.34c0-.318.23-1.9 0-2.146-.387-.413-3.17-.035-3.729-.035H1.082c-.096 0-.98.227-.98.263v151.764c0 .317-.23 1.9 0 2.145.387.413 3.17.035 3.73.035H236.21c.328 0 .655-.263.979-.263" mask="url(#prefix__h)"/>
            <path fill="#6B6B6B" d="M1.023 153.527H226.671c3.032 0 6.113.159 9.141 0 .132-.007.267 0 .4 0 .095 0 .98-.226.98-.262V3.057c0-.318.226-1.826 0-2.076-.1-.109-.707-.025-.867-.025H2.004c-.097 0-.98.227-.98.262V151.203c0 .498-.218 1.6 0 2.057.028.06 0 .196 0 .267 0-.08.98-.167.98-.262V3.281c0-.556.194-1.53 0-2.057-.026-.07 0-.191 0-.268l-.98.262h234.411c.194 0 .67-.072.776.049.243.274 0 1.884 0 2.23v150.03l.98-.262H11.544c-3.031 0-6.112-.159-9.14 0-.132.007-.267 0-.4 0-.328 0-.655.262-.98.262" mask="url(#prefix__h)"/>
            <path fill="#6B6B6B" d="M0.927 9.253L237.292 9.253 237.292 8.328 0.927 8.328z" mask="url(#prefix__h)"/>
            <path fill="#6B6B6B" d="M.927 8.647H232.99c.798 0 2.261-.28 3.016 0 .407.152.308-.255.308.537l.978-.251H5.23c-.798 0-2.26.281-3.015 0-.407-.152-.309.255-.309-.537 0 .077-.978.16-.978.251 0 .85.633.537 1.442.537h224.305c3.065 0 6.18.155 9.243 0 .131-.006.265 0 .397 0 .096 0 .978-.217.978-.251 0-.85-.632-.537-1.441-.537H11.545c-3.065 0-6.18-.154-9.243 0-.13.007-.265 0-.397 0-.327 0-.654.251-.978.251M6.952 3.354c-.96 0-1.738.777-1.738 1.735 0 .958.778 1.735 1.738 1.735S8.69 6.047 8.69 5.089c-.001-.958-.779-1.734-1.738-1.735m0 4.048c-1.28 0-2.317-1.035-2.317-2.313 0-1.278 1.037-2.313 2.317-2.313 1.28 0 2.317 1.035 2.317 2.313-.001 1.277-1.038 2.312-2.317 2.313M14.367 3.354c-.96 0-1.738.777-1.738 1.735 0 .958.778 1.735 1.738 1.735s1.738-.777 1.738-1.735c0-.958-.778-1.734-1.738-1.735m0 4.048c-1.28 0-2.317-1.035-2.317-2.313 0-1.278 1.038-2.313 2.317-2.313 1.28 0 2.318 1.035 2.318 2.313-.002 1.277-1.038 2.312-2.318 2.313M20.856 3.354c-.96 0-1.738.777-1.738 1.735 0 .958.778 1.735 1.738 1.735s1.738-.777 1.738-1.735c-.001-.958-.779-1.734-1.738-1.735m0 4.048c-1.28 0-2.318-1.035-2.318-2.313 0-1.278 1.038-2.313 2.318-2.313s2.317 1.035 2.317 2.313c-.001 1.277-1.038 2.312-2.317 2.313" mask="url(#prefix__h)"/>
            <path fill="#E0E0E0" d="M173.135 42.563H12.25c-1.134 0-2.054-.912-2.054-2.037V18.692c0-1.125.92-2.037 2.054-2.037h160.885c1.134 0 2.053.912 2.053 2.037v21.834c0 1.125-.919 2.037-2.053 2.037" mask="url(#prefix__h)"/>
            <path stroke="#E0E0E0" d="M173.135 42.563H12.25c-1.134 0-2.054-.912-2.054-2.037V18.692c0-1.125.92-2.037 2.054-2.037h160.885c1.134 0 2.053.912 2.053 2.037v21.834c0 1.125-.919 2.037-2.053 2.037z" mask="url(#prefix__h)"/>
            <path fill="#E0E0E0" d="M226.355 42.563h-42.083c-1.433 0-2.595-1.15-2.595-2.57V19.225c0-1.42 1.162-2.57 2.595-2.57h42.083c1.433 0 2.595 1.15 2.595 2.57v20.768c0 1.42-1.162 2.57-2.595 2.57" mask="url(#prefix__h)"/>
            <path stroke="#E0E0E0" d="M226.355 42.563h-42.083c-1.433 0-2.595-1.15-2.595-2.57V19.225c0-1.42 1.162-2.57 2.595-2.57h42.083c1.433 0 2.595 1.15 2.595 2.57v20.768c0 1.42-1.162 2.57-2.595 2.57z" mask="url(#prefix__h)"/>
            <path fill="#CCC" d="M210.556 22.428c-.255.144-.467.352-.613.603l-7.362 12.534-4.58-7.798c-.33-.563-1.062-.756-1.634-.43-.182.102-.334.251-.438.43l-8.69 14.796h37.076l-11.471-19.532c-.463-.788-1.487-1.058-2.288-.603" mask="url(#prefix__h)"/>
            <path stroke="#E0E0E0" d="M210.556 22.428c-.255.144-.467.352-.613.603l-7.362 12.534-4.58-7.798c-.33-.563-1.062-.756-1.634-.43-.182.102-.334.251-.438.43l-8.69 14.796h37.076l-11.471-19.532c-.463-.788-1.487-1.058-2.288-.603z" mask="url(#prefix__h)"/>
            <path fill="#E0E0E0" d="M173.135 76.799H12.25c-1.134 0-2.054-.912-2.054-2.037V52.928c0-1.126.92-2.037 2.054-2.037h160.885c1.134 0 2.053.911 2.053 2.037v21.834c0 1.125-.919 2.037-2.053 2.037" mask="url(#prefix__h)"/>
            <path stroke="#E0E0E0" d="M173.135 76.799H12.25c-1.134 0-2.054-.912-2.054-2.037V52.928c0-1.126.92-2.037 2.054-2.037h160.885c1.134 0 2.053.911 2.053 2.037v21.834c0 1.125-.919 2.037-2.053 2.037z" mask="url(#prefix__h)"/>
            <path fill="#E0E0E0" d="M226.355 76.799h-42.083c-1.433 0-2.595-1.15-2.595-2.57V53.46c0-1.419 1.162-2.57 2.595-2.57h42.083c1.433 0 2.595 1.151 2.595 2.57v20.77c0 1.418-1.162 2.569-2.595 2.569" mask="url(#prefix__h)"/>
            <path stroke="#E0E0E0" d="M226.355 76.799h-42.083c-1.433 0-2.595-1.15-2.595-2.57V53.46c0-1.419 1.162-2.57 2.595-2.57h42.083c1.433 0 2.595 1.151 2.595 2.57v20.77c0 1.418-1.162 2.569-2.595 2.569z" mask="url(#prefix__h)"/>
            <path fill="#CCC" d="M210.556 57.589c-.255.144-.467.352-.613.602l-7.362 12.535-4.58-7.798c-.33-.563-1.062-.756-1.634-.431-.182.103-.334.252-.438.43l-8.69 14.797h37.076l-11.471-19.533c-.463-.787-1.487-1.057-2.288-.602" mask="url(#prefix__h)"/>
            <path stroke="#E0E0E0" d="M210.556 57.589c-.255.144-.467.352-.613.602l-7.362 12.535-4.58-7.798c-.33-.563-1.062-.756-1.634-.431-.182.103-.334.252-.438.43l-8.69 14.797h37.076l-11.471-19.533c-.463-.787-1.487-1.057-2.288-.602z" mask="url(#prefix__h)"/>
            <path fill="#E0E0E0" d="M173.135 111.96H12.25c-1.134 0-2.054-.912-2.054-2.037V88.088c0-1.125.92-2.036 2.054-2.036h160.885c1.134 0 2.053.911 2.053 2.036v21.835c0 1.125-.919 2.037-2.053 2.037" mask="url(#prefix__h)"/>
            <path stroke="#E0E0E0" d="M173.135 111.96H12.25c-1.134 0-2.054-.912-2.054-2.037V88.088c0-1.125.92-2.036 2.054-2.036h160.885c1.134 0 2.053.911 2.053 2.036v21.835c0 1.125-.919 2.037-2.053 2.037z" mask="url(#prefix__h)"/>
            <path fill="#E0E0E0" d="M226.355 111.96h-42.083c-1.433 0-2.595-1.15-2.595-2.57V88.62c0-1.419 1.162-2.57 2.595-2.57h42.083c1.433 0 2.595 1.151 2.595 2.57v20.769c0 1.42-1.162 2.57-2.595 2.57" mask="url(#prefix__h)"/>
            <path stroke="#E0E0E0" d="M226.355 111.96h-42.083c-1.433 0-2.595-1.15-2.595-2.57V88.62c0-1.419 1.162-2.57 2.595-2.57h42.083c1.433 0 2.595 1.151 2.595 2.57v20.769c0 1.42-1.162 2.57-2.595 2.57z" mask="url(#prefix__h)"/>
            <path fill="#CCC" d="M210.556 90.899c-.255.145-.467.352-.613.603l-7.362 12.534-4.58-7.798c-.33-.562-1.062-.755-1.634-.43-.182.103-.334.251-.438.43l-8.69 14.796h37.076l-11.471-19.532c-.463-.788-1.487-1.058-2.288-.603" mask="url(#prefix__h)"/>
            <path stroke="#E0E0E0" d="M210.556 90.899c-.255.145-.467.352-.613.603l-7.362 12.534-4.58-7.798c-.33-.562-1.062-.755-1.634-.43-.182.103-.334.251-.438.43l-8.69 14.796h37.076l-11.471-19.532c-.463-.788-1.487-1.058-2.288-.603z" mask="url(#prefix__h)"/>
            <path fill="#E0E0E0" d="M173.135 145.27H12.25c-1.134 0-2.054-.912-2.054-2.037V121.4c0-1.125.92-2.037 2.054-2.037h160.885c1.134 0 2.053.912 2.053 2.037v21.834c0 1.125-.919 2.037-2.053 2.037" mask="url(#prefix__h)"/>
            <path stroke="#E0E0E0" d="M173.135 145.27H12.25c-1.134 0-2.054-.912-2.054-2.037V121.4c0-1.125.92-2.037 2.054-2.037h160.885c1.134 0 2.053.912 2.053 2.037v21.834c0 1.125-.919 2.037-2.053 2.037z" mask="url(#prefix__h)"/>
            <path fill="#E0E0E0" d="M226.355 145.27h-42.083c-1.433 0-2.595-1.15-2.595-2.57v-20.768c0-1.42 1.162-2.57 2.595-2.57h42.083c1.433 0 2.595 1.15 2.595 2.57V142.7c0 1.42-1.162 2.57-2.595 2.57" mask="url(#prefix__h)"/>
            <path stroke="#E0E0E0" d="M226.355 145.27h-42.083c-1.433 0-2.595-1.15-2.595-2.57v-20.768c0-1.42 1.162-2.57 2.595-2.57h42.083c1.433 0 2.595 1.15 2.595 2.57V142.7c0 1.42-1.162 2.57-2.595 2.57z" mask="url(#prefix__h)"/>
            <path fill="#CCC" d="M210.556 125.135c-.255.144-.467.352-.613.602l-7.362 12.534-4.58-7.797c-.33-.563-1.062-.756-1.634-.431-.182.103-.334.252-.438.43l-8.69 14.797h37.076l-11.471-19.533c-.463-.787-1.487-1.057-2.288-.602" mask="url(#prefix__h)"/>
            <path stroke="#E0E0E0" d="M210.556 125.135c-.255.144-.467.352-.613.602l-7.362 12.534-4.58-7.797c-.33-.563-1.062-.756-1.634-.431-.182.103-.334.252-.438.43l-8.69 14.797h37.076l-11.471-19.533c-.463-.787-1.487-1.057-2.288-.602z" mask="url(#prefix__h)"/>
            <path fill="#6EB1F4" d="M227.513 113.81H11.633c-.794 0-1.437-.645-1.437-1.441V51.407c0-.796.643-1.441 1.437-1.441h215.88c.794 0 1.437.645 1.437 1.44v60.963c0 .796-.643 1.441-1.437 1.441" mask="url(#prefix__h)"/>
            <path fill="#F2F2F2" d="M84.35 65.695L216.9 65.695 216.9 61.069 84.35 61.069z" mask="url(#prefix__h)"/>
            <path fill="#6B6B6B" d="M86.906 63.34h132.072v-4.542H86.906v4.542zm-.702.505H219.68v-5.552H86.204v5.552z" mask="url(#prefix__h)"/>
            <path fill="#6B6B6B" d="M219.554 64.448H88.796c-.551 0-1.562.199-2.082 0-.064-.025-.272.046-.322 0-.286-.267-.004-2.336-.004-2.72v-3.372l-.985.26h130.759c.551 0 1.562-.2 2.082 0 .064.024.271-.047.322 0 .286.266.004 2.335.004 2.72v3.37c0-.078.984-.165.984-.258v-3.372c0-.4.288-2.448-.004-2.72-.129-.119-.967 0-1.132 0H92.315c-1.87 0-3.807-.142-5.673 0-.083.007-.17 0-.254 0-.097 0-.985.224-.985.26v3.37c0 .402-.287 2.449.005 2.72.128.12.967 0 1.132 0h126.102c1.87 0 3.807.143 5.674 0 .083-.006.17 0 .254 0 .33 0 .658-.258.984-.258" mask="url(#prefix__h)"/>
            <path fill="#6B6B6B" d="M86.204 63.791H212.326c1.701 0 3.473.121 5.17 0 .074-.005.15 0 .225 0 .096 0 .982-.193.982-.223v-3.094c0-.224.143-1.08-.05-1.197-.216-.132-1.143 0-1.398 0H92.95c-1.818 0-3.708-.126-5.522 0-.079.006-.161 0-.24 0-.097 0-.983.193-.983.223v4.291c0-.068.982-.142.982-.223v-4.29l-.982.222H214.92c.727 0 1.58-.105 2.298 0 .091.014.38-.05.452 0 .199.134.05 1.094.05 1.327v2.964l.982-.223H92.58c-1.701 0-3.473-.121-5.17 0-.074.005-.15 0-.225 0-.329 0-.657.223-.982.223" mask="url(#prefix__h)"/>
            <path fill="#F2F2F2" d="M84.35 86.052L216.9 86.052 216.9 81.425 84.35 81.425z" mask="url(#prefix__h)"/>
            <path fill="#6B6B6B" d="M86.906 82.771h132.072V78.23H86.906v4.542zm-.702.505H219.68v-5.552H86.204v5.552z" mask="url(#prefix__h)"/>
            <path fill="#6B6B6B" d="M219.554 83.878H88.796c-.551 0-1.562.2-2.082 0-.064-.024-.272.047-.322 0-.286-.266-.004-2.335-.004-2.72v-3.37l-.985.259h130.759c.551 0 1.562-.2 2.082 0 .064.024.271-.047.322 0 .286.266.004 2.335.004 2.72v3.37c0-.079.984-.165.984-.259v-3.37c0-.402.288-2.449-.004-2.72-.129-.12-.967 0-1.132 0H92.315c-1.87 0-3.807-.143-5.673 0-.083.006-.17 0-.254 0-.097 0-.985.224-.985.259v3.37c0 .402-.287 2.449.005 2.72.128.12.967 0 1.132 0h126.102c1.87 0 3.807.143 5.674 0 .083-.006.17 0 .254 0 .33 0 .658-.259.984-.259" mask="url(#prefix__h)"/>
            <path fill="#6B6B6B" d="M86.204 83.222H212.326c1.701 0 3.473.121 5.17 0 .074-.005.15 0 .225 0 .096 0 .982-.193.982-.223v-3.094c0-.224.143-1.08-.05-1.197-.216-.132-1.143 0-1.398 0H92.95c-1.818 0-3.708-.126-5.522 0-.079.006-.161 0-.24 0-.097 0-.983.193-.983.223v4.291c0-.068.982-.142.982-.223v-4.29l-.982.222H214.92c.727 0 1.58-.105 2.298 0 .091.014.38-.049.452 0 .199.134.05 1.094.05 1.327v2.964l.982-.223H92.58c-1.701 0-3.473-.121-5.17 0-.074.005-.15 0-.225 0-.329 0-.657.223-.982.223" mask="url(#prefix__h)"/>
            <path fill="#F2F2F2" d="M85.277 105.483L112.158 105.483 112.158 100.856 85.277 100.856z" mask="url(#prefix__h)"/>
            <path fill="#6B6B6B" d="M86.577 102.202h27.061V97.66h-27.06v4.542zm-.373.505h27.808v-5.552H86.204v5.552z" mask="url(#prefix__h)"/>
            <path fill="#6B6B6B" d="M114.819 102.385H89.305c-.374 0-1.524.204-1.85 0-.382-.239-.159-1.56-.159-2.082v-4.01l-.972.259H111.837c.375 0 1.524-.204 1.85 0 .383.239.16 1.56.16 2.082v4.01c0-.079.972-.165.972-.259v-3.372c0-.404.278-2.448-.014-2.72-.15-.141-1.12 0-1.32 0H87.296c-.095 0-.972.223-.972.259v3.372c0 .404-.279 2.447.013 2.72.151.141 1.12 0 1.32 0h26.189c.326 0 .65-.259.973-.259" mask="url(#prefix__h)"/>
            <path fill="#6B6B6B" d="M86.204 101.782h26.782c.096 0 .973-.195.973-.225v-2.86c0-.383.184-1.293-.136-1.47-.296-.162-1.322 0-1.666 0H87.176c-.096 0-.972.195-.972.226v4.329c0-.07.972-.144.972-.225v-4.33l-.972.226H110.514c.588 0 1.521-.156 2.087 0 .602.165.385.2.385.958v3.37l.973-.224H87.176c-.326 0-.65.225-.972.225" mask="url(#prefix__h)"/>
            <path fill="#FFF" d="M17.612 108.259L77.862 108.259 77.862 59.218 17.612 59.218z" mask="url(#prefix__h)"/>
            <path fill="#CCC" d="M56.64 73.429c-.376.217-.689.529-.905.904L44.876 93.135l-6.755-11.697c-.487-.844-1.566-1.134-2.41-.647-.27.155-.492.378-.647.647l-12.818 22.194h54.689L60.014 74.333c-.682-1.181-2.193-1.586-3.375-.904" mask="url(#prefix__h)"/>
            <path fill="#6B6B6B" d="M80.613 103.838h-58.06c-.212 0-.586.075-.785 0-.087-.033-.12.02-.165-.034-.07-.085 0-.518 0-.621V56.48l-1.182.682h58.061c.212 0 .585-.075.785 0 .087.033.12-.02.164.034.07.085 0 .518 0 .621v46.703c0-.218 1.182-.446 1.182-.682V57.113c0-.094.066-.525 0-.604-.104-.126-.82-.03-.997-.03H28.894c-2.322 0-4.661-.083-6.982 0-.103.004-.206 0-.309 0-.12 0-1.182.609-1.182.683V103.887c0 .094-.065.525 0 .604.104.126.82.03.998.03H72.141c2.322 0 4.66.083 6.981 0 .103-.004.207 0 .31 0 .398 0 .792-.683 1.181-.683" mask="url(#prefix__h)"/>
        </g>
    </g>
</svg>
