<svg xmlns="http://www.w3.org/2000/svg" xmlns:xlink="http://www.w3.org/1999/xlink" width="279" height="192" viewBox="0 0 279 192">
    <defs>
        <path id="prefix__a" d="M0 0L279 0 279 177 0 177z"/>
        <path id="prefix__c" d="M0.057 0.091L226.109 0.091 226.109 148.391 0.057 148.391z"/>
        <path id="prefix__e" d="M0 0.32L228.014 0.32 228.014 12.917 0 12.917z"/>
        <path id="prefix__g" d="M0 155L231 155 231 0 0 0z"/>
    </defs>
    <g fill="none" fill-rule="evenodd">
        <g opacity=".104">
            <mask id="prefix__b" fill="#fff">
                <use xlink:href="#prefix__a"/>
            </mask>
            <path fill="#6EB1F4" d="M136.236 19.233c-9.99-1.199-19.333-4.88-28.762-7.994-10.487-3.445-21.186-6.21-32.029-8.28C63.894.75 51.985-.69 40.404.34 28.823 1.37 17.523 5.072 10.136 11.843-2.378 23.327-1.322 40.735 2.811 56.079c4.905 18.204 13.385 36.2 27.266 51.704 9.866 11.02 22.246 20.561 34.516 30.032 6.937 5.344 13.937 10.726 22.04 14.928 7.537 3.904 15.859 6.703 24.122 9.462 8.823 2.95 17.668 5.916 26.778 8.17 29.078 7.198 59.69 6.973 89.62 6.332 10.533-.223 21.543-.59 30.38-4.706 6.886-3.218 11.793-8.43 15.51-13.99 4.865-7.282 7.937-15.973 4.482-24.095-5.093-11.98-22.547-19.038-28.357-30.837-7.446-15.14 7.017-31.142 2.924-46.901-1.702-6.556-6.502-12.482-11.59-18.009-12.133-13.176-28.26-25.179-49.935-23.425-18.352 1.48-35.09 6.8-54.33 4.489" mask="url(#prefix__b)"/>
        </g>
        <g transform="translate(8 37)">
            <g transform="translate(4.62 .923)">
                <mask id="prefix__d" fill="#fff">
                    <use xlink:href="#prefix__c"/>
                </mask>
                <path fill="#DBDBDB" d="M222.373 148.39H3.793c-2.063 0-3.736-1.676-3.736-3.744V3.836C.057 1.767 1.73.09 3.793.09h218.58c2.063 0 3.736 1.676 3.736 3.745v140.81c0 2.068-1.673 3.745-3.736 3.745" mask="url(#prefix__d)"/>
            </g>
            <g transform="translate(0 141.16)">
                <mask id="prefix__f" fill="#fff">
                    <use xlink:href="#prefix__e"/>
                </mask>
                <path fill="#DBDBDB" d="M228.014 6.618c0 3.479-51.043 6.299-114.007 6.299C51.043 12.917 0 10.097 0 6.618 0 3.14 51.043.32 114.007.32c62.964 0 114.007 2.82 114.007 6.298" mask="url(#prefix__f)"/>
            </g>
            <path fill="#EFEFEF" d="M224.501 148.542H6.5c-2.059 0-3.727-1.68-3.727-3.752V3.751C2.772 1.679 4.44 0 6.499 0H224.5c2.058 0 3.727 1.68 3.727 3.751v141.04c0 2.071-1.669 3.75-3.727 3.75"/>
            <path fill="#6EB1F4" d="M5.082 2.768c1.276 0 2.31 1.033 2.31 2.306 0 1.274-1.034 2.307-2.31 2.307s-2.31-1.033-2.31-2.307c0-1.273 1.034-2.306 2.31-2.306M12.474 2.768c1.275 0 2.31 1.033 2.31 2.306 0 1.274-1.035 2.307-2.31 2.307-1.276 0-2.31-1.033-2.31-2.307 0-1.273 1.034-2.306 2.31-2.306M19.866 2.768c1.276 0 2.31 1.033 2.31 2.306 0 1.274-1.034 2.307-2.31 2.307-1.275 0-2.31-1.033-2.31-2.307 0-1.273 1.035-2.306 2.31-2.306"/>
            <mask id="prefix__h" fill="#fff">
                <use xlink:href="#prefix__g"/>
            </mask>
            <path fill="#6B6B6B" d="M1.462 148h225.304V.542H1.462V148zm-.538.542h226.38V0H.924v148.542z" mask="url(#prefix__h)"/>
            <path fill="#6B6B6B" d="M227.206 149.057H1.756c-.207 0-.615.068-.72-.06-.244-.302 0-1.852 0-2.224V.153L.098.407h225.45c.207 0 .615-.068.72.061.244.3 0 1.851 0 2.223v146.621c0-.078.938-.163.938-.255V2.262c0-.308.22-1.838 0-2.075-.371-.4-3.037-.034-3.572-.034H1.036c-.092 0-.938.22-.938.254v146.796c0 .307-.22 1.837 0 2.075.37.399 3.037.034 3.572.034H226.268c.314 0 .627-.255.938-.255" mask="url(#prefix__h)"/>
            <path fill="#6B6B6B" d="M1.016 148.473h216.116c2.904 0 5.854.154 8.755 0 .126-.006.255 0 .382 0 .092 0 .939-.219.939-.253V2.983c0-.307.216-1.764 0-2.006-.095-.106-.678-.024-.83-.024H1.954c-.092 0-.939.219-.939.253v145.02c0 .481-.208 1.546 0 1.989.028.058 0 .19 0 .258 0-.077.94-.162.94-.253V3.2c0-.538.185-1.478 0-1.989-.025-.066 0-.184 0-.258l-.94.253H225.525c.186 0 .641-.07.744.047.232.265 0 1.822 0 2.156v145.064l.939-.253H11.092c-2.903 0-5.854-.154-8.755 0-.126.007-.255 0-.382 0-.314 0-.627.253-.939.253" mask="url(#prefix__h)"/>
            <path fill="#6B6B6B" d="M0.924 9.226L227.304 9.226 227.304 8.304 0.924 8.304z" mask="url(#prefix__h)"/>
            <path fill="#6B6B6B" d="M.924 8.623H223.184c.764 0 2.165-.28 2.888 0 .39.15.295-.255.295.535l.937-.25H5.044c-.764 0-2.165.28-2.887 0-.39-.152-.296.254-.296-.536 0 .077-.937.16-.937.25 0 .847.606.536 1.38.536H217.136c2.935 0 5.918.154 8.852 0 .125-.007.254 0 .38 0 .092 0 .937-.217.937-.25 0-.848-.606-.536-1.38-.536H11.094c-2.936 0-5.92-.154-8.853 0-.125.007-.254 0-.38 0-.314 0-.627.25-.937.25M6.93 3.344c-.957 0-1.733.775-1.733 1.73 0 .956.776 1.73 1.733 1.73.957 0 1.733-.774 1.733-1.73-.002-.955-.777-1.729-1.733-1.73m0 4.037c-1.276 0-2.31-1.033-2.31-2.306 0-1.275 1.034-2.307 2.31-2.307S9.24 3.8 9.24 5.075C9.239 6.348 8.205 7.38 6.93 7.38M13.398 3.344c-.957 0-1.733.775-1.733 1.73 0 .956.776 1.73 1.733 1.73.957 0 1.733-.774 1.733-1.73-.001-.955-.777-1.729-1.733-1.73m0 4.037c-1.276 0-2.31-1.033-2.31-2.306 0-1.275 1.034-2.307 2.31-2.307s2.31 1.032 2.31 2.307c-.001 1.273-1.035 2.305-2.31 2.306M18.942 3.344c-.957 0-1.733.775-1.733 1.73 0 .956.776 1.73 1.733 1.73.957 0 1.733-.774 1.733-1.73-.001-.955-.777-1.729-1.733-1.73m0 4.037c-1.276 0-2.31-1.033-2.31-2.306 0-1.275 1.034-2.307 2.31-2.307s2.31 1.032 2.31 2.307c-.001 1.273-1.035 2.305-2.31 2.306" mask="url(#prefix__h)"/>
            <path fill="#E0E0E0" d="M166.19 41.518H11.218c-1.092 0-1.978-.877-1.978-1.958V18.566c0-1.082.886-1.959 1.978-1.959H166.19c1.093 0 1.978.877 1.978 1.959V39.56c0 1.081-.885 1.958-1.978 1.958" mask="url(#prefix__h)"/>
            <path stroke="#E0E0E0" d="M166.19 41.518H11.218c-1.092 0-1.978-.877-1.978-1.958V18.566c0-1.082.886-1.959 1.978-1.959H166.19c1.093 0 1.978.877 1.978 1.959V39.56c0 1.081-.885 1.958-1.978 1.958z" mask="url(#prefix__h)"/>
            <path fill="#E0E0E0" d="M216.502 41.518h-40.304c-1.373 0-2.486-1.106-2.486-2.471V19.078c0-1.365 1.113-2.47 2.486-2.47h40.304c1.373 0 2.486 1.105 2.486 2.47v19.969c0 1.365-1.113 2.47-2.486 2.47" mask="url(#prefix__h)"/>
            <path stroke="#E0E0E0" d="M216.502 41.518h-40.304c-1.373 0-2.486-1.106-2.486-2.471V19.078c0-1.365 1.113-2.47 2.486-2.47h40.304c1.373 0 2.486 1.105 2.486 2.47v19.969c0 1.365-1.113 2.47-2.486 2.47z" mask="url(#prefix__h)"/>
            <path fill="#CCC" d="M201.919 20.518c-.248.144-.454.351-.596.6l-7.155 12.5-4.452-7.777c-.32-.56-1.032-.753-1.588-.429-.177.103-.324.251-.426.43l-8.446 14.753h36.036l-11.15-19.476c-.45-.785-1.445-1.055-2.223-.601" mask="url(#prefix__h)"/>
            <path stroke="#E0E0E0" d="M201.919 20.518c-.248.144-.454.351-.596.6l-7.155 12.5-4.452-7.777c-.32-.56-1.032-.753-1.588-.429-.177.103-.324.251-.426.43l-8.446 14.753h36.036l-11.15-19.476c-.45-.785-1.445-1.055-2.223-.601z" mask="url(#prefix__h)"/>
            <path fill="#E0E0E0" d="M166.19 73.81H11.218c-1.092 0-1.978-.877-1.978-1.959V50.857c0-1.082.886-1.958 1.978-1.958H166.19c1.093 0 1.978.876 1.978 1.958v20.994c0 1.082-.885 1.959-1.978 1.959" mask="url(#prefix__h)"/>
            <path stroke="#E0E0E0" d="M166.19 73.81H11.218c-1.092 0-1.978-.877-1.978-1.959V50.857c0-1.082.886-1.958 1.978-1.958H166.19c1.093 0 1.978.876 1.978 1.958v20.994c0 1.082-.885 1.959-1.978 1.959z" mask="url(#prefix__h)"/>
            <path fill="#E0E0E0" d="M216.502 73.81h-40.304c-1.373 0-2.486-1.107-2.486-2.471v-19.97c0-1.364 1.113-2.47 2.486-2.47h40.304c1.373 0 2.486 1.106 2.486 2.47v19.97c0 1.364-1.113 2.47-2.486 2.47" mask="url(#prefix__h)"/>
            <path stroke="#E0E0E0" d="M216.502 73.81h-40.304c-1.373 0-2.486-1.107-2.486-2.471v-19.97c0-1.364 1.113-2.47 2.486-2.47h40.304c1.373 0 2.486 1.106 2.486 2.47v19.97c0 1.364-1.113 2.47-2.486 2.47z" mask="url(#prefix__h)"/>
            <path fill="#CCC" d="M201.919 54.655c-.248.144-.454.351-.596.6l-7.155 12.499-4.452-7.776c-.32-.56-1.032-.753-1.588-.43-.177.104-.324.252-.426.43l-8.446 14.754h36.036l-11.15-19.476c-.45-.785-1.445-1.055-2.223-.601" mask="url(#prefix__h)"/>
            <path stroke="#E0E0E0" d="M201.919 54.655c-.248.144-.454.351-.596.6l-7.155 12.499-4.452-7.776c-.32-.56-1.032-.753-1.588-.43-.177.104-.324.252-.426.43l-8.446 14.754h36.036l-11.15-19.476c-.45-.785-1.445-1.055-2.223-.601z" mask="url(#prefix__h)"/>
            <path fill="#E0E0E0" d="M166.19 107.024H11.218c-1.092 0-1.978-.877-1.978-1.959V84.071c0-1.081.886-1.958 1.978-1.958H166.19c1.093 0 1.978.877 1.978 1.958v20.994c0 1.082-.885 1.959-1.978 1.959" mask="url(#prefix__h)"/>
            <path stroke="#E0E0E0" d="M166.19 107.024H11.218c-1.092 0-1.978-.877-1.978-1.959V84.071c0-1.081.886-1.958 1.978-1.958H166.19c1.093 0 1.978.877 1.978 1.958v20.994c0 1.082-.885 1.959-1.978 1.959z" mask="url(#prefix__h)"/>
            <path fill="#E0E0E0" d="M216.502 107.024h-40.304c-1.373 0-2.486-1.106-2.486-2.471v-19.97c0-1.364 1.113-2.47 2.486-2.47h40.304c1.373 0 2.486 1.106 2.486 2.47v19.97c0 1.365-1.113 2.47-2.486 2.47" mask="url(#prefix__h)"/>
            <path stroke="#E0E0E0" d="M216.502 107.024h-40.304c-1.373 0-2.486-1.106-2.486-2.471v-19.97c0-1.364 1.113-2.47 2.486-2.47h40.304c1.373 0 2.486 1.106 2.486 2.47v19.97c0 1.365-1.113 2.47-2.486 2.47z" mask="url(#prefix__h)"/>
            <path fill="#CCC" d="M201.919 87.869c-.248.144-.454.351-.596.601l-7.155 12.498-4.452-7.775c-.32-.561-1.032-.754-1.588-.43-.177.103-.324.251-.426.43l-8.446 14.753h36.036l-11.15-19.476c-.45-.785-1.445-1.054-2.223-.601" mask="url(#prefix__h)"/>
            <path stroke="#E0E0E0" d="M201.919 87.869c-.248.144-.454.351-.596.601l-7.155 12.498-4.452-7.775c-.32-.561-1.032-.754-1.588-.43-.177.103-.324.251-.426.43l-8.446 14.753h36.036l-11.15-19.476c-.45-.785-1.445-1.054-2.223-.601z" mask="url(#prefix__h)"/>
            <path fill="#E0E0E0" d="M166.19 139.315H11.218c-1.092 0-1.978-.876-1.978-1.958v-20.994c0-1.081.886-1.958 1.978-1.958H166.19c1.093 0 1.978.877 1.978 1.958v20.994c0 1.082-.885 1.958-1.978 1.958" mask="url(#prefix__h)"/>
            <path stroke="#E0E0E0" d="M166.19 139.315H11.218c-1.092 0-1.978-.876-1.978-1.958v-20.994c0-1.081.886-1.958 1.978-1.958H166.19c1.093 0 1.978.877 1.978 1.958v20.994c0 1.082-.885 1.958-1.978 1.958z" mask="url(#prefix__h)"/>
            <path fill="#E0E0E0" d="M216.502 139.315h-40.304c-1.373 0-2.486-1.106-2.486-2.47v-19.97c0-1.364 1.113-2.47 2.486-2.47h40.304c1.373 0 2.486 1.106 2.486 2.47v19.97c0 1.364-1.113 2.47-2.486 2.47" mask="url(#prefix__h)"/>
            <path stroke="#E0E0E0" d="M216.502 139.315h-40.304c-1.373 0-2.486-1.106-2.486-2.47v-19.97c0-1.364 1.113-2.47 2.486-2.47h40.304c1.373 0 2.486 1.106 2.486 2.47v19.97c0 1.364-1.113 2.47-2.486 2.47z" mask="url(#prefix__h)"/>
            <path fill="#CCC" d="M201.919 120.16c-.248.145-.454.352-.596.602l-7.155 12.498-4.452-7.776c-.32-.56-1.032-.753-1.588-.43-.177.104-.324.252-.426.43l-8.446 14.754h36.036l-11.15-19.476c-.45-.786-1.445-1.055-2.223-.601" mask="url(#prefix__h)"/>
            <path stroke="#E0E0E0" d="M201.919 120.16c-.248.145-.454.352-.596.602l-7.155 12.498-4.452-7.776c-.32-.56-1.032-.753-1.588-.43-.177.104-.324.252-.426.43l-8.446 14.754h36.036l-11.15-19.476c-.45-.786-1.445-1.055-2.223-.601z" mask="url(#prefix__h)"/>
            <path fill="#6EB1F4" d="M216.754 45.208H13.321c-1.743 0-3.157-1.453-3.157-3.246v-23.03c0-1.794 1.414-3.247 3.157-3.247h203.433c1.744 0 3.158 1.453 3.158 3.247v23.03c0 1.793-1.414 3.246-3.158 3.246" mask="url(#prefix__h)"/>
            <path fill="#C6C6C6" d="M216.678 11.994c2.806 0 5.082 2.272 5.082 5.075 0 2.802-2.276 5.074-5.082 5.074-2.807 0-5.082-2.272-5.082-5.074 0-2.803 2.275-5.075 5.082-5.075" mask="url(#prefix__h)"/>
            <path fill="#6B6B6B" d="M214.57 13.84c-.111 0-.201.09-.201.2 0 .054.022.106.06.143l1.965 1.963-1.965 1.962c-.08.077-.082.203-.005.283.077.08.204.082.284.006l.005-.006 1.965-1.962 1.965 1.962c.077.08.203.082.283.006.08-.077.083-.204.006-.284l-.006-.005-1.964-1.962 1.964-1.963c.08-.077.082-.204.004-.283-.039-.04-.093-.062-.15-.06-.051.001-.1.023-.137.06l-1.965 1.962-1.965-1.962c-.037-.039-.09-.06-.143-.06" mask="url(#prefix__h)"/>
            <path fill="#6B6B6B" d="M214.486 14.13c-.5.24 1.202 1.698 1.354 2.014.14.288.027.264-.225.554-.358.413-.747.809-1.082 1.246-.223.292-.258.501.136.455.252-.029.662-.142.883-.3.587-.422 1.1-1.267 1.592-1.834l-.945.292 1.243 1.431c.42.482.484.469 1.067.285.242-.076.544-.08.467-.43-.028-.124-.283-.325-.359-.412l-.797-.919c-.066-.075-.438-.396-.44-.507-.003-.089.293-.349.348-.412l.798-.92c.28-.322.792-.975.035-.75-.517.155-.748.244-1.119.672l-1.243 1.43.945-.29-.902-1.04c-.148-.17-.564-.858-.811-.856-.317.003-.632.289-.945.292.246-.002.67.694.811.856l.902 1.039c.04.046.889-.227.945-.292l.85-.979c.252-.29.527-.748.859-.916l-.945.292c.439.204-.366.879-.525 1.062-.134.155-.954.883-.949 1.103.009.355 2.077 1.886 1.476 2.156l.945-.291c-.335-.168-.607-.624-.86-.917l-.85-.979c-.041-.046-.89.227-.946.292l-.902 1.038c-.236.273-.496.714-.815.857l.945-.291c-.597-.3 1.503-1.798 1.487-2.161-.017-.366-2.069-1.881-1.483-2.16-.298.141-.646.148-.945.29" mask="url(#prefix__h)"/>
            <path fill="#F2F2F2" d="M15.708 28.601L206.052 28.601 206.052 23.988 15.708 23.988z" mask="url(#prefix__h)"/>
            <path fill="#6B6B6B" d="M18.568 25.33h190.168V20.8H18.568v4.53zm-1.012.503h192.192v-5.535H17.556v5.535z" mask="url(#prefix__h)"/>
            <path fill="#6B6B6B" d="M209.636 26.436H18.766c-.884 0-1.08.223-1.08-.604v-4.51l-.942.218h190.87c.885 0 1.08-.223 1.08.604v4.51c0-.067.942-.14.942-.218 0-1.516.252-3.186 0-4.682-.082-.488.101-.294-.209-.431-.52-.23-1.902 0-2.473 0H25.95c-2.621 0-5.3-.138-7.917 0-.115.006-.233 0-.349 0-.092 0-.94.188-.94.217 0 1.516-.253 3.186 0 4.683.08.487-.102.293.208.43.52.231 1.902 0 2.473 0H200.43c2.621 0 5.3.138 7.917 0 .116-.005.233 0 .349 0 .315 0 .63-.217.941-.217" mask="url(#prefix__h)"/>
            <path fill="#6B6B6B" d="M18.48 25.772h181.523c2.462 0 4.985.138 7.444 0 .106-.006.214 0 .32 0 .093 0 .939-.19.939-.22v-1.98c0-.364.266-2.01 0-2.234-.065-.055-.218.008-.32-.023-.692-.213-1.92 0-2.645 0H27.463c-2.548 0-5.148-.132-7.694 0-.116.006-.234 0-.35 0-.093 0-.939.19-.939.22v4.237c0-.067.938-.14.938-.22v-4.237l-.938.22H206.477c.235 0 1.128-.113 1.29.024.246.206 0 1.915 0 2.233v1.98l.939-.22H27.183c-2.462 0-4.985-.139-7.444 0-.106.006-.214 0-.32 0-.315 0-.628.22-.939.22" mask="url(#prefix__h)"/>
            <path fill="#F2F2F2" d="M15.708 40.595L90.552 40.595 90.552 35.982 15.708 35.982z" mask="url(#prefix__h)"/>
            <path fill="#6B6B6B" d="M17.95 37.324h74.056v-4.53H17.95v4.53zm-.394.503H92.4v-5.535H17.556v5.535z" mask="url(#prefix__h)"/>
            <path fill="#6B6B6B" d="M93.272 38.479H20.57c-.464 0-1.275.143-1.714 0-.481-.158-.308-.16-.308-.815v-4.4l-.94.222H90.31c.464 0 1.275-.144 1.714 0 .481.157.309.158.309.814v4.4c0-.067.94-.141.94-.221v-3.82c0-.4.186-1.216-.15-1.395-.209-.112-.907 0-1.145 0h-73.43c-.092 0-.94.192-.94.222v3.82c0 .4-.187 1.215.149 1.394.209.112.908 0 1.145 0h73.431c.314 0 .628-.221.94-.221" mask="url(#prefix__h)"/>
            <path fill="#6B6B6B" d="M17.556 36.905h73.865c.092 0 .939-.195.939-.226 0-1.262.09-2.551 0-3.81-.046-.636.12-.38-.313-.526-.34-.115-.985 0-1.345 0H18.495c-.092 0-.939.195-.939.225v4.337c0-.07.939-.144.939-.226v-4.336l-.939.225H85.95c1.596 0 3.356-.188 4.941 0 .386.046.381-.078.53.148.289.437 0 1.798 0 2.302v1.887l.939-.226H18.495c-.315 0-.628.226-.939.226" mask="url(#prefix__h)"/>
        </g>
    </g>
</svg>
