<svg xmlns="http://www.w3.org/2000/svg" xmlns:xlink="http://www.w3.org/1999/xlink" width="279" height="209" viewBox="0 0 279 209">
    <defs>
        <path id="prefix__a" d="M0 0L279 0 279 178 0 178z"/>
        <path id="prefix__c" d="M0.056 0.093L225.112 0.093 225.112 147.809 0.056 147.809z"/>
        <path id="prefix__e" d="M0 0.293L227.015 0.293 227.015 11.716 0 11.716z"/>
        <path id="prefix__g" d="M0 172L230 172 230 0 0 0z"/>
    </defs>
    <g fill="none" fill-rule="evenodd">
        <g opacity=".104">
            <mask id="prefix__b" fill="#fff">
                <use xlink:href="#prefix__a"/>
            </mask>
            <path fill="#6EB1F4" d="M136.236 19.342c-9.99-1.206-19.333-4.908-28.762-8.039-10.487-3.465-21.186-6.246-32.029-8.327C63.894.754 51.985-.694 40.404.34 28.823 1.377 17.523 5.101 10.136 11.91-2.378 23.46-1.322 40.966 2.811 56.396 7.716 74.703 16.196 92.8 30.077 108.392c9.866 11.083 22.246 20.677 34.516 30.202 6.937 5.374 13.937 10.786 22.04 15.012 7.537 3.926 15.859 6.741 24.122 9.516 8.823 2.966 17.668 5.949 26.778 8.216 29.078 7.238 59.69 7.012 89.62 6.367 10.533-.224 21.543-.593 30.38-4.732 6.886-3.236 11.793-8.479 15.51-14.069 4.865-7.324 7.937-16.063 4.482-24.231-5.093-12.049-22.547-19.146-28.357-31.011-7.446-15.225 7.017-31.319 2.924-47.167-1.702-6.593-6.502-12.552-11.59-18.11-12.133-13.251-28.26-25.321-49.935-23.558-18.352 1.489-35.09 6.839-54.33 4.515" mask="url(#prefix__b)"/>
        </g>
        <g transform="translate(10 37)">
            <g transform="translate(4.618)">
                <mask id="prefix__d" fill="#fff">
                    <use xlink:href="#prefix__c"/>
                </mask>
                <path fill="#DBDBDB" d="M221.392 147.81H3.776c-2.054 0-3.72-1.67-3.72-3.73V3.823c0-2.06 1.666-3.73 3.72-3.73h217.616c2.054 0 3.72 1.67 3.72 3.73v140.255c0 2.06-1.666 3.73-3.72 3.73" mask="url(#prefix__d)"/>
            </g>
            <g transform="translate(0 142.409)">
                <mask id="prefix__f" fill="#fff">
                    <use xlink:href="#prefix__e"/>
                </mask>
                <path fill="#DBDBDB" d="M227.015 6.004c0 3.155-50.819 5.712-113.507 5.712C50.819 11.716 0 9.159 0 6.004 0 2.85 50.819.293 113.508.293c62.688 0 113.507 2.557 113.507 5.711" mask="url(#prefix__f)"/>
            </g>
            <path fill="#EFEFEF" d="M223.519 147.032H6.48c-2.05 0-3.71-1.662-3.71-3.713V3.713C2.771 1.663 4.431 0 6.481 0H223.52c2.049 0 3.71 1.662 3.71 3.713v139.606c0 2.05-1.661 3.713-3.71 3.713"/>
            <mask id="prefix__h" fill="#fff">
                <use xlink:href="#prefix__g"/>
            </mask>
            <path fill="#6B6B6B" d="M89.212 51.24h120.854V26.438H89.212V51.24zm-.537.545h121.927V25.892H88.675v25.893z" mask="url(#prefix__h)"/>
            <path fill="#6B6B6B" d="M210.54 51.43H89.81c-.207 0-.93.101-1.06-.035-.182-.193 0-1.452 0-1.704V25.998l-.937.25H208.542c.208 0 .931-.102 1.06.035.182.193 0 1.452 0 1.703V51.68c0-.077.937-.16.937-.25V27.735c0-.627.248-1.51-.237-1.738-.5-.237-1.707 0-2.25 0H95.863c-2.25 0-4.561-.154-6.807 0-.1.007-.204 0-.306 0-.092 0-.937.216-.937.25V49.942c0 .626-.247 1.508.237 1.738.5.237 1.707 0 2.251 0h112.187c2.25 0 4.562.153 6.807 0 .101-.007.205 0 .306 0 .314 0 .627-.25.937-.25" mask="url(#prefix__h)"/>
            <path fill="#6B6B6B" d="M88.675 51.725h116.027c1.548 0 3.164.134 4.71 0 .068-.005.138 0 .207 0 .092 0 .939-.218.939-.252V28.074c0-.796.228-.983-.348-1.164-.663-.209-1.735 0-2.426 0H96.634c-2.224 0-4.51-.153-6.73 0-.096.006-.194 0-.29 0-.092 0-.94.218-.94.252v24.563c0-.077.94-.161.94-.252V26.91l-.94.252H208.337c.18 0 1.14-.137 1.282 0 .13.128.001 1.07.001 1.24v23.323l.939-.252H94.53c-1.548 0-3.164-.134-4.709 0-.068.006-.139 0-.207 0-.315 0-.629.252-.94.252" mask="url(#prefix__h)"/>
            <path fill="#6EB1F4" d="M83.838 31.44h117.746c.9 0 1.629.73 1.629 1.63v89.215c0 .9-.73 1.629-1.629 1.629H83.838c-.9 0-1.63-.73-1.63-1.629V33.07c0-.899.73-1.628 1.63-1.628M6.466 3.699c1.02 0 1.847.828 1.847 1.85 0 1.02-.827 1.849-1.847 1.849s-1.848-.828-1.848-1.85c0-1.021.827-1.85 1.848-1.85M12.932 3.699c1.02 0 1.847.828 1.847 1.85 0 1.02-.827 1.849-1.847 1.849s-1.848-.828-1.848-1.85c0-1.021.827-1.85 1.848-1.85M18.474 3.699c1.02 0 1.847.828 1.847 1.85 0 1.02-.827 1.849-1.847 1.849s-1.847-.828-1.847-1.85c0-1.021.826-1.85 1.847-1.85" mask="url(#prefix__h)"/>
            <path fill="#6B6B6B" d="M1.46 147.42h225.231V1.461H1.461v145.96zm-.536.537h226.305V.925H.924v147.032z" mask="url(#prefix__h)"/>
            <path fill="#6B6B6B" d="M226.208 147.554H1.748c-.206 0-.612.067-.716-.06-.244-.298 0-1.833 0-2.2V.15L.098.403h224.459c.206 0 .612-.067.717.06.242.298 0 1.833 0 2.2v145.143c0-.077.934-.161.934-.252V2.24c0-.304.22-1.819 0-2.054-.37-.395-3.024-.034-3.557-.034H1.032C.94.151.098.369.098.403v145.315c0 .304-.22 1.819 0 2.054.369.395 3.023.034 3.556.034h221.62c.312 0 .624-.252.934-.252" mask="url(#prefix__h)"/>
            <path fill="#6B6B6B" d="M1.016 147.889H217.06c2.903 0 5.852.153 8.752 0 .126-.007.255 0 .382 0 .092 0 .939-.218.939-.252V2.977c0-.306.216-1.757 0-1.999-.095-.105-.677-.023-.83-.023H1.954c-.092 0-.939.218-.939.252V145.65c0 .479-.208 1.54 0 1.98.027.058 0 .19 0 .258 0-.077.939-.161.939-.252V3.193c0-.535.185-1.472 0-1.98-.024-.067 0-.184 0-.258l-.939.252H225.45c.186 0 .642-.07.744.047.232.264 0 1.814 0 2.147V147.889l.939-.252H11.088c-2.902 0-5.852-.153-8.751 0-.127.006-.255 0-.382 0-.315 0-.628.252-.939.252" mask="url(#prefix__h)"/>
            <path fill="#6B6B6B" d="M0.924 9.247L226.305 9.247 226.305 8.323 0.924 8.323z" mask="url(#prefix__h)"/>
            <path fill="#6B6B6B" d="M0 8.642h222.186c.764 0 2.165-.28 2.887 0 .39.152.295-.255.295.537l.937-.252H4.12c-.764 0-2.165.282-2.887 0-.39-.15-.295.256-.295-.536 0 .077-.937.16-.937.251 0 .849.606.537 1.38.537H216.14c2.934 0 5.917.154 8.849 0 .126-.007.254 0 .38 0 .092 0 .937-.217.937-.252 0-.848-.606-.536-1.38-.536H10.166c-2.935 0-5.917-.154-8.849 0-.126.007-.254 0-.38 0-.314 0-.627.251-.937.251M6.466 3.237c-.765 0-1.386.62-1.386 1.387 0 .766.62 1.387 1.386 1.387.765 0 1.385-.621 1.385-1.387s-.62-1.387-1.385-1.387m0 3.236c-1.02 0-1.848-.828-1.848-1.85 0-1.02.827-1.849 1.848-1.849 1.02 0 1.847.828 1.847 1.85-.001 1.02-.827 1.848-1.847 1.85M12.932 3.237c-.766 0-1.386.62-1.386 1.387 0 .766.62 1.387 1.386 1.387.765 0 1.385-.621 1.385-1.387s-.62-1.387-1.385-1.387m0 3.236c-1.02 0-1.848-.828-1.848-1.85 0-1.02.827-1.849 1.848-1.849 1.02 0 1.847.828 1.847 1.85-.001 1.02-.827 1.848-1.847 1.85M19.398 3.237c-.766 0-1.386.62-1.386 1.387 0 .766.62 1.387 1.386 1.387.765 0 1.385-.621 1.385-1.387s-.62-1.387-1.385-1.387m0 3.236c-1.02 0-1.848-.828-1.848-1.85 0-1.02.827-1.849 1.848-1.849 1.02 0 1.847.828 1.847 1.85-.001 1.02-.828 1.848-1.847 1.85" mask="url(#prefix__h)"/>
            <path fill="#6B6B6B" d="M71.124 147.957L72.048 147.957 72.048 9.247 71.124 9.247z" mask="url(#prefix__h)"/>
            <path fill="#6B6B6B" d="M71.22 9.512c.816 0 .603.133.603.792v135.528c0 .481-.21 1.422 0 1.874.027.057 0 .172 0 .237l1.054-.25c-.817 0-.603-.134-.603-.792V11.372c0-.421.23-1.494 0-1.873-.03-.048 0-.178 0-.238 0 .077-1.055.16-1.055.251v136.575c0 .352-.213 1.392 0 1.701.164.237-.072.155.604.155.103 0 1.054-.217 1.054-.25V11.117c0-.352.213-1.391 0-1.7-.163-.238.072-.156-.603-.156-.354 0-.706.251-1.055.251" mask="url(#prefix__h)"/>
            <path fill="#F2F2F2" d="M91.446 77.677L131.165 77.677 131.165 72.129 91.446 72.129z" mask="url(#prefix__h)"/>
            <path fill="#6B6B6B" d="M94.762 74.399h39.552v-4.54H94.762v4.54zm-.545.504h40.642v-5.548H94.217v5.548z" mask="url(#prefix__h)"/>
            <path fill="#6B6B6B" d="M134.845 74.617H95.444c-.213 0-.808.116-.99 0-.294-.184-.03.108-.194-.341-.318-.868 0-2.467 0-3.396v-2.426l-.952.262h39.401c.213 0 .807-.115.99 0 .294.184.03-.108.194.341.318.868 0 2.468 0 3.397v2.426c0-.08.952-.168.952-.263v-5.2c0-.957.172-.947-.656-.963-2.72-.054-5.446 0-8.166 0H94.26c-.094 0-.952.226-.952.262v5.2c0 .957-.173.948.655.964 2.72.053 5.446 0 8.167 0H133.893c.319 0 .637-.263.952-.263" mask="url(#prefix__h)"/>
            <path fill="#6B6B6B" d="M94.217 73.978h39.555c.093 0 .953-.196.953-.227v-1.765c0-.522.303-1.98 0-2.413-.21-.299-.423-.204-.982-.204H95.17c-.093 0-.952.197-.952.228v4.381c0-.069.953-.145.953-.227v-4.382l-.953.228h37.944c.254 0 1.405-.158 1.61 0 .224.172 0 1.78 0 2.048v2.333l.954-.227H95.17c-.32 0-.638.227-.953.227" mask="url(#prefix__h)"/>
            <path fill="#F2F2F2" d="M91.446 112.817L131.165 112.817 131.165 107.269 91.446 107.269z" mask="url(#prefix__h)"/>
            <path fill="#6B6B6B" d="M94.762 110.463h39.552v-4.54H94.762v4.54zm-.545.505h40.642v-5.549H94.217v5.549z" mask="url(#prefix__h)"/>
            <path fill="#6B6B6B" d="M134.845 110.682H95.444c-.213 0-.808.115-.99 0-.294-.184-.03.108-.194-.342-.318-.867 0-2.467 0-3.396v-2.426l-.952.262h39.401c.213 0 .807-.115.99 0 .294.184.03-.107.194.342.318.868 0 2.467 0 3.396v2.426c0-.08.952-.167.952-.262v-5.2c0-.957.172-.948-.656-.964-2.72-.053-5.446 0-8.166 0H94.26c-.094 0-.952.227-.952.262v5.201c0 .957-.173.947.655.963 2.72.053 5.446 0 8.167 0H133.893c.319 0 .637-.262.952-.262" mask="url(#prefix__h)"/>
            <path fill="#6B6B6B" d="M94.217 110.043h39.555c.093 0 .953-.197.953-.228v-1.764c0-.522.303-1.98 0-2.413-.21-.3-.423-.204-.982-.204H95.17c-.093 0-.952.197-.952.227v4.382c0-.07.953-.146.953-.228v-4.381l-.953.227h37.944c.254 0 1.405-.158 1.61 0 .224.172 0 1.78 0 2.048v2.334l.954-.228H95.17c-.32 0-.638.228-.953.228" mask="url(#prefix__h)"/>
            <path fill="#F2F2F2" d="M92.369 94.323L193.976 94.323 193.976 88.774 92.369 88.774z" mask="url(#prefix__h)"/>
            <path fill="#6B6B6B" d="M94.756 91.969h101.451v-4.54H94.757v4.54zm-.54.504h102.531v-5.548H94.217v5.548z" mask="url(#prefix__h)"/>
            <path fill="#6B6B6B" d="M196.671 92.157H95.272c-.125 0-.862.104-.962 0-.313-.323 0-2.597 0-3.05v-3.05l-.94.26H194.767c.125 0 .862-.105.963 0 .312.322 0 2.595 0 3.05v3.05c0-.08.94-.166.94-.26v-4.322c0-.33.17-1.299 0-1.583-.166-.278-.148-.164-.588-.195-1.805-.128-3.665 0-5.474 0H94.31c-.092 0-.94.224-.94.26v4.321c0 .33-.172 1.299 0 1.583.165.278.147.165.586.195 1.806.128 3.666 0 5.475 0H195.731c.315 0 .629-.259.94-.259" mask="url(#prefix__h)"/>
            <path fill="#6B6B6B" d="M94.217 91.548H195.702c.093 0 .943-.196.943-.226V89c0-.278.23-1.852-.001-2.038-.104-.084-.697 0-.836 0H95.159c-.092 0-.942.196-.942.227v4.36c0-.07.942-.145.942-.227v-4.36l-.942.227h100.208c.21 0 1.082-.123 1.255 0 .179.126.022 1.266.022 1.48v2.88l.943-.227H95.16c-.315 0-.63.226-.942.226" mask="url(#prefix__h)"/>
            <path fill="#F2F2F2" d="M92.369 57.333L193.976 57.333 193.976 51.785 92.369 51.785z" mask="url(#prefix__h)"/>
            <path fill="#6B6B6B" d="M94.756 54.98h101.451v-4.54H94.757v4.54zm-.54.504h102.531v-5.549H94.217v5.549z" mask="url(#prefix__h)"/>
            <path fill="#6B6B6B" d="M196.671 56.092H95.272c-.125 0-.862.104-.962 0-.313-.323 0-2.596 0-3.05v-3.05l-.94.26H194.767c.125 0 .862-.104.963 0 .312.323 0 2.596 0 3.05v3.05c0-.08.94-.166.94-.26V51.77c0-.33.17-1.298 0-1.583-.166-.277-.148-.164-.588-.195-1.805-.127-3.665 0-5.474 0H94.31c-.092 0-.94.225-.94.26v4.321c0 .33-.172 1.299 0 1.584.165.277.147.164.586.195 1.806.127 3.666 0 5.475 0H195.731c.315 0 .629-.26.94-.26" mask="url(#prefix__h)"/>
            <path fill="#6B6B6B" d="M94.217 55.484H195.702c.093 0 .943-.196.943-.227v-2.322c0-.278.23-1.852-.001-2.038-.104-.083-.697 0-.836 0H95.159c-.092 0-.942.196-.942.227v4.36c0-.07.942-.145.942-.227v-4.36l-.942.227h100.208c.21 0 1.082-.122 1.255 0 .179.126.022 1.267.022 1.48v2.88l.943-.227H95.16c-.315 0-.63.227-.942.227" mask="url(#prefix__h)"/>
            <path fill="#F2F2F2" d="M154.257 77.677L193.976 77.677 193.976 72.129 154.257 72.129z" mask="url(#prefix__h)"/>
            <path fill="#6B6B6B" d="M156.65 74.399h39.552v-4.54H156.65v4.54zm-.546.504h40.643v-5.548h-40.643v5.548z" mask="url(#prefix__h)"/>
            <path fill="#6B6B6B" d="M196.732 74.617h-39.4c-.214 0-.808.116-.991 0-.294-.184-.03.108-.194-.341-.318-.868 0-2.467 0-3.396v-2.426l-.951.262h39.4c.214 0 .808-.115.991 0 .293.184.03-.108.194.341.317.868 0 2.468 0 3.397v2.426c0-.08.951-.168.951-.263v-5.2c0-.957.172-.947-.655-.963-2.72-.054-5.446 0-8.166 0H156.147c-.093 0-.951.226-.951.262v5.2c0 .957-.173.948.655.964 2.72.053 5.446 0 8.166 0h31.764c.318 0 .636-.263.951-.263" mask="url(#prefix__h)"/>
            <path fill="#6B6B6B" d="M156.104 73.978h39.555c.094 0 .953-.196.953-.227v-1.765c0-.522.304-1.98 0-2.413-.21-.299-.422-.204-.981-.204h-38.574c-.093 0-.953.197-.953.228v4.381c0-.069.953-.145.953-.227v-4.382l-.953.228h37.944c.255 0 1.406-.158 1.611 0 .224.172 0 1.78 0 2.048v2.333l.953-.227h-39.555c-.319 0-.637.227-.953.227" mask="url(#prefix__h)"/>
            <path fill="#C6C6C6" d="M203.675 26.817c2.806 0 5.08 2.277 5.08 5.086 0 2.81-2.274 5.086-5.08 5.086s-5.08-2.277-5.08-5.086 2.274-5.086 5.08-5.086" mask="url(#prefix__h)"/>
            <path fill="#6B6B6B" d="M202.45 29.591c-.088 0-.16.072-.16.161 0 .044.017.085.048.115l1.572 1.574-1.572 1.573c-.064.062-.065.163-.004.227s.163.066.227.005l.004-.005 1.571-1.573 1.572 1.573c.062.064.163.066.227.005.064-.062.065-.164.004-.228l-.004-.004-1.572-1.573 1.572-1.574c.063-.062.065-.163.003-.227-.031-.032-.075-.05-.12-.049-.042.001-.081.02-.11.049l-1.572 1.574-1.571-1.574c-.03-.031-.071-.049-.115-.049" mask="url(#prefix__h)"/>
            <path fill="#6B6B6B" d="M201.483 29.825c-.5.192 1.202 1.36 1.355 1.614.14.232.026.213-.226.445-.358.33-.747.648-1.081.999-.224.234-.259.402.136.365.252-.024.661-.114.882-.242.587-.338 1.1-1.015 1.591-1.47l-.944.234 1.242 1.148c.42.387.485.376 1.067.229.242-.061.544-.065.467-.345-.028-.1-.283-.261-.358-.33l-.798-.737c-.066-.06-.438-.318-.44-.407-.003-.071.293-.28.349-.33l.797-.737c.28-.259.792-.783.035-.602-.517.124-.748.196-1.119.538l-1.242 1.148.944-.234-.9-.833c-.148-.136-.565-.688-.812-.687-.317.003-.631.232-.945.234.247-.001.67.557.811.687l.902.833c.04.037.888-.182.944-.234l.85-.785c.252-.232.527-.6.859-.735l-.945.234c.44.164-.365.705-.524.852-.134.124-.954.708-.949.885.008.284 2.076 1.511 1.475 1.728l.945-.233c-.335-.135-.606-.5-.86-.735l-.85-.785c-.041-.037-.888.181-.945.233l-.902.833c-.236.219-.496.572-.814.687l.944-.233c-.597-.241 1.503-1.442 1.486-1.733-.017-.294-2.067-1.509-1.482-1.733-.298.114-.645.12-.945.234" mask="url(#prefix__h)"/>
            <path fill="#DBDBDB" d="M77.59 167.377c0 2.553-14.267 4.623-31.867 4.623s-31.868-2.07-31.868-4.623c0-2.554 14.268-4.624 31.868-4.624 17.6 0 31.867 2.07 31.867 4.624" mask="url(#prefix__h)"/>
            <path fill="#FFF" d="M20.014 61.957c-2.89.003-5.232 2.332-5.235 5.205v95.01c.003 2.873 2.345 5.201 5.235 5.204h52.341c2.89-.003 5.232-2.331 5.235-5.205V67.162c-.003-2.873-2.345-5.202-5.235-5.205h-52.34z" mask="url(#prefix__h)"/>
            <path fill="#6B6B6B" d="M20.198 61.971c-1.988.045-4.366 1.318-5.473 2.992-.604.913-.858 1.955-.864 3.038-.006.913 0 1.826 0 2.738v90.094c0 .738-.012 1.477 0 2.214.053 3.14 2.558 5.251 5.589 5.251h51.07c.319 0 .64.01.96-.005 1.963-.091 4.341-1.481 5.36-3.166.745-1.232.75-2.51.75-3.866V67.872c0-2.213-.778-4.3-2.897-5.355-1.4-.698-3.002-.546-4.519-.546H20.198c-.377 0-.75.646-1.119.646h49.798c1.33 0 2.834-.15 4.106.296 2.407.842 3.488 3.092 3.488 5.488v88.197c0 2.16.04 4.323 0 6.482-.024 1.312-.489 2.566-1.384 3.536-.192.209-.416.376-.62.571-.12.117-.36.161.033.01-.133.052-.262.112-.398.16-.56.195-1.14.285-1.73.295-.28.005-.562 0-.842 0H20.633c-.81 0-1.601-.066-2.366-.37-1.993-.797-3.25-2.736-3.287-4.861-.04-2.33 0-4.666 0-6.998V67.6c0-.137-.003-.274 0-.411.023-1.206.412-2.357 1.178-3.296.2-.246.421-.473.662-.678.107-.09.218-.18.332-.26-.107.076-.422.168-.004.033.644-.209 1.248-.356 1.931-.371.382-.008.747-.638 1.12-.646" mask="url(#prefix__h)"/>
            <path fill="#FFF" d="M21.55 65.656c-2.208.003-3.998 1.775-4 3.963v91.944c.002 2.188 1.792 3.961 4 3.964h49.27c2.207-.003 3.997-1.776 4-3.964V69.62c-.003-2.188-1.793-3.96-4-3.963H21.55z" mask="url(#prefix__h)"/>
            <path fill="#E6E6E6" d="M22.119 71.54c-.29.001-.525.227-.525.505V83.31c0 .279.236.505.525.505h47.207c.29 0 .525-.226.525-.505V72.045c0-.278-.235-.504-.525-.504H22.12zm47.207 12.61H22.12c-.482 0-.874-.376-.874-.84V72.044c0-.464.392-.84.874-.84h47.207c.483 0 .874.376.875.84V83.31c0 .465-.392.84-.875.842zM22.119 107.614c-.29 0-.525.232-.525.518v21.392c0 .286.236.518.525.518h47.207c.29 0 .525-.232.525-.518v-21.392c0-.286-.235-.518-.525-.518H22.12zm47.207 22.773H22.12c-.482 0-.874-.387-.874-.863v-21.392c0-.476.392-.863.874-.863h47.207c.483 0 .874.387.875.863v21.392c0 .476-.392.862-.875.863zM47.997 90.035c-.294 0-.533.227-.533.505v11.264c0 .279.239.504.533.505h21.315c.295 0 .533-.226.533-.505V90.54c0-.278-.238-.504-.533-.505H47.997zm21.315 12.61H47.997c-.49 0-.888-.377-.889-.84V90.54c.001-.464.399-.84.889-.841h21.315c.49 0 .888.377.889.841v11.264c0 .465-.398.84-.889.841zM22.133 136.292c-.294 0-.533.24-.533.534v22.262c0 .295.239.534.533.534h21.316c.294 0 .533-.239.533-.534v-22.262c0-.295-.239-.534-.533-.534H22.133zm21.316 23.686H22.133c-.49 0-.888-.398-.888-.89v-22.262c0-.492.398-.89.888-.89h21.316c.49 0 .888.398.888.89v22.262c0 .492-.397.89-.888.89zM47.997 136.292c-.294 0-.533.24-.533.534v22.262c0 .295.239.534.533.534h21.315c.295 0 .533-.239.533-.534v-22.262c0-.295-.238-.534-.533-.534H47.997zm21.315 23.686H47.997c-.49 0-.888-.398-.889-.89v-22.262c.001-.492.399-.89.889-.89h21.315c.49 0 .888.398.889.89v22.262c0 .492-.398.89-.889.89z" mask="url(#prefix__h)"/>
            <path fill="#E6E6E6" d="M29.558 111.892c2.04 0 3.695 1.657 3.695 3.7 0 2.042-1.654 3.698-3.695 3.698-2.04 0-3.695-1.656-3.695-3.699 0-2.042 1.655-3.699 3.695-3.699M37.53 112.817c-.321 0-.582.207-.582.463 0 .255.26.462.583.462H65c.322 0 .582-.208.581-.463 0-.255-.26-.461-.582-.462H37.53zM37.53 116.516c-.321 0-.581.206-.582.461 0 .256.258.463.579.464h11.772c.32 0 .58-.207.58-.463 0-.255-.26-.462-.58-.462H37.53zM26.69 122.065c-.456 0-.827.207-.827.462s.371.462.827.462h38.99c.455 0 .826-.207.826-.462s-.37-.462-.827-.462H26.69zM26.69 125.763c-.456 0-.827.208-.827.463s.371.462.827.462h38.99c.455 0 .826-.207.826-.462s-.37-.463-.827-.463H26.69zM29.558 73.978c2.04 0 3.695 1.657 3.695 3.7 0 2.042-1.654 3.698-3.695 3.698-2.04 0-3.695-1.656-3.695-3.699 0-2.042 1.655-3.699 3.695-3.699M37.53 74.903c-.322 0-.583.208-.582.464 0 .254.26.46.581.461H65c.321 0 .583-.206.583-.461.001-.256-.26-.463-.581-.464H37.529zM37.527 78.602c-.32 0-.58.208-.58.463.001.255.26.461.58.462h11.771c.32 0 .58-.206.582-.462 0-.255-.259-.462-.58-.463H37.528zM23.69 102.293h18.203l-5.632-9.972c-.227-.402-.73-.54-1.124-.307-.125.073-.228.18-.3.307l-3.615 6.4-2.249-3.982c-.162-.287-.521-.386-.802-.22-.09.053-.164.129-.215.22l-4.267 7.554zm18.8.352H23.092l4.565-8.082c.258-.456.828-.612 1.274-.349.141.084.259.204.34.35l1.95 3.451 3.317-5.87c.322-.57 1.036-.766 1.594-.437.177.105.325.256.427.437l5.931 10.5zM49.553 102.293h18.204l-5.633-9.972c-.227-.402-.73-.54-1.123-.307-.125.073-.229.18-.301.307l-3.615 6.4-2.248-3.982c-.162-.287-.522-.386-.803-.22-.089.053-.163.129-.215.22l-4.266 7.554zm18.8.352H48.956l4.565-8.082c.257-.456.827-.612 1.273-.349.142.084.26.204.341.35l1.95 3.451 3.316-5.87c.322-.57 1.036-.766 1.594-.437.178.105.325.256.428.437l5.93 10.5z" mask="url(#prefix__h)"/>
            <path fill="#E6E6E6" d="M22.133 90.035c-.294 0-.533.227-.533.505v11.264c0 .279.239.504.533.505h21.316c.294 0 .533-.226.533-.505V90.54c0-.278-.239-.504-.533-.505H22.133zm21.316 12.61H22.133c-.49 0-.888-.377-.888-.84V90.54c0-.464.398-.84.888-.841h21.316c.49 0 .888.377.888.841v11.264c0 .465-.397.84-.888.841zM27.368 140.56c-.32 0-.58.206-.58.462 0 .255.26.462.58.462h11.77c.32 0 .58-.207.58-.462 0-.256-.26-.463-.58-.463h-11.77zM27.368 144.258c-.32 0-.58.207-.58.462 0 .256.26.463.58.463h11.77c.32 0 .58-.207.58-.463 0-.255-.26-.462-.58-.462h-11.77zM32.33 147.379c-1.85 0-3.35 1.5-3.35 3.352 0 1.852 1.5 3.353 3.35 3.353 1.849 0 3.348-1.501 3.348-3.353-.002-1.85-1.5-3.35-3.349-3.352m0 7.051c-2.04 0-3.694-1.656-3.694-3.699s1.654-3.699 3.694-3.699 3.695 1.656 3.695 3.7c-.002 2.041-1.655 3.696-3.695 3.698M64.078 151.656c.32 0 .58-.207.58-.463 0-.255-.26-.462-.58-.462H52.307c-.32 0-.58.207-.58.462 0 .256.26.463.58.463h11.771z" mask="url(#prefix__h)"/>
            <path fill="#6EB1F4" d="M19.698 95.247H69.9c.676 0 1.224.555 1.224 1.238v38.212c0 .684-.548 1.238-1.224 1.238H19.698c-.676 0-1.224-.554-1.224-1.238V96.485c0-.683.548-1.238 1.224-1.238" mask="url(#prefix__h)"/>
            <path fill="#F2F2F2" d="M22.169 130.387L39.719 130.387 39.719 127.613 22.169 127.613z" mask="url(#prefix__h)"/>
            <path fill="#6B6B6B" d="M23.328 129.21h17.08v-2.27h-17.08v2.27zm-.236.252h17.55v-2.774h-17.55v2.774z" mask="url(#prefix__h)"/>
            <path fill="#6B6B6B" d="M41.436 129.181H25.108c-.14 0-.846.098-.947 0-.281-.269 0-2.016 0-2.454l-.938.243h16.328c.139 0 .845-.098.947 0 .281.269 0 2.016 0 2.453 0-.074.938-.154.938-.242 0-.458.294-2.152 0-2.454-.087-.088-.748 0-.87 0H24.161c-.092 0-.938.21-.938.243 0 .457-.294 2.152 0 2.453.087.089.748 0 .87 0h16.405c.314 0 .627-.242.938-.242" mask="url(#prefix__h)"/>
            <path fill="#6B6B6B" d="M23.092 129.462H40.5c.095 0 .97-.252.97-.291 0-.433.225-2.166-.009-2.425-.118-.13-.941 0-1.1 0H24.063c-.095 0-.97.253-.97.293v2.423c0-.089.97-.186.97-.291v-2.425l-.97.293H39.39c.17 0 .95-.134 1.087 0 .235.227.022 2.005.022 2.423l.97-.291H24.063c-.325 0-.65.291-.97.291" mask="url(#prefix__h)"/>
            <path fill="#F2F2F2" d="M22.169 122.065L65.582 122.065 65.582 119.29 22.169 119.29z" mask="url(#prefix__h)"/>
            <path fill="#6B6B6B" d="M24.244 120.888h42.957v-2.27H24.244v2.27zm-.228.252H67.43v-2.774H24.016v2.774z" mask="url(#prefix__h)"/>
            <path fill="#6B6B6B" d="M68.248 120.702H27.74c-.931 0-2.263.303-3.167 0-.088-.03-.374.076-.436 0-.256-.318 0-2.617 0-3.132l-.939.309h40.51c.931 0 2.263-.303 3.167 0 .088.03.374-.077.436 0 .256.318 0 2.617 0 3.131 0-.094.938-.197.938-.308 0-.954.37-2.795-.276-3.132-.56-.291-1.764 0-2.363 0H24.136c-.092 0-.939.267-.939.309 0 .954-.369 2.795.277 3.131.56.292 1.763 0 2.363 0H67.31c.314 0 .628-.308.938-.308" mask="url(#prefix__h)"/>
            <path fill="#6B6B6B" d="M23.092 121.14H66.41c.092 0 .932-.248.932-.287 0-.377.2-2.166 0-2.383-.054-.059-.296.024-.368 0-.71-.235-1.787 0-2.522 0H24.024c-.091 0-.932.248-.932.287v2.383c0-.088.932-.183.932-.287v-2.383l-.932.287h39.525c1.063 0 2.141-.063 3.203 0 .085.005.506-.073.577 0 .204.208.012 2.04.012 2.383l.932-.287H24.024c-.312 0-.623.287-.932.287" mask="url(#prefix__h)"/>
            <path fill="#F2F2F2" d="M22.169 114.667L65.582 114.667 65.582 111.892 22.169 111.892z" mask="url(#prefix__h)"/>
            <path fill="#6B6B6B" d="M24.244 113.49h42.957v-2.27H24.244v2.27zm-.228.252H67.43v-2.774H24.016v2.774z" mask="url(#prefix__h)"/>
            <path fill="#6B6B6B" d="M68.248 113.304H27.74c-.931 0-2.263.303-3.167 0-.088-.03-.374.076-.436 0-.256-.318 0-2.617 0-3.131l-.939.308h40.51c.931 0 2.263-.303 3.167 0 .088.03.374-.077.436 0 .256.318 0 2.617 0 3.131 0-.094.938-.196.938-.308 0-.954.37-2.795-.276-3.131-.56-.292-1.764 0-2.363 0H24.136c-.092 0-.939.266-.939.308 0 .954-.369 2.795.277 3.131.56.292 1.763 0 2.363 0H67.31c.314 0 .628-.308.938-.308" mask="url(#prefix__h)"/>
            <path fill="#6B6B6B" d="M23.092 113.742H66.41c.092 0 .932-.248.932-.287 0-.376.2-2.166 0-2.383-.054-.059-.296.023-.368 0-.71-.234-1.787 0-2.522 0H24.024c-.091 0-.932.248-.932.287v2.383c0-.088.932-.183.932-.287v-2.383l-.932.287h39.525c1.063 0 2.141-.063 3.203 0 .085.005.506-.073.577 0 .204.208.012 2.04.012 2.383l.932-.287H24.024c-.312 0-.623.287-.932.287" mask="url(#prefix__h)"/>
            <path fill="#F2F2F2" d="M22.169 107.269L65.582 107.269 65.582 104.495 22.169 104.495z" mask="url(#prefix__h)"/>
            <path fill="#6B6B6B" d="M24.244 106.092h42.957v-2.27H24.244v2.27zm-.228.252H67.43v-2.774H24.016v2.774z" mask="url(#prefix__h)"/>
            <path fill="#6B6B6B" d="M68.248 105.906H27.74c-.931 0-2.263.304-3.167 0-.088-.03-.374.076-.436 0-.256-.318 0-2.617 0-3.131l-.939.308h40.51c.931 0 2.263-.303 3.167 0 .088.03.374-.076.436 0 .256.318 0 2.617 0 3.131 0-.094.938-.196.938-.308 0-.954.37-2.795-.276-3.131-.56-.292-1.764 0-2.363 0H24.136c-.092 0-.939.267-.939.308 0 .954-.369 2.795.277 3.131.56.292 1.763 0 2.363 0H67.31c.314 0 .628-.308.938-.308" mask="url(#prefix__h)"/>
            <path fill="#6B6B6B" d="M23.092 106.344H66.41c.092 0 .932-.248.932-.287 0-.376.2-2.166 0-2.383-.054-.059-.296.023-.368 0-.71-.234-1.787 0-2.522 0H24.024c-.091 0-.932.248-.932.287v2.383c0-.087.932-.183.932-.287v-2.383l-.932.287h39.525c1.063 0 2.141-.063 3.203 0 .085.005.506-.073.577 0 .204.208.012 2.04.012 2.383l.932-.287H24.024c-.312 0-.623.287-.932.287" mask="url(#prefix__h)"/>
            <path fill="#C6C6C6" d="M70.663 92.473c1.785 0 3.233 1.45 3.233 3.237 0 1.787-1.448 3.236-3.233 3.236-1.786 0-3.233-1.449-3.233-3.236 0-1.788 1.447-3.237 3.233-3.237" mask="url(#prefix__h)"/>
            <path fill="#6B6B6B" d="M69.398 94.323c-.067 0-.12.054-.12.12 0 .033.013.064.036.087l1.179 1.18-1.179 1.18c-.048.045-.05.122-.003.17.046.048.122.05.17.003l.003-.003 1.179-1.18 1.178 1.18c.046.048.122.05.17.003.048-.046.05-.123.004-.17l-.004-.004-1.178-1.18 1.178-1.18c.048-.046.049-.122.003-.17-.024-.024-.056-.037-.09-.036-.031 0-.06.014-.083.036l-1.178 1.18-1.179-1.18c-.023-.023-.054-.036-.086-.036" mask="url(#prefix__h)"/>
            <path fill="#6B6B6B" d="M69.368 94.454c-.425.146 1.021 1.038 1.152 1.231.118.177.022.162-.193.34-.304.252-.634.494-.919.761-.444.417.359.291.658.14.249-.125.47-.388.674-.558l.679-.562-.595.132 1.057.875c.305.252.354.303.775.203.486-.116.309-.254.015-.498l-.678-.561c-.056-.046-.372-.243-.375-.31-.001-.055.25-.214.298-.252.225-.188.452-.375.678-.562.21-.174.68-.546.094-.472-.788.1-1.334.813-1.864 1.252l.595-.132-.767-.635c-.125-.104-.48-.525-.69-.523-.2 0-.397.13-.594.131.21 0 .57.425.69.524l.766.635c.026.021.56-.103.595-.132l.723-.598c.213-.177.448-.458.73-.56l-.596.131c.374.126-.31.538-.445.65-.114.094-.811.54-.807.675.007.216 1.765 1.152 1.254 1.318l.595-.132c-.284-.103-.515-.382-.731-.56l-.723-.6c-.026-.02-.56.103-.595.133l-.766.635c-.202.166-.423.436-.694.524l.595-.132c-.507-.184 1.278-1.1 1.264-1.321-.015-.224-1.758-1.15-1.26-1.321-.188.064-.407.067-.595.131" mask="url(#prefix__h)"/>
        </g>
    </g>
</svg>
