<svg xmlns="http://www.w3.org/2000/svg" xmlns:xlink="http://www.w3.org/1999/xlink" width="279" height="210" viewBox="0 0 279 210">
    <defs>
        <path id="prefix__a" d="M0 0L279 0 279 178 0 178z"/>
        <path id="prefix__c" d="M0.056 0.009L222.195 0.009 222.195 146.866 0.056 146.866z"/>
        <path id="prefix__e" d="M0 0.219L225.019 0.219 225.019 11.948 0 11.948z"/>
        <path id="prefix__g" d="M0 173L228 173 228 0 0 0z"/>
    </defs>
    <g fill="none" fill-rule="evenodd">
        <g opacity=".104">
            <mask id="prefix__b" fill="#fff">
                <use xlink:href="#prefix__a"/>
            </mask>
            <path fill="#6EB1F4" d="M136.236 19.342c-9.99-1.206-19.333-4.908-28.762-8.039-10.487-3.465-21.186-6.246-32.029-8.327C63.894.754 51.985-.694 40.404.34 28.823 1.377 17.523 5.101 10.136 11.91-2.378 23.46-1.322 40.966 2.811 56.396 7.716 74.703 16.196 92.8 30.077 108.392c9.866 11.083 22.246 20.677 34.516 30.202 6.937 5.374 13.937 10.786 22.04 15.012 7.537 3.926 15.859 6.741 24.122 9.516 8.823 2.966 17.668 5.949 26.778 8.216 29.078 7.238 59.69 7.012 89.62 6.367 10.533-.224 21.543-.593 30.38-4.732 6.886-3.236 11.793-8.479 15.51-14.069 4.865-7.324 7.937-16.063 4.482-24.231-5.093-12.049-22.547-19.146-28.357-31.011-7.446-15.225 7.017-31.319 2.924-47.167-1.702-6.593-6.502-12.552-11.59-18.11-12.133-13.251-28.26-25.321-49.935-23.558-18.352 1.489-35.09 6.839-54.33 4.515" mask="url(#prefix__b)"/>
        </g>
        <g transform="translate(10 37)">
            <g transform="translate(5.538 .925)">
                <mask id="prefix__d" fill="#fff">
                    <use xlink:href="#prefix__c"/>
                </mask>
                <path fill="#DBDBDB" d="M218.524 146.866H3.727c-2.027 0-3.671-1.66-3.671-3.708V3.718C.056 1.67 1.7.009 3.727.009h214.797c2.027 0 3.671 1.66 3.671 3.709v139.44c0 2.048-1.644 3.708-3.671 3.708" mask="url(#prefix__d)"/>
            </g>
            <g transform="translate(0 141.545)">
                <mask id="prefix__f" fill="#fff">
                    <use xlink:href="#prefix__e"/>
                </mask>
                <path fill="#DBDBDB" d="M225.02 6.084c0 3.238-50.373 5.864-112.51 5.864C50.372 11.948 0 9.322 0 6.084 0 2.844 50.372.219 112.51.219c62.137 0 112.51 2.626 112.51 5.865" mask="url(#prefix__f)"/>
            </g>
            <path fill="#EFEFEF" d="M220.63 147.096H5.523c-2.03 0-3.677-1.663-3.677-3.715V3.714C1.846 1.664 3.492 0 5.523 0H220.63c2.031 0 3.678 1.663 3.678 3.714v139.667c0 2.052-1.647 3.715-3.678 3.715"/>
            <path fill="#6EB1F4" d="M6.461 3.7c1.02 0 1.847.829 1.847 1.85 0 1.023-.827 1.851-1.847 1.851s-1.846-.828-1.846-1.85c0-1.022.827-1.85 1.846-1.85M12.923 3.7c1.02 0 1.846.829 1.846 1.85 0 1.023-.827 1.851-1.846 1.851-1.02 0-1.846-.828-1.846-1.85 0-1.022.826-1.85 1.846-1.85M18.462 3.7c1.02 0 1.846.829 1.846 1.85 0 1.023-.827 1.851-1.846 1.851-1.02 0-1.847-.828-1.847-1.85 0-1.022.827-1.85 1.847-1.85"/>
            <mask id="prefix__h" fill="#fff">
                <use xlink:href="#prefix__g"/>
            </mask>
            <path fill="#6EB1F4" d="M0.923 147.096L223.385 147.096 223.385 9.251 0.923 9.251z" mask="url(#prefix__h)"/>
            <path fill="#6B6B6B" d="M1.454 146.56h222.323V.536H1.454v146.022zm-.53.536h223.384V0H.923v147.096z" mask="url(#prefix__h)"/>
            <path fill="#6B6B6B" d="M225.134 147.618H1.739c-.204 0-.609.068-.712-.06-.242-.298 0-1.833 0-2.201V.15l-.93.252h223.394c.205 0 .61-.067.713.06.242.298 0 1.834 0 2.202V147.87c0-.077.93-.16.93-.252V2.24c0-.304.218-1.82 0-2.055-.368-.396-3.01-.034-3.54-.034H1.027c-.092 0-.93.218-.93.252v145.379c0 .304-.218 1.819 0 2.054.367.396 3.009.034 3.54.034h220.567c.311 0 .622-.252.93-.252" mask="url(#prefix__h)"/>
            <path fill="#6B6B6B" d="M1.014 147.029H214.27c2.865 0 5.777.152 8.64 0 .124-.007.251 0 .376 0 .09 0 .927-.217.927-.251V2.966c0-.305.214-1.748 0-1.987-.094-.105-.669-.024-.82-.024H1.941c-.091 0-.927.217-.927.25V144.805c0 .476-.205 1.53 0 1.969.027.057 0 .188 0 .256 0-.077.927-.16.927-.251V3.18c0-.532.183-1.463 0-1.97-.024-.065 0-.182 0-.255l-.927.25H222.552c.184 0 .633-.068.734.047.23.263 0 1.804 0 2.135v143.642l.927-.251H10.957c-2.865 0-5.777-.152-8.64 0-.124.006-.251 0-.376 0-.31 0-.62.25-.927.25" mask="url(#prefix__h)"/>
            <path fill="#6B6B6B" d="M0.923 9.251L224.308 9.251 224.308 8.326 0.923 8.326z" mask="url(#prefix__h)"/>
            <path fill="#6B6B6B" d="M.923 8.646H221.148c.758 0 2.146-.281 2.862 0 .386.152.292-.255.292.537l.929-.252H5.006c-.758 0-2.146.282-2.862 0-.386-.151-.292.256-.292-.536 0 .077-.929.16-.929.251 0 .849.6.537 1.368.537h212.863c2.91 0 5.865.154 8.771 0 .125-.007.252 0 .377 0 .091 0 .929-.217.929-.252 0-.849-.6-.536-1.368-.536H11c-2.91 0-5.865-.154-8.772 0-.124.006-.251 0-.376 0-.312 0-.622.251-.929.251M6.923 2.428c-.956 0-1.73.777-1.73 1.735 0 .958.774 1.735 1.73 1.735s1.73-.777 1.73-1.735c0-.958-.775-1.734-1.73-1.735m0 4.048c-1.275 0-2.308-1.035-2.308-2.313 0-1.277 1.033-2.313 2.308-2.313s2.308 1.036 2.308 2.313C9.229 5.44 8.197 6.475 6.923 6.476M13.385 2.428c-.956 0-1.731.777-1.731 1.735 0 .958.775 1.735 1.73 1.735.956 0 1.731-.777 1.731-1.735 0-.958-.775-1.734-1.73-1.735m0 4.048c-1.275 0-2.308-1.035-2.308-2.313 0-1.277 1.033-2.313 2.308-2.313 1.274 0 2.307 1.036 2.307 2.313-.001 1.277-1.033 2.312-2.307 2.313M18.923 2.428c-.956 0-1.73.777-1.73 1.735 0 .958.774 1.735 1.73 1.735s1.73-.777 1.73-1.735c0-.958-.774-1.734-1.73-1.735m0 4.048c-1.274 0-2.308-1.035-2.308-2.313 0-1.277 1.034-2.313 2.308-2.313 1.274 0 2.308 1.036 2.308 2.313-.002 1.277-1.034 2.312-2.308 2.313" mask="url(#prefix__h)"/>
            <path fill="#C6C6C6" d="M215.539 12.027c2.803 0 5.076 2.278 5.076 5.088s-2.273 5.088-5.076 5.088c-2.804 0-5.077-2.278-5.077-5.088s2.273-5.088 5.077-5.088" mask="url(#prefix__h)"/>
            <path fill="#6B6B6B" d="M213.392 15.727c-.089 0-.16.072-.16.161 0 .043.017.085.048.115l1.57 1.574-1.57 1.574c-.064.062-.066.164-.004.227.061.065.163.066.226.005l.005-.005 1.57-1.573 1.57 1.573c.062.065.163.066.227.005.064-.062.066-.163.004-.227l-.004-.005-1.57-1.574 1.57-1.574c.064-.062.065-.163.003-.227-.031-.032-.075-.05-.12-.049-.041.002-.08.019-.11.049l-1.57 1.574-1.57-1.574c-.03-.031-.072-.049-.115-.049" mask="url(#prefix__h)"/>
            <path fill="#6B6B6B" d="M213.349 15.094c-.5.24 1.2 1.702 1.353 2.019.14.29.026.265-.225.556-.358.413-.747.81-1.081 1.25-.223.291-.259.501.136.455.251-.029.66-.142.882-.302.586-.422 1.099-1.27 1.59-1.837l-.944.292 1.242 1.435c.418.483.484.47 1.066.286.241-.076.543-.081.466-.432-.028-.124-.283-.326-.358-.412l-.797-.922c-.066-.076-.437-.397-.44-.509-.003-.088.293-.35.349-.413.265-.307.53-.614.797-.921.28-.323.79-.979.035-.752-.517.155-.747.244-1.118.673l-1.242 1.435.944-.293-.9-1.041c-.148-.17-.565-.861-.812-.859-.316.002-.63.29-.943.292.246-.002.67.696.81.86l.901 1.04c.04.047.887-.227.944-.292l.85-.981c.25-.29.526-.75.857-.919l-.944.292c.439.206-.365.882-.524 1.066-.134.155-.953.885-.948 1.106.009.355 2.074 1.89 1.474 2.162l.944-.293c-.334-.168-.606-.625-.86-.919-.282-.327-.566-.654-.85-.981-.04-.047-.886.227-.943.292l-.9 1.041c-.237.273-.497.715-.815.86l.944-.293c-.597-.3 1.501-1.802 1.485-2.166-.017-.368-2.066-1.887-1.482-2.167-.297.142-.644.15-.943.292" mask="url(#prefix__h)"/>
            <path fill="#F2F2F2" d="M9.231 33.305L209.538 33.305 209.538 27.754 9.231 27.754z" mask="url(#prefix__h)"/>
            <path fill="#6B6B6B" d="M12.146 30.95h200.94v-4.542H12.145v4.542zm-1.07.505h203.078v-5.551H11.077v5.55z" mask="url(#prefix__h)"/>
            <path fill="#6B6B6B" d="M214.004 31.076H12.45c-.235 0-.756.101-.975 0-.359-.168-.146.184-.241-.504-.243-1.752 0-3.696 0-5.469l-.931.254h201.553c.234 0 .756-.101.974 0 .36.168.147-.184.242.504.243 1.752 0 3.696 0 5.469 0-.078.93-.162.93-.254v-2.351c0-.797.338-2.55 0-3.29-.254-.56.16-.143-.267-.332-.637-.28-2.039 0-2.719 0H19.895c-2.753 0-5.557-.157-8.307 0-.117.007-.236 0-.353 0-.091 0-.931.22-.931.254v2.351c0 .798-.338 2.55 0 3.29.255.56-.159.144.267.332.638.28 2.04 0 2.72 0H204.411c2.754 0 5.558.157 8.308 0 .117-.007.235 0 .353 0 .312 0 .623-.254.93-.254" mask="url(#prefix__h)"/>
            <path fill="#6B6B6B" d="M12 31.375h192.037c2.594 0 5.253.18 7.843 0 .108-.008.218 0 .327 0 .09 0 .929-.23.929-.265v-2.714c0-.345.214-2.19-.001-2.382-.066-.06-.302.026-.387 0-.816-.248-2.045 0-2.886 0H21.514c-2.727 0-5.504-.163-8.229 0-.118.007-.238 0-.356 0-.09 0-.929.229-.929.265v5.096c0-.081.93-.17.93-.265v-5.096l-.93.265H210.746c.235 0 1.269-.172 1.46 0 .199.178 0 2.096 0 2.382v2.714l.93-.265H21.099c-2.595 0-5.253-.18-7.844 0-.108.007-.218 0-.326 0-.311 0-.621.265-.929.265" mask="url(#prefix__h)"/>
            <path fill="#F2F2F2" d="M9.231 60.134L209.538 60.134 209.538 54.583 9.231 54.583z" mask="url(#prefix__h)"/>
            <path fill="#6B6B6B" d="M12.146 57.779h200.94v-4.542H12.145v4.542zm-1.07.504h203.078v-5.55H11.077v5.55z" mask="url(#prefix__h)"/>
            <path fill="#6B6B6B" d="M214.004 58.83H12.45c-.235 0-.756.101-.975 0-.359-.168-.146.184-.241-.504-.243-1.752 0-3.696 0-5.469l-.931.255h201.553c.234 0 .756-.102.974 0 .36.167.147-.185.242.503.243 1.752 0 3.696 0 5.469 0-.078.93-.162.93-.254v-2.35c0-.798.338-2.55 0-3.292-.254-.559.16-.142-.267-.33-.637-.281-2.039 0-2.719 0H19.895c-2.753 0-5.557-.158-8.307 0-.117.006-.236 0-.353 0-.091 0-.931.219-.931.254v2.35c0 .798-.338 2.55 0 3.291.255.56-.159.143.267.33.638.282 2.04 0 2.72 0H204.411c2.754 0 5.558.158 8.308 0 .117-.006.235 0 .353 0 .312 0 .623-.253.93-.253" mask="url(#prefix__h)"/>
            <path fill="#6B6B6B" d="M12 58.204h192.037c2.594 0 5.253.179 7.843 0 .108-.008.218 0 .327 0 .09 0 .929-.23.929-.265v-2.714c0-.346.214-2.19-.001-2.382-.066-.06-.302.026-.387 0-.816-.248-2.045 0-2.886 0H21.514c-2.727 0-5.504-.163-8.229 0-.118.007-.238 0-.356 0-.09 0-.929.229-.929.265v5.096c0-.081.93-.17.93-.265v-5.096l-.93.265H210.746c.235 0 1.269-.172 1.46 0 .199.178 0 2.096 0 2.382v2.714l.93-.265H21.099c-2.595 0-5.253-.18-7.844 0-.108.007-.218 0-.326 0-.311 0-.621.265-.929.265" mask="url(#prefix__h)"/>
            <path fill="#F2F2F2" d="M9.231 84.187L209.538 84.187 209.538 78.636 9.231 78.636z" mask="url(#prefix__h)"/>
            <path fill="#6B6B6B" d="M12.146 81.832h200.94v-4.541H12.145v4.541zm-1.07.505h203.078v-5.55H11.077v5.55z" mask="url(#prefix__h)"/>
            <path fill="#6B6B6B" d="M214.004 82.883H12.45c-.235 0-.756.102-.975 0-.359-.167-.146.184-.241-.503-.243-1.752 0-3.697 0-5.47-.31.086-.62.17-.931.255h201.553c.234 0 .756-.102.974 0 .36.167.147-.184.242.503.243 1.752 0 3.697 0 5.47 0-.078.93-.163.93-.255v-2.35c0-.798.338-2.55 0-3.291-.254-.56.16-.143-.267-.331-.637-.28-2.039 0-2.719 0H19.895c-2.753 0-5.557-.158-8.307 0-.117.007-.236 0-.353 0-.091 0-.931.22-.931.254v2.35c0 .798-.338 2.55 0 3.291.255.56-.159.143.267.331.638.281 2.04 0 2.72 0H204.411c2.754 0 5.558.158 8.308 0 .117-.006.235 0 .353 0 .312 0 .623-.254.93-.254" mask="url(#prefix__h)"/>
            <path fill="#6B6B6B" d="M12 82.257h192.037c2.594 0 5.253.18 7.843 0 .108-.007.218 0 .327 0 .09 0 .929-.229.929-.265v-2.714c0-.345.214-2.189-.001-2.382-.066-.06-.302.026-.387 0-.816-.248-2.045 0-2.886 0H21.514c-2.727 0-5.504-.163-8.229 0-.118.007-.238 0-.356 0-.09 0-.929.23-.929.265v5.096c0-.08.93-.169.93-.265v-5.096l-.93.265H210.746c.235 0 1.269-.172 1.46 0 .199.178 0 2.097 0 2.382v2.714l.93-.265H21.099c-2.595 0-5.253-.18-7.844 0-.108.008-.218 0-.326 0-.311 0-.621.265-.929.265" mask="url(#prefix__h)"/>
            <path fill="#F2F2F2" d="M8.308 109.166L96.923 109.166 96.923 103.615 8.308 103.615z" mask="url(#prefix__h)"/>
            <path fill="#6B6B6B" d="M11.548 105.886h88.596v-4.542H11.548v4.542zm-.471.504h89.538v-5.55H11.077v5.55z" mask="url(#prefix__h)"/>
            <path fill="#6B6B6B" d="M101.523 106.994H11.809c-.45 0-.544.081-.708-.195-.357-.601 0-2.452 0-3.177v-2.72l-.931.26h89.713c.45 0 .544-.082.708.194.357.602 0 2.452 0 3.177v2.72c0-.08.932-.166.932-.26v-5.371c0-.867.133-.566-.379-.72-.471-.141-1.193 0-1.68 0H11.102c-.091 0-.931.224-.931.26v5.372c0 .866-.134.565.378.719.471.141 1.193 0 1.68 0h88.363c.312 0 .623-.26.932-.26" mask="url(#prefix__h)"/>
            <path fill="#6B6B6B" d="M11.077 107.316h89.406c.091 0 .93-.235.93-.272v-2.438c0-.427.282-2.413 0-2.749-.08-.094-.462-.016-.594-.028-1.604-.144-3.277 0-4.886 0H12.007c-.09 0-.93.234-.93.27v5.217c0-.083.93-.174.93-.272v-5.215l-.93.27h88.412c.157 0 .86-.117.99 0 .213.196.004 1.999.004 2.27v2.947l.93-.272H12.007c-.311 0-.622.272-.93.272" mask="url(#prefix__h)"/>
            <path fill="#F2F2F2" d="M120 109.166L208.615 109.166 208.615 103.615 120 103.615z" mask="url(#prefix__h)"/>
            <path fill="#6B6B6B" d="M123.24 105.886h88.596v-4.542H123.24v4.542zm-.47.504h89.538v-5.55h-89.539v5.55z" mask="url(#prefix__h)"/>
            <path fill="#6B6B6B" d="M213.215 106.994H123.502c-.45 0-.544.081-.709-.195-.357-.601 0-2.452 0-3.177v-2.72l-.931.26H211.575c.45 0 .544-.082.709.194.357.602 0 2.452 0 3.177v2.72c0-.08.931-.166.931-.26v-5.371c0-.867.134-.566-.379-.72-.47-.141-1.192 0-1.679 0h-88.364c-.091 0-.931.224-.931.26v5.372c0 .866-.134.565.378.719.471.141 1.193 0 1.68 0h88.364c.312 0 .622-.26.931-.26" mask="url(#prefix__h)"/>
            <path fill="#6B6B6B" d="M121.846 107.316h89.406c.091 0 .93-.235.93-.272v-2.438c0-.427.282-2.413 0-2.749-.08-.094-.462-.016-.594-.028-1.604-.144-3.277 0-4.886 0H122.776c-.09 0-.93.234-.93.27v5.217c0-.083.93-.174.93-.272v-5.215l-.93.27h88.412c.157 0 .86-.117.99 0 .213.196.004 1.999.004 2.27v2.947l.93-.272h-89.405c-.312 0-.623.272-.93.272" mask="url(#prefix__h)"/>
            <path fill="#DBDBDB" d="M77.538 167.912c0 2.299-14.05 4.163-31.384 4.163-17.333 0-31.385-1.864-31.385-4.163 0-2.3 14.052-4.163 31.385-4.163 17.333 0 31.384 1.864 31.384 4.163" mask="url(#prefix__h)"/>
            <path fill="#FFF" d="M19.924 63.834c-2.846.003-5.152 2.333-5.155 5.207v95.051c.003 2.875 2.31 5.204 5.155 5.207H71.46c2.845-.003 5.151-2.332 5.154-5.207v-95.05c-.003-2.875-2.309-5.205-5.154-5.208H19.924z" mask="url(#prefix__h)"/>
            <path fill="#6B6B6B" d="M21.016 62.923c-1.958.045-4.3 1.319-5.39 2.993-.595.914-.845 1.956-.851 3.04-.006.913 0 1.826 0 2.739v90.133c0 .738-.012 1.477 0 2.216.052 3.14 2.518 5.252 5.504 5.252H70.575c.314 0 .63.01.945-.005 1.934-.09 4.276-1.481 5.28-3.167.733-1.232.738-2.51.738-3.868V68.827c0-2.214-.767-4.302-2.853-5.358-1.378-.698-2.957-.546-4.45-.546H21.015c-.372 0-.74.646-1.102.646h49.043c1.31 0 2.791-.15 4.044.296 2.37.843 3.435 3.094 3.435 5.491v88.235c0 2.16.04 4.325 0 6.485-.023 1.313-.482 2.568-1.363 3.538-.19.208-.41.376-.61.571-.119.117-.355.161.032.01-.132.052-.259.112-.392.16-.55.196-1.122.285-1.704.295-.276.005-.553 0-.83 0H21.444c-.797 0-1.576-.066-2.329-.37-1.963-.797-3.201-2.737-3.237-4.863-.04-2.332 0-4.668 0-7V68.554c0-.137-.003-.275 0-.412.022-1.206.405-2.358 1.16-3.298.196-.245.414-.472.652-.677.105-.091.214-.18.327-.26-.106.075-.416.168-.004.032.635-.208 1.23-.355 1.902-.37.376-.009.735-.639 1.102-.647" mask="url(#prefix__h)"/>
            <path fill="#6EB1F4" d="M22.33 66.61c-2.136.002-3.866 1.776-3.868 3.965v91.984c.002 2.189 1.732 3.962 3.868 3.965h47.648c2.135-.003 3.866-1.776 3.868-3.965V70.575c-.002-2.189-1.733-3.963-3.868-3.965H22.33z" mask="url(#prefix__h)"/>
            <path fill="#F2F2F2" d="M23.077 139.695L39.692 139.695 39.692 137.845 23.077 137.845z" mask="url(#prefix__h)"/>
            <path fill="#6B6B6B" d="M24.223 138.518h16.17v-2.27h-16.17v2.27zm-.223.252h16.615v-2.775H24v2.775z" mask="url(#prefix__h)"/>
            <path fill="#6B6B6B" d="M41.408 138.489H25.09c-.139 0-.845.098-.946 0-.281-.27 0-2.018 0-2.455l-.937.242h16.317c.138 0 .844-.098.946 0 .28.27 0 2.017 0 2.454 0-.073.937-.154.937-.241 0-.458.294-2.153 0-2.455-.087-.088-.747 0-.869 0H24.145c-.092 0-.937.21-.937.242 0 .458-.294 2.153 0 2.454.086.09.747 0 .868 0h16.395c.314 0 .627-.241.937-.241" mask="url(#prefix__h)"/>
            <path fill="#6B6B6B" d="M24 137.845h16.525c.09 0 .921-.168.921-.195 0-.289.213-1.445-.008-1.616-.113-.088-.894 0-1.045 0H24.92c-.09 0-.921.168-.921.194v1.617c0-.06.921-.124.921-.195v-1.616l-.921.194h15.472c.162 0 .902-.089 1.033 0 .222.152.02 1.338.02 1.617l.921-.195H24.921c-.308 0-.616.195-.921.195" mask="url(#prefix__h)"/>
            <path fill="#F2F2F2" d="M23.077 106.39L66.462 106.39 66.462 104.54 23.077 104.54z" mask="url(#prefix__h)"/>
            <path fill="#6B6B6B" d="M23.31 106.138H67.15v-2.271H23.31v2.271zm-.233.252h44.308v-2.775H23.077v2.775z" mask="url(#prefix__h)"/>
            <path fill="#6B6B6B" d="M68.203 106.062H27.72c-.931 0-2.262.227-3.165 0-.088-.022-.375.057-.436 0-.256-.239 0-1.964 0-2.35l-.938.232h40.482c.931 0 2.262-.228 3.165 0 .088.022.374-.058.436 0 .256.238 0 1.963 0 2.349 0-.07.938-.147.938-.231 0-.716.369-2.097-.277-2.35-.559-.219-1.762 0-2.36 0H24.118c-.091 0-.937.2-.937.232 0 .715-.369 2.097.276 2.349.56.219 1.762 0 2.362 0h41.445c.314 0 .627-.231.938-.231" mask="url(#prefix__h)"/>
            <path fill="#6B6B6B" d="M23.077 106.39H66.365c.091 0 .93-.165.93-.19 0-.252.2-1.446 0-1.59-.053-.04-.295.015-.367 0-.71-.157-1.786 0-2.52 0H24.007c-.09 0-.93.165-.93.19v1.59c0-.058.93-.122.93-.19v-1.59l-.93.19h39.498c1.062 0 2.14-.04 3.2 0 .086.004.506-.047.577 0 .204.14.013 1.362.013 1.59l.93-.19H24.008c-.311 0-.622.19-.93.19" mask="url(#prefix__h)"/>
            <path fill="#F2F2F2" d="M23.077 117.492L66.462 117.492 66.462 115.642 23.077 115.642z" mask="url(#prefix__h)"/>
            <path fill="#6B6B6B" d="M23.31 116.314H67.15v-2.27H23.31v2.27zm-.233.253h44.308v-2.776H23.077v2.776z" mask="url(#prefix__h)"/>
            <path fill="#6B6B6B" d="M68.203 116.238H27.72c-.931 0-2.262.228-3.165 0-.088-.022-.375.057-.436 0-.256-.238 0-1.963 0-2.35l-.938.232h40.482c.931 0 2.262-.228 3.165 0 .088.022.374-.057.436 0 .256.239 0 1.963 0 2.35 0-.071.938-.148.938-.232 0-.716.369-2.097-.277-2.35-.559-.218-1.762 0-2.36 0H24.118c-.091 0-.937.2-.937.232 0 .716-.369 2.097.276 2.35.56.218 1.762 0 2.362 0h41.445c.314 0 .627-.232.938-.232" mask="url(#prefix__h)"/>
            <path fill="#6B6B6B" d="M23.077 116.567H66.365c.091 0 .93-.165.93-.191 0-.252.2-1.445 0-1.59-.053-.04-.295.016-.367 0-.71-.156-1.786 0-2.52 0H24.007c-.09 0-.93.165-.93.191v1.59c0-.059.93-.122.93-.191v-1.59l-.93.191h39.498c1.062 0 2.14-.041 3.2 0 .086.004.506-.048.577 0 .204.14.013 1.361.013 1.59l.93-.191H24.008c-.311 0-.622.19-.93.19" mask="url(#prefix__h)"/>
            <path fill="#F2F2F2" d="M23.077 128.594L66.462 128.594 66.462 126.743 23.077 126.743z" mask="url(#prefix__h)"/>
            <path fill="#6B6B6B" d="M23.31 127.416H67.15v-2.27H23.31v2.27zm-.233.252h44.308v-2.775H23.077v2.775z" mask="url(#prefix__h)"/>
            <path fill="#6B6B6B" d="M68.203 127.34H27.72c-.931 0-2.262.228-3.165 0-.088-.022-.375.057-.436 0-.256-.239 0-1.964 0-2.35l-.938.232h40.482c.931 0 2.262-.228 3.165 0 .088.022.374-.058.436 0 .256.238 0 1.963 0 2.349 0-.07.938-.148.938-.231 0-.716.369-2.097-.277-2.35-.559-.219-1.762 0-2.36 0H24.118c-.091 0-.937.2-.937.232 0 .715-.369 2.097.276 2.349.56.22 1.762 0 2.362 0h41.445c.314 0 .627-.231.938-.231" mask="url(#prefix__h)"/>
            <path fill="#6B6B6B" d="M23.077 126.743H66.365c.091 0 .93-.165.93-.19 0-.252.2-1.446 0-1.59-.053-.04-.295.015-.367 0-.71-.157-1.786 0-2.52 0H24.007c-.09 0-.93.165-.93.191v1.59c0-.06.93-.123.93-.192v-1.59l-.93.192h39.498c1.062 0 2.14-.042 3.2 0 .086.003.506-.049.577 0 .204.139.013 1.36.013 1.59l.93-.192H24.008c-.311 0-.622.191-.93.191" mask="url(#prefix__h)"/>
            <path fill="#F2F2F2" d="M23.077 95.289L66.462 95.289 66.462 93.439 23.077 93.439z" mask="url(#prefix__h)"/>
            <path fill="#6B6B6B" d="M23.31 95.036H67.15v-2.27H23.31v2.27zm-.233.253h44.308v-2.776H23.077v2.776z" mask="url(#prefix__h)"/>
            <path fill="#6B6B6B" d="M68.203 94.96H27.72c-.931 0-2.262.228-3.165 0-.088-.022-.375.057-.436 0-.256-.238 0-1.963 0-2.35l-.938.232h40.482c.931 0 2.262-.228 3.165 0 .088.022.374-.057.436 0 .256.238 0 1.964 0 2.35 0-.071.938-.148.938-.232 0-.715.369-2.097-.277-2.35-.559-.218-1.762 0-2.36 0H24.118c-.091 0-.937.2-.937.232 0 .716-.369 2.097.276 2.35.56.218 1.762 0 2.362 0h41.445c.314 0 .627-.232.938-.232" mask="url(#prefix__h)"/>
            <path fill="#6B6B6B" d="M23.077 95.289H66.365c.091 0 .93-.166.93-.191 0-.252.2-1.445 0-1.59-.053-.04-.295.016-.367 0-.71-.156-1.786 0-2.52 0H24.007c-.09 0-.93.165-.93.191v1.59c0-.059.93-.122.93-.191v-1.59l-.93.191h39.498c1.062 0 2.14-.041 3.2 0 .086.004.506-.048.577 0 .204.14.013 1.361.013 1.59l.93-.191H24.008c-.311 0-.622.19-.93.19" mask="url(#prefix__h)"/>
            <path fill="#F2F2F2" d="M23.077 86.037L66.462 86.037 66.462 84.187 23.077 84.187z" mask="url(#prefix__h)"/>
            <path fill="#6B6B6B" d="M23.31 84.86H67.15v-2.27H23.31v2.27zm-.233.252h44.308v-2.775H23.077v2.775z" mask="url(#prefix__h)"/>
            <path fill="#6B6B6B" d="M68.203 84.784H27.72c-.931 0-2.262.227-3.165 0-.088-.022-.375.057-.436 0-.256-.239 0-1.964 0-2.35l-.938.232h40.482c.931 0 2.262-.228 3.165 0 .088.022.374-.058.436 0 .256.238 0 1.963 0 2.349 0-.07.938-.148.938-.231 0-.716.369-2.097-.277-2.35-.559-.219-1.762 0-2.36 0H24.118c-.091 0-.937.2-.937.232 0 .715-.369 2.097.276 2.349.56.219 1.762 0 2.362 0h41.445c.314 0 .627-.231.938-.231" mask="url(#prefix__h)"/>
            <path fill="#6B6B6B" d="M23.077 84.187H66.365c.091 0 .93-.165.93-.191 0-.251.2-1.445 0-1.59-.053-.039-.295.016-.367 0-.71-.156-1.786 0-2.52 0H24.007c-.09 0-.93.166-.93.192v1.59c0-.06.93-.123.93-.192v-1.59l-.93.192h39.498c1.062 0 2.14-.042 3.2 0 .086.003.506-.049.577 0 .204.139.013 1.36.013 1.59l.93-.192H24.008c-.311 0-.622.191-.93.191" mask="url(#prefix__h)"/>
        </g>
    </g>
</svg>
