<!-- BKD edition -->
<svg width="16.3281" height="22" enable-background="new 0 0 512 512" fill="#61A4F4" preserveAspectRatio="none" version="1.1" viewBox="66,-0.00396728515625,380.0000305175781,512.0039672851562" xmlns="http://www.w3.org/2000/svg" >
<path d="m296 226c-5.52 0-10 4.48-10 10s4.48 10 10 10 10-4.48 10-10-4.48-10-10-10z"></path>
<path d="m296 286c-5.52 0-10 4.48-10 10s4.48 10 10 10 10-4.48 10-10-4.48-10-10-10z"></path>
<path d="m296 349c-5.52 0-10 4.48-10 10s4.48 10 10 10 10-4.48 10-10-4.48-10-10-10z"></path>
<path d="m136 226c-5.52 0-10 4.48-10 10s4.48 10 10 10 10-4.48 10-10-4.48-10-10-10z"></path>
<path d="m136 286c-5.52 0-10 4.48-10 10s4.48 10 10 10 10-4.48 10-10-4.48-10-10-10z"></path>
<path d="m136 349c-5.52 0-10 4.48-10 10s4.48 10 10 10 10-4.48 10-10-4.48-10-10-10z"></path>
<path d="m136 412c-5.52 0-10 4.48-10 10s4.48 10 10 10 10-4.48 10-10-4.48-10-10-10z"></path>
<path d="m416 0h-320c-16.542 0-30 13.458-30 30v452c0 16.542 13.458 30 30 30h260c0.329 0 0.659-0.018 0.987-0.05 0.148-0.015 0.292-0.042 0.439-0.063 0.176-0.025 0.353-0.046 0.528-0.081 0.167-0.033 0.33-0.079 0.494-0.121 0.152-0.038 0.305-0.072 0.455-0.117 0.161-0.049 0.316-0.109 0.473-0.166 0.151-0.054 0.303-0.104 0.451-0.165 0.146-0.06 0.285-0.131 0.427-0.198 0.154-0.073 0.31-0.141 0.461-0.222 0.134-0.072 0.261-0.153 0.391-0.231 0.15-0.09 0.302-0.175 0.449-0.273 0.139-0.093 0.269-0.197 0.403-0.296 0.128-0.095 0.259-0.185 0.383-0.287 0.209-0.172 0.407-0.355 0.601-0.543 0.042-0.041 0.088-0.076 0.13-0.117l80-80c0.044-0.044 0.081-0.093 0.124-0.137 0.185-0.191 0.366-0.386 0.535-0.592 0.108-0.131 0.203-0.27 0.304-0.406 0.093-0.125 0.19-0.247 0.277-0.377 0.104-0.155 0.194-0.315 0.289-0.475 0.072-0.122 0.148-0.24 0.215-0.364 0.085-0.159 0.158-0.323 0.234-0.485 0.063-0.134 0.13-0.266 0.187-0.403 0.065-0.156 0.117-0.315 0.174-0.474 0.053-0.15 0.111-0.297 0.157-0.45 0.048-0.159 0.084-0.321 0.124-0.482 0.039-0.156 0.083-0.309 0.114-0.467 0.037-0.187 0.06-0.375 0.086-0.564 0.019-0.135 0.045-0.268 0.058-0.404 0.033-0.331 0.05-0.662 0.05-0.994v-392c0-16.542-13.458-30-30-30zm-50 477.86v-35.857c0-5.514 4.486-10 10-10h35.857l-45.857 45.857zm60-65.857h-50c-16.542 0-30 13.458-30 30v50h-250c-5.514 0-10-4.486-10-10v-452c0-5.514 4.486-10 10-10h320c5.514 0 10 4.486 10 10v382z"></path>
<path d="m225.28 169.29-16.061-40.153c-5e-3 -0.012-9e-3 -0.024-0.014-0.036l-23.924-59.811c-1.52-3.797-5.197-6.286-9.286-6.286s-7.766 2.489-9.285 6.286l-23.924 59.811c-5e-3 0.012-9e-3 0.024-0.014 0.036l-16.061 40.153c-2.051 5.128 0.443 10.947 5.571 12.999 5.125 2.05 10.947-0.442 12.999-5.571l13.484-33.714h34.459l13.486 33.714c1.564 3.91 5.319 6.289 9.288 6.289 1.236 0 2.493-0.231 3.711-0.718 5.128-2.052 7.622-7.871 5.571-12.999zm-58.515-46.286 9.23-23.074 9.23 23.074h-18.46z"></path>
<path d="m375.48 122.99c6.489-6.357 10.525-15.208 10.525-24.987 0-9.353-3.641-18.144-10.248-24.75-6.608-6.609-15.399-10.25-24.752-10.25h-35c-5.522 0-10 4.478-10 10v100c0 5.522 4.478 10 10 10h35c19.299 0 35-15.701 35-35 0-9.353-3.641-18.144-10.248-24.75-0.09-0.09-0.185-0.174-0.277-0.263zm-24.475 40.013h-25v-30h25c4.01 0 7.777 1.56 10.609 4.393 2.831 2.83 4.391 6.597 4.391 10.607 0 8.271-6.729 15-15 15zm0-50h-25v-30h25c4.01 0 7.777 1.56 10.609 4.393 2.831 2.83 4.391 6.597 4.391 10.607 0 8.271-6.729 15-15 15z"></path>
<path d="m216 226h-40c-5.523 0-10 4.478-10 10s4.477 10 10 10h40c5.523 0 10-4.478 10-10s-4.477-10-10-10z"></path>
<path d="m216 286h-40c-5.523 0-10 4.478-10 10s4.477 10 10 10h40c5.523 0 10-4.478 10-10s-4.477-10-10-10z"></path>
<path d="m216 349h-40c-5.523 0-10 4.478-10 10s4.477 10 10 10h40c5.523 0 10-4.478 10-10s-4.477-10-10-10z"></path>
<path d="m376 349h-40c-5.522 0-10 4.478-10 10s4.478 10 10 10h40c5.522 0 10-4.478 10-10s-4.478-10-10-10z"></path>
<path d="m376 286h-40c-5.522 0-10 4.478-10 10s4.478 10 10 10h40c5.522 0 10-4.478 10-10s-4.478-10-10-10z"></path>
<path d="m376 226h-40c-5.522 0-10 4.478-10 10s4.478 10 10 10h40c5.522 0 10-4.478 10-10s-4.478-10-10-10z"></path>
<path d="m216 412h-40c-5.523 0-10 4.478-10 10s4.477 10 10 10h40c5.523 0 10-4.478 10-10s-4.477-10-10-10z"></path>
<g><path d="m296 226c-5.52 0-10 4.48-10 10s4.48 10 10 10 10-4.48 10-10-4.48-10-10-10z"></path></g><g><path d="m296 286c-5.52 0-10 4.48-10 10s4.48 10 10 10 10-4.48 10-10-4.48-10-10-10z"></path></g><g><path d="m296 349c-5.52 0-10 4.48-10 10s4.48 10 10 10 10-4.48 10-10-4.48-10-10-10z"></path></g><g><path d="m136 226c-5.52 0-10 4.48-10 10s4.48 10 10 10 10-4.48 10-10-4.48-10-10-10z"></path></g><g><path d="m136 286c-5.52 0-10 4.48-10 10s4.48 10 10 10 10-4.48 10-10-4.48-10-10-10z"></path></g><g><path d="m136 349c-5.52 0-10 4.48-10 10s4.48 10 10 10 10-4.48 10-10-4.48-10-10-10z"></path></g><g><path d="m136 412c-5.52 0-10 4.48-10 10s4.48 10 10 10 10-4.48 10-10-4.48-10-10-10z"></path></g><g><path d="m416 0h-320c-16.542 0-30 13.458-30 30v452c0 16.542 13.458 30 30 30h260c0.329 0 0.659-0.018 0.987-0.05 0.148-0.015 0.292-0.042 0.439-0.063 0.176-0.025 0.353-0.046 0.528-0.081 0.167-0.033 0.33-0.079 0.494-0.121 0.152-0.038 0.305-0.072 0.455-0.117 0.161-0.049 0.316-0.109 0.473-0.166 0.151-0.054 0.303-0.104 0.451-0.165 0.146-0.06 0.285-0.131 0.427-0.198 0.154-0.073 0.31-0.141 0.461-0.222 0.134-0.072 0.261-0.153 0.391-0.231 0.15-0.09 0.302-0.175 0.449-0.273 0.139-0.093 0.269-0.197 0.403-0.296 0.128-0.095 0.259-0.185 0.383-0.287 0.209-0.172 0.407-0.355 0.601-0.543 0.042-0.041 0.088-0.076 0.13-0.117l80-80c0.044-0.044 0.081-0.093 0.124-0.137 0.185-0.191 0.366-0.386 0.535-0.592 0.108-0.131 0.203-0.27 0.304-0.406 0.093-0.125 0.19-0.247 0.277-0.377 0.104-0.155 0.194-0.315 0.289-0.475 0.072-0.122 0.148-0.24 0.215-0.364 0.085-0.159 0.158-0.323 0.234-0.485 0.063-0.134 0.13-0.266 0.187-0.403 0.065-0.156 0.117-0.315 0.174-0.474 0.053-0.15 0.111-0.297 0.157-0.45 0.048-0.159 0.084-0.321 0.124-0.482 0.039-0.156 0.083-0.309 0.114-0.467 0.037-0.187 0.06-0.375 0.086-0.564 0.019-0.135 0.045-0.268 0.058-0.404 0.033-0.331 0.05-0.662 0.05-0.994v-392c0-16.542-13.458-30-30-30zm-50 477.86v-35.857c0-5.514 4.486-10 10-10h35.857l-45.857 45.857zm60-65.857h-50c-16.542 0-30 13.458-30 30v50h-250c-5.514 0-10-4.486-10-10v-452c0-5.514 4.486-10 10-10h320c5.514 0 10 4.486 10 10v382z"></path></g><g><path d="m225.28 169.29-16.061-40.153c-5e-3 -0.012-9e-3 -0.024-0.014-0.036l-23.924-59.811c-1.52-3.797-5.197-6.286-9.286-6.286s-7.766 2.489-9.285 6.286l-23.924 59.811c-5e-3 0.012-9e-3 0.024-0.014 0.036l-16.061 40.153c-2.051 5.128 0.443 10.947 5.571 12.999 5.125 2.05 10.947-0.442 12.999-5.571l13.484-33.714h34.459l13.486 33.714c1.564 3.91 5.319 6.289 9.288 6.289 1.236 0 2.493-0.231 3.711-0.718 5.128-2.052 7.622-7.871 5.571-12.999zm-58.515-46.286 9.23-23.074 9.23 23.074h-18.46z"></path></g><g><path d="m375.48 122.99c6.489-6.357 10.525-15.208 10.525-24.987 0-9.353-3.641-18.144-10.248-24.75-6.608-6.609-15.399-10.25-24.752-10.25h-35c-5.522 0-10 4.478-10 10v100c0 5.522 4.478 10 10 10h35c19.299 0 35-15.701 35-35 0-9.353-3.641-18.144-10.248-24.75-0.09-0.09-0.185-0.174-0.277-0.263zm-24.475 40.013h-25v-30h25c4.01 0 7.777 1.56 10.609 4.393 2.831 2.83 4.391 6.597 4.391 10.607 0 8.271-6.729 15-15 15zm0-50h-25v-30h25c4.01 0 7.777 1.56 10.609 4.393 2.831 2.83 4.391 6.597 4.391 10.607 0 8.271-6.729 15-15 15z"></path></g><g><path d="m216 226h-40c-5.523 0-10 4.478-10 10s4.477 10 10 10h40c5.523 0 10-4.478 10-10s-4.477-10-10-10z"></path></g><g><path d="m216 286h-40c-5.523 0-10 4.478-10 10s4.477 10 10 10h40c5.523 0 10-4.478 10-10s-4.477-10-10-10z"></path></g><g><path d="m216 349h-40c-5.523 0-10 4.478-10 10s4.477 10 10 10h40c5.523 0 10-4.478 10-10s-4.477-10-10-10z"></path></g><g><path d="m376 349h-40c-5.522 0-10 4.478-10 10s4.478 10 10 10h40c5.522 0 10-4.478 10-10s-4.478-10-10-10z"></path></g><g><path d="m376 286h-40c-5.522 0-10 4.478-10 10s4.478 10 10 10h40c5.522 0 10-4.478 10-10s-4.478-10-10-10z"></path></g><g><path d="m376 226h-40c-5.522 0-10 4.478-10 10s4.478 10 10 10h40c5.522 0 10-4.478 10-10s-4.478-10-10-10z"></path></g></svg>