<svg xmlns="http://www.w3.org/2000/svg" width="16" height="14" viewBox="0 0 16 14">
    <path fill="#1665D8" d="M15.1 5.678l.026.006H4.419L7.785 2.13c.165-.173.255-.408.255-.655 0-.246-.09-.48-.255-.654L7.26.27C7.096.096 6.877 0 6.643 0c-.234 0-.454.095-.618.269L.255 6.346C.09 6.52 0 6.752 0 7c0 .248.09.48.255.654l5.77 6.078c.164.174.384.269.618.269.234 0 .453-.096.618-.269l.524-.552c.165-.173.255-.404.255-.65 0-.247-.09-.467-.255-.64L4.38 8.316h10.732c.482 0 .887-.438.887-.946v-.78c0-.508-.417-.912-.9-.912z"/>
</svg>
