<svg xmlns="http://www.w3.org/2000/svg" width="18" height="22" viewBox="0 0 18 22">
    <g fill="#3389F0">
        <path d="M12.15 7.92c-.249 0-.45.226-.45.505v9.55c0 .279.201.505.45.505s.45-.226.45-.505v-9.55c0-.279-.201-.505-.45-.505zM5.85 7.92c-.249 0-.45.226-.45.505v9.55c0 .279.201.505.45.505s.45-.226.45-.505v-9.55c0-.279-.201-.505-.45-.505z"/>
        <path d="M1.474 6.55v12.694c0 .75.277 1.454.761 1.96.482.507 1.153.795 1.855.796h9.82c.702-.001 1.373-.289 1.855-.796.484-.506.76-1.21.76-1.96V6.55c.963-.254 1.587-1.177 1.458-2.157s-.97-1.714-1.966-1.714H13.36v-.644c.003-.541-.213-1.061-.6-1.444-.385-.382-.91-.595-1.456-.59H6.696c-.546-.005-1.07.208-1.457.59-.386.383-.602.903-.599 1.444v.644H1.983c-.996 0-1.837.734-1.966 1.714S.512 6.296 1.474 6.55zM13.91 20.97H4.09c-.887 0-1.578-.757-1.578-1.726V6.594h12.976v12.65c0 .969-.69 1.726-1.578 1.726zM5.678 2.035c-.003-.268.103-.526.295-.716.191-.189.452-.293.723-.288h4.608c.27-.005.532.099.723.288.192.19.298.448.295.716v.644H5.678v-.644zM1.983 3.71h14.034c.516 0 .934.415.934.927s-.418.928-.934.928H1.983c-.516 0-.934-.416-.934-.928s.418-.927.934-.927z"/>
        <path d="M9.45 7.92c-.249 0-.45.226-.45.505v9.55c0 .279.201.505.45.505s.45-.226.45-.505v-9.55c0-.279-.201-.505-.45-.505z"/>
    </g>
</svg>
