<svg xmlns="http://www.w3.org/2000/svg" width="14" height="25" viewBox="0 0 14 25">
    <g fill="#3389F0">
        <path d="M11.846 0H2.042C.915.001.002.903 0 2.016v20.968C.001 24.097.915 24.999 2.042 25h9.804c1.128-.001 2.042-.903 2.043-2.016V2.016C13.888.903 12.974.001 11.846 0zM9.714.806l-.245 1.21H4.42L4.176.806h5.54zm3.358 22.178c0 .668-.55 1.209-1.226 1.21H2.042c-.676-.001-1.224-.542-1.225-1.21V2.016c0-.668.549-1.209 1.225-1.21h1.3l.342 1.692c.039.189.206.325.401.325h5.719c.195 0 .362-.136.4-.325l.343-1.692h1.3c.676.001 1.224.542 1.225 1.21v20.968z"/>
        <path d="M5.122 22.222H2.517c-.24 0-.434.156-.434.347 0 .192.195.348.434.348h2.605c.24 0 .434-.156.434-.348 0-.191-.195-.347-.434-.347z"/>
        <path d="M5.787 22.222h-.463c-.256 0-.463.156-.463.347 0 .192.207.348.463.348h.463c.256 0 .463-.156.463-.348 0-.191-.207-.347-.463-.347z"/>
    </g>
</svg>
