<?xml version="1.0" encoding="UTF-8"?>
<svg width="26px" height="25px" viewBox="0 0 26 25" version="1.1" xmlns="http://www.w3.org/2000/svg" xmlns:xlink="http://www.w3.org/1999/xlink">
    <!-- Generator: sketchtool 55.2 (78181) - https://sketchapp.com -->
    <title>14348623-58C0-4162-BE40-FAD81FE57889</title>
    <desc>Created with sketchtool.</desc>
    <g id="Target" stroke="none" stroke-width="1" fill="none" fill-rule="evenodd">
        <g id="HHG_Lead_Collection_Target_Devices" transform="translate(-738.000000, -180.000000)" fill="#1B3250" fill-rule="nonzero">
            <path d="M739.9175,180 C738.855833,180 738,180.833117 738,181.864596 L738,198.548805 C738,199.580284 738.855833,200.411782 739.9175,200.411782 L748.809167,200.411782 L747.490833,204.297234 L744.639167,204.297234 C744.434167,204.297234 744.2775,204.448637 744.2775,204.648617 C744.2775,204.848598 744.433333,205 744.639167,205 L757.09,205 C757.295,205 757.451667,204.848598 757.451667,204.648617 C757.451667,204.448637 757.295833,204.297234 757.09,204.297234 L754.238333,204.297234 L752.92,200.411782 L761.81,200.411782 C762.871667,200.411782 763.729167,199.580284 763.729167,198.548805 L763.729167,181.864596 C763.729167,180.833927 762.8725,180.00081 761.811667,180 L739.9175,180 Z M739.9175,180.701956 L761.811667,180.701956 C762.466667,180.701956 763.006667,181.226601 763.006667,181.862977 L763.006667,195.172615 L738.7225,195.172615 L738.7225,181.862977 C738.7225,181.226601 739.2625,180.701956 739.9175,180.701956 Z M738.723333,195.874571 L763.0075,195.874571 L763.0075,198.547186 C763.0075,199.183561 762.4675,199.708206 761.8125,199.708206 L739.918333,199.708206 C739.263333,199.708206 738.723333,199.183561 738.723333,198.547186 L738.723333,196.27939 L738.723333,195.874571 Z M750.086667,197.440411 C749.881667,197.440411 749.725,197.591813 749.725,197.791794 C749.725,197.991774 749.880833,198.143176 750.086667,198.143176 L751.6425,198.143176 C751.8475,198.143176 752.004167,197.991774 752.004167,197.791794 C752.004167,197.591813 751.848333,197.440411 751.6425,197.440411 L750.086667,197.440411 Z M749.569167,200.409353 L752.158333,200.409353 L753.476667,204.294805 L748.250833,204.294805 L749.475,200.687868 L749.569167,200.409353 Z" id="Shape-Copy"></path>
        </g>
    </g>
</svg>