<svg xmlns="http://www.w3.org/2000/svg" width="17" height="22" viewBox="0 0 17 22">
    <g fill="#3389F0">
        <path d="M14 21.604c0 .219-.174.396-.389.396H.39C.174 22 0 21.823 0 21.604V3.396C0 3.177.174 3 .389 3h3.5v.792H.778v17.416h12.444v-3.166H14v3.562z"/>
        <path d="M3 18.604c0 .219.174.396.389.396H16.61c.215 0 .389-.177.389-.396V4.117c0-.105-.041-.206-.114-.28L13.231.116C13.158.042 13.059 0 12.956 0H3.389C3.174 0 3 .177 3 .396v18.208zm13.222-.396H3.778V.792h8.555v3.562c0 .219.174.396.39.396h3.5v13.458zm-.319-14.25h-2.792V1.116l2.792 2.842z"/>
        <path d="M14.625 7.8c.207 0 .375-.18.375-.4 0-.22-.168-.4-.375-.4h-8.25C6.168 7 6 7.18 6 7.4c0 .22.168.4.375.4h8.25zm-3 2.4c.207 0 .375-.18.375-.4 0-.22-.168-.4-.375-.4h-5.25c-.207 0-.375.18-.375.4 0 .22.168.4.375.4h5.25zm1.5 2.4c.207 0 .375-.18.375-.4 0-.22-.168-.4-.375-.4h-6.75c-.207 0-.375.18-.375.4 0 .22.168.4.375.4h6.75zm-3 2.4c.207 0 .375-.18.375-.4 0-.22-.168-.4-.375-.4h-3.75c-.207 0-.375.18-.375.4 0 .22.168.4.375.4h3.75z"/>
    </g>
</svg>
