<svg xmlns="http://www.w3.org/2000/svg" width="17" height="17" viewBox="0 0 17 17">
    <g fill="#3389F0">
        <path d="M16.553 10.304c-.246 0-.446.201-.446.45v3.996c-.001.745-.6 1.35-1.34 1.35H2.233c-.74 0-1.339-.605-1.34-1.35V3.023c.001-.746.6-1.35 1.34-1.35H6.2c.247 0 .447-.202.447-.45 0-.249-.2-.45-.447-.45H2.233C1 .774.001 1.78 0 3.023V14.75c.001 1.242 1 2.249 2.233 2.25h12.534C16 16.999 16.999 15.992 17 14.75v-3.996c0-.248-.2-.45-.447-.45z"/>
        <path d="M6.955 7.973L13.382 1.545 15.455 3.618 9.027 10.045zM6.182 10.818L8.5 10.176 6.824 8.5zM16.094.348c-.464-.464-1.216-.464-1.68 0l-.505.504 2.24 2.239.503-.504c.464-.465.464-1.217 0-1.681l-.558-.558z"/>
    </g>
</svg>
