<svg xmlns="http://www.w3.org/2000/svg" width="27" height="27" viewBox="0 0 27 27">
    <g fill="none" fill-rule="evenodd">
        <circle cx="13.5" cy="13.5" r="13.5" fill="#F71210"/>
        <path fill="#FFF" d="M7.588 19.373c.218.219.5.321.79.328.282 0 .571-.11.79-.328l4.32-4.32 4.32 4.32c.217.219.5.321.789.328.282 0 .57-.11.79-.328.436-.436.436-1.142 0-1.566l-4.32-4.32 4.32-4.32c.436-.436.436-1.142 0-1.566-.437-.436-1.143-.436-1.567 0l-4.32 4.32-4.32-4.32c-.436-.436-1.142-.436-1.566 0-.437.437-.437 1.143 0 1.566l4.32 4.32-4.32 4.32c-.462.424-.462 1.13-.026 1.566z"/>
    </g>
</svg>
