<?xml version="1.0" encoding="UTF-8"?>
<svg width="29px" height="34px" viewBox="0 0 29 34" version="1.1" xmlns="http://www.w3.org/2000/svg" xmlns:xlink="http://www.w3.org/1999/xlink">
    <!-- Generator: sketchtool 55.2 (78181) - https://sketchapp.com -->
    <title>0488AD5A-5FC9-42ED-A0DD-A314CF85EBB0</title>
    <desc>Created with sketchtool.</desc>
    <g id="03.-Target---Edit" stroke="none" stroke-width="1" fill="none" fill-rule="evenodd">
        <g id="HHG_Lead_Collection_Target_Pages_Uploading-CSV-File" transform="translate(-450.000000, -513.000000)" fill="#0E9729" fill-rule="nonzero">
            <g id="Group-21" transform="translate(450.000000, 513.000000)">
                <path d="M28.8238722,7.21037714 L21.7804047,0.175902868 C21.6744236,0.0620166688 21.5252009,-0.00185424969 21.3695358,0 L4.26564873,0 C3.0170343,0.00645255233 2.00641974,1.01577673 2,2.2627969 L2,13.4827834 C2,13.8065361 2.26278899,14.0689896 2.58695563,14.0689896 C2.91112227,14.0689896 3.17391126,13.8065361 3.17391126,13.4827834 L3.17391126,2.2627969 C3.17391126,1.66061681 3.66269877,1.17245339 4.26564873,1.17245339 L20.7825801,1.17245339 L20.7825801,7.62072147 C20.7825801,7.94447421 21.0453691,8.20692766 21.3695358,8.20692766 L27.8260477,8.20692766 L27.8260477,31.7372441 C27.8260477,32.3394242 27.3372602,32.8275876 26.7343102,32.8275876 L4.26564873,32.8275876 C3.66269877,32.8275876 3.17391126,32.3394242 3.17391126,31.7372441 L3.17391126,28.7241443 C3.17391126,28.4003916 2.91112227,28.1379381 2.58695563,28.1379381 C2.26278899,28.1379381 2,28.4003916 2,28.7241443 L2,31.7372441 C2.00641974,32.9842643 3.0170343,33.9935885 4.26564873,34 L26.7343102,34 C27.9829246,33.9935885 28.9935392,32.9842643 29,31.7372441 L29,7.62072147 C29.0018566,7.46525507 28.937904,7.31622292 28.8238722,7.21037714 Z M22,2 L27,7 L22,7 L22,2 Z" id="Shape"></path>
                <path d="M25,25.0559746 L25,16.9440254 C25.0031557,16.4274678 24.8009936,15.9311347 24.438623,15.5658662 C24.0762523,15.2005978 23.5838567,14.996819 23.0713971,15 L1.92860294,15 C1.41614334,14.996819 0.92374774,15.2005978 0.561377049,15.5658662 C0.199006359,15.9311347 -0.00315573169,16.4274678 0,16.9440254 L0,25.0559746 C-0.00315573169,25.5725322 0.199006359,26.0688653 0.561377049,26.4341338 C0.92374774,26.7994022 1.41614334,27.003181 1.92860294,27 L23.0713971,27 C23.5838567,27.003181 24.0762523,26.7994022 24.438623,26.4341338 C24.8009936,26.0688653 25.0031557,25.5725322 25,25.0559746 Z M4.92309709,22.453398 C5.33549313,22.8343688 5.90759819,23.0473567 6.50368099,23.0418305 C6.8226139,23.0421433 7.13833966,22.9855007 7.43196042,22.875293 C7.74699444,22.7349886 8.03490557,22.5513689 8.28497395,22.3312705 L9,22.9752155 C8.3748002,23.6264603 7.45668659,24.0002506 6.49113667,23.9966454 C5.55876131,24.0358399 4.64994568,23.7301837 3.98227334,23.1528555 C2.67257555,21.9594827 2.67257555,20.0606633 3.98227334,18.8672906 C4.65146695,18.2897198 5.55682631,17.9772131 6.49113667,18.0012956 C7.4529936,17.9906234 8.37111971,18.3562928 9,19.0005206 L8.29751827,19.6777731 C8.04808867,19.4442587 7.74989015,19.2557414 7.4194161,19.1226481 C7.10955569,19.0095641 6.77591272,18.9565625 6.4409594,18.9672131 C5.87405324,18.9863575 5.33444814,19.1876532 4.92309709,19.5334406 C4.47227411,19.9053205 4.22526251,20.4316294 4.24570399,20.9767655 C4.23039177,21.5308153 4.47572579,22.0656128 4.92309709,22.453398 L4.92309709,22.453398 Z M14.3447612,23.5309529 C13.8678712,23.8583601 13.2776487,24.0235409 12.6784465,23.9972909 C11.6867068,24.0019563 10.7297672,23.6687353 10,23.064615 L10.6788689,22.3206949 C11.225707,22.7916161 11.9465164,23.0644221 12.7031327,23.0868215 C12.999334,23.1014546 13.2930994,23.0315038 13.5424616,22.8869624 C13.7422323,22.7652107 13.8587033,22.5598573 13.8510384,22.3429015 C13.8599435,22.1344361 13.7477501,21.9367929 13.5548046,21.8210471 C13.247038,21.65586 12.9081478,21.5429523 12.5550158,21.4879486 C12.1914855,21.4093972 11.8330014,21.3130249 11.4811686,21.1992632 C11.2429266,21.1239026 11.0214344,21.0111226 10.8269858,20.8661647 C10.4316627,20.5785022 10.2192776,20.1340979 10.2592045,19.6781133 C10.227197,19.1903512 10.4738059,18.7215604 10.9133873,18.4345455 C11.3806412,18.1351735 11.9447014,17.9829524 12.5179866,18.0015174 C12.937449,17.9996724 13.3544117,18.0596854 13.7522938,18.1791699 C14.1354686,18.2920486 14.4914473,18.469113 14.8014549,18.7010243 L14.2213305,19.433841 C13.9948526,19.2597786 13.7297713,19.1310884 13.443717,19.0563294 C13.1347093,18.9564789 12.8092792,18.9039354 12.4809574,18.9008834 C12.2087335,18.8963053 11.9401503,18.9576655 11.7033439,19.0785359 C11.5065205,19.1911421 11.393104,19.39094 11.4071102,19.6003903 C11.3943219,19.8156785 11.5064221,20.021561 11.7033439,20.1444512 C12.1126008,20.3312255 12.5488073,20.4657599 12.9993664,20.5441695 C13.541835,20.6380557 14.05292,20.8432331 14.4928781,21.1437468 C14.8313379,21.4310956 15.0157481,21.8356987 14.998944,22.2540752 C15.00481,22.739478 14.7582597,23.1994782 14.3324181,23.4976431 L14.3447612,23.5309529 Z M18.5585413,24 L17.4069098,24 L15,18 L16.1516315,18 L18.0057582,22.4798464 L19.8483685,18 L21,18 L18.5585413,24 Z" id="Shape"></path>
            </g>
        </g>
    </g>
</svg>