<?xml version="1.0" encoding="UTF-8"?>
<svg width="29px" height="38px" viewBox="0 0 29 38" version="1.1" xmlns="http://www.w3.org/2000/svg" xmlns:xlink="http://www.w3.org/1999/xlink">
    <!-- Generator: sketchtool 55.2 (78181) - https://sketchapp.com -->
    <title>6D89604E-C1D7-4264-A762-C25EAE30DFBA</title>
    <desc>Created with sketchtool.</desc>
    <g id="03.-Target---Edit" stroke="none" stroke-width="1" fill="none" fill-rule="evenodd">
        <g id="HHG_Lead_Collection_Target_Pages_Uploading-CSV-File" transform="translate(-448.000000, -649.000000)" fill="#3389F0" fill-rule="nonzero">
            <g id="Group-6-Copy-3" transform="translate(448.000000, 649.000000)">
                <path d="M19.0427642,0.280995279 L19.0337775,0.271949901 C18.8641941,0.0960135276 18.6302622,-0.00209480798 18.3867369,0.000224404141 C18.3565015,-0.000893707227 18.3262152,0.00215471265 18.2968702,0.00963391884 L4.49333747,0.00963391884 C2.0121056,0.0105325121 0.000892761469,2.03488321 0,4.53232326 L0,33.4775351 C0.000892761469,35.9749751 2.0121056,37.9993258 4.49333747,38.0002244 L24.5066625,38.0002244 C26.9878944,37.9993258 28.9991072,35.9749751 29,33.4775351 L29,10.66509 C28.9982534,10.4252805 28.9049408,10.1953332 28.7393864,10.0228681 L19.0427642,0.280995279 Z M19,3.0002244 L26,10.0002244 L21.8301887,10.0002244 C20.2690111,9.99565266 19.0045594,8.72778354 19,7.16238657 L19,3.0002244 Z M24.3558492,36.0002244 L4.65298843,36.0002244 C3.18955736,35.9959002 2.00427395,34.7966676 2,33.3160139 L2,4.68443493 C2.00427395,3.20378125 3.18955736,2.00454866 4.65298843,2.0002244 L17.4403927,2.0002244 L17.4403927,7.19864546 C17.4412712,9.66902475 19.4203956,11.6714408 21.86204,11.6723297 L27,11.6723297 L27,33.3160139 C27.0014498,34.0268114 26.7236208,34.7090503 26.2276863,35.2124995 C25.7317517,35.7159488 25.0583798,35.9993237 24.3558492,36.0002244 Z" id="Shape"></path>
                <path d="M21.245273,19.0117438 C21.245273,18.5044248 20.8340097,18.0931616 20.3266907,18.0931616 L10.2521398,18.0931616 L13.9861767,14.6117348 C14.239757,14.3912024 14.3526674,14.0497975 14.2805783,13.7215588 C14.2084893,13.3933201 13.9629091,13.1306483 13.640255,13.0366708 C13.3176008,12.9426933 12.9693818,13.0324128 12.7323119,13.2706047 L7.29200853,18.3388823 C7.10575529,18.5126192 7,18.7558903 7,19.0105956 C7,19.2653009 7.10575529,19.508572 7.29200853,19.6823089 L12.7323119,24.7528829 C13.1032889,25.0991281 13.6847124,25.079079 14.0309576,24.708102 C14.3772028,24.337125 14.3571537,23.7557016 13.9861767,23.4094564 L10.2521398,19.9303261 L20.3266907,19.9303261 C20.8340097,19.9303261 21.245273,19.5190628 21.245273,19.0117438 Z" id="Path" transform="translate(14.122637, 19.000000) rotate(90.000000) translate(-14.122637, -19.000000) "></path>
            </g>
        </g>
    </g>
</svg>