<svg width="29" height="38" viewBox="0 0 29 38" fill="none" xmlns="http://www.w3.org/2000/svg">
<path fill-rule="evenodd" clip-rule="evenodd" d="M19.0428 0.280771L19.0338 0.271726C18.8642 0.0957891 18.6303 -0.00231921 18.3867 0.000364136C18.3565 -0.00111811 18.3262 0.00193031 18.2969 0.00940951H4.49334C2.01211 0.0103081 0.000892761 2.03466 0 4.5321V33.4773C0.000892761 35.9748 2.01211 37.9991 4.49334 38H24.5067C26.9879 37.9991 28.9991 35.9748 29 33.4773V10.6649C28.9983 10.4251 28.9049 10.1951 28.7394 10.0226L19.0428 0.280771ZM19 3L26 10H21.8302C20.269 9.99543 19.0046 8.72756 19 7.16216V3ZM4.65299 36H24.3558C25.0584 35.9991 25.7318 35.7157 26.2277 35.2123C26.7236 34.7088 27.0014 34.0266 27 33.3158V11.6721H21.862C19.4204 11.6712 17.4413 9.6688 17.4404 7.19842V2H4.65299C3.18956 2.00432 2.00427 3.20356 2 4.68421V33.3158C2.00427 34.7964 3.18956 35.9957 4.65299 36Z" fill="#FA140F"/>
<path d="M14.1109 26.1222C14.6182 26.1222 15.0295 25.711 15.0295 25.2036V15.1291L18.5109 18.8631C18.7314 19.1167 19.0728 19.2296 19.4011 19.1575C19.7293 19.0854 19.992 18.8399 20.086 18.5172C20.1799 18.1946 20.0902 17.8463 19.852 17.6093L14.7838 12.169C14.61 11.9827 14.3667 11.877 14.112 11.877C13.8573 11.877 13.6141 11.9827 13.4403 12.169L8.36975 17.6093C8.02351 17.9802 8.04356 18.5617 8.41453 18.9079C8.78551 19.2542 9.36693 19.2341 9.71318 18.8631L13.1923 15.1291V25.2036C13.1923 25.711 13.6036 26.1222 14.1109 26.1222Z" fill="#FA140F"/>
</svg>
