<svg xmlns="http://www.w3.org/2000/svg" width="25" height="25" viewBox="0 0 25 25">
    <g fill="#FFF">
        <path d="M10.308 0H.59C.264 0 0 .264 0 .589v9.72c0 .325.264.588.589.588h9.72c.325 0 .588-.263.588-.589V.59c0-.325-.263-.589-.589-.589zM9.72 9.72H1.178V1.178H9.72V9.72zM24.411 0h-9.72c-.325 0-.588.264-.588.589v9.72c0 .325.263.588.588.588h9.72c.325 0 .589-.263.589-.589V.59C25 .264 24.736 0 24.411 0zm-.59 9.72h-8.54V1.178h8.541V9.72zM10.308 14.103H.59c-.325 0-.589.263-.589.588v9.72c0 .325.264.589.589.589h9.72c.325 0 .588-.264.588-.589v-9.72c0-.325-.263-.588-.589-.588zm-.588 9.719H1.178V15.28H9.72v8.542zM24.411 14.103h-9.72c-.325 0-.588.263-.588.588v9.72c0 .325.263.589.588.589h9.72c.325 0 .589-.264.589-.589v-9.72c0-.325-.264-.588-.589-.588zm-.59 9.719h-8.54V15.28h8.541v8.542z"/>
    </g>
</svg>
