<svg xmlns="http://www.w3.org/2000/svg" width="30" height="30" viewBox="0 0 30 30">
    <g fill="none" fill-rule="evenodd">
        <circle cx="11" cy="11" r="11" fill="#3389F0"/>
        <g fill="#000" fill-rule="nonzero">
            <path d="M3.204 13.619H.986c-.544 0-.986.48-.986 1.068v6.245C0 21.52.442 22 .986 22h2.218c.544 0 .986-.48.986-1.068v-6.245c0-.589-.442-1.068-.986-1.068zm.343 7.313c0 .204-.154.371-.343.371H.986c-.189 0-.343-.167-.343-.371v-6.245c0-.204.154-.37.343-.37h2.218c.19 0 .343.166.343.37v6.245zM9.49 9.429H7.272c-.544 0-.986.453-.986 1.011v1.877c0 .182.144.33.321.33.178 0 .322-.148.322-.33V10.44c0-.194.154-.351.343-.351H9.49c.19 0 .343.157.343.351v10.548c0 .194-.154.352-.343.352H7.272c-.19 0-.343-.158-.343-.352v-7.351c0-.182-.144-.33-.322-.33-.177 0-.321.148-.321.33v7.351c0 .558.442 1.012.986 1.012H9.49c.544 0 .986-.454.986-1.012V10.44c0-.558-.442-1.011-.986-1.011zM16.824 11.524h-2.22c-.543 0-.985.485-.985 1.082v8.312c0 .596.442 1.082.986 1.082h2.219c.543 0 .986-.486.986-1.082v-8.312c0-.597-.443-1.082-.986-1.082zm.342 9.394c0 .207-.154.376-.342.376h-2.22c-.188 0-.342-.17-.342-.376v-8.312c0-.207.154-.376.343-.376h2.219c.188 0 .342.169.342.376v8.312zM23.11 6.286h-2.22c-.543 0-.985.479-.985 1.067v9.954c0 .192.144.348.321.348.178 0 .322-.156.322-.348V7.353c0-.204.154-.37.343-.37h2.218c.19 0 .343.166.343.37v13.58c0 .204-.154.37-.343.37h-2.218c-.19 0-.343-.166-.343-.37V18.7c0-.192-.144-.348-.322-.348-.177 0-.321.156-.321.348v2.232c0 .589.442 1.068.986 1.068h2.218c.544 0 .986-.479.986-1.068V7.353c0-.588-.442-1.067-.986-1.067z" transform="translate(5 8)"/>
            <path d="M2.218 7.24C.995 7.24 0 8.201 0 9.382s.995 2.142 2.218 2.142c1.222 0 2.217-.961 2.217-2.142 0-.094-.007-.186-.019-.276L7.913 6.53c.264.107.554.167.858.167.48 0 .923-.148 1.286-.399l3.06 1.352c.104 1.088 1.054 1.943 2.207 1.943 1.223 0 2.218-.96 2.218-2.142 0-.128-.012-.253-.035-.375l3.608-2.923c.238.085.495.13.763.13 1.222 0 2.217-.96 2.217-2.141S23.1 0 21.878 0c-1.223 0-2.218.96-2.218 2.142 0 .128.012.253.035.375L16.086 5.44c-.237-.084-.494-.13-.762-.13-.48 0-.923.148-1.286.399l-3.06-1.352c-.103-1.089-1.053-1.944-2.207-1.944-1.223 0-2.218.961-2.218 2.142 0 .094.007.186.02.277L3.076 7.407c-.264-.107-.554-.167-.858-.167zM21.878.687c.83 0 1.505.653 1.505 1.455s-.675 1.454-1.505 1.454c-.818 0-1.506-.664-1.506-1.454 0-.802.675-1.455 1.506-1.455zm-1.925 2.518l.018.03c.129.209.294.397.488.552l-3.21 2.601c-.006-.01-.103-.16-.15-.22-.104-.134-.223-.256-.356-.363l3.21-2.6zM13.819 7.43c.012-.78.693-1.433 1.505-1.433.81 0 1.506.668 1.506 1.454 0 .802-.675 1.455-1.506 1.455-.83 0-1.506-.653-1.506-1.455V7.43zm-3.22-1.665c.146-.207.256-.436.32-.679l2.585 1.143c-.131.183-.234.386-.302.6-.01.03-.018.06-.026.09L10.59 5.779l.009-.013zM8.772 3.1c.83 0 1.506.652 1.506 1.454 0 .784-.696 1.454-1.506 1.454s-1.506-.667-1.506-1.454c0-.802.676-1.454 1.506-1.454zM6.797 5.53l.013.023c.12.218.277.415.465.581L4.192 8.406c-.057-.107-.125-.21-.2-.307-.083-.107-.176-.207-.278-.297L6.797 5.53zM3.115 8.227c.365.268.609.691.609 1.155 0 .802-.676 1.454-1.506 1.454S.712 10.184.712 9.382c0-.802.675-1.454 1.506-1.454.33 0 .643.112.897.299z" transform="translate(5 8)"/>
        </g>
    </g>
</svg>
