<svg xmlns="http://www.w3.org/2000/svg" width="30" height="28" viewBox="0 0 30 28">
    <g fill="none" fill-rule="evenodd">
        <circle cx="11" cy="11" r="11" fill="#3389F0"/>
        <g fill="#000" fill-rule="nonzero">
            <path d="M24.597 10.08h-1.895c-.258-1.09-.69-2.13-1.28-3.082l1.34-1.341c.158-.158.158-.413 0-.57l-2.849-2.852c-.157-.157-.412-.157-.57 0l-1.341 1.341c-.952-.59-1.993-1.02-3.083-1.278V.403c0-.222-.18-.403-.403-.403h-4.032c-.223 0-.403.18-.403.403v1.895c-1.09.258-2.131.69-3.083 1.28L5.657 2.235c-.158-.157-.413-.157-.57 0L2.235 5.087c-.157.157-.157.412 0 .57l1.341 1.34c-.59.953-1.02 1.994-1.278 3.084H.403c-.222 0-.403.18-.403.403v4.032c0 .223.18.403.403.403h1.895c.258 1.09.69 2.132 1.28 3.083l-1.343 1.341c-.157.158-.157.413 0 .57l2.852 2.852c.16.15.41.15.57 0l1.34-1.341c.953.59 1.994 1.02 3.084 1.278v1.895c0 .222.18.403.403.403h4.032c.223 0 .403-.18.403-.403v-1.895c1.09-.258 2.132-.69 3.083-1.28l1.341 1.34c.158.158.413.158.57 0l2.852-2.85c.157-.158.157-.413 0-.57L21.424 18c.59-.952 1.02-1.992 1.278-3.082h1.895c.222 0 .403-.18.403-.403v-4.032c0-.223-.18-.403-.403-.403zm-.403 4.033h-1.815c-.192 0-.357.135-.395.322-.246 1.214-.726 2.368-1.411 3.4-.107.16-.085.372.05.508l1.286 1.285-2.281 2.28-1.285-1.285c-.136-.135-.348-.157-.508-.05-1.032.685-2.186 1.165-3.4 1.41-.187.04-.322.204-.322.396v1.815h-3.226v-1.815c0-.192-.135-.357-.322-.395-1.214-.246-2.368-.726-3.4-1.411-.16-.107-.372-.085-.508.05L5.372 21.91l-2.281-2.28 1.285-1.286c.136-.136.157-.348.051-.508-.686-1.031-1.165-2.186-1.411-3.4-.038-.187-.203-.322-.395-.322H.806v-3.226h1.815c.192 0 .357-.135.395-.322.246-1.214.726-2.368 1.411-3.4.107-.16.085-.372-.05-.508L3.09 5.372 5.37 3.09l1.286 1.285c.136.136.348.157.508.051 1.031-.686 2.186-1.165 3.4-1.411.187-.038.322-.203.322-.395V.806h3.226v1.815c0 .192.135.357.322.395 1.214.247 2.368.726 3.4 1.411.16.107.372.085.507-.05l1.286-1.286 2.28 2.281-1.285 1.285c-.135.136-.157.348-.05.508.685 1.032 1.165 2.186 1.41 3.4.04.187.204.322.396.322h1.815v3.226z" transform="translate(5 3)"/>
            <path d="M12.02 8.654c-2.39 0-4.328 1.937-4.328 4.327 0 2.39 1.938 4.327 4.327 4.327 2.39 0 4.327-1.938 4.327-4.327-.003-2.389-1.938-4.324-4.327-4.327zm0 7.867c-1.956 0-3.541-1.585-3.541-3.54s1.585-3.54 3.54-3.54 3.54 1.585 3.54 3.54c-.002 1.954-1.585 3.538-3.54 3.54z" transform="translate(5 3)"/>
        </g>
    </g>
</svg>
