<svg xmlns="http://www.w3.org/2000/svg" width="27" height="30" viewBox="0 0 27 30">
    <g fill="none" fill-rule="evenodd">
        <circle cx="11" cy="11" r="11" fill="#3389F0"/>
        <g fill="#000" fill-rule="nonzero">
            <path d="M.458 14c.253 0 .459-.196.459-.438 0-5.79 4.934-10.502 11-10.502h3.207c.253 0 .458-.196.458-.437V1.318c0-.363.434-.571.739-.353l4.396 3.148c.488.35.488 1.049 0 1.398L16.32 8.66c-.305.218-.739.012-.739-.353V7c0-.242-.205-.438-.458-.438s-.459.196-.459.438v1.307c0 1.084 1.298 1.704 2.206 1.053l4.396-3.147c.977-.7.978-2.099 0-2.799L16.87.265c-.908-.65-2.206-.03-2.206 1.053v.867h-2.749C5.346 2.185 0 7.29 0 13.562c0 .242.205.438.458.438zM21.542 14c-.253 0-.459.196-.459.438 0 5.79-4.934 10.502-11 10.502H6.877c-.253 0-.458.196-.458.438v1.304c0 .364-.434.572-.739.353l-4.396-3.148c-.488-.35-.488-1.048 0-1.398L5.68 19.34c.304-.218.739-.012.739.353v1.308c0 .241.205.437.458.437s.459-.196.459-.437v-1.308c0-1.084-1.298-1.703-2.206-1.053L.733 21.789c-.977.7-.978 2.098 0 2.798l4.396 3.148c.906.65 2.206.032 2.206-1.053v-.867h2.749c6.57 0 11.916-5.104 11.916-11.377 0-.242-.205-.438-.458-.438z" transform="translate(5 2)"/>
            <path d="M8 14c0 1.654 1.346 3 3 3s3-1.346 3-3-1.346-3-3-3-3 1.346-3 3zm5.143 0c0 1.182-.961 2.143-2.143 2.143S8.857 15.182 8.857 14s.961-2.143 2.143-2.143 2.143.961 2.143 2.143z" transform="translate(5 2)"/>
        </g>
    </g>
</svg>
