<svg xmlns="http://www.w3.org/2000/svg" width="30" height="29" viewBox="0 0 30 29">
    <g fill="none" fill-rule="evenodd">
        <circle cx="11" cy="11" r="11" fill="#3389F0"/>
        <g fill="#000" fill-rule="nonzero">
            <path d="M12.5 0C5.607 0 0 5.607 0 12.5 0 19.392 5.607 25 12.5 25 19.392 25 25 19.392 25 12.5 25 5.607 19.392 0 12.5 0zm0 24.167C6.067 24.167.833 18.933.833 12.5S6.067.833 12.5.833 24.167 6.067 24.167 12.5 18.933 24.167 12.5 24.167z" transform="translate(5 4)"/>
            <path d="M13.161 11.242V7.136c0-.224-.188-.405-.42-.405-.233 0-.421.18-.421.405v4.106c-.589.147-1.05.59-1.203 1.157H8.113c-.232 0-.42.18-.42.405 0 .224.188.405.42.405h3.004c.188.696.842 1.214 1.623 1.214.928 0 1.683-.726 1.683-1.62 0-.752-.538-1.38-1.262-1.561zm-.42 2.371c-.465 0-.842-.363-.842-.81 0-.446.377-.81.841-.81.464 0 .842.364.842.81 0 .447-.378.81-.842.81zM12.02 3.846c.265 0 .48-.143.48-.32v-.32c0-.178-.215-.321-.48-.321-.266 0-.482.143-.482.32v.32c0 .178.216.321.481.321zM12.02 21.154c-.266 0-.482.143-.482.32v.32c0 .178.216.321.481.321.266 0 .481-.143.481-.32v-.32c0-.178-.215-.321-.48-.321zM21.795 11.538h-.32c-.178 0-.321.215-.321.481s.143.481.32.481h.32c.178 0 .321-.215.321-.48 0-.267-.143-.482-.32-.482zM3.526 11.538h-.32c-.178 0-.321.215-.321.481s.143.481.32.481h.32c.178 0 .321-.215.321-.48 0-.267-.143-.482-.32-.482zM18.624 5.873l-.25.251c-.14.14-.14.364 0 .503.069.069.16.104.25.104.091 0 .182-.035.252-.104l.25-.251c.14-.14.14-.364 0-.503-.138-.139-.363-.138-.502 0zM6.124 18.373l-.25.251c-.14.14-.14.364 0 .503.069.069.16.104.25.104.091 0 .182-.035.252-.104l.25-.251c.14-.14.14-.364 0-.503-.138-.139-.363-.138-.502 0zM18.876 18.373c-.14-.138-.364-.138-.503 0-.138.14-.138.364 0 .503l.251.25c.07.07.16.105.252.105.09 0 .181-.035.25-.104.14-.14.14-.364 0-.503l-.25-.25zM6.376 5.873c-.14-.138-.364-.138-.503 0-.138.14-.138.364 0 .503l.251.25c.07.07.16.105.252.105.09 0 .181-.035.25-.104.14-.14.14-.364 0-.503l-.25-.25z" transform="translate(5 4)"/>
        </g>
    </g>
</svg>
