<svg xmlns="http://www.w3.org/2000/svg" width="29" height="31" viewBox="0 0 29 31">
    <g fill="none" fill-rule="evenodd">
        <circle cx="11" cy="11" r="11" fill="#3389F0"/>
        <g fill="#000" fill-rule="nonzero">
            <path d="M.6 20.727H.471c-.267-.009-.478-.244-.471-.526.008-.283.223-.485.499-.497.16-.002 16.63.306 20.365-14.957.067-.274.33-.437.59-.367.26.07.416.35.349.623C18.053 20.325 2.199 20.727.6 20.727z" transform="translate(5 7)"/>
            <path d="M23.466 7.636c-.185 0-.365-.08-.464-.227L21.664 5.44l-2.316 1.137c-.256.124-.583.05-.73-.167-.148-.217-.06-.495.195-.62l2.78-1.365c.254-.126.582-.052.73.167l1.605 2.362c.148.218.06.496-.195.621-.084.042-.176.061-.267.061zM22.364 24c-.301 0-.546-.227-.546-.506v-13.17c0-.279.245-.506.546-.506.3 0 .545.227.545.507v13.169c0 .28-.244.506-.545.506zM15.818 24c-.3 0-.545-.21-.545-.468v-5.61c0-.258.244-.467.545-.467.301 0 .546.209.546.467v5.61c0 .259-.245.468-.546.468zM9.273 24c-.301 0-.546-.183-.546-.41v-2.454c0-.225.245-.409.546-.409.3 0 .545.184.545.41v2.454c0 .226-.244.409-.545.409zM2.727 24c-.3 0-.545-.195-.545-.436v-1.31c0-.24.244-.436.545-.436.301 0 .546.196.546.437v1.309c0 .24-.245.436-.546.436zM7.048 10.91c-.118 0-.236-.046-.327-.135L3.408 7.46c-.174-.173-.181-.452-.017-.633l2.715-3.014C8.034 1.586 11.094.05 13.713.003c.108-.016.246.046.334.134.089.09.137.21.135.334-.05 2.619-1.584 5.677-3.819 7.611l-3.008 2.71c-.086.078-.197.117-.307.117zm-2.68-3.791l2.697 2.696 2.689-2.423c1.913-1.655 3.264-4.184 3.478-6.44-2.256.214-4.785 1.565-6.435 3.47L4.369 7.12zM8.76 15.273c-.041 0-.084-.007-.126-.02-.162-.053-.287-.198-.327-.385l-.658-3.107c-.06-.282.095-.567.345-.635.252-.067.501.107.56.39l.437 2.063c.81-1.432.97-3.263.987-4.335.005-.29.226-.518.474-.517.257.004.462.246.457.535-.04 2.493-.685 4.572-1.82 5.856-.088.1-.207.155-.328.155z" transform="translate(5 7)"/>
            <path d="M4.726 7.636c-.041 0-.082-.003-.123-.013l-3.108-.658c-.185-.039-.333-.162-.384-.325-.052-.162 0-.336.133-.455 1.284-1.135 3.364-1.78 5.857-1.82.292-.023.531.2.535.457.005.257-.225.47-.517.474-1.072.017-2.903.178-4.335.986l2.064.437c.282.06.457.31.39.56-.06.214-.274.357-.512.357zM.519 15.273c-.136 0-.268-.054-.367-.152-.135-.134-.185-.332-.13-.515.171-.572 1.06-3.46 1.757-4.158.839-.84 2.204-.84 3.046 0 .84.84.84 2.207 0 3.047-.696.696-3.585 1.585-4.157 1.756-.05.014-.1.022-.15.022zm2.783-4.418c-.286 0-.572.109-.79.326-.294.295-.8 1.593-1.196 2.776 1.183-.396 2.481-.902 2.775-1.195.435-.436.435-1.145 0-1.58-.218-.218-.504-.327-.79-.327z" transform="translate(5 7)"/>
        </g>
    </g>
</svg>
