<svg xmlns="http://www.w3.org/2000/svg" width="48" height="48" viewBox="0 0 48 48">
    <g fill="#D6D6D6">
        <path d="M5 48h38c2.761 0 5-2.239 5-5V5c0-2.761-2.239-5-5-5H5C2.239 0 0 2.239 0 5v38c0 2.761 2.239 5 5 5zm38-2H5c-1.657 0-3-1.343-3-3v-5.31l17.2-11.86c2.315-1.594 5.359-1.65 7.73-.14L46 37.82V43c0 1.657-1.343 3-3 3zm3-10.55l-14.59-9.28 3.72-2.89c2.35-1.828 5.6-1.968 8.1-.35L46 24.71v10.74zM5 2h38c1.657 0 3 1.343 3 3v17.33l-1.69-1.09c-3.215-2.075-7.39-1.89-10.41.46L29.62 25 28 24c-3.049-1.941-6.963-1.87-9.94.18L2 35.26V5c0-1.657 1.343-3 3-3z"/>
        <path d="M11 17c2.761 0 5-2.239 5-5s-2.239-5-5-5-5 2.239-5 5 2.239 5 5 5zm0-8c1.657 0 3 1.343 3 3s-1.343 3-3 3-3-1.343-3-3 1.343-3 3-3z"/>
    </g>
</svg>
