<svg xmlns="http://www.w3.org/2000/svg" width="41" height="39" viewBox="0 0 41 39">
    <g fill="#FFF" fill-rule="evenodd">
        <path d="M16.506 14.605v9.852c0 .34-.023.68-.045.997-.112 1.902-1.952 3.782-4.195 3.692-1.188-.046-2.063-.906-2.13-2.084-.068-1.087.314-1.925 1.345-2.378.314-.136.427-.34.404-.657-.022-.158 0-.34 0-.498V5.319c.045-.408-.112-.634-.493-.838-1.234-.611-1.66-2.129-.965-3.33.404-.701 1.01-1.064 1.795-1.109 1.592-.068 2.803.634 3.656 1.948.336.52.56 1.11.583 1.744.022.34.045.68.045.996.022 3.307 0 6.591 0 9.875zM.02 14.56V4.277c0-.996.268-1.902.897-2.672C1.769.563 2.868.019 4.214.042c1.054.023 1.84.657 2.13 1.676.27 1.02-.111 2.084-.964 2.65-.09.068-.202.113-.314.158-.291.114-.404.318-.426.612v18.549c-.045.499.09.838.606 1.065.852.408 1.3 1.381 1.188 2.333-.112.95-.74 1.744-1.637 1.97-.718.181-1.413.068-2.086-.181-1.884-.725-2.67-2.537-2.67-3.896 0-3.465-.022-6.93-.022-10.418z"/>
        <path d="M30.951 29.848c-.852.045-1.682-.045-2.512-.25-.157-.045-.27 0-.404.046-.336 2.016-1.48 3.352-3.32 4.145-.74.317-1.525.52-2.31.657-2.176.34-4.351.34-6.505 0-.964-.159-1.906-.43-2.759-.861-1.189-.612-2.086-1.472-2.557-2.763-.022-.09-.09-.159-.134-.25-.068-.43-.135-.86-.314-1.245-.382-.883-1.324-1.359-2.221-1.133-.92.227-1.57 1.02-1.525 1.97.022.544.09 1.088.358 1.586.023.114.023.25.068.34.269.793.65 1.54 1.166 2.22 1.01 1.359 2.333 2.31 3.858 2.99 1.705.77 3.522 1.154 5.384 1.29 1.996.136 3.992.114 5.966-.272 1.57-.294 3.096-.77 4.486-1.585 2.647-1.563 4.083-3.918 4.397-6.998-.427.045-.763.09-1.122.113z"/>
        <path d="M40.708 16.44c-.224-1.812-.74-3.51-1.704-5.074-1.391-2.265-3.365-3.737-5.944-4.348-1.077-.25-2.154-.272-3.253-.227-1.435.09-2.804.476-4.06 1.2-1.929 1.11-3.297 2.741-4.172 4.78-.897 2.106-1.234 4.303-1.054 6.613.112 1.359.336 2.65.83 3.918 1.189 3.058 3.207 5.232 6.393 6.16.112.046.201.114.291.205 1.01.407 2.064.43 3.118.407.314 0 .606-.068.852-.294 2.468-.317 4.531-1.382 6.124-3.307.987-1.2 1.682-2.56 2.108-4.031.561-1.993.718-3.964.471-6.002zm-4.53 2.536c-.045.725-.135 1.427-.337 2.13-.224.77-.56 1.472-1.054 2.106-1.055 1.359-2.468 1.97-4.172 1.948-2.266-.046-3.858-1.11-4.823-3.194-.314-.702-.516-1.45-.606-2.197-.179-1.54-.134-3.057.36-4.552.246-.725.605-1.405 1.098-1.993 1.301-1.495 2.961-2.016 4.868-1.722 2.041.295 3.387 1.54 4.105 3.443.516 1.29.673 2.65.56 4.031z"/>
        <path d="M30.615 20.54c-1.234 0-2.199-.997-2.199-2.243 0-1.223.987-2.242 2.199-2.265 1.233 0 2.243 1.02 2.243 2.288 0 1.064-.875 2.242-2.243 2.22z"/>
    </g>
</svg>
