<svg xmlns="http://www.w3.org/2000/svg" width="25" height="25" viewBox="0 0 25 25">
    <path fill="#FFF" d="M8.413 20.95h1.443c0 1.405 1.184 2.545 2.644 2.545 1.46 0 2.644-1.14 2.644-2.546h1.443c0 2.173-1.83 3.935-4.087 3.935-2.257 0-4.087-1.762-4.087-3.935zm16.347-3.011v.465c0 .897-.753 1.62-1.684 1.62H1.924c-.93 0-1.684-.726-1.684-1.62v-.465c0-1.582 1.272-2.88 2.885-3V9.144C3.125 4.156 7.322.116 12.5.116s9.375 4.041 9.375 9.027v5.797c1.616.12 2.885 1.415 2.885 2.999zm-3.13-1.62c-.661 0-1.197-.52-1.197-1.154V9.143c0-4.219-3.551-7.638-7.933-7.638S4.567 4.923 4.567 9.143v6.022c0 .637-.539 1.154-1.197 1.154-.932 0-1.687.726-1.687 1.62v.465c0 .127.107.23.24.23h21.153c.135 0 .241-.101.241-.23v-.465c0-.896-.752-1.62-1.687-1.62z"/>
</svg>
