<svg xmlns="http://www.w3.org/2000/svg" width="25" height="25" viewBox="0 0 25 25">
    <g fill="#FFF">
        <path d="M24.902 22.64l-1.716-4.995c.825-1.669 1.262-3.529 1.265-5.4.005-3.223-1.242-6.27-3.512-8.58C18.67 1.352 15.645.052 12.423.001c-1.688-.027-3.326.284-4.87.923-1.49.617-2.827 1.51-3.972 2.656C2.435 4.726 1.54 6.062.925 7.552c-.64 1.545-.95 3.184-.923 4.871.05 3.222 1.351 6.247 3.662 8.516 2.306 2.265 5.346 3.512 8.561 3.512h.02c1.871-.003 3.731-.44 5.4-1.265l4.995 1.716c.192.066.388.098.583.098.463 0 .913-.182 1.254-.523.485-.485.648-1.189.425-1.838zm-1.473.789c-.05.05-.155.124-.308.071l-5.293-1.819c-.078-.026-.16-.04-.24-.04-.12 0-.24.03-.347.086-1.53.81-3.258 1.239-4.999 1.241-5.837.01-10.666-4.732-10.758-10.568-.047-2.937 1.07-5.696 3.145-7.771s4.834-3.192 7.77-3.145c5.837.092 10.578 4.919 10.57 10.758-.003 1.741-.433 3.47-1.242 4.999-.096.181-.112.394-.046.587l1.82 5.293c.052.153-.023.259-.072.308z"/>
        <path d="M12.5 17.5c-.436 0-.853.383-.833.833.02.452.366.834.833.834.436 0 .853-.384.833-.834-.02-.451-.366-.833-.833-.833zM12.083 6.667c-2.067 0-3.75 1.59-3.75 3.546 0 .394.338.713.754.713s.754-.32.754-.713c0-1.17 1.006-2.12 2.242-2.12 1.237 0 2.243.95 2.243 2.12 0 1.17-1.006 2.12-2.243 2.12-.416 0-.753.32-.753.714v2.907c0 .394.337.713.753.713.417 0 .754-.32.754-.713v-2.267c1.708-.33 2.996-1.763 2.996-3.474 0-1.955-1.682-3.546-3.75-3.546z"/>
    </g>
</svg>
