<svg xmlns="http://www.w3.org/2000/svg" xmlns:xlink="http://www.w3.org/1999/xlink" width="18" height="18" viewBox="0 0 18 18">
    <defs>
        <path id="prefix__a" d="M7.609 15.218C3.407 15.218 0 11.81 0 7.608 0 3.408 3.407 0 7.609 0s7.609 3.407 7.609 7.609-3.407 7.609-7.61 7.609zm0-1.015c3.642 0 6.594-2.952 6.594-6.594 0-3.642-2.952-6.594-6.594-6.594-3.642 0-6.594 2.952-6.594 6.594 0 3.642 2.952 6.594 6.594 6.594zm5.938-.656c.198-.198.52-.198.718 0l3.586 3.587c.199.198.199.52 0 .717-.198.199-.519.199-.717 0l-3.587-3.586c-.198-.198-.198-.52 0-.718z"/>
    </defs>
    <g fill="none" fill-rule="evenodd">
        <use fill="#1F263E" xlink:href="#prefix__a"/>
    </g>
</svg>
