<?xml version="1.0" encoding="UTF-8"?>
<svg width="29px" height="31px" viewBox="0 0 29 31" version="1.1" xmlns="http://www.w3.org/2000/svg" xmlns:xlink="http://www.w3.org/1999/xlink">
    <!-- Generator: sketchtool 55.2 (78181) - https://sketchapp.com -->
    <title>6129D664-3F45-4CF7-9F35-5DE5B4033D6E</title>
    <desc>Created with sketchtool.</desc>
    <g id="07.-Campaign-Settings---Edit" stroke="none" stroke-width="1" fill="none" fill-rule="evenodd">
        <g id="Lead_Collection_KPICampaign-Setting" transform="translate(-129.000000, -427.000000)">
            <g id="Group-6" transform="translate(129.000000, 427.000000)">
                <circle id="Oval-Copy-5" fill="#3389F0" cx="11" cy="11" r="11"></circle>
                <g id="arrow-(2)" transform="translate(5.000000, 7.000000)" fill="#000000" fill-rule="nonzero">
                    <path d="M0.600425191,20.7272727 C0.522846454,20.7272727 0.479208414,20.72625 0.471450541,20.72625 C0.203803898,20.7180686 -0.00662842677,20.4828516 0,20.2005912 C0.00791758644,19.9183308 0.223198582,19.7158397 0.498603099,19.7035675 C0.659578978,19.7015221 17.1285751,20.0103722 20.8639913,4.74683468 C20.930903,4.47275575 21.1946707,4.31014921 21.4545595,4.37969163 C21.7134785,4.45025673 21.8696057,4.72944907 21.802694,5.00250532 C18.0537016,20.3253585 2.19854718,20.7272727 0.600425191,20.7272727 L0.600425191,20.7272727 Z" id="Path"></path>
                    <path d="M23.4660918,7.63636364 C23.2809932,7.63636364 23.1012443,7.55542472 23.0017405,7.40900712 L21.6643231,5.44009973 L19.3479162,6.57688229 C19.092202,6.70147366 18.7648022,6.62781015 18.6171513,6.41045732 C18.4695004,6.19310449 18.557235,5.91482012 18.8129492,5.78931933 L21.5926375,4.42518025 C21.8472818,4.29877003 22.1746816,4.37334297 22.3234024,4.59160522 L23.9283032,6.9542941 C24.0759541,7.17164692 23.9882195,7.4499313 23.7325053,7.57543209 C23.6490505,7.61726569 23.5570362,7.63636364 23.4660918,7.63636364 Z" id="Path"></path>
                    <path d="M22.3636364,24 C22.0625455,24 21.8181818,23.7730909 21.8181818,23.4935065 L21.8181818,10.3246753 C21.8181818,10.0450909 22.0625455,9.81818182 22.3636364,9.81818182 C22.6647273,9.81818182 22.9090909,10.0450909 22.9090909,10.3246753 L22.9090909,23.4935065 C22.9090909,23.7730909 22.6647273,24 22.3636364,24 Z" id="Path"></path>
                    <path d="M15.8181818,24 C15.5170909,24 15.2727273,23.7905455 15.2727273,23.5324675 L15.2727273,17.9220779 C15.2727273,17.664 15.5170909,17.4545455 15.8181818,17.4545455 C16.1192727,17.4545455 16.3636364,17.664 16.3636364,17.9220779 L16.3636364,23.5324675 C16.3636364,23.7905455 16.1192727,24 15.8181818,24 Z" id="Path"></path>
                    <path d="M9.27272727,24 C8.97163636,24 8.72727273,23.8167273 8.72727273,23.5909091 L8.72727273,21.1363636 C8.72727273,20.9105455 8.97163636,20.7272727 9.27272727,20.7272727 C9.57381818,20.7272727 9.81818182,20.9105455 9.81818182,21.1363636 L9.81818182,23.5909091 C9.81818182,23.8167273 9.57381818,24 9.27272727,24 Z" id="Path"></path>
                    <path d="M2.72727273,24 C2.42618182,24 2.18181818,23.8045091 2.18181818,23.5636364 L2.18181818,22.2545455 C2.18181818,22.0136727 2.42618182,21.8181818 2.72727273,21.8181818 C3.02836364,21.8181818 3.27272727,22.0136727 3.27272727,22.2545455 L3.27272727,23.5636364 C3.27272727,23.8045091 3.02836364,24 2.72727273,24 Z" id="Path"></path>
                    <path d="M7.04754113,10.9090909 C6.92959038,10.9090909 6.81163963,10.8639449 6.72133359,10.7745742 L3.40765475,7.46048715 C3.23441459,7.28727382 3.22704266,7.00810552 3.39106792,6.82660006 L6.10577812,3.81287234 C8.03445716,1.58597539 11.0938047,0.0510104275 13.7126799,0.00217900917 C13.8214158,-0.0125625511 13.9587178,0.0491677325 14.0471809,0.136695747 C14.1356439,0.226066456 14.1835614,0.34676298 14.1817697,0.471144895 C14.1328795,3.08961454 12.5976767,6.14848829 10.363063,8.08239673 L7.35531887,10.7911584 C7.26869878,10.8703943 7.15811996,10.9090909 7.04754113,10.9090909 Z M4.36876905,7.11866723 L7.06504944,9.81453006 L9.75395792,7.39230744 C11.6669716,5.73664595 13.0178763,3.20754702 13.231662,0.952088299 C10.975854,1.16584092 8.44728478,2.51653638 6.79689579,4.42280439 L4.36876905,7.11866723 Z" id="Shape"></path>
                    <path d="M8.76058588,15.2727273 C8.71869713,15.2727273 8.67587753,15.2664072 8.63398878,15.2527138 C8.47201896,15.2000469 8.34728359,15.054686 8.30725656,14.868245 L7.64913782,11.7608938 C7.58956271,11.4785988 7.74408564,11.1941972 7.9935564,11.1257301 C8.24581973,11.0593698 8.49529049,11.2331708 8.55486559,11.5154657 L8.99143941,13.5789576 C9.80035764,12.1474693 9.9613966,10.3157122 9.9781521,9.24446601 C9.9828064,8.95374434 10.2043513,8.72622303 10.4519604,8.72727273 C10.708878,8.73148973 10.9136674,8.97270445 10.9090131,9.26237277 C10.869917,11.7545737 10.2238994,13.8338657 9.08917982,15.1178864 C9.00074802,15.2179536 8.88159781,15.2727273 8.76058588,15.2727273 L8.76058588,15.2727273 Z" id="Path"></path>
                    <path d="M4.72581316,7.63636364 C4.68473127,7.63636364 4.64364939,7.63264124 4.60256751,7.62333524 L1.49509173,6.96540122 C1.30969657,6.92631603 1.16222314,6.80254627 1.11060744,6.63969131 C1.05899174,6.47776696 1.11060744,6.30374481 1.24438691,6.18462804 C2.5284591,5.05022696 4.60783442,4.40439074 7.10118871,4.36530555 C7.39297542,4.34204056 7.63209304,4.56538449 7.63636364,4.82223002 C7.6405201,5.07907555 7.4108829,5.29125229 7.1190962,5.29590529 C6.04675371,5.31265609 4.21597645,5.47364984 2.78443083,6.28234101 L4.84800542,6.71879229 C5.1303117,6.77835068 5.30517305,7.02961261 5.23775662,7.27994394 C5.17876725,7.49305128 4.9638774,7.63636364 4.72581316,7.63636364 Z" id="Path"></path>
                    <path d="M0.518547232,15.2727273 C0.382746378,15.2727273 0.251092115,15.218813 0.151573931,15.1213525 C0.0168097249,14.9865668 -0.0329493667,14.7885354 0.0219929636,14.6060563 C0.193039841,14.0337353 1.0824836,11.1451734 1.77911089,10.4484348 C2.61775891,9.60861598 3.98302399,9.60757917 4.82478195,10.4484348 C5.66446662,11.2882536 5.66446662,12.6547736 4.82478195,13.4945924 C4.12919132,14.191331 1.24005406,15.07988 0.667824507,15.2509542 C0.618065415,15.2654696 0.568306324,15.2727273 0.518547232,15.2727273 Z M3.30194642,10.8548656 C3.01583164,10.8548656 2.72971687,10.963731 2.51202084,11.1814618 C2.21761288,11.4759168 1.71172878,12.7740071 1.31572935,13.9570111 C2.49854442,13.5609484 3.79746404,13.0549835 4.09083535,12.7615654 C4.5262274,12.3261038 4.5262274,11.6169234 4.09083535,11.1824986 C3.87313932,10.963731 3.58702455,10.8548656 3.30194642,10.8548656 L3.30194642,10.8548656 Z" id="Shape"></path>
                </g>
            </g>
        </g>
    </g>
</svg>