<?xml version="1.0" encoding="UTF-8"?>
<svg width="30px" height="29px" viewBox="0 0 30 29" version="1.1" xmlns="http://www.w3.org/2000/svg" xmlns:xlink="http://www.w3.org/1999/xlink">
    <!-- Generator: sketchtool 55.2 (78181) - https://sketchapp.com -->
    <title>FCB1B844-1A2C-4163-8B6B-27F8B9E9C226</title>
    <desc>Created with sketchtool.</desc>
    <g id="07.-Campaign-Settings---Edit" stroke="none" stroke-width="1" fill="none" fill-rule="evenodd">
        <g id="Lead_Collection_KPICampaign-Setting" transform="translate(-129.000000, -176.000000)">
            <g id="Group-3" transform="translate(129.000000, 176.000000)">
                <circle id="Oval-Copy-2" fill="#3389F0" cx="11" cy="11" r="11"></circle>
                <g id="time" transform="translate(5.000000, 4.000000)" fill="#000000" fill-rule="nonzero">
                    <path d="M12.5,0 C5.6075,0 0,5.6075 0,12.5 C0,19.3925 5.6075,25 12.5,25 C19.3925,25 25,19.3925 25,12.5 C25,5.6075 19.3925,0 12.5,0 Z M12.5,24.1666667 C6.06708333,24.1666667 0.833333333,18.9329167 0.833333333,12.5 C0.833333333,6.06708333 6.06708333,0.833333333 12.5,0.833333333 C18.9329167,0.833333333 24.1666667,6.06708333 24.1666667,12.5 C24.1666667,18.9329167 18.9329167,24.1666667 12.5,24.1666667 Z" id="Shape"></path>
                    <path d="M13.1610577,11.2417004 L13.1610577,7.13562753 C13.1610577,6.91174089 12.9725962,6.73076923 12.7403846,6.73076923 C12.5081731,6.73076923 12.3197115,6.91174089 12.3197115,7.13562753 L12.3197115,11.2417004 C11.7311899,11.3890688 11.2705529,11.8323887 11.1174279,12.3987854 L8.11298077,12.3987854 C7.88076923,12.3987854 7.69230769,12.5797571 7.69230769,12.8036437 C7.69230769,13.0275304 7.88076923,13.208502 8.11298077,13.208502 L11.1174279,13.208502 C11.3054687,13.9048583 11.958774,14.4230769 12.7403846,14.4230769 C13.6683894,14.4230769 14.4230769,13.6967611 14.4230769,12.8036437 C14.4230769,12.0510121 13.8846154,11.4226721 13.1610577,11.2417004 Z M12.7403846,13.6133603 C12.2763822,13.6133603 11.8990385,13.2502024 11.8990385,12.8036437 C11.8990385,12.357085 12.2763822,11.9939271 12.7403846,11.9939271 C13.204387,11.9939271 13.5817308,12.357085 13.5817308,12.8036437 C13.5817308,13.2502024 13.204387,13.6133603 12.7403846,13.6133603 Z" id="Shape"></path>
                    <path d="M12.0192308,3.84615385 C12.2846154,3.84615385 12.5,3.70288462 12.5,3.52564103 L12.5,3.20512821 C12.5,3.02788462 12.2846154,2.88461538 12.0192308,2.88461538 C11.7538462,2.88461538 11.5384615,3.02788462 11.5384615,3.20512821 L11.5384615,3.52564103 C11.5384615,3.70288462 11.7538462,3.84615385 12.0192308,3.84615385 Z" id="Path"></path>
                    <path d="M12.0192308,21.1538462 C11.7538462,21.1538462 11.5384615,21.2971154 11.5384615,21.474359 L11.5384615,21.7948718 C11.5384615,21.9721154 11.7538462,22.1153846 12.0192308,22.1153846 C12.2846154,22.1153846 12.5,21.9721154 12.5,21.7948718 L12.5,21.474359 C12.5,21.2971154 12.2846154,21.1538462 12.0192308,21.1538462 Z" id="Path"></path>
                    <path d="M21.7948718,11.5384615 L21.474359,11.5384615 C21.2974359,11.5384615 21.1538462,11.7533654 21.1538462,12.0192308 C21.1538462,12.2850962 21.2974359,12.5 21.474359,12.5 L21.7948718,12.5 C21.9717949,12.5 22.1153846,12.2850962 22.1153846,12.0192308 C22.1153846,11.7533654 21.9717949,11.5384615 21.7948718,11.5384615 Z" id="Path"></path>
                    <path d="M3.52564103,11.5384615 L3.20512821,11.5384615 C3.02820513,11.5384615 2.88461538,11.7533654 2.88461538,12.0192308 C2.88461538,12.2850962 3.02820513,12.5 3.20512821,12.5 L3.52564103,12.5 C3.7025641,12.5 3.84615385,12.2850962 3.84615385,12.0192308 C3.84615385,11.7533654 3.7025641,11.5384615 3.52564103,11.5384615 Z" id="Path"></path>
                    <path d="M18.6244584,5.87326612 L18.3733752,6.12440725 C18.2345159,6.2632986 18.2345159,6.48779817 18.3733752,6.62668952 C18.4426273,6.69595759 18.5335429,6.73076923 18.6244584,6.73076923 C18.715374,6.73076923 18.8062895,6.69595759 18.8755416,6.62668952 L19.1266248,6.37554839 C19.2654841,6.23665704 19.2654841,6.01215747 19.1266248,5.87326612 C18.9877655,5.73437477 18.7633177,5.73472999 18.6244584,5.87326612 Z" id="Path"></path>
                    <path d="M6.12445841,18.3732661 L5.87337524,18.6244073 C5.73451595,18.7632986 5.73451595,18.9877982 5.87337524,19.1266895 C5.94262732,19.1959576 6.03354287,19.2307692 6.12445841,19.2307692 C6.21537396,19.2307692 6.30628951,19.1959576 6.37554159,19.1266895 L6.62662476,18.8755484 C6.76548405,18.736657 6.76548405,18.5121575 6.62662476,18.3732661 C6.48776547,18.2343748 6.26296257,18.23473 6.12445841,18.3732661 Z" id="Path"></path>
                    <path d="M18.8755416,18.3733849 C18.7366823,18.2345127 18.5122345,18.2345127 18.3733752,18.3733849 C18.2345159,18.512257 18.2345159,18.7367255 18.3733752,18.8755976 L18.6244584,19.1267039 C18.6937105,19.1959624 18.784626,19.2307692 18.8755416,19.2307692 C18.9664571,19.2307692 19.0573727,19.1959624 19.1266248,19.1267039 C19.2654841,18.9878318 19.2654841,18.7633633 19.1266248,18.6244912 L18.8755416,18.3733849 Z" id="Path"></path>
                    <path d="M6.37554159,5.87338486 C6.23668229,5.73451274 6.01223453,5.73451274 5.87337524,5.87338486 C5.73451595,6.01225697 5.73451595,6.23672546 5.87337524,6.37559758 L6.12445841,6.62670394 C6.19371049,6.69596241 6.28462604,6.73076923 6.37554159,6.73076923 C6.46645713,6.73076923 6.55737268,6.69596241 6.62662476,6.62670394 C6.76548405,6.48783182 6.76548405,6.26336333 6.62662476,6.12449122 L6.37554159,5.87338486 Z" id="Path"></path>
                </g>
            </g>
        </g>
    </g>
</svg>