<?xml version="1.0" encoding="UTF-8"?>
<svg width="27px" height="30px" viewBox="0 0 27 30" version="1.1" xmlns="http://www.w3.org/2000/svg" xmlns:xlink="http://www.w3.org/1999/xlink">
    <!-- Generator: sketchtool 55.2 (78181) - https://sketchapp.com -->
    <title>ECE0588F-A770-485B-8A05-0731A52282B6</title>
    <desc>Created with sketchtool.</desc>
    <g id="07.-Campaign-Settings---Edit" stroke="none" stroke-width="1" fill="none" fill-rule="evenodd">
        <g id="Lead_Collection_KPICampaign-Setting" transform="translate(-800.000000, -176.000000)">
            <g id="Group-9" transform="translate(800.000000, 176.000000)">
                <circle id="Oval-Copy-2" fill="#3389F0" cx="11" cy="11" r="11"></circle>
                <g id="repeat" transform="translate(5.000000, 2.000000)" fill="#000000" fill-rule="nonzero">
                    <path d="M0.45832095,14 C0.711428695,14 0.9166419,13.8040696 0.9166419,13.5624112 C0.9166419,7.77152485 5.85109712,3.06027954 11.9163447,3.06027954 L15.1237893,3.06027954 C15.376897,3.06027954 15.5821102,2.86434914 15.5821102,2.62269072 L15.5821102,1.31823845 C15.5821102,0.954602142 16.0156819,0.74685685 16.3209236,0.965487164 L20.7166226,4.11311823 C21.2051354,4.4629158 21.2053073,5.16158104 20.7166226,5.511488 L16.3209236,8.65911907 C16.0162548,8.8773118 15.5821102,8.67076987 15.5821102,8.30642248 L15.5821102,6.9985242 C15.5821102,6.75686578 15.376897,6.56093539 15.1237893,6.56093539 C14.8706815,6.56093539 14.6654683,6.75686578 14.6654683,6.9985242 L14.6654683,8.30642248 C14.6654683,9.39043939 15.9628604,10.0095182 16.8709088,9.35926118 L21.2666077,6.21163011 C22.2442636,5.5115974 22.2446646,4.11333703 21.2666077,3.41297612 L16.8709088,0.265345054 C15.9625739,-0.385076026 14.6654683,0.234495042 14.6654683,1.31823845 L14.6654683,2.1851019 L11.9163447,2.1851019 C5.34568369,2.1851019 0,7.28897378 0,13.5624112 C0,13.8040696 0.205155915,14 0.45832095,14 L0.45832095,14 Z" id="Path"></path>
                    <path d="M21.541679,14 C21.2885713,14 21.0833581,14.1959374 21.0833581,14.4376044 C21.0833581,20.2286975 16.1489029,24.9401109 10.0836553,24.9401109 L6.87621071,24.9401109 C6.62310296,24.9401109 6.41788976,25.1360483 6.41788976,25.3777154 L6.41788976,26.6822142 C6.41788976,27.0458635 5.98437543,27.2535615 5.67907638,27.0349781 L1.28337744,23.8872347 C0.794864599,23.5374246 0.794692729,22.8387344 1.28337744,22.488815 L5.67907638,19.3410716 C5.98300046,19.1233633 6.41788976,19.3287639 6.41788976,19.6937807 L6.41788976,21.0017257 C6.41788976,21.2433927 6.62310296,21.4393301 6.87621071,21.4393301 C7.12931845,21.4393301 7.33453166,21.2433927 7.33453166,21.0017257 L7.33453166,19.6937807 C7.33453166,18.6097251 6.03708234,17.9905696 5.12909124,18.6409045 L0.733392302,21.7886479 C-0.244263575,22.4887056 -0.244664606,23.8870159 0.733392302,24.5874018 L5.12909124,27.7351452 C6.03524905,28.3840578 7.33453166,27.7669809 7.33453166,26.6822142 L7.33453166,25.8153198 L10.0836553,25.8153198 C16.6543163,25.8153198 22,20.7112658 22,14.4376044 C22,14.1958827 21.7947868,14 21.541679,14 Z" id="Path"></path>
                    <path d="M8,14 C8,15.6541786 9.34582143,17 11,17 C12.6541786,17 14,15.6541786 14,14 C14,12.3458214 12.6541786,11 11,11 C9.34582143,11 8,12.3457679 8,14 L8,14 Z M13.1428571,14 C13.1428571,15.1815714 12.1815714,16.1428571 11,16.1428571 C9.81842857,16.1428571 8.85714286,15.1815714 8.85714286,14 C8.85714286,12.8184286 9.81842857,11.8571429 11,11.8571429 C12.1815714,11.8571429 13.1428571,12.8184286 13.1428571,14 L13.1428571,14 Z" id="Shape"></path>
                </g>
            </g>
        </g>
    </g>
</svg>