<?xml version="1.0" encoding="UTF-8"?>
<svg width="30px" height="28px" viewBox="0 0 30 28" version="1.1" xmlns="http://www.w3.org/2000/svg" xmlns:xlink="http://www.w3.org/1999/xlink">
    <!-- Generator: sketchtool 55.2 (78181) - https://sketchapp.com -->
    <title>ED41627C-8A4A-43B3-B35B-CAE1C6D79D59</title>
    <desc>Created with sketchtool.</desc>
    <g id="07.-Campaign-Settings---Edit" stroke="none" stroke-width="1" fill="none" fill-rule="evenodd">
        <g id="Lead_Collection_KPICampaign-Setting" transform="translate(-129.000000, -332.000000)">
            <g id="Group-5" transform="translate(129.000000, 332.000000)">
                <circle id="Oval-Copy-4" fill="#3389F0" cx="11" cy="11" r="11"></circle>
                <g id="settings-(2)" transform="translate(5.000000, 3.000000)" fill="#000000" fill-rule="nonzero">
                    <path d="M24.5967742,10.0806452 L22.7016129,10.0806452 C22.444254,8.9906754 22.0121976,7.94949597 21.4221774,6.99758065 L22.7629032,5.65685484 C22.9203125,5.49939516 22.9203125,5.24415323 22.7629032,5.08669355 L19.9133065,2.23548387 C19.7558468,2.0780746 19.5006048,2.0780746 19.3431452,2.23548387 L18.0020161,3.57620968 C17.0502016,2.98664315 16.0091734,2.55509073 14.9193548,2.2983871 L14.9193548,0.403225806 C14.9193548,0.180544355 14.7388105,0 14.516129,0 L10.483871,0 C10.2611895,0 10.0806452,0.180544355 10.0806452,0.403225806 L10.0806452,2.2983871 C8.99072581,2.55559476 7.94969758,2.98765121 6.99798387,3.57782258 L5.65685484,2.23548387 C5.49939516,2.0780746 5.24415323,2.0780746 5.08669355,2.23548387 L2.23548387,5.08669355 C2.0780746,5.24415323 2.0780746,5.49939516 2.23548387,5.65685484 L3.57620968,6.99758065 C2.98674395,7.94959677 2.55524194,8.99077621 2.2983871,10.0806452 L0.403225806,10.0806452 C0.180544355,10.0806452 0,10.2611895 0,10.483871 L0,14.516129 C0,14.7388105 0.180544355,14.9193548 0.403225806,14.9193548 L2.2983871,14.9193548 C2.55574597,16.0093246 2.98780242,17.050504 3.57782258,18.0024194 L2.23548387,19.3431452 C2.0780746,19.5006048 2.0780746,19.7558468 2.23548387,19.9133065 L5.08669355,22.7645161 C5.24667339,22.9157762 5.496875,22.9157762 5.65685484,22.7645161 L6.99758065,21.4237903 C7.94959677,22.013256 8.99077621,22.4447581 10.0806452,22.7016129 L10.0806452,24.5967742 C10.0806452,24.8194556 10.2611895,25 10.483871,25 L14.516129,25 C14.7388105,25 14.9193548,24.8194556 14.9193548,24.5967742 L14.9193548,22.7016129 C16.0093246,22.444254 17.050504,22.0121976 18.0024194,21.4221774 L19.3431452,22.7629032 C19.5006048,22.9203125 19.7558468,22.9203125 19.9133065,22.7629032 L22.7645161,19.9116935 C22.9219254,19.7542339 22.9219254,19.4989919 22.7645161,19.3415323 L21.4237903,18.0008065 C22.0131048,17.0492944 22.4446069,16.0086694 22.7016129,14.9193548 L24.5967742,14.9193548 C24.8194556,14.9193548 25,14.7388105 25,14.516129 L25,10.483871 C25,10.2611895 24.8194556,10.0806452 24.5967742,10.0806452 Z M24.1935484,14.1129032 L22.3790323,14.1129032 C22.1873992,14.1128528 22.0221774,14.2477319 21.983871,14.4354839 C21.7375504,15.6490927 21.2583165,16.8034778 20.5725806,17.8346774 C20.4664819,17.9945565 20.4877016,18.2070565 20.6233871,18.3427419 L21.908871,19.6278226 L19.6278226,21.908871 L18.3427419,20.6233871 C18.2070565,20.4877016 17.9945565,20.4664819 17.8346774,20.5725806 C16.8034778,21.2583165 15.6490927,21.7375504 14.4354839,21.983871 C14.2477319,22.0221774 14.1128528,22.1873992 14.1129032,22.3790323 L14.1129032,24.1935484 L10.8870968,24.1935484 L10.8870968,22.3790323 C10.8871472,22.1873992 10.7522681,22.0221774 10.5645161,21.983871 C9.35090726,21.7375504 8.19652218,21.2583165 7.16532258,20.5725806 C7.00544355,20.4664819 6.79294355,20.4877016 6.65725806,20.6233871 L5.37217742,21.908871 L3.09072581,19.6282258 L4.37620968,18.3431452 C4.51189516,18.2074597 4.53311492,17.9949597 4.42701613,17.8350806 C3.74128024,16.803881 3.26204637,15.649496 3.01572581,14.4358871 C2.97757056,14.2480847 2.81260081,14.1131048 2.62096774,14.1129032 L0.806451613,14.1129032 L0.806451613,10.8870968 L2.62096774,10.8870968 C2.81260081,10.8871472 2.97782258,10.7522681 3.01612903,10.5645161 C3.2624496,9.35090726 3.74168347,8.19652218 4.42741935,7.16532258 C4.53351815,7.00544355 4.51224798,6.79294355 4.3766129,6.65725806 L3.09072581,5.37177419 L5.37177419,3.09072581 L6.65725806,4.37620968 C6.79294355,4.51189516 7.00544355,4.53311492 7.16532258,4.42701613 C8.19642137,3.74143145 9.35065524,3.26214718 10.5641129,3.01572581 C10.7519153,2.97757056 10.8868952,2.81260081 10.8870968,2.62096774 L10.8870968,0.806451613 L14.1129032,0.806451613 L14.1129032,2.62096774 C14.1128528,2.81260081 14.2477319,2.97782258 14.4354839,3.01612903 C15.6489415,3.2625504 16.8031754,3.74183468 17.8342742,4.42741935 C17.9941532,4.53351815 18.2066532,4.51229839 18.3423387,4.3766129 L19.6278226,3.09112903 L21.908871,5.37217742 L20.6233871,6.65725806 C20.4877016,6.79294355 20.4664819,7.00544355 20.5725806,7.16532258 C21.2583165,8.19652218 21.7375504,9.35090726 21.983871,10.5645161 C22.0221774,10.7522681 22.1873992,10.8871472 22.3790323,10.8870968 L24.1935484,10.8870968 L24.1935484,14.1129032 Z" id="Shape"></path>
                    <path d="M12.0192308,8.65384615 C9.62953999,8.65384615 7.69230769,10.5910785 7.69230769,12.9807692 C7.69230769,15.37046 9.62953999,17.3076923 12.0192308,17.3076923 C14.4089215,17.3076923 16.3461538,15.37046 16.3461538,12.9807692 C16.3433512,10.5922585 14.4077415,8.65664882 12.0192308,8.65384615 Z M12.0192308,16.520979 C10.0640516,16.520979 8.47902098,14.9359484 8.47902098,12.9807692 C8.47902098,11.0255409 10.0640516,9.44055944 12.0192308,9.44055944 C13.9744591,9.44055944 15.5594406,11.0255409 15.5594406,12.9807692 C15.5572771,14.9350634 13.9735249,16.5188156 12.0192308,16.520979 Z" id="Shape"></path>
                </g>
            </g>
        </g>
    </g>
</svg>