<?xml version="1.0" encoding="UTF-8"?>
<svg width="30px" height="30px" viewBox="0 0 30 30" version="1.1" xmlns="http://www.w3.org/2000/svg" xmlns:xlink="http://www.w3.org/1999/xlink">
    <!-- Generator: sketchtool 55.2 (78181) - https://sketchapp.com -->
    <title>7AABEE6A-34FC-469E-BFF8-172D9964E63C</title>
    <desc>Created with sketchtool.</desc>
    <g id="07.-Campaign-Settings---Edit" stroke="none" stroke-width="1" fill="none" fill-rule="evenodd">
        <g id="Lead_Collection_KPICampaign-Setting" transform="translate(-129.000000, -517.000000)">
            <g id="Group-8" transform="translate(129.000000, 517.000000)">
                <circle id="Oval-Copy-6" fill="#3389F0" cx="11" cy="11" r="11"></circle>
                <g id="metrics" transform="translate(5.000000, 8.000000)" fill="#000000" fill-rule="nonzero">
                    <path d="M3.20446207,13.6190476 L0.985846574,13.6190476 C0.442248935,13.6190476 0,14.09826 0,14.6874734 L0,20.9317557 C0,21.5207876 0.442248935,22 0.985846574,22 L3.20446207,22 C3.74822726,22 4.19047619,21.5207876 4.19047619,20.9317557 L4.19047619,14.6874734 C4.19047619,14.09826 3.74822726,13.6190476 3.20446207,13.6190476 Z M3.54720501,20.9317557 C3.54720501,21.1363286 3.39342297,21.3029638 3.20446207,21.3029638 L0.985846574,21.3029638 C0.797053216,21.3029638 0.643271179,21.1363286 0.643271179,20.9317557 L0.643271179,14.6874734 C0.643271179,14.482719 0.797053216,14.3160838 0.985846574,14.3160838 L3.20446207,14.3160838 C3.39342297,14.3160838 3.54720501,14.482719 3.54720501,14.6874734 L3.54720501,20.9317557 Z" id="Shape"></path>
                    <path d="M9.49030445,9.42857143 L7.27160031,9.42857143 C6.7279809,9.42857143 6.28571429,9.88238259 6.28571429,10.4401922 L6.28571429,12.3168044 C6.28571429,12.4990165 6.42961847,12.6468489 6.60736273,12.6468489 C6.78493948,12.6468489 6.92901118,12.4990165 6.92901118,12.3168044 L6.92901118,10.4401922 C6.92901118,10.2464629 7.08263185,10.0886604 7.27160031,10.0886604 L9.49030445,10.0886604 C9.67927291,10.0886604 9.83289358,10.2464629 9.83289358,10.4401922 L9.83289358,20.9883793 C9.83289358,21.1821085 9.67927291,21.339911 9.49030445,21.339911 L7.27160031,21.339911 C7.08263185,21.339911 6.92901118,21.1821085 6.92901118,20.9883793 L6.92901118,13.6369823 C6.92901118,13.4547703 6.78493948,13.3069379 6.60736273,13.3069379 C6.42961847,13.3069379 6.28571429,13.4547703 6.28571429,13.6369823 L6.28571429,20.9883793 C6.28571429,21.5461888 6.7279809,22 7.27160031,22 L9.49030445,22 C10.0339239,22 10.4761905,21.5461888 10.4761905,20.9883793 L10.4761905,10.4403641 C10.4761905,9.88238259 10.0339239,9.42857143 9.49030445,9.42857143 Z" id="Path"></path>
                    <path d="M16.8235097,11.5238095 L14.6048942,11.5238095 C14.0612966,11.5238095 13.6190476,12.0094059 13.6190476,12.6062848 L13.6190476,20.9175247 C13.6190476,21.5144036 14.0612966,22 14.6048942,22 L16.8235097,22 C17.3672749,22 17.8095238,21.5144036 17.8095238,20.9175247 L17.8095238,12.6062848 C17.8095238,12.0094059 17.3672749,11.5238095 16.8235097,11.5238095 Z M17.1662526,20.9175247 C17.1662526,21.1248228 17.0124706,21.293678 16.8235097,21.293678 L14.6048942,21.293678 C14.4159333,21.293678 14.2623188,21.1248228 14.2623188,20.9175247 L14.2623188,12.6062848 C14.2623188,12.3988027 14.4159333,12.2301316 14.6048942,12.2301316 L16.8235097,12.2301316 C17.0124706,12.2301316 17.1662526,12.3988027 17.1662526,12.6062848 L17.1662526,20.9175247 Z" id="Shape"></path>
                    <path d="M23.1093915,6.28571429 L20.890776,6.28571429 C20.3471783,6.28571429 19.9047619,6.76468667 19.9047619,7.3534236 L19.9047619,17.3069778 C19.9047619,17.4992924 20.0488278,17.6553213 20.2263975,17.6553213 C20.4041347,17.6553213 20.5480331,17.4992924 20.5480331,17.3069778 L20.5480331,7.3534236 C20.5480331,7.14877176 20.7018151,6.98240139 20.890776,6.98240139 L23.1093915,6.98240139 C23.2981849,6.98240139 23.4519669,7.14877176 23.4519669,7.3534236 L23.4519669,20.9322907 C23.4519669,21.1367611 23.2981849,21.3033129 23.1093915,21.3033129 L20.890776,21.3033129 C20.7018151,21.3033129 20.5480331,21.1367611 20.5480331,20.9322907 L20.5480331,18.700352 C20.5480331,18.5080373 20.4041347,18.3520084 20.2263975,18.3520084 C20.0488278,18.3520084 19.9047619,18.5080373 19.9047619,18.700352 L19.9047619,20.9322907 C19.9047619,21.5210276 20.3471783,22 20.890776,22 L23.1093915,22 C23.6529892,22 24.0952381,21.5210276 24.0952381,20.9322907 L24.0952381,7.3534236 C24.0952381,6.76468667 23.6529892,6.28571429 23.1093915,6.28571429 L23.1093915,6.28571429 Z" id="Path"></path>
                    <path d="M2.21759089,7.24028942 C0.994885097,7.24028942 0,8.20111409 0,9.38195999 C0,10.5629849 0.994885097,11.5238095 2.21759089,11.5238095 C3.44048205,11.5238095 4.43536715,10.5629849 4.43536715,9.38195999 C4.43536715,9.28815109 4.42832303,9.1961325 4.41627394,9.1055461 L7.91292336,6.52992006 C8.17689138,6.63733478 8.46699667,6.69694994 8.77100478,6.69694994 C9.2503737,6.69694994 9.69433673,6.54871762 10.0574781,6.29808327 L13.1164671,7.64989757 C13.2206455,8.73800869 14.1708562,9.59302989 15.3242333,9.59302989 C16.5471245,9.59302989 17.5420096,8.63220518 17.5420096,7.45135937 C17.5420096,7.32335681 17.5295897,7.19821865 17.5073452,7.07648196 L21.1152171,4.15301127 C21.3530479,4.23751085 21.6099718,4.28352015 21.8776472,4.28352015 C23.100353,4.28352015 24.0952381,3.32269544 24.0952381,2.14167057 C24.0952381,0.96082471 23.100353,0 21.8776472,0 C20.654756,0 19.6598709,0.96082471 19.6598709,2.14167057 C19.6598709,2.26967312 19.6722908,2.39481124 19.6945353,2.51654793 L16.086478,5.44001866 C15.8488327,5.3556981 15.5919087,5.30950974 15.3242333,5.30950974 C14.8448644,5.30950974 14.4009014,5.45774211 14.03776,5.70855547 L10.978771,4.35656216 C10.8745926,3.26845099 9.92456728,2.41342979 8.77100478,2.41342979 C7.54811363,2.41342979 6.55341389,3.3742545 6.55341389,4.55510036 C6.55341389,4.64890922 6.56027264,4.74110687 6.57250709,4.83169326 L3.07567232,7.40714029 C2.81151894,7.29972557 2.52178437,7.24028942 2.21759089,7.24028942 Z M21.8776472,0.687454228 C22.707923,0.687454228 23.3834142,1.33981965 23.3834142,2.14167057 C23.3834142,2.94352144 22.707923,3.59606592 21.8776472,3.59606592 C21.0597912,3.59606592 20.3716948,2.93152683 20.3716948,2.14167057 C20.3716948,1.33981965 21.047186,0.687454228 21.8776472,0.687454228 Z M19.9527568,3.20471825 C19.9586887,3.21474363 19.9651767,3.22441098 19.9712939,3.23425729 C20.0999413,3.44353701 20.2654774,3.63151275 20.4590045,3.78744314 L17.2491237,6.38813262 C17.2431918,6.37810725 17.1458722,6.22880076 17.0982319,6.16739533 C16.994795,6.03420107 16.8756015,5.91246439 16.742876,5.80540774 L19.9527568,3.20471825 Z M13.8186516,7.42987642 C13.8308861,6.65040356 14.5124946,5.99696397 15.3242333,5.99696397 C16.1335622,5.99696397 16.8300003,6.66526261 16.8300003,7.45135937 C16.8300003,8.25321024 16.1545091,8.90557566 15.3242333,8.90557566 C14.4939575,8.90557566 13.8184663,8.25321024 13.8184663,7.45135937 C13.8184663,7.44419839 13.8184663,7.4370374 13.8186516,7.42987642 L13.8186516,7.42987642 Z M10.5996877,5.76494817 C10.7453892,5.55835387 10.8553141,5.32866538 10.9194523,5.08644519 L13.5042628,6.22862175 C13.3726495,6.41176386 13.2697687,6.61513574 13.2024792,6.82853299 C13.1928398,6.85878812 13.183942,6.88922227 13.1757858,6.91983548 L10.5909753,5.77765892 C10.5939413,5.77354135 10.5967218,5.76924476 10.5996877,5.76494817 Z M8.77100478,3.10088402 C9.60128061,3.10088402 10.2767718,3.75324944 10.2767718,4.55510036 C10.2767718,5.33851174 9.5808898,6.00949571 8.77100478,6.00949571 C7.960749,6.00949571 7.2650524,5.34209223 7.2650524,4.55510036 C7.2650524,3.75324944 7.9405436,3.10088402 8.77100478,3.10088402 Z M6.79699114,5.53078412 C6.80125464,5.53866115 6.8060743,5.54653828 6.81033784,5.55441531 C6.92934587,5.77175112 7.08709643,5.96939421 7.27487704,6.13534997 L4.19160453,8.40645525 C4.13451033,8.29904052 4.06740612,8.19592239 3.99251627,8.09942815 C3.90947015,7.9923715 3.81641403,7.89247583 3.71371859,7.80171038 L6.79699114,5.53078412 Z M3.11497093,8.22671461 C3.48033679,8.49525142 3.72354328,8.9181074 3.72354328,9.38195999 C3.72354328,10.1839899 3.04805208,10.8363553 2.21759089,10.8363553 C1.38731507,10.8363553 0.711823873,10.1839899 0.711823873,9.38195999 C0.711823873,8.58010907 1.38731507,7.92774365 2.21759089,7.92774365 C2.54866312,7.92774365 2.86138367,8.03999205 3.11497093,8.22671461 Z" id="Shape"></path>
                </g>
            </g>
        </g>
    </g>
</svg>