<svg xmlns="http://www.w3.org/2000/svg" width="144" height="162" viewBox="0 0 144 162">
    <g fill="none">
        <path fill="#F6F6F6" d="M116.103 16.664C84.402 16.664 62.633 0 47.357 0 32.082 0 0 8.911 0 80.223S43.159 162 59.96 162c78.678.005 112.286-145.336 56.143-145.336z"/>
        <g fill="#3389F0" transform="translate(25 34)">
            <path d="M34.125 40.434c3.66 0 6.638-2.978 6.638-6.637V25.69c0-3.661-2.978-6.639-6.638-6.639-3.66 0-6.637 2.978-6.637 6.639v8.106c0 3.66 2.977 6.637 6.637 6.637zm-5.422-10.69c0-2.99 2.433-5.421 5.422-5.421 2.99 0 5.422 2.431 5.422 5.42 0 .981-.794 1.775-1.774 1.775-.979 0-1.773-.794-1.773-1.774 0-1.034-.84-1.874-1.875-1.874-1.034 0-1.875.84-1.875 1.874 0 .98-.794 1.774-1.773 1.774-.98 0-1.774-.794-1.774-1.774z"/>
            <circle cx="58.366" cy="29.744" r="1.874"/>
            <path d="M58.365 40.434c3.66 0 6.638-2.978 6.638-6.637V25.69c0-3.661-2.978-6.639-6.638-6.639-3.66 0-6.637 2.978-6.637 6.639v8.106c0 3.66 2.978 6.637 6.637 6.637zm0-16.111c2.99 0 5.423 2.431 5.423 5.42 0 2.99-2.433 5.422-5.423 5.422s-5.421-2.432-5.421-5.421c0-2.99 2.432-5.421 5.421-5.421z"/>
            <path d="M46.245 0C20.745 0 0 20.746 0 46.245S20.745 92.49 46.245 92.49c25.5 0 46.245-20.746 46.245-46.245S71.744 0 46.245 0zm1.935 25.69c0-5.616 4.57-10.185 10.185-10.185 5.616 0 10.185 4.569 10.185 10.186v8.106c0 5.615-4.57 10.184-10.185 10.184-5.616 0-10.185-4.569-10.185-10.184V25.69zm-24.24 0c0-5.616 4.57-10.185 10.185-10.185 5.616 0 10.185 4.569 10.185 10.186v8.106c0 5.615-4.569 10.184-10.185 10.184-5.615 0-10.184-4.569-10.184-10.184V25.69zm22.306 49.86c-14.097 0-25.566-11.467-25.566-25.564 0-.98.794-1.774 1.774-1.774s1.773.794 1.773 1.774c0 12.14 9.878 22.017 22.019 22.017 12.14 0 22.017-9.877 22.017-22.017 0-.98.794-1.774 1.774-1.774s1.773.794 1.773 1.774c0 14.097-11.468 25.564-25.564 25.564z"/>
        </g>
    </g>
</svg>
