<?xml version="1.0" encoding="UTF-8"?>
<svg width="35px" height="28px" viewBox="0 0 35 28" version="1.1" xmlns="http://www.w3.org/2000/svg" xmlns:xlink="http://www.w3.org/1999/xlink">
    <!-- Generator: sketchtool 55.2 (78181) - https://sketchapp.com -->
    <title>ED9E98FA-E7DE-47A5-AD9F-08F3258ED1B7</title>
    <desc>Created with sketchtool.</desc>
    <g id="Target" stroke="none" stroke-width="1" fill="none" fill-rule="evenodd">
        <g id="HHG_Lead_Collection_Target_Pages_Links" transform="translate(-113.000000, -383.000000)">
            <g id="Group-15" transform="translate(113.000000, 383.000000)">
                <g id="Group-20">
                    <g id="Group-14">
                        <circle id="Oval-Copy-6" fill="#3389F0" cx="12.2727273" cy="12.2727273" r="12.2727273"></circle>
                        <g id="Group" transform="translate(9.000000, 8.000000)" fill="#1B3250" fill-rule="nonzero">
                            <path d="M23.7698246,0 L1.49333333,0 C0.668134255,0.00155630047 0,0.674442186 0,1.50395034 L0,14.6783296 C0.00154471735,15.506736 0.669228798,16.1779055 1.49333333,16.1794582 L10.3242105,16.1794582 L10.3242105,17.4492099 C10.3246157,17.688247 10.247779,17.9209506 10.1052632,18.1123025 L9.1845614,19.3425508 C9.09265363,19.4670473 9.07805871,19.63287 9.14679384,19.7716535 C9.21552898,19.910437 9.35595439,19.9986794 9.51017544,20 L15.7557895,20 C15.9100105,19.9986794 16.0504359,19.910437 16.1191711,19.7716535 C16.1879062,19.63287 16.1733113,19.4670473 16.0814035,19.3425508 L15.1578947,18.1123025 C15.0143768,17.9213046 14.9365445,17.6885695 14.9361404,17.4492099 L14.9361404,16.1794582 L23.7698246,16.1794582 C24.5939291,16.1779055 25.2616132,15.506736 25.2631579,14.6783296 L25.2631579,1.50395034 C25.2631579,0.674442186 24.5950236,0.00155630047 23.7698246,0 Z M1.49333333,0.821106095 L23.7698246,0.821106095 C24.1449906,0.821106095 24.4491228,1.12682588 24.4491228,1.50395034 L24.4491228,12.9345372 L0.814035088,12.9345372 L0.814035088,1.50395034 C0.814035088,1.12682588 1.11816727,0.821106095 1.49333333,0.821106095 Z M14.5094737,18.5976298 L14.9389474,19.1619639 L10.3242105,19.1619639 L10.7536842,18.5976298 C11.0030943,18.2640256 11.1380433,17.8580557 11.1382456,17.4407449 L11.1382456,16.1794582 L14.1249123,16.1794582 L14.1249123,17.4492099 C14.1251146,17.8665207 14.2600636,18.2724906 14.5094737,18.6060948 L14.5094737,18.5976298 Z M23.7726316,15.3527088 L1.49333333,15.3527088 C1.12205157,15.3512234 0.82014383,15.0515019 0.814035088,14.6783296 L0.814035088,13.7528217 L24.4491228,13.7528217 L24.4491228,14.6783296 C24.4475847,15.0548117 24.1443517,15.3596277 23.7698246,15.3611738 L23.7726316,15.3527088 Z" id="Shape"></path>
                            <path d="M12.1052687,3.15788362 C12.3959418,3.15788362 12.6315789,2.92224651 12.6315789,2.63157339 C12.6315789,2.34090028 12.3959418,2.10526316 12.1052687,2.10526316 C11.8145956,2.10526316 11.5789585,2.34090028 11.5789585,2.63157339 C11.5780473,2.77143689 11.633205,2.90583603 11.7321055,3.00473656 C11.8310061,3.10363708 11.9654052,3.15879482 12.1052687,3.15788362 Z" id="Path"></path>
                        </g>
                    </g>
                </g>
            </g>
        </g>
    </g>
</svg>