<?xml version="1.0" encoding="UTF-8"?>
<svg width="31px" height="29px" viewBox="0 0 31 29" version="1.1" xmlns="http://www.w3.org/2000/svg" xmlns:xlink="http://www.w3.org/1999/xlink">
    <!-- Generator: sketchtool 55.2 (78181) - https://sketchapp.com -->
    <title>49A627FD-96D3-4455-B4DF-3DEDA4AA0B9E</title>
    <desc>Created with sketchtool.</desc>
    <g id="Target" stroke="none" stroke-width="1" fill="none" fill-rule="evenodd">
        <g id="HHG_Lead_Collection_Target_Pages_Links" transform="translate(-110.000000, -185.000000)">
            <g id="Group-18" transform="translate(110.000000, 185.000000)">
                <g id="Group-12" transform="translate(-0.000000, -0.000000)">
                    <circle id="Oval-Copy-4" fill="#3389F0" cx="12.2727273" cy="12.2727273" r="12.2727273"></circle>
                    <g id="Group" transform="translate(6.000000, 3.000000)" fill="#1B3250" fill-rule="nonzero">
                        <path d="M24.9420243,20.9108155 C24.5036816,20.0697159 24.3035136,18.9225201 24.0704065,17.5943281 C23.8043604,16.0744931 23.5003077,14.3523685 22.7528448,12.664846 C22.1852798,11.3872264 21.6050459,10.2134135 20.7511646,9.899332 C20.4040377,9.77157005 20.0366407,9.79818712 19.6869801,9.97918322 C19.4133327,10.1202537 19.1472866,10.3438371 18.9901927,10.6978442 C18.8178961,10.5328184 18.6227957,10.3970713 18.4048912,10.3092349 C18.0045552,10.1495325 17.5712801,10.181473 17.1532076,10.3970713 C16.7452702,10.6073462 16.4513526,10.881502 16.2739886,11.2142155 C16.1118271,11.073145 15.9319293,10.9560298 15.7292275,10.8788403 C15.3086212,10.7191379 14.8702786,10.7564018 14.4218009,10.9879703 C14.0366675,11.1875984 13.7604862,11.4670777 13.6008586,11.818423 C12.8533957,10.4849076 11.9792442,8.87723636 11.6599889,8.19850098 C11.0873563,6.97411558 9.88128056,6.77448753 9.04006809,7.21100754 C8.21152449,7.63954243 7.6667634,8.70422538 8.23179467,9.91264054 C8.77402198,11.073145 9.53922127,12.3401177 10.2790828,13.5671648 C11.1329642,14.9831931 12.0780613,16.5509388 12.3643776,17.5118151 C12.1363381,17.2802466 11.8044139,16.9102693 11.3305984,16.3193702 C10.5653991,15.366479 9.48347828,15.3584939 8.85256893,15.8376012 C8.29767275,16.2608127 7.9150731,17.2083805 8.66760353,18.4913235 C9.58989672,20.0617308 13.7123446,23.3063521 14.7562588,23.8227234 C15.511323,24.1953624 16.5501698,25.1509153 16.8162159,25.717859 C16.8744926,25.8429593 16.9809111,25.936119 17.1075997,25.9787063 C17.1532076,25.9946766 17.2013493,26 17.249491,26 C17.3331055,26 17.4141862,25.9787063 17.4876656,25.9334573 L24.7545251,21.5948743 C24.9850984,21.4564655 25.0661791,21.1530308 24.9420243,20.9108155 Z M17.4091186,24.8155402 C16.8694251,24.0729239 15.8837876,23.2584414 15.1692638,22.9044343 C14.241903,22.4466206 10.299353,19.3350847 9.4910796,17.958982 C9.15155408,17.3813915 9.12368258,16.8836522 9.42013397,16.6574071 C9.52148487,16.5802175 9.65324104,16.5376302 9.79766607,16.5376302 C10.0561109,16.5376302 10.3525622,16.6707156 10.5932706,16.9688268 C11.9995144,18.7202303 12.4961338,18.9890627 12.9192738,18.8799327 C13.1549146,18.8160518 13.3272112,18.6164237 13.3829541,18.3449295 C13.6008586,17.2536295 12.6532277,15.6113561 11.0924238,13.0215148 C10.3652311,11.8157613 9.61523445,10.5700823 9.09327731,9.46015028 C8.77148821,8.77342978 9.09074354,8.30763098 9.46067433,8.11598805 C9.89648319,7.89240463 10.4741833,7.96693244 10.7909049,8.64300611 C11.1811058,9.47612053 12.2731618,11.4484457 12.5974847,12.0313596 C14.0290661,14.602569 14.0620052,14.6158775 14.2672407,14.6877436 C14.3888618,14.7303309 14.520618,14.7223458 14.6346378,14.6637882 C14.7511913,14.602569 14.8424071,14.493439 14.8829475,14.3630153 C14.9488255,14.147417 14.8702786,13.9903763 14.7790628,13.8067184 C14.6422391,13.5352243 14.2824434,12.8139016 14.431936,12.3294708 C14.487679,12.1484747 14.6219689,12.0047425 14.8398733,11.8902891 C15.1135208,11.7492186 15.2883511,11.7864825 15.3947695,11.8264082 C15.7520314,11.9621552 16.0434153,12.4359391 16.2486508,12.8538272 C16.3043938,12.9948977 16.3652044,13.1226597 16.4234811,13.2344514 C16.4386838,13.2717153 16.4538864,13.3036558 16.4665553,13.3355962 C16.6008452,13.6496777 16.6743246,13.820027 16.8947628,13.9052016 C17.0189177,13.9504506 17.1608089,13.9424655 17.2773625,13.883908 C17.3989836,13.8226887 17.4927331,13.7029119 17.5307397,13.5671648 C17.5966178,13.3329345 17.5003345,13.165247 17.3913822,12.9709423 C17.360977,12.9177082 17.3229704,12.8511655 17.2849638,12.7766377 C17.2393559,12.6728311 17.1886804,12.5583777 17.1304037,12.4386009 C17.0543905,12.2309877 17.0087826,12.0074043 17.0619918,11.818423 C17.1177348,11.6214567 17.2874976,11.4484457 17.5712801,11.3020518 C17.8094547,11.1796133 17.961481,11.2142155 18.0577644,11.2514794 C18.5974579,11.4644159 19.0129966,12.5237755 19.1700905,12.9230316 C19.2790427,13.2025109 19.3449208,13.3701984 19.5602915,13.4553731 C19.6844463,13.5059455 19.8263376,13.4979604 19.9479587,13.4367411 C20.1405254,13.3355962 20.3280246,13.1146745 20.1202552,12.6275821 C19.5704266,11.3419774 19.8516753,11.0172491 20.1075863,10.8841637 C20.2570789,10.8069742 20.3508285,10.8256062 20.4243079,10.8522232 C20.9640015,11.0518513 21.5543704,12.3773816 21.871092,13.0907192 C22.5678794,14.6611265 22.8592633,16.3140468 23.1151743,17.7753242 C23.3178761,18.9331669 23.5104428,20.0351137 23.8829074,20.9454177 L17.4091186,24.8155402 Z" id="Shape"></path>
                        <path d="M4.9335816,1.22421787 C4.79427684,1.00987216 4.48938341,0.936853294 4.25019977,1.05933656 C4.01101613,1.18417527 3.92953599,1.45740716 4.06621235,1.67175287 L6.0664184,4.7762325 C6.15841211,4.91991479 6.32662918,5 6.50010302,5 C6.58421156,5 6.67094848,4.98115642 6.74980023,4.93875837 C6.98898387,4.81391966 7.07046401,4.54068776 6.93378765,4.32634205 L4.9335816,1.22421787 Z" id="Path"></path>
                        <path d="M0.343864843,6.8188946 L4.29450476,7.97340851 C4.35248061,7.99113617 4.41321721,8 4.47395381,8 C4.68929268,8 4.89082777,7.89363404 4.9681289,7.7230053 C5.06751607,7.5036255 4.92671758,7.26208612 4.65340287,7.18231164 L0.705523703,6.02558178 C0.434969747,5.9458073 0.131286734,6.05882114 0.0318995663,6.27820094 C-0.0674876015,6.49758075 0.0733108862,6.73912012 0.343864843,6.8188946 Z" id="Path"></path>
                        <path d="M4.96814631,11.2785095 C4.86881342,11.0588864 4.56805551,10.9457472 4.29489007,11.0256102 L0.346407835,12.1814047 C0.0732423975,12.2612676 -0.0674791917,12.5030749 0.0318536948,12.7226981 C0.109112607,12.8935161 0.310537626,13 0.525758881,13 C0.586462311,13 0.647165742,12.9911263 0.705109926,12.973379 L4.65359216,11.8175845 C4.9267576,11.73994 5.06747919,11.4981327 4.96814631,11.2785095 Z" id="Path"></path>
                        <path d="M6.7498976,13.0603674 C6.51080705,12.9355614 6.20603227,13.010916 6.06678172,13.2252056 L4.0673541,16.3288731 C3.92810355,16.5431628 4.01217935,16.8163232 4.25126991,16.9411292 C4.33009097,16.9811614 4.41679414,17 4.50086994,17 C4.67427628,17 4.84242788,16.9199357 4.93438579,16.776291 L6.93381342,13.6726235 C7.07043659,13.4559791 6.98898816,13.1828187 6.7498976,13.0603674 Z" id="Path"></path>
                        <path d="M14,9.5 C14,9.77631579 14.223449,10 14.4994742,10 L18.5005258,10 C18.776551,10 19,9.77631579 19,9.5 C19,9.22368421 18.776551,9 18.5005258,9 L14.4994742,9 C14.223449,9 14,9.22368421 14,9.5 Z" id="Path"></path>
                        <path d="M13.4920421,7 C13.6032637,7 13.7170718,6.9558736 13.807601,6.86762081 L16.8235169,3.98763809 C17.0330273,3.78759844 17.0588928,3.43458727 16.885594,3.1992465 C16.7097087,2.96390573 16.3993229,2.93154637 16.192399,3.13158603 L13.1764831,6.00862699 C12.9669727,6.20866665 12.9411072,6.56167781 13.114406,6.79701858 C13.2126948,6.92939777 13.3523685,7 13.4920421,7 Z" id="Path"></path>
                        <path d="M9.48493023,4.99202066 C9.51909156,4.99734022 9.55325289,5 9.58741422,5 C9.8700216,5 10.1184676,4.8271143 10.1681569,4.58241454 L10.9911344,0.592744574 C11.0470348,0.316127456 10.83275,0.0554690184 10.5128757,0.0075929788 C10.1898959,-0.0402830608 9.88554948,0.143241758 9.82964912,0.417199096 L9.00977716,4.40420928 C8.95077123,4.6808264 9.16505594,4.94414462 9.48493023,4.99202066 Z" id="Path"></path>
                    </g>
                </g>
            </g>
        </g>
    </g>
</svg>