<?xml version="1.0" encoding="UTF-8"?>
<svg width="31px" height="29px" viewBox="0 0 31 29" version="1.1" xmlns="http://www.w3.org/2000/svg" xmlns:xlink="http://www.w3.org/1999/xlink">
    <!-- Generator: sketchtool 55.2 (78181) - https://sketchapp.com -->
    <title>C546AE6E-94B0-4958-99AF-AE2CF73B0167</title>
    <desc>Created with sketchtool.</desc>
    <g id="Target" stroke="none" stroke-width="1" fill="none" fill-rule="evenodd">
        <g id="HHG_Lead_Collection_Target_Pages_Links" transform="translate(-110.000000, -250.000000)">
            <g id="Group-17" transform="translate(110.000000, 250.000000)">
                <g id="Group-13" transform="translate(-0.000000, 0.000000)">
                    <circle id="Oval-Copy-5" fill="#3389F0" cx="12.2727273" cy="12.2727273" r="12.2727273"></circle>
                    <g id="noun_link_89021" transform="translate(7.000000, 5.000000)" fill="#1B3250" fill-rule="nonzero">
                        <path d="M22.0740741,0 L9.83703704,0 C8.77037037,0 7.91111111,0.860321384 7.91111111,1.92830655 L7.91111111,7.89122373 L1.92592593,7.89122373 C0.859259259,7.89122373 0,8.75154512 0,9.81953028 L0,22.0716934 C0,23.1396786 0.859259259,24 1.92592593,24 L14.1925926,24 C15.2592593,24 16.1185185,23.1396786 16.1185185,22.0716934 L16.1185185,16.1087763 L22.0740741,16.1087763 C23.1407407,16.1087763 24,15.2484549 24,14.1804697 L24,1.92830655 C24,0.860321384 23.1407407,0 22.0740741,0 Z M14.162963,7.89122373 L12.5037037,7.89122373 L12.5037037,4.62793572 L19.3777778,4.62793572 L19.3777778,11.5105068 L16.0888889,11.5105068 L16.0888889,9.81953028 C16.0888889,8.75154512 15.2296296,7.89122373 14.162963,7.89122373 Z M9.83703704,16.1087763 L11.4962963,16.1087763 L11.4962963,19.3720643 L4.62222222,19.3720643 L4.62222222,12.4894932 L7.94074074,12.4894932 L7.94074074,14.1804697 C7.91111111,15.2484549 8.77037037,16.1087763 9.83703704,16.1087763 Z M14.9925926,22.0716934 C14.9925926,22.5166873 14.637037,22.9023486 14.162963,22.9023486 L1.92592593,22.9023486 C1.48148148,22.9023486 1.0962963,22.5463535 1.0962963,22.0716934 L1.0962963,9.78986403 C1.0962963,9.34487021 1.45185185,8.9592089 1.92592593,8.9592089 L7.94074074,8.9592089 L7.94074074,11.3918418 L4.56296296,11.3918418 C3.97037037,11.3918418 3.52592593,11.8665019 3.52592593,12.4301607 L3.52592593,19.4017305 C3.52592593,19.9950556 4,20.4400494 4.56296296,20.4400494 L11.5259259,20.4400494 C12.1185185,20.4400494 12.562963,19.9653894 12.562963,19.4017305 L12.562963,15.5451174 L12.562963,11.7478368 L12.562963,8.9592089 L14.162963,8.9592089 C14.6074074,8.9592089 14.9925926,9.31520396 14.9925926,9.78986403 L14.9925926,12.0444994 L14.9925926,15.5451174 L14.9925926,22.0716934 L14.9925926,22.0716934 Z M22.9037037,14.1804697 C22.9037037,14.6254635 22.5481481,15.0111248 22.0740741,15.0111248 L16.0888889,15.0111248 L16.0888889,12.578492 L19.437037,12.578492 C20.0296296,12.578492 20.4740741,12.1038319 20.4740741,11.5401731 L20.4740741,4.56860321 C20.4740741,3.97527812 20,3.5302843 19.437037,3.5302843 L12.4740741,3.5302843 C11.8814815,3.5302843 11.437037,4.00494438 11.437037,4.56860321 L11.437037,11.5401731 C11.437037,11.6588381 11.4666667,11.7478368 11.4962963,11.8665019 L11.4962963,15.0111248 L9.83703704,15.0111248 C9.39259259,15.0111248 9.00740741,14.6551298 9.00740741,14.1804697 L9.00740741,11.9258344 L9.00740741,8.42521632 L9.00740741,1.92830655 C9.00740741,1.48331273 9.36296296,1.09765142 9.83703704,1.09765142 L22.0740741,1.09765142 C22.5185185,1.09765142 22.9037037,1.45364648 22.9037037,1.92830655 L22.9037037,14.1804697 Z" id="Shape"></path>
                    </g>
                </g>
            </g>
        </g>
    </g>
</svg>