<?xml version="1.0" encoding="UTF-8"?>
<svg width="30px" height="30px" viewBox="0 0 30 30" version="1.1" xmlns="http://www.w3.org/2000/svg" xmlns:xlink="http://www.w3.org/1999/xlink">
    <!-- Generator: sketchtool 55.2 (78181) - https://sketchapp.com -->
    <title>B3ABF604-4E72-4A25-A900-F48DD0DA701C</title>
    <desc>Created with sketchtool.</desc>
    <g id="Target" stroke="none" stroke-width="1" fill="none" fill-rule="evenodd">
        <g id="HHG_Lead_Collection_Target_Pages_Links" transform="translate(-126.000000, -118.000000)">
            <g id="Group-19" transform="translate(126.000000, 118.000000)">
                <g id="Group-7" transform="translate(-0.000000, 0.000000)">
                    <circle id="Oval-Copy-2" fill="#3389F0" cx="12.2727273" cy="12.2727273" r="12.2727273"></circle>
                    <g id="Group-6" transform="translate(10.000000, 5.454545)" fill="#1B3250" fill-rule="nonzero">
                        <g id="Group">
                            <path d="M5.52463179,0 C5.3539868,0 5.19400711,0.0597345133 5.07135602,0.17920354 L0.186642966,5.15888978 C0.0693245302,5.28378922 0,5.44127112 0,5.61504425 L0,21.7433628 C0,23.3018906 1.23717623,24.5454545 2.76764855,24.5454545 L16.3232605,24.5454545 C17.8537329,24.5454545 19.0909091,23.2964602 19.0909091,21.7433628 L19.0909091,2.80209171 C19.0909091,1.24899437 17.8537329,0 16.3232605,0 L5.52463179,0 Z M4.90604368,2.20474658 L4.90604368,4.52896219 C4.90604368,4.76790024 4.69273743,4.94167337 4.45810056,4.94167337 L2.17572372,4.94167337 L4.90604368,2.20474658 Z M17.8110716,2.80209171 L17.8110716,21.7379324 C17.8110716,22.5742156 17.1498222,23.2367257 16.3232605,23.2367257 L2.76764855,23.2367257 C1.9464195,23.2367257 1.27983748,22.5742156 1.27983748,21.7379324 L1.27983748,6.24497184 L4.45810056,6.24497184 C5.39664804,6.24497184 6.18588116,5.4847144 6.18588116,4.52896219 L6.18588116,1.30329847 L16.3232605,1.30329847 C17.1498222,1.30329847 17.8110716,1.96580853 17.8110716,2.80209171 Z" id="Shape"></path>
                            <path d="M4.65540884,12.1641191 L7.41239208,12.1641191 C7.76434738,12.1641191 8.05231082,11.8708769 8.05231082,11.5124698 C8.05231082,11.1540628 7.76434738,10.8608206 7.41239208,10.8608206 L4.65540884,10.8608206 C4.30345353,10.8608206 4.0154901,11.1540628 4.0154901,11.5124698 C4.0154901,11.8708769 4.29812087,12.1641191 4.65540884,12.1641191 Z" id="Path"></path>
                            <path d="M13.9022346,14.2819791 L4.65540884,14.2819791 C4.30345353,14.2819791 4.0154901,14.5752212 4.0154901,14.9336283 C4.0154901,15.2920354 4.30345353,15.5852776 4.65540884,15.5852776 L13.9075673,15.5852776 C14.2595226,15.5852776 14.547486,15.2920354 14.547486,14.9336283 C14.547486,14.5752212 14.2595226,14.2819791 13.9022346,14.2819791 Z" id="Path"></path>
                            <path d="M13.9022346,17.7031376 L4.65540884,17.7031376 C4.30345353,17.7031376 4.0154901,17.9963797 4.0154901,18.3547868 C4.0154901,18.7131939 4.30345353,19.006436 4.65540884,19.006436 L13.9075673,19.006436 C14.2595226,19.006436 14.547486,18.7131939 14.547486,18.3547868 C14.547486,17.9963797 14.2595226,17.7031376 13.9022346,17.7031376 Z" id="Path"></path>
                        </g>
                    </g>
                </g>
            </g>
        </g>
    </g>
</svg>