<?xml version="1.0" encoding="UTF-8"?>
<svg width="36px" height="30px" viewBox="0 0 36 30" version="1.1" xmlns="http://www.w3.org/2000/svg" xmlns:xlink="http://www.w3.org/1999/xlink">
    <!-- Generator: sketchtool 55.2 (78181) - https://sketchapp.com -->
    <title>BDF8901C-DF43-40FD-A249-47B6185EBEF8</title>
    <desc>Created with sketchtool.</desc>
    <g id="Target" stroke="none" stroke-width="1" fill="none" fill-rule="evenodd">
        <g id="HHG_Lead_Collection_Target_Pages_Links" transform="translate(-110.000000, -316.000000)">
            <g id="Group-16" transform="translate(110.000000, 316.000000)">
                <g id="Group-9" transform="translate(0.000000, -0.000000)">
                    <circle id="Oval-Copy-2" fill="#3389F0" cx="12.2727273" cy="12.2727273" r="12.2727273"></circle>
                    <g id="Group-8" transform="translate(6.000000, 5.000000)" fill="#1B3250" fill-rule="nonzero">
                        <path d="M29.4642857,14.6993443 C29.4642857,11.8327494 27.8776937,9.33306546 25.5422074,8.03571429 C25.2647482,8.37794516 24.9398181,8.67904252 24.5788756,8.93160232 C26.7359368,9.95047957 28.2365901,12.1494775 28.2365901,14.698933 C28.2365901,15.5302414 27.0481807,16.2397946 25.2446959,16.6371443 C24.3615735,13.8873686 22.4435037,11.6007563 19.9484169,10.2515769 C19.6549977,10.5810564 19.3321137,10.8821538 18.9826297,11.1515783 C22.272854,12.7483815 24.5539125,16.1258547 24.5539125,20.0376523 C24.5539125,21.2724806 22.8854741,22.1716593 21.7228463,22.4336798 L19.6549977,18.333902 L20.1272513,23.1757285 C18.4952346,23.5632062 16.5927156,23.7655831 14.7319382,23.7655831 C13.0905092,23.7655831 11.0087466,23.6068077 9.51586877,23.304065 L10.013904,18.333902 L7.91086136,22.6109652 C6.208866,22.1206537 4.93001639,21.0408988 4.91037326,20.0380637 C4.8338469,16.1270887 7.19143173,12.7487928 10.481656,11.1519896 C10.132172,10.8825651 9.80928803,10.5814677 9.51586877,10.2519883 C7.02078203,11.6011677 5.10271224,13.88778 4.21958986,16.6375557 C2.41569575,16.2402059 1.22769562,15.5306527 1.22769562,14.6993443 C1.22769562,12.1498888 2.72834891,9.95089091 4.88541011,8.93201365 C4.5244676,8.67904252 4.19953749,8.37794516 3.92207828,8.03612562 C1.58659198,9.3334768 0,11.8327494 0,14.6997556 C0,16.3101329 1.67825992,17.3261308 3.90570901,17.829605 C3.76165939,18.5440943 3.68308687,19.2816183 3.68308687,20.0380637 C3.68308687,23.4657198 9.23268032,25 14.7323475,25 C20.2320146,25 25.7816081,23.4661311 25.7816081,20.0380637 C25.7816081,19.2816183 25.7030356,18.5436829 25.5589859,17.829605 C27.7860258,17.3253081 29.4642857,16.3097215 29.4642857,14.6993443 Z" id="Path"></path>
                        <path d="M8.03604997,8.92857143 C8.35844263,8.92857143 8.67284597,8.89600393 8.97597027,8.83721324 C8.76589808,8.44936388 8.59248279,8.04375042 8.46089394,7.62121879 C8.32084582,7.63898288 8.18126766,7.66013061 8.03604997,7.66013061 C6.3517128,7.66013061 4.98130901,6.42637206 4.98130901,4.91050281 C4.98130901,3.39463355 6.3517128,2.16129796 8.03604997,2.16129796 C8.39274972,2.16129796 8.73018111,2.22685592 9.04834413,2.32878798 C9.26969536,1.94051567 9.52911336,1.57423699 9.82142857,1.23037491 C9.273925,1.01466807 8.67096613,0.892857143 8.03604997,0.892857143 C5.57439872,0.892857143 3.57142857,2.69506666 3.57142857,4.91092576 C3.57142857,7.12678487 5.57392876,8.92857143 8.03604997,8.92857143 Z" id="Path"></path>
                        <path d="M21.4282357,2.16201027 C23.1125729,2.16201027 24.4829767,3.39479313 24.4829767,4.91092574 C24.4829767,6.42705835 23.1125729,7.66026412 21.4282357,7.66026412 C21.2825481,7.66026412 21.1434399,7.63954153 21.0033918,7.62135639 C20.8718029,8.04384356 20.6983876,8.44941432 20.4883154,8.83722285 C20.7919097,8.89600735 21.1058431,8.92857143 21.4282357,8.92857143 C23.889887,8.92857143 25.8928571,7.12570579 25.8928571,4.91050283 C25.8928571,2.69529987 23.889887,0.892857143 21.4282357,0.892857143 C20.7933196,0.892857143 20.1898908,1.01465524 19.6428571,1.23033938 C19.9347024,1.57416527 20.1945904,1.94040539 20.4159416,2.32863684 C20.7341046,2.22756133 21.071536,2.16201027 21.4282357,2.16201027 Z" id="Path"></path>
                        <path d="M14.2857143,10.7142857 C17.2396825,10.7142857 19.6428571,8.31111111 19.6428571,5.35714286 C19.6428571,2.4031746 17.2396825,0 14.2857143,0 C11.331746,0 8.92857143,2.4031746 8.92857143,5.35714286 C8.92857143,8.31111111 11.3321429,10.7142857 14.2857143,10.7142857 Z M13.8736264,1.64835165 C16.1459969,1.64835165 17.9945055,3.49725275 17.9945055,5.76923077 C17.9945055,8.04120879 16.1459969,9.89010989 13.8736264,9.89010989 C11.6012559,9.89010989 9.75274725,8.04120879 9.75274725,5.76923077 C9.75274725,3.49725275 11.6016484,1.64835165 13.8736264,1.64835165 Z" id="Shape"></path>
                    </g>
                </g>
            </g>
        </g>
    </g>
</svg>