<svg xmlns="http://www.w3.org/2000/svg" width="18" height="18" viewBox="0 0 18 18">
    <path fill="#0D6CDE" d="M9 0C4.03 0 0 4.03 0 9c0 4.971 4.03 9 9 9s9-4.029 9-9c0-4.97-4.03-9-9-9zm.812 12.842l.164.299s-.724 1.42-1.937 1.42c-.643 0-.964-.41-.964-1.23 0-.586.155-1.419.464-2.494.309-1.078.464-1.79.464-2.142 0-.316-.149-.529-.446-.638l.091-.425s1.054-.784 1.845-.784c.557 0 .837.303.837.909 0 .291-.13.924-.392 1.9-.21.783-.372 1.423-.48 1.919-.091.406-.137.685-.137.838 0 .285.164.428.491.428zm-.123-6.93c-.684 0-1.237-.551-1.237-1.235 0-.683.553-1.238 1.236-1.238.683 0 1.237.555 1.237 1.238 0 .684-.554 1.235-1.237 1.235z"/>
</svg>
