<?xml version="1.0" encoding="UTF-8"?>
<svg width="176px" height="112px" viewBox="0 0 176 112" version="1.1" xmlns="http://www.w3.org/2000/svg" xmlns:xlink="http://www.w3.org/1999/xlink">
    <!-- Generator: sketchtool 55.2 (78181) - https://sketchapp.com -->
    <title>48AF4145-6C42-4747-A367-83B9A66234A7</title>
    <desc>Created with sketchtool.</desc>
    <defs>
        <polygon id="path-1" points="0 0 176 0 176 112 0 112"></polygon>
    </defs>
    <g id="Trigger" stroke="none" stroke-width="1" fill="none" fill-rule="evenodd">
        <g id="Lead_Collection_Triggers_OnScroll" transform="translate(-586.000000, -399.000000)">
            <g id="Group-22" transform="translate(586.000000, 399.000000)">
                <g id="Group-21">
                    <g id="Group-3-Copy-6" opacity="0.104306176">
                        <mask id="mask-2" fill="white">
                            <use xlink:href="#path-1"></use>
                        </mask>
                        <g id="Clip-2"></g>
                        <path d="M85.9410426,12.1699527 C79.6394103,11.4115096 73.7454203,9.0818847 67.7973259,7.11196881 C61.1817194,4.93182676 54.4328811,3.18180847 47.5927416,1.87243371 C40.3057343,0.474319424 32.7935177,-0.436830301 25.4877429,0.214718106 C18.1819681,0.866266512 11.0538922,3.20946534 6.39415717,7.49373546 C-1.5,14.7608756 -0.833842646,25.7761159 1.77314049,35.4848658 C4.86723164,47.004038 10.216966,58.3908645 18.973413,68.2014189 C25.1969322,75.1750229 33.0067226,81.2120261 40.7468536,87.2049141 C45.1227101,90.5865182 49.5388066,93.9918766 54.6501437,96.6506692 C59.4045614,99.1211236 64.6543718,100.892521 69.8669855,102.638467 C75.432968,104.504882 81.0124766,106.381477 86.7593705,107.808436 C105.102428,112.362488 124.4126,112.219961 143.293319,111.81444 C149.938007,111.673611 156.883649,111.441157 162.458086,108.83666 C166.801649,106.800572 169.897431,103.502108 172.242515,99.9847646 C175.311245,95.376417 177.248856,89.8772806 175.069297,84.7378532 C171.856853,77.156816 160.846622,72.6909946 157.181223,65.2253358 C152.484122,55.6455381 161.607464,45.51939 159.025843,35.5476452 C157.952041,31.3991144 154.924058,27.6493175 151.714995,24.1523351 C144.060924,15.8145516 133.887451,8.21994045 120.214442,9.32960883 C108.637638,10.2662097 98.07901,13.6325431 85.9410426,12.1699527" id="Fill-1" fill="#6EB1F4" mask="url(#mask-2)"></path>
                    </g>
                    <circle id="Oval" fill="#3389F0" cx="72" cy="58" r="34"></circle>
                    <g id="Group-15" transform="translate(52.000000, 48.000000)" fill="#1B3250" fill-rule="nonzero">
                        <g id="Group">
                            <path d="M54.8780822,23.6756757 L52.6958904,23.6756757 C51.6452055,23.6756757 50.6753425,23.027027 50.3520548,22.0540541 C50.190411,21.7297297 50.109589,21.3243243 49.9479452,21 C49.5438356,20.1081081 49.7863014,18.972973 50.5136986,18.1621622 L52.0493151,16.6216216 C53.6657534,15 53.6657534,12.4054054 52.0493151,10.7837838 L48.9780822,7.7027027 C47.3616438,6.08108108 44.7753425,6.08108108 43.1589041,7.7027027 L41.6232877,9.24324324 C40.8958904,9.97297297 39.7643836,10.2162162 38.7945205,9.81081081 C38.4712329,9.64864865 38.0671233,9.48648649 37.7438356,9.40540541 C36.7739726,9.08108108 36.1273973,8.10810811 36.1273973,7.05405405 L36.1273973,4.86486486 C36.1273973,2.59459459 34.2684932,0.72972973 32.0054795,0.72972973 L27.6410959,0.72972973 C25.3780822,0.72972973 23.5191781,2.59459459 23.5191781,4.86486486 L23.5191781,7.37837838 C23.5191781,8.43243243 22.9534247,9.32432432 22.0643836,9.72972973 C21.7410959,9.89189189 21.4986301,9.97297297 21.1753425,10.1351351 C20.2863014,10.5405405 19.1547945,10.3783784 18.4273973,9.64864865 L16.5684932,7.78378378 C14.9520548,6.16216216 12.3657534,6.16216216 10.7493151,7.78378378 L7.67808219,10.8648649 C6.86986301,11.6756757 6.46575342,12.6486486 6.46575342,13.7837838 C6.46575342,14.9189189 6.86986301,15.8918919 7.67808219,16.7027027 L9.86027397,18.8918919 C10.5876712,19.6216216 10.7493151,20.5945946 10.4260274,21.4864865 C10.3452055,21.6486486 10.2643836,21.8108108 10.1835616,22.0540541 C9.86027397,23.027027 8.89041096,23.6756757 7.83972603,23.6756757 L4.68767123,23.6756757 C2.42465753,23.6756757 0.565753425,25.5405405 0.565753425,27.8108108 L0.565753425,32.1891892 C0.565753425,34.4594595 2.42465753,36.3243243 4.68767123,36.3243243 L8.1630137,36.3243243 C9.13287671,36.3243243 10.0219178,36.972973 10.5068493,37.9459459 L10.5068493,38.027027 C10.9109589,39 10.7493151,40.1351351 10.0219178,40.8648649 L7.51643836,43.3783784 C5.9,45 5.9,47.5945946 7.51643836,49.2162162 L10.5876712,52.2972973 C12.2041096,53.9189189 14.790411,53.9189189 16.4068493,52.2972973 L18.9123288,49.7837838 C19.639726,49.0540541 20.7712329,48.8918919 21.7410959,49.2972973 L21.8219178,49.2972973 C22.7917808,49.7027027 23.4383562,50.5945946 23.4383562,51.6486486 L23.4383562,55.1351351 C23.4383562,57.4054054 25.2972603,59.2702703 27.560274,59.2702703 L31.9246575,59.2702703 C34.1876712,59.2702703 36.0465753,57.4054054 36.0465753,55.1351351 L36.0465753,51.8918919 C36.0465753,50.8378378 36.6931507,49.9459459 37.6630137,49.5405405 C37.8246575,49.4594595 37.9863014,49.3783784 38.2287671,49.2972973 C39.1178082,48.972973 40.1684932,49.1351351 40.8150685,49.8648649 L42.9972603,52.0540541 C44.6136986,53.6756757 47.2,53.6756757 48.8164384,52.0540541 L51.8876712,48.972973 C52.6958904,48.1621622 53.1,47.1891892 53.1,46.0540541 C53.1,44.9189189 52.6958904,43.9459459 51.8876712,43.1351351 L50.0287671,41.2702703 C49.3013699,40.5405405 49.0589041,39.4054054 49.5438356,38.5135135 C49.7054795,38.1891892 49.7863014,37.9459459 49.9479452,37.6216216 C50.3520548,36.7297297 51.2410959,36.1621622 52.2917808,36.1621622 L54.7972603,36.1621622 C57.060274,36.1621622 58.9191781,34.2972973 58.9191781,32.027027 L58.9191781,27.6486486 C59,25.5405405 57.1410959,23.6756757 54.8780822,23.6756757 Z M57.3835616,32.1891892 C57.3835616,33.5675676 56.2520548,34.7027027 54.8780822,34.7027027 L52.3726027,34.7027027 C50.6753425,34.7027027 49.2205479,35.6756757 48.5739726,37.2162162 C48.4931507,37.4594595 48.3315068,37.7837838 48.2506849,38.027027 C47.5232877,39.5675676 47.8465753,41.4324324 49.0589041,42.6486486 L50.9178082,44.5135135 C51.4027397,45 51.6452055,45.5675676 51.6452055,46.2972973 C51.6452055,47.027027 51.4027397,47.5945946 50.9178082,48.0810811 L47.7657534,51.0810811 C46.7958904,52.0540541 45.260274,52.0540541 44.290411,51.0810811 L42.1082192,48.8918919 C40.9767123,47.7567568 39.1986301,47.3513514 37.7438356,48 C37.5821918,48.0810811 37.4205479,48.1621622 37.2589041,48.1621622 C35.6424658,48.7297297 34.5917808,50.2702703 34.5917808,51.972973 L34.5917808,55.1351351 C34.5917808,56.5135135 33.460274,57.6486486 32.0863014,57.6486486 L27.7219178,57.6486486 C26.3479452,57.6486486 25.2164384,56.5135135 25.2164384,55.1351351 L25.2164384,51.6486486 C25.2164384,50.027027 24.2465753,48.4864865 22.630137,47.8378378 L22.3068493,48.5675676 L22.5493151,47.7567568 C20.9328767,47.1081081 19.1547945,47.4324324 17.9424658,48.5675676 L15.5178082,51.0810811 C14.5479452,52.0540541 13.0123288,52.0540541 12.0424658,51.0810811 L8.89041096,47.9189189 C7.92054795,46.9459459 7.92054795,45.4054054 8.89041096,44.4324324 L11.3958904,41.9189189 C12.6082192,40.7027027 12.9315068,38.9189189 12.2041096,37.2972973 L12.2041096,37.2162162 C11.5575342,35.6756757 10.0219178,34.6216216 8.40547945,34.6216216 L4.93013699,34.6216216 C3.55616438,34.6216216 2.42465753,33.4864865 2.42465753,32.1081081 L2.42465753,27.7297297 C2.42465753,26.3513514 3.55616438,25.2162162 4.93013699,25.2162162 L8.08219178,25.2162162 C9.77945205,25.2162162 11.3150685,24.1621622 11.8808219,22.5405405 C11.9616438,22.3783784 12.0424658,22.2162162 12.0424658,22.0540541 C12.6082192,20.5135135 12.2849315,18.8108108 11.1534247,17.6756757 L8.89041096,15.5675676 C8.40547945,15.0810811 8.1630137,14.5135135 8.1630137,13.7837838 C8.1630137,13.0540541 8.40547945,12.4864865 8.89041096,12 L11.9616438,8.91891892 C12.9315068,7.94594595 14.4671233,7.94594595 15.4369863,8.91891892 L17.2958904,10.7837838 C18.5082192,12 20.3671233,12.3243243 21.9027397,11.5945946 C22.1452055,11.4324324 22.4684932,11.3513514 22.7109589,11.2702703 C24.2465753,10.6216216 25.2164384,9.16216216 25.2164384,7.45945946 L25.2164384,4.94594595 C25.2164384,3.56756757 26.3479452,2.43243243 27.7219178,2.43243243 L32.0863014,2.43243243 C33.460274,2.43243243 34.5917808,3.56756757 34.5917808,4.94594595 L34.5917808,7.13513514 C34.5917808,8.91891892 35.6424658,10.4594595 37.2589041,11.027027 C37.5821918,11.1891892 37.9054795,11.2702703 38.2287671,11.4324324 C39.7643836,12.0810811 41.6232877,11.7567568 42.8356164,10.5405405 L44.3712329,9 C45.3410959,8.02702703 46.8767123,8.02702703 47.8465753,9 L50.9178082,12.0810811 C51.8876712,13.0540541 51.8876712,14.5945946 50.9178082,15.5675676 L49.3821918,17.1081081 C48.169863,18.3243243 47.7657534,20.1891892 48.4931507,21.7297297 C48.6547945,22.0540541 48.7356164,22.3783784 48.8972603,22.7027027 C49.4630137,24.3243243 51.0794521,25.3783784 52.7767123,25.3783784 L54.9589041,25.3783784 C56.3328767,25.3783784 57.4643836,26.5135135 57.4643836,27.8918919 L57.4643836,32.1891892 L57.3835616,32.1891892 Z" id="Shape"></path>
                            <path d="M29.9041096,18.2432432 C23.4383562,18.2432432 18.1849315,23.5135135 18.1849315,30 C18.1849315,36.4864865 23.4383562,41.7567568 29.9041096,41.7567568 C36.369863,41.7567568 41.6232877,36.4864865 41.6232877,30 C41.6232877,23.5135135 36.369863,18.2432432 29.9041096,18.2432432 Z M29.9041096,40.1351351 C24.3273973,40.1351351 19.8013699,35.5945946 19.8013699,30 C19.8013699,24.4054054 24.3273973,19.8648649 29.9041096,19.8648649 C35.4808219,19.8648649 40.0068493,24.4054054 40.0068493,30 C40.0068493,35.5945946 35.4808219,40.1351351 29.9041096,40.1351351 Z" id="Shape"></path>
                        </g>
                    </g>
                </g>
            </g>
        </g>
    </g>
</svg>