<?xml version="1.0" encoding="UTF-8"?>
<svg width="175px" height="112px" viewBox="0 0 175 112" version="1.1" xmlns="http://www.w3.org/2000/svg" xmlns:xlink="http://www.w3.org/1999/xlink">
    <!-- Generator: sketchtool 55.2 (78181) - https://sketchapp.com -->
    <title>60313027-4B63-494E-82B5-CF7F7578647F</title>
    <desc>Created with sketchtool.</desc>
    <defs>
        <polygon id="path-1" points="0 0 175 0 175 112 0 112"></polygon>
    </defs>
    <g id="Trigger" stroke="none" stroke-width="1" fill="none" fill-rule="evenodd">
        <g id="Lead_Collection_Triggers_OnScroll" transform="translate(-371.000000, -399.000000)">
            <g id="Group-20" transform="translate(371.000000, 399.000000)">
                <g id="Group-3-Copy-5" opacity="0.104306176">
                    <mask id="mask-2" fill="white">
                        <use xlink:href="#path-1"></use>
                    </mask>
                    <g id="Clip-2"></g>
                    <path d="M85.4527412,12.1699527 C79.1869136,11.4115096 73.3264122,9.0818847 67.4121138,7.11196881 C60.834096,4.93182676 54.1236033,3.18180847 47.3223283,1.87243371 C40.0767244,0.474319424 32.6071909,-0.436830301 25.3429262,0.214718106 C18.0786615,0.866266512 10.991086,3.20946534 6.35782673,7.49373546 C-1.49147942,14.7608756 -0.829104904,25.7761159 1.76306583,35.4848658 C4.83957691,47.004038 10.158915,58.3908645 18.8656095,68.2014189 C25.0537678,75.1750229 32.8191844,81.2120261 40.5153374,87.2049141 C44.866331,90.5865182 49.2573361,93.9918766 54.3396316,96.6506692 C59.0670355,99.1211236 64.2870174,100.892521 69.470014,102.638467 C75.0043716,104.504882 80.5521785,106.381477 86.2664196,107.808436 C104.505255,112.362488 123.70571,112.219961 142.479152,111.81444 C149.086086,111.673611 155.992265,111.441157 161.535028,108.83666 C165.853912,106.800572 168.932104,103.502108 171.263864,99.9847646 C174.315158,95.376417 176.24176,89.8772806 174.074585,84.7378532 C170.880393,77.156816 159.932721,72.6909946 156.288148,65.2253358 C151.617735,55.6455381 160.68924,45.51939 158.122287,35.5476452 C157.054586,31.3991144 154.043808,27.6493175 150.852978,24.1523351 C143.242396,15.8145516 133.126727,8.21994045 119.531406,9.32960883 C108.020379,10.2662097 97.5217429,13.6325431 85.4527412,12.1699527" id="Fill-1" fill="#6EB1F4" mask="url(#mask-2)"></path>
                </g>
                <ellipse id="Oval" fill="#3389F0" cx="76" cy="55.5" rx="34" ry="33.5"></ellipse>
                <g id="Group-14" transform="translate(58.000000, 39.000000)" stroke="#1B3250" stroke-linecap="round" stroke-linejoin="round">
                    <path d="M14.2310946,39.7297297 L11.8243243,39.7297297 C8.3125,39.7297297 6.62162162,43.1124062 6.62162162,45.4542591 C6.62162162,47.796112 6.62162162,47.9262149 6.62162162,50.9185825 C6.62162162,61.3268177 17.027027,67.3115529 17.027027,67.3115529 L17.027027,70" id="Path" stroke-width="2"></path>
                    <path d="M20.8108108,38.9550968 L20.8108108,17.4040647 C20.8108108,15.6282188 19.5405493,14.1891892 17.972973,14.1891892 L17.972973,14.1891892 C16.4053966,14.1891892 15.1351351,15.6282188 15.1351351,17.4040647 L15.1351351,47.2972973" id="Path" stroke-width="2"></path>
                    <path d="M27.4324324,40.6756757 L27.4324324,30.7429748 C27.4324324,28.914284 26.1621709,27.4324324 24.5945946,27.4324324 L24.5945946,27.4324324 C23.0270183,27.4324324 21.7567568,28.914284 21.7567568,30.7429748 L21.7567568,36.9173564" id="Path" stroke-width="2"></path>
                    <path d="M33.1081081,42.5675676 L33.1081081,32.6348667 C33.1081081,30.8061759 31.8378466,29.3243243 30.2702703,29.3243243 L30.2702703,29.3243243 C28.7026939,29.3243243 27.4324324,30.8061759 27.4324324,32.6348667 L27.4324324,38.8092483" id="Path" stroke-width="2"></path>
                    <path d="M35,42.3527982 L35,36.3348011 C35,34.5524274 36.2702615,33.1081081 37.8378378,33.1081081 L37.8378378,33.1081081 C39.4054142,33.1081081 40.6756757,34.5524274 40.6756757,36.3348011 L40.6756757,46.0159268 C40.6756757,46.0159268 40.6756757,48.9809678 40.6756757,51.3358362 C40.6756757,53.6907047 40.1390362,62.8485263 36.3033988,67.2966111 L36.3033988,70" id="Path" stroke-width="2"></path>
                    <path d="M34.0540541,61.4864865 C35.3496476,59.6259368 36.5923875,56.8729524 36.8918919,52.972973" id="Path"></path>
                    <path d="M33.2367568,65.1279054 C33.2367568,65.1279054 33.512027,64.925473 33.9254054,64.4666892" id="Path"></path>
                    <path d="M9.71748692,24.5945946 C8.36931897,22.8098214 7.56756757,20.5762578 7.56756757,18.1515426 C7.56756757,12.306878 12.2258964,7.56756757 17.972973,7.56756757 C23.7200496,7.56756757 28.3783784,12.3058391 28.3783784,18.1515426 C28.3783784,19.7295813 28.0382724,21.2276273 27.4295541,22.5729598" id="Path" stroke-width="2"></path>
                    <path d="M5.26430057,31.2162162 C2.01221505,27.9074691 0,23.3351536 0,18.2861187 C0,8.18700119 8.0468006,0 17.972973,0 C27.8991453,0 35.9459459,8.18700119 35.9459459,18.2861187 C35.9459459,21.3853188 35.1880185,24.3032608 33.8513475,26.8607819" id="Path" stroke-width="2"></path>
                </g>
            </g>
        </g>
    </g>
</svg>