<?xml version="1.0" encoding="UTF-8"?>
<svg width="175px" height="112px" viewBox="0 0 175 112" version="1.1" xmlns="http://www.w3.org/2000/svg" xmlns:xlink="http://www.w3.org/1999/xlink">
    <!-- Generator: sketchtool 55.2 (78181) - https://sketchapp.com -->
    <title>41E9F632-2D0E-4D90-9D7D-324F8E25865F</title>
    <desc>Created with sketchtool.</desc>
    <defs>
        <polygon id="path-1" points="0 0 175 0 175 112 0 112"></polygon>
    </defs>
    <g id="Trigger" stroke="none" stroke-width="1" fill="none" fill-rule="evenodd">
        <g id="Lead_Collection_Triggers_OnScroll" transform="translate(-153.000000, -399.000000)">
            <g id="Group-19" transform="translate(153.000000, 399.000000)">
                <g id="Group-3-Copy-4" opacity="0.104306176">
                    <mask id="mask-2" fill="white">
                        <use xlink:href="#path-1"></use>
                    </mask>
                    <g id="Clip-2"></g>
                    <path d="M85.4527412,12.1699527 C79.1869136,11.4115096 73.3264122,9.0818847 67.4121138,7.11196881 C60.834096,4.93182676 54.1236033,3.18180847 47.3223283,1.87243371 C40.0767244,0.474319424 32.6071909,-0.436830301 25.3429262,0.214718106 C18.0786615,0.866266512 10.991086,3.20946534 6.35782673,7.49373546 C-1.49147942,14.7608756 -0.829104904,25.7761159 1.76306583,35.4848658 C4.83957691,47.004038 10.158915,58.3908645 18.8656095,68.2014189 C25.0537678,75.1750229 32.8191844,81.2120261 40.5153374,87.2049141 C44.866331,90.5865182 49.2573361,93.9918766 54.3396316,96.6506692 C59.0670355,99.1211236 64.2870174,100.892521 69.470014,102.638467 C75.0043716,104.504882 80.5521785,106.381477 86.2664196,107.808436 C104.505255,112.362488 123.70571,112.219961 142.479152,111.81444 C149.086086,111.673611 155.992265,111.441157 161.535028,108.83666 C165.853912,106.800572 168.932104,103.502108 171.263864,99.9847646 C174.315158,95.376417 176.24176,89.8772806 174.074585,84.7378532 C170.880393,77.156816 159.932721,72.6909946 156.288148,65.2253358 C151.617735,55.6455381 160.68924,45.51939 158.122287,35.5476452 C157.054586,31.3991144 154.043808,27.6493175 150.852978,24.1523351 C143.242396,15.8145516 133.126727,8.21994045 119.531406,9.32960883 C108.020379,10.2662097 97.5217429,13.6325431 85.4527412,12.1699527" id="Fill-1" fill="#6EB1F4" mask="url(#mask-2)"></path>
                </g>
                <g id="Group-13" transform="translate(43.000000, 14.000000)">
                    <ellipse id="Oval" fill="#3389F0" cx="34" cy="33.5" rx="34" ry="33.5"></ellipse>
                    <g id="Group" transform="translate(24.000000, 12.000000)" fill="#000000" fill-rule="nonzero">
                        <rect id="Rectangle" x="7.61904762" y="0" width="1" height="4.69879518"></rect>
                        <rect id="Rectangle" x="7.61904762" y="12.2168675" width="1" height="4.69879518"></rect>
                        <rect id="Rectangle" x="0" y="7.51807229" width="4.76190476" height="1"></rect>
                        <rect id="Rectangle" x="12.3809524" y="7.51807229" width="4.76190476" height="1"></rect>
                        <polygon id="Rectangle" transform="translate(12.823417, 3.880426) rotate(-45.000000) translate(-12.823417, -3.880426) " points="10.3969344 3.22082731 15.246329 3.23408446 15.2498991 4.54002556 10.4005045 4.52676842"></polygon>
                        <polygon id="Rectangle" transform="translate(3.798376, 12.860246) rotate(-45.016206) translate(-3.798376, -12.860246) " points="1.37189714 12.2006454 6.22128446 12.2139026 6.22485461 13.5198458 1.37546728 13.5065886"></polygon>
                        <polygon id="Rectangle" transform="translate(3.795937, 3.880665) rotate(-45.000000) translate(-3.795937, -3.880665) " points="3.13633921 1.45461783 4.44228032 1.45818798 4.45553508 6.30671198 3.14959398 6.30314183"></polygon>
                        <polygon id="Rectangle" transform="translate(12.823828, 12.859587) rotate(135.000000) translate(-12.823828, -12.859587) " points="12.1642293 10.4331046 13.4701704 10.4366748 13.4834276 15.2860694 12.1774865 15.2824993"></polygon>
                        <path d="M40,61.7459806 L40,26.9851752 C40,21.432447 35.5080238,16.9156627 29.9877121,16.9156627 L17.630475,16.9156627 C12.1101633,16.9156627 7.61904762,21.432447 7.61904762,26.9851752 L7.61904762,62.3942028 L7.68702963,62.3942028 C8.02693971,71.0582243 15.1418169,78 23.8374911,78 C32.7500193,78 40,70.7085824 40,61.7459806 Z M38.7074812,26.9851752 L38.7074812,61.7459806 C38.7074812,69.9937206 32.0357779,76.7026902 23.83577,76.7026902 C15.6357622,76.7026902 8.96405888,69.9928552 8.96405888,61.7459806 L8.96405888,61.096893 L8.90898484,61.096893 L8.90898484,35.6483312 L12.6084112,39.3697669 L13.5214355,38.4515243 L8.90984537,33.8127115 L8.90984537,30.2003225 L18.0263196,39.3697669 L18.9393439,38.4515243 L8.90898484,28.3647027 L8.90898484,26.9851752 C8.90898484,26.2980078 8.99589855,25.6324766 9.14563109,24.9903126 L23.3530117,39.2788946 L24.2660359,38.360652 L9.58708392,23.5978033 C9.92871506,22.7808183 10.3916812,22.0270113 10.9501663,21.3571528 L23.3246141,33.8031915 L24.2376384,32.8849489 L11.8554458,20.4311212 C12.5025658,19.8530005 13.2331573,19.3709447 14.0300098,19.0057248 L23.3530117,28.3837426 L24.2660359,27.4655 L15.3733,18.5228036 C16.0944257,18.3280773 16.8482515,18.2147033 17.6296144,18.2147033 L18.6570895,18.2147033 L23.3237536,22.9080395 L24.2367779,21.9897969 L20.483138,18.2138379 L29.9877121,18.2138379 C34.796364,18.2138379 38.7092022,22.1490397 38.7092022,26.9851752 L38.7074812,26.9851752 Z" id="Shape"></path>
                    </g>
                </g>
            </g>
        </g>
    </g>
</svg>