<?xml version="1.0" encoding="UTF-8"?>
<svg width="175px" height="112px" viewBox="0 0 175 112" version="1.1" xmlns="http://www.w3.org/2000/svg" xmlns:xlink="http://www.w3.org/1999/xlink">
    <!-- Generator: sketchtool 55.2 (78181) - https://sketchapp.com -->
    <title>680592E4-0FC1-434B-B6F5-43C0E695CD26</title>
    <desc>Created with sketchtool.</desc>
    <defs>
        <polygon id="path-1" points="0 0 175 0 175 112 0 112"></polygon>
    </defs>
    <g id="Trigger" stroke="none" stroke-width="1" fill="none" fill-rule="evenodd">
        <g id="Lead_Collection_Triggers_OnScroll" transform="translate(-153.000000, -171.000000)">
            <g id="Group-16" transform="translate(153.000000, 171.000000)">
                <g id="Group-3" opacity="0.104306176">
                    <mask id="mask-2" fill="white">
                        <use xlink:href="#path-1"></use>
                    </mask>
                    <g id="Clip-2"></g>
                    <path d="M85.4527412,12.1699527 C79.1869136,11.4115096 73.3264122,9.0818847 67.4121138,7.11196881 C60.834096,4.93182676 54.1236033,3.18180847 47.3223283,1.87243371 C40.0767244,0.474319424 32.6071909,-0.436830301 25.3429262,0.214718106 C18.0786615,0.866266512 10.991086,3.20946534 6.35782673,7.49373546 C-1.49147942,14.7608756 -0.829104904,25.7761159 1.76306583,35.4848658 C4.83957691,47.004038 10.158915,58.3908645 18.8656095,68.2014189 C25.0537678,75.1750229 32.8191844,81.2120261 40.5153374,87.2049141 C44.866331,90.5865182 49.2573361,93.9918766 54.3396316,96.6506692 C59.0670355,99.1211236 64.2870174,100.892521 69.470014,102.638467 C75.0043716,104.504882 80.5521785,106.381477 86.2664196,107.808436 C104.505255,112.362488 123.70571,112.219961 142.479152,111.81444 C149.086086,111.673611 155.992265,111.441157 161.535028,108.83666 C165.853912,106.800572 168.932104,103.502108 171.263864,99.9847646 C174.315158,95.376417 176.24176,89.8772806 174.074585,84.7378532 C170.880393,77.156816 159.932721,72.6909946 156.288148,65.2253358 C151.617735,55.6455381 160.68924,45.51939 158.122287,35.5476452 C157.054586,31.3991144 154.043808,27.6493175 150.852978,24.1523351 C143.242396,15.8145516 133.126727,8.21994045 119.531406,9.32960883 C108.020379,10.2662097 97.5217429,13.6325431 85.4527412,12.1699527" id="Fill-1" fill="#6EB1F4" mask="url(#mask-2)"></path>
                </g>
                <g id="Group-9" transform="translate(22.000000, 27.000000)">
                    <rect id="Rectangle" fill="#3389F0" x="72" y="0" width="46" height="62"></rect>
                    <path d="M9.36309795,56.1270492 C3.41867882,51 0,43.6967213 0,36 C0,21.1106557 12.5394077,9 27.9872437,9 C43.4350797,9 56,21.1106557 56,36 C56,43.6844262 52.5940774,51 46.6369021,56.1270492 L46.6369021,56.1393443 L46.343508,56.3852459 L45.5653759,57.0368852 L45.5526196,57 C43.6264237,58.5 41.5343964,59.7540984 39.2765376,60.7131148 C35.7047836,62.2254098 31.9161731,63 28,63 C24.0965831,63 20.2952164,62.2254098 16.7234624,60.7131148 L16.9785877,60.147541 L16.7234624,60.7131148 C14.4656036,59.7540984 12.3735763,58.5 10.4473804,57 L10.4346241,57.0368852 L9.65649203,56.3852459 L9.36309795,56.1270492 Z M44.5066059,56.25 C44.7362187,56.0778689 44.9785877,55.8934426 45.1954442,55.7213115 C45.1444191,55.5491803 45.0933941,55.3647541 45.0296128,55.192623 C44.9658314,54.9713115 44.8892938,54.75 44.8127563,54.5409836 C44.7234624,54.307377 44.6214123,54.0737705 44.5193622,53.8401639 C44.4300683,53.6311475 44.3535308,53.4344262 44.2514806,53.2254098 C44.1494305,52.9918033 44.0218679,52.7581967 43.8943052,52.5368852 C43.7922551,52.352459 43.690205,52.1434426 43.5753986,51.9590164 C43.4350797,51.7377049 43.2947608,51.5163934 43.1416856,51.295082 C43.0268793,51.1106557 42.9120729,50.9262295 42.7845103,50.7540984 C42.6186788,50.5327869 42.4400911,50.3114754 42.2742597,50.102459 C42.146697,49.942623 42.0191344,49.7704918 41.8788155,49.6106557 C41.6874715,49.3893443 41.4833713,49.1803279 41.2792711,48.9713115 C41.1389522,48.8237705 41.0113895,48.6762295 40.8710706,48.5409836 C40.6414579,48.3196721 40.3863326,48.1106557 40.1439636,47.8893443 C40.0164009,47.7786885 39.9015945,47.6680328 39.7740319,47.557377 C39.391344,47.25 38.9831435,46.942623 38.5749431,46.6598361 C38.5366743,46.7336066 38.4856492,46.795082 38.4473804,46.8688525 C38.2943052,47.1393443 38.1284738,47.397541 37.9498861,47.6557377 C37.7712984,47.9016393 37.5927107,48.147541 37.414123,48.3934426 C37.0441913,48.8729508 36.6615034,49.3401639 36.253303,49.7581967 C36.0492027,49.9672131 35.8451025,50.1762295 35.628246,50.3729508 C34.9776765,50.9631148 34.2888383,51.4918033 33.5872437,51.9221311 C33.3448747,52.057377 33.0897494,52.204918 32.8473804,52.3278689 C32.3498861,52.5860656 31.8396355,52.807377 31.3166287,52.9795082 C29.1863326,53.704918 26.8646925,53.704918 24.7343964,52.9795082 C24.2113895,52.807377 23.701139,52.5860656 23.2036446,52.3278689 C22.9485194,52.192623 22.7061503,52.057377 22.4637813,51.9098361 C21.7621868,51.4795082 21.0733485,50.9631148 20.422779,50.3606557 C20.2059226,50.1639344 20.0018223,49.954918 19.7977221,49.7459016 C19.3895216,49.3155738 19.0068337,48.8606557 18.6369021,48.3811475 C18.4583144,48.1352459 18.2797267,47.8893443 18.101139,47.6311475 C17.8842825,47.3114754 17.6801822,46.9795082 17.476082,46.6352459 C17.0678815,46.9180328 16.6724374,47.2131148 16.2897494,47.5327869 C16.1494305,47.6557377 16.0091116,47.7909836 15.8687927,47.9139344 C15.63918,48.1106557 15.4095672,48.307377 15.1927107,48.5163934 C15.0396355,48.6639344 14.8993166,48.8237705 14.7462415,48.9836066 C14.5548975,49.1803279 14.3635535,49.3647541 14.1849658,49.5737705 C14.0318907,49.7459016 13.904328,49.9303279 13.7640091,50.102459 C13.5981777,50.3114754 13.4323462,50.5081967 13.2792711,50.7172131 C13.1389522,50.9016393 13.0241458,51.0983607 12.8965831,51.2827869 C12.7562642,51.4918033 12.6031891,51.7008197 12.4756264,51.9221311 C12.36082,52.1065574 12.2587699,52.3155738 12.1439636,52.5122951 C12.0164009,52.7336066 11.9015945,52.954918 11.7867882,53.1885246 C11.684738,53.397541 11.5954442,53.6065574 11.5061503,53.8155738 C11.4041002,54.0491803 11.3020501,54.2827869 11.2127563,54.5163934 C11.1362187,54.7377049 11.0724374,54.9467213 10.9958998,55.1680328 C10.9321185,55.352459 10.8683371,55.5368852 10.8173121,55.7213115 C12.7690205,57.307377 14.9248292,58.6106557 17.2464692,59.5942623 C24.0710706,62.4959016 31.9544419,62.4959016 38.7790433,59.5942623 C39.3658314,59.3360656 39.9526196,59.0655738 40.5266515,58.7704918 C40.7562642,58.6598361 40.9603645,58.5368852 41.177221,58.4139344 C41.5343964,58.2172131 41.8788155,58.0327869 42.2232346,57.8237705 C42.4528474,57.6762295 42.6824601,57.5163934 42.9120729,57.3688525 C43.2309795,57.1721311 43.5371298,56.9631148 43.8432802,56.7540984 C44.0728929,56.5942623 44.2897494,56.4221311 44.5066059,56.25 Z M28.0127563,10.2295082 C13.2665148,10.2295082 1.27562642,21.7868852 1.27562642,36 C1.27562642,43.1434426 4.3498861,49.942623 9.73302961,54.7991803 C9.77129841,54.6885246 9.82232346,54.5778689 9.86059226,54.4672131 C9.9498861,54.2459016 10.0264237,54.0368852 10.1157175,53.8155738 C10.2305239,53.5327869 10.3453303,53.25 10.4728929,52.9795082 C10.5749431,52.7581967 10.6769932,52.5491803 10.7790433,52.3401639 C10.9193622,52.0819672 11.0596811,51.8114754 11.2127563,51.5532787 C11.3275626,51.3565574 11.442369,51.147541 11.5699317,50.9508197 C11.7357631,50.692623 11.9015945,50.4467213 12.0801822,50.2008197 C12.2077449,50.0163934 12.3480638,49.8196721 12.4883827,49.6352459 C12.6669704,49.3893443 12.8710706,49.1434426 13.0751708,48.9098361 C13.228246,48.7377049 13.3685649,48.5655738 13.5216401,48.3934426 C13.7384966,48.147541 13.9808656,47.9262295 14.2104784,47.692623 C14.3635535,47.545082 14.5038724,47.3852459 14.6697039,47.2377049 C14.9375854,46.9918033 15.2309795,46.7581967 15.5116173,46.5245902 C15.6519362,46.4139344 15.7922551,46.2909836 15.932574,46.1803279 C16.366287,45.8360656 16.8255125,45.5163934 17.2974943,45.2213115 L17.8842825,44.852459 L18.2159453,45.454918 C18.4965831,45.9836066 18.8027335,46.4754098 19.1216401,46.954918 C19.2874715,47.1885246 19.453303,47.4221311 19.6191344,47.6434426 C19.9507973,48.0860656 20.3207289,48.5040984 20.6906606,48.897541 C20.8820046,49.0942623 21.0733485,49.2786885 21.2646925,49.4631148 C21.8514806,50.0040984 22.4765376,50.4713115 23.1143508,50.8647541 C23.3312073,51 23.5480638,51.1229508 23.7649203,51.2336066 C24.1986333,51.4672131 24.6578588,51.6516393 25.1170843,51.8114754 C26.9794989,52.4385246 28.9949886,52.4385246 30.8574032,51.8114754 C31.3166287,51.6516393 31.7630979,51.4672131 32.2095672,51.2336066 C32.4264237,51.1229508 32.6432802,51 32.8601367,50.8647541 C33.4979499,50.4713115 34.1230068,50.0040984 34.709795,49.4631148 C34.901139,49.2786885 35.0924829,49.0942623 35.2838269,48.897541 C35.6537585,48.5163934 36.0109339,48.0860656 36.3553531,47.6434426 C36.5211845,47.4221311 36.6870159,47.1885246 36.8528474,46.954918 C37.0186788,46.7213115 37.171754,46.4754098 37.3248292,46.2295082 C37.4779043,45.9836066 37.6182232,45.7254098 37.7585421,45.4672131 L38.0774487,44.8647541 L38.6642369,45.2336066 C39.1362187,45.5409836 39.5954442,45.8606557 40.0291572,46.192623 C40.1822323,46.3032787 40.3225513,46.4262295 40.4628702,46.5491803 C40.743508,46.7827869 41.0241458,47.0040984 41.2920273,47.25 C41.4578588,47.397541 41.6109339,47.557377 41.7640091,47.704918 C42.0063781,47.9262295 42.2359909,48.1598361 42.4528474,48.3934426 C42.6186788,48.5655738 42.7589977,48.75 42.9120729,48.9221311 C43.1161731,49.1557377 43.3075171,49.3893443 43.498861,49.6352459 C43.6519362,49.8319672 43.7794989,50.0163934 43.9198178,50.2131148 C44.0984055,50.4590164 44.2642369,50.704918 44.4300683,50.9631148 C44.557631,51.1721311 44.6851936,51.3688525 44.8,51.5778689 C44.9530752,51.8360656 45.0933941,52.0942623 45.233713,52.3647541 C45.3357631,52.5737705 45.4378132,52.795082 45.5398633,53.0040984 C45.667426,53.2745902 45.7822323,53.545082 45.8970387,53.8278689 C45.9863326,54.0368852 46.0756264,54.2581967 46.152164,54.4795082 C46.1904328,54.5901639 46.2414579,54.7008197 46.2797267,54.8114754 C51.6756264,49.942623 54.7498861,43.1434426 54.7498861,36 C54.7498861,21.7868852 42.7589977,10.2295082 28.0127563,10.2295082 Z M28,47.2153846 C20.6458914,47.2153846 14.6461538,41.451603 14.6461538,34.3445672 C14.6461538,27.2375315 20.6458914,21.4615385 28,21.4615385 C35.3541086,21.4615385 41.3538462,27.2253201 41.3538462,34.3323558 C41.3538462,41.4393916 35.3541086,47.2153846 28,47.2153846 Z M28,22.6826786 C21.3420634,22.6826786 15.9119213,27.9091586 15.9119213,34.3445672 C15.9119213,40.7799759 21.3294058,46.0064558 28,46.0064558 C34.6705942,46.0064558 40.0880787,40.7799759 40.0880787,34.3445672 C40.0880787,27.9091586 34.6579366,22.6826786 28,22.6826786 Z" id="Combined-Shape" fill="#1B3250" fill-rule="nonzero"></path>
                    <path d="M66.8815342,36.2941712 L63,36.2941712 L63,37.7058288 L66.8815342,37.7058288 L66.8815342,68 L110,68 L110,6 L66.8815342,6 L66.8815342,36.2941712 Z M68.3352923,37.7058288 L91.2319827,37.7058288 L84.5883081,44.1571038 L85.6204763,45.1593807 L94.0231983,37 L85.6204763,28.8406193 L84.5883081,29.8428962 L91.2319827,36.2941712 L68.3352923,36.2941712 L68.3352923,7.41165756 L108.546242,7.41165756 L108.546242,66.5883424 L68.3352923,66.5883424 L68.3352923,37.7058288 Z" id="Shape" fill="#1B3250" fill-rule="nonzero"></path>
                    <path d="M102,32 C99.7964912,32 98,33.7964912 98,36 C98,38.2035088 99.7964912,40 102,40 C104.203509,40 106,38.2035088 106,36 C106,33.7964912 104.203509,32 102,32 Z M102,38.5964912 C100.568421,38.5964912 99.4035088,37.4315789 99.4035088,36 C99.4035088,34.5684211 100.568421,33.4035088 102,33.4035088 C103.431579,33.4035088 104.596491,34.5684211 104.596491,36 C104.596491,37.4315789 103.431579,38.5964912 102,38.5964912 Z" id="Shape" fill="#1B3250" fill-rule="nonzero"></path>
                </g>
            </g>
        </g>
    </g>
</svg>