<?xml version="1.0" encoding="UTF-8"?>
<svg width="175px" height="113px" viewBox="0 0 175 113" version="1.1" xmlns="http://www.w3.org/2000/svg" xmlns:xlink="http://www.w3.org/1999/xlink">
    <!-- Generator: sketchtool 55.2 (78181) - https://sketchapp.com -->
    <title>9669EACC-C259-430D-8274-1E0D0AD861E5</title>
    <desc>Created with sketchtool.</desc>
    <defs>
        <polygon id="path-1" points="0 0 175 0 175 112 0 112"></polygon>
    </defs>
    <g id="Trigger" stroke="none" stroke-width="1" fill="none" fill-rule="evenodd">
        <g id="Lead_Collection_Triggers_OnScroll" transform="translate(-592.000000, -171.000000)">
            <g id="Group-17" transform="translate(592.000000, 171.000000)">
                <g id="Group-3-Copy-3" opacity="0.104306176">
                    <mask id="mask-2" fill="white">
                        <use xlink:href="#path-1"></use>
                    </mask>
                    <g id="Clip-2"></g>
                    <path d="M85.4527412,12.1699527 C79.1869136,11.4115096 73.3264122,9.0818847 67.4121138,7.11196881 C60.834096,4.93182676 54.1236033,3.18180847 47.3223283,1.87243371 C40.0767244,0.474319424 32.6071909,-0.436830301 25.3429262,0.214718106 C18.0786615,0.866266512 10.991086,3.20946534 6.35782673,7.49373546 C-1.49147942,14.7608756 -0.829104904,25.7761159 1.76306583,35.4848658 C4.83957691,47.004038 10.158915,58.3908645 18.8656095,68.2014189 C25.0537678,75.1750229 32.8191844,81.2120261 40.5153374,87.2049141 C44.866331,90.5865182 49.2573361,93.9918766 54.3396316,96.6506692 C59.0670355,99.1211236 64.2870174,100.892521 69.470014,102.638467 C75.0043716,104.504882 80.5521785,106.381477 86.2664196,107.808436 C104.505255,112.362488 123.70571,112.219961 142.479152,111.81444 C149.086086,111.673611 155.992265,111.441157 161.535028,108.83666 C165.853912,106.800572 168.932104,103.502108 171.263864,99.9847646 C174.315158,95.376417 176.24176,89.8772806 174.074585,84.7378532 C170.880393,77.156816 159.932721,72.6909946 156.288148,65.2253358 C151.617735,55.6455381 160.68924,45.51939 158.122287,35.5476452 C157.054586,31.3991144 154.043808,27.6493175 150.852978,24.1523351 C143.242396,15.8145516 133.126727,8.21994045 119.531406,9.32960883 C108.020379,10.2662097 97.5217429,13.6325431 85.4527412,12.1699527" id="Fill-1" fill="#6EB1F4" mask="url(#mask-2)"></path>
                </g>
                <g id="Group-12" transform="translate(36.000000, 25.000000)">
                    <circle id="Oval" fill="#3389F0" cx="33.5" cy="33.5" r="33.5"></circle>
                    <g id="Group-11" transform="translate(25.000000, 17.000000)" stroke="#1B3250" stroke-linecap="round" stroke-linejoin="round">
                        <path d="M31.8033333,35.1645 L29.1198799,35.1645 C25.2026415,35.1645 23.3165638,38.9561667 23.3165638,41.5811667 C23.3165638,44.2061667 23.3165638,44.352 23.3165638,47.7061667 C23.3165638,59.3728333 34.9231961,66.0811667 34.9231961,66.0811667 L34.9231961,69.0946667" id="Path" stroke-width="2"></path>
                        <path d="M39.3708576,35.1645 L39.3708576,11.053 C39.3708576,9.06616667 37.7691424,7.45616667 35.7925329,7.45616667 L35.7925329,7.45616667 C33.8159234,7.45616667 32.2142081,9.06616667 32.2142081,11.053 L32.2142081,44.4978333" id="Path" stroke-width="2"></path>
                        <path d="M46.5286678,36.6228333 L46.5286678,25.8311667 C46.5286678,23.8443333 44.9269525,22.2343333 42.9503431,22.2343333 L42.9503431,22.2343333 C40.9737336,22.2343333 39.3720183,23.8443333 39.3720183,25.8311667 L39.3720183,32.5395" id="Path" stroke-width="2"></path>
                        <path d="M53.686478,38.5676667 L53.686478,27.776 C53.686478,25.7891667 52.0847627,24.1791667 50.1081532,24.1791667 L50.1081532,24.1791667 C48.1315437,24.1791667 46.5298285,25.7891667 46.5298285,27.776 L46.5298285,34.4843333" id="Path" stroke-width="2"></path>
                        <path d="M53.686478,38.276 L53.686478,31.5676667 C53.686478,29.5808333 55.2881933,27.9708333 57.2648027,27.9708333 L57.2648027,27.9708333 C59.2414122,27.9708333 60.8431275,29.5808333 60.8431275,31.5676667 L60.8431275,42.3593333 C60.8431275,42.3593333 60.8431275,45.6645 60.8431275,48.2895 C60.8431275,50.9145 60.1664608,61.1228333 55.3299771,66.0811667 L55.3299771,69.0946667" id="Path" stroke-width="2"></path>
                        <path d="M54.8343739,60.1451667 C55.943968,57.9366667 57.0082962,54.6688333 57.2648027,50.0395" id="Path"></path>
                        <path d="M51.9454831,64.0395 C51.9454831,64.0395 52.2832361,63.7898333 52.790446,63.224" id="Path"></path>
                        <path d="M5.12548885,31.78 L5.12548885,0.7665" id="Path" stroke-width="2"></path>
                        <polyline id="Path" stroke-width="2" points="-8.8817842e-15 5.15316667 5.12548885 1.0658141e-14 10.3240995 5.22666667"></polyline>
                        <path d="M16.4303488,-2.48689958e-14 L16.4303488,31.0146667" id="Path" stroke-width="2"></path>
                        <polyline id="Path" stroke-width="2" points="21.5569983 26.6268333 16.4303488 31.78 11.2317381 26.5545"></polyline>
                    </g>
                </g>
            </g>
        </g>
    </g>
</svg>