<?xml version="1.0" encoding="UTF-8"?>
<svg width="175px" height="112px" viewBox="0 0 175 112" version="1.1" xmlns="http://www.w3.org/2000/svg" xmlns:xlink="http://www.w3.org/1999/xlink">
    <!-- Generator: sketchtool 55.2 (78181) - https://sketchapp.com -->
    <title>0ED40646-CFE1-4FC3-B209-77A49830FF62</title>
    <desc>Created with sketchtool.</desc>
    <defs>
        <polygon id="path-1" points="0 0 175 0 175 112 0 112"></polygon>
    </defs>
    <g id="Trigger" stroke="none" stroke-width="1" fill="none" fill-rule="evenodd">
        <g id="Lead_Collection_Triggers_OnScroll" transform="translate(-369.000000, -171.000000)">
            <g id="Group-18" transform="translate(369.000000, 171.000000)">
                <g id="Group-3-Copy-7" opacity="0.104306176">
                    <g id="Group-3-Copy-2">
                        <mask id="mask-2" fill="white">
                            <use xlink:href="#path-1"></use>
                        </mask>
                        <g id="Clip-2"></g>
                        <path d="M85.4527412,12.1699527 C79.1869136,11.4115096 73.3264122,9.0818847 67.4121138,7.11196881 C60.834096,4.93182676 54.1236033,3.18180847 47.3223283,1.87243371 C40.0767244,0.474319424 32.6071909,-0.436830301 25.3429262,0.214718106 C18.0786615,0.866266512 10.991086,3.20946534 6.35782673,7.49373546 C-1.49147942,14.7608756 -0.829104904,25.7761159 1.76306583,35.4848658 C4.83957691,47.004038 10.158915,58.3908645 18.8656095,68.2014189 C25.0537678,75.1750229 32.8191844,81.2120261 40.5153374,87.2049141 C44.866331,90.5865182 49.2573361,93.9918766 54.3396316,96.6506692 C59.0670355,99.1211236 64.2870174,100.892521 69.470014,102.638467 C75.0043716,104.504882 80.5521785,106.381477 86.2664196,107.808436 C104.505255,112.362488 123.70571,112.219961 142.479152,111.81444 C149.086086,111.673611 155.992265,111.441157 161.535028,108.83666 C165.853912,106.800572 168.932104,103.502108 171.263864,99.9847646 C174.315158,95.376417 176.24176,89.8772806 174.074585,84.7378532 C170.880393,77.156816 159.932721,72.6909946 156.288148,65.2253358 C151.617735,55.6455381 160.68924,45.51939 158.122287,35.5476452 C157.054586,31.3991144 154.043808,27.6493175 150.852978,24.1523351 C143.242396,15.8145516 133.126727,8.21994045 119.531406,9.32960883 C108.020379,10.2662097 97.5217429,13.6325431 85.4527412,12.1699527" id="Fill-1" fill="#6EB1F4" mask="url(#mask-2)"></path>
                    </g>
                </g>
                <g id="Group-6" transform="translate(54.000000, 25.000000)">
                    <rect id="Rectangle" fill="#3389F0" x="0" y="0" width="45" height="68"></rect>
                    <path d="M8,74 L51,74 L51,6 L8,6 L8,74 Z M36.4921739,54.7605333 L36.866087,59.3845333 L36.9782609,59.3845333 L34.445,63.392 C34.4131693,63.4458517 34.3477838,63.4719654 34.286087,63.4554667 C34.2249146,63.4424673 34.1818099,63.3892568 34.1832609,63.3285333 L33.528913,54.96 L35.2769565,54.96 C35.6882609,54.9056 36.0902174,54.8330667 36.4921739,54.7605333 Z M38.688913,58.6864 L38.3336957,54.3162667 C42.9696448,52.9713751 46.8577134,49.8826441 49.1304348,45.7392 L49.1304348,52.0858667 C46.703831,55.5489851 42.9390564,57.9157842 38.688913,58.6501333 L38.688913,58.6864 Z M41.6521739,7.81333333 L41.6521739,47.7066667 L43.5217391,47.7066667 L43.5217391,7.81333333 L49.1304348,7.81333333 L49.1304348,40.4533333 C47.7696567,47.1755664 42.1166596,52.2930042 35.1086957,53.1466667 L31.5191304,53.1466667 L32.3043478,63.4464 C32.3548024,64.286053 32.9597379,64.9974759 33.8,65.2053333 C33.9623181,65.2436725 34.1284201,65.2649506 34.2954348,65.2688 C34.9863091,65.2733374 35.6302264,64.9301781 35.9967391,64.3621333 L38.3617391,60.6266667 C42.0465944,60.0859826 45.4755985,58.4736321 48.1956522,56.0026667 C48.5415217,55.6944 48.85,55.3498667 49.1304348,55.0144 L49.1304348,72.1866667 L18.2078261,72.1866667 L43.5217391,67.3904 L43.5217391,61.3066667 L41.6521739,61.3066667 L41.6521739,65.8944 L9.86956522,71.9237333 L9.86956522,7.81333333 L41.6521739,7.81333333 Z" id="Shape" fill="#1B3250" fill-rule="nonzero"></path>
                    <rect id="Rectangle" fill="#1B3250" fill-rule="nonzero" x="38" y="33" width="2" height="6"></rect>
                </g>
            </g>
        </g>
    </g>
</svg>