<?xml version="1.0" encoding="UTF-8"?>
<svg width="22px" height="22px" viewBox="0 0 22 22" version="1.1" xmlns="http://www.w3.org/2000/svg" xmlns:xlink="http://www.w3.org/1999/xlink">
    <!-- Generator: sketchtool 55.2 (78181) - https://sketchapp.com -->
    <title>E2DA0107-8026-4F01-8049-4E7F6A952552</title>
    <desc>Created with sketchtool.</desc>
    <g id="03.-Target---Edit" stroke="none" stroke-width="1" fill="none" fill-rule="evenodd">
        <g id="HHG_Lead_Collection_Target_Pages_Uploading-CSV-File" transform="translate(-587.000000, -520.000000)" fill="#FA140F">
            <path d="M608,531 C608,536.522857 603.522857,541 598,541 C592.477143,541 588,536.522857 588,531 C588,525.477143 592.477143,521 598,521 C603.522857,521 608,525.477143 608,531 Z M609,531 C609,537.075109 604.075109,542 598,542 C591.924891,542 587,537.075109 587,531 C587,524.924891 591.924891,520 598,520 C604.075109,520 609,524.924891 609,531 Z M601.220713,528.133706 L598.5,530.854456 L595.779287,528.133706 C595.601014,527.955431 595.311978,527.955431 595.133705,528.133706 C594.955432,528.311982 594.955432,528.601022 595.133705,528.779297 L597.854418,531.500046 L595.133797,534.220703 C594.955524,534.398978 594.955524,534.688018 595.133797,534.866294 C595.31207,535.044569 595.601106,535.044569 595.779379,534.866294 L598.5,532.145637 L601.220575,534.866294 C601.398848,535.044569 601.687884,535.044569 601.866157,534.866294 C602.04443,534.688018 602.04443,534.398978 601.866157,534.220703 L599.145582,531.500046 L601.866295,528.779297 C602.044568,528.601022 602.044568,528.311982 601.866295,528.133706 C601.688022,527.955431 601.398986,527.955431 601.220713,528.133706 Z" id="Shape-Copy"></path>
        </g>
    </g>
</svg>