<?xml version="1.0" encoding="UTF-8"?>
<svg width="75px" height="51px" viewBox="0 0 75 51" version="1.1" xmlns="http://www.w3.org/2000/svg" xmlns:xlink="http://www.w3.org/1999/xlink">
    <!-- Generator: sketchtool 55.2 (78181) - https://sketchapp.com -->
    <title>2D70516F-8F5E-46BC-9D24-8263CE4F22D8</title>
    <desc>Created with sketchtool.</desc>
    <g id="03.-Target---Edit" stroke="none" stroke-width="1" fill="none" fill-rule="evenodd">
        <g id="HHG_Lead_Collection_Target_Pages_Links" transform="translate(-687.000000, -542.000000)">
            <g id="material-icon-cloud_upload" transform="translate(687.000000, 530.000000)">
                <polygon id="Path" points="0 0 75 0 75 75 0 75"></polygon>
                <path d="M60.46875,31.375 C58.34375,20.59375 48.875,12.5 37.5,12.5 C28.46875,12.5 20.625,17.625 16.71875,25.125 C7.3125,26.125 0,34.09375 0,43.75 C0,54.09375 8.40625,62.5 18.75,62.5 L59.375,62.5 C68,62.5 75,55.5 75,46.875 C75,38.625 68.59375,31.9375 60.46875,31.375 Z M43.75,40.625 L43.75,53.125 L31.25,53.125 L31.25,40.625 L21.875,40.625 L37.5,25 L53.125,40.625 L43.75,40.625 Z" id="Shape" fill="#3389F0" fill-rule="nonzero"></path>
            </g>
        </g>
    </g>
</svg>