<svg xmlns="http://www.w3.org/2000/svg" width="12.763" height="12.763" viewBox="0 0 12.763 12.763">
  <defs>
    <style>
      .cls-1 {
        fill: #656565;
      }
    </style>
  </defs>
  <path id="Path_548" data-name="Path 548" class="cls-1" d="M18.663,17.164a5.941,5.941,0,0,0-2.434-1.513,3.7,3.7,0,0,0,1.553-3.573,3.672,3.672,0,1,0-5.708,3.573A6.755,6.755,0,0,0,9.64,17.164a6.329,6.329,0,0,0-1.847,3.994.5.5,0,0,0,.5.547.537.537,0,0,0,.5-.462,5.393,5.393,0,0,1,10.744,0,.537.537,0,0,0,.5.462.521.521,0,0,0,.5-.547A6.5,6.5,0,0,0,18.663,17.164Zm-4.491-1.892a2.691,2.691,0,1,1,2.686-2.691A2.707,2.707,0,0,1,14.173,15.272Z" transform="translate(-7.789 -8.942)"/>
</svg>
