<svg xmlns="http://www.w3.org/2000/svg" width="14.89" height="15.314" viewBox="0 0 14.89 15.314">
  <defs>
    <style>
      .cls-1 {
        fill: #656565;
      }
    </style>
  </defs>
  <g id="Group_470" data-name="Group 470" transform="translate(0 0)">
    <path id="Path_555" data-name="Path 555" class="cls-1" d="M28.711,73.473A7,7,0,0,0,23.756,71.4a.556.556,0,1,0,0,1.112,5.87,5.87,0,0,1,5.916,5.916.556.556,0,0,0,1.112,0A7.418,7.418,0,0,0,28.711,73.473Z" transform="translate(-15.894 -71.4)"/>
    <path id="Path_556" data-name="Path 556" class="cls-1" d="M26.336,81.692a.556.556,0,0,0,1.112,0A3.82,3.82,0,0,0,23.656,77.9a.556.556,0,1,0,0,1.112A2.665,2.665,0,0,1,26.336,81.692Z" transform="translate(-15.725 -74.732)"/>
    <path id="Path_557" data-name="Path 557" class="cls-1" d="M17.35,83.621a1.572,1.572,0,0,0-1.423.91.567.567,0,0,0,.147.758.53.53,0,0,0,.736-.152c.245-.354.343-.4.491-.4A7.162,7.162,0,0,1,19.8,86.6a.574.574,0,0,1,0,.4,1.841,1.841,0,0,1-.932,1.213,1.642,1.642,0,0,1-1.374-.051,14.529,14.529,0,0,1-5-3.388h0a15.7,15.7,0,0,1-3.238-5.157,1.789,1.789,0,0,1-.049-1.416,1.964,1.964,0,0,1,1.177-.961.523.523,0,0,1,.392,0,6.782,6.782,0,0,1,1.815,2.579c0,.152-.049.253-.392.506a.567.567,0,0,0-.147.758.53.53,0,0,0,.736.152,1.714,1.714,0,0,0,.883-1.517,6.585,6.585,0,0,0-2.551-3.539,1.454,1.454,0,0,0-1.128,0,3.028,3.028,0,0,0-1.815,1.567,2.955,2.955,0,0,0,.049,2.326,16.569,16.569,0,0,0,3.483,5.511h0a16.49,16.49,0,0,0,5.347,3.59,3.545,3.545,0,0,0,1.226.253,2.388,2.388,0,0,0,1.03-.253,2.936,2.936,0,0,0,1.521-1.871,1.587,1.587,0,0,0,0-1.163A7.1,7.1,0,0,0,17.35,83.621Z" transform="translate(-7.962 -74.121)"/>
  </g>
</svg>
