<svg xmlns="http://www.w3.org/2000/svg" xmlns:xlink="http://www.w3.org/1999/xlink" width="270" height="45" viewBox="0 0 270 45">
    <defs>
        <rect id="prefix__a" width="270" height="45" x="0" y="0" rx="3"/>
        <mask id="prefix__b" width="270" height="45" x="0" y="0" fill="#fff" maskContentUnits="userSpaceOnUse" maskUnits="objectBoundingBox">
            <use xlink:href="#prefix__a"/>
        </mask>
    </defs>
    <g fill="none" fill-rule="evenodd">
        <use fill="#F2F2F2" stroke="#3389F0" stroke-dasharray="6" stroke-width="2" mask="url(#prefix__b)" xlink:href="#prefix__a"/>
        <path fill="#3389F0" fill-rule="nonzero" d="M135 8c-8.285 0-15 6.715-15 15s6.715 15 15 15 15-6.716 15-15c0-8.284-6.715-15-15-15zm0 28.125c-7.249 0-13.125-5.876-13.125-13.125S127.751 9.875 135 9.875 148.125 15.751 148.125 23 142.249 36.125 135 36.125zm5.625-14.063h-4.688v-4.687c0-.518-.42-.938-.937-.938-.518 0-.938.42-.938.938v4.688h-4.687c-.518 0-.938.42-.938.937 0 .518.42.938.938.938h4.688v4.687c0 .517.42.938.937.938.518 0 .938-.42.938-.938v-4.688h4.687c.517 0 .938-.42.938-.937 0-.518-.42-.938-.938-.938z"/>
    </g>
</svg>
