<svg xmlns="http://www.w3.org/2000/svg" width="50" height="50" viewBox="0 0 50 50">
    <g fill="none" fill-rule="evenodd">
        <path fill="#3389F0" d="M5 0h45v50H0V5c0-2.761 2.239-5 5-5z"/>
        <path fill="#FFF" fill-rule="nonzero" d="M28.484 33.211L19.972 25l8.512-8.211c.31-.31.49-.697.49-1.136 0-.44-.155-.853-.464-1.162-.31-.31-.697-.491-1.135-.491h-.026c-.412 0-.825.155-1.135.465l-9.724 9.373c-.31.31-.49.723-.49 1.162 0 .439.18.878.49 1.162l9.75 9.373c.31.284.697.465 1.135.465.438 0 .851-.18 1.16-.49.31-.31.465-.724.465-1.163 0-.439-.18-.852-.516-1.136z"/>
    </g>
</svg>
