<svg xmlns="http://www.w3.org/2000/svg" width="18" height="18" viewBox="0 0 18 18">
    <path fill="#3389F0" d="M4.868 0H4.28c-.856 0-1.55.715-1.55 1.598v.228h-.296C1.09 1.826 0 2.95 0 4.336V15.49C0 16.876 1.09 18 2.434 18h13.132C16.91 18 18 16.876 18 15.49V4.34c0-.667-.256-1.305-.713-1.776-.456-.471-1.076-.736-1.721-.736h-.297V1.6c0-.882-.693-1.598-1.549-1.598h-.588c-.856 0-1.55.716-1.55 1.598v.228H6.418V1.6c0-.424-.163-.831-.453-1.131C5.674.169 5.28 0 4.868 0zm-.812 1.598c0-.126.1-.228.222-.228h.59c.123 0 .222.102.222.228v1.826c0 .126-.1.228-.222.228H4.28c-.122 0-.221-.102-.221-.228l-.003-1.826zM16.67 15.489c0 .63-.495 1.141-1.106 1.141H2.434c-.61 0-1.106-.51-1.106-1.14V7.787h15.344l-.002 7.701zM12.908 1.598c0-.126.1-.228.221-.228h.591c.122 0 .221.102.221.228v1.826c0 .126-.099.228-.22.228h-.59c-.122 0-.22-.102-.22-.228l-.003-1.826zM11.58 3.196v.228c0 .882.694 1.598 1.55 1.598h.59c.856 0 1.55-.716 1.55-1.598v-.228h.294c.61 0 1.106.51 1.106 1.14v2.078H1.328V4.337c0-.63.495-1.141 1.106-1.141h.295v.228c0 .882.693 1.598 1.549 1.598h.59c.856 0 1.55-.716 1.55-1.598v-.228h5.162z"/>
</svg>
