<svg xmlns="http://www.w3.org/2000/svg" width="18" height="15" viewBox="0 0 18 15">
    <g fill="#3389F0">
        <path d="M16.814 2.014v9.695c0 .432.002.864 0 1.296 0 .041-.002.08-.008.12l.022-.158c-.012.071-.03.138-.057.203l.059-.142c-.018.04-.038.08-.061.115-.037.057-.069.05.031-.038-.015.014-.03.032-.043.048-.006.006-.045.045-.047.043-.004-.002.141-.095.047-.037-.041.025-.08.049-.124.069l.142-.06c-.065.028-.132.046-.202.058l.157-.022c-.161.02-.332.008-.493.008H1.393c-.043 0-.084-.002-.127-.008l.157.022c-.071-.012-.138-.03-.203-.058l.142.06c-.04-.018-.079-.038-.114-.062-.057-.037-.05-.069.037.032-.014-.016-.031-.03-.047-.043-.006-.006-.045-.046-.043-.048.002-.004.094.142.037.048-.025-.042-.049-.081-.068-.125l.058.142c-.027-.065-.045-.132-.056-.203l.021.158c-.016-.126-.008-.258-.008-.385v-.8-2.669-3.21-2.767c0-.424-.002-.85 0-1.274 0-.07.006-.139.014-.208l-.022.158c.02-.124.051-.244.1-.36l-.058.141c.033-.077.07-.152.115-.22l.042-.064c.043-.067-.044.061-.047.06-.002 0 .084-.097.092-.105.03-.03.06-.06.092-.087.035-.031.096-.055-.05.038.019-.012.036-.026.054-.038.074-.051.155-.093.24-.128l-.142.06c.11-.044.224-.076.341-.092l-.157.022c.177-.022.361-.014.54-.014H15.99c.072 0 .143.004.216.014l-.157-.022c.117.018.231.048.341.091l-.141-.059c.08.033.157.073.23.122.003.002.062.042.062.044 0 .002-.12-.099-.059-.046.036.032.069.061.102.095.03.03.055.063.085.095.041.043-.094-.133-.04-.05l.036.052c.047.073.088.151.123.232l-.058-.142c.047.117.08.237.1.361l-.022-.158c0 .066.006.133.006.2.002.31.269.605.589.591.316-.014.59-.26.588-.591-.006-.557-.235-1.127-.653-1.497C16.96.183 16.496.004 15.994 0H2.037c-.212 0-.428.022-.63.085C.842.262.394.678.165 1.223.02 1.568 0 1.917 0 2.282V12.942c0 .163.01.329.063.485.194.574.706.964 1.314.972.13.002.258 0 .387 0h14.832c.773-.002 1.4-.62 1.403-1.398.002-.21 0-.416 0-.625v-1.324-1.779V7.28 5.315 3.621 2.44v-.426c0-.31-.27-.606-.589-.592-.327.014-.596.26-.596.592z"/>
        <path d="M16.822 1.976c0 .058-.004.114-.012.17l.021-.154c-.017.125-.05.246-.1.364l.06-.14c-.038.084-.085.161-.136.239-.024.034-.065.062.035-.043l-.041.048c-.038.041-.077.08-.118.117-.012.011-.026.02-.037.033l-.102.087c-.158.133-.317.269-.474.403-.567.482-1.133.964-1.7 1.449l-2.114 1.8-1.812 1.544c-.265.226-.529.453-.796.678-.004.003-.007.005-.011.01-.044.036-.085.034.037-.028-.016.008-.033.023-.047.033-.073.047-.15.087-.228.122l.141-.058c-.114.046-.231.077-.353.097l.157-.021c-.132.017-.261.017-.39 0l.156.02c-.121-.017-.24-.05-.353-.096l.141.058c-.078-.035-.155-.074-.228-.122-.015-.01-.031-.023-.047-.033.128.08.083.066.05.037-.009-.006-.016-.014-.024-.02l-.02-.017c-.04-.033-.076-.066-.114-.099-.165-.141-.33-.28-.495-.422l-1.726-1.47L4.027 4.76l-1.79-1.523c-.256-.219-.52-.434-.77-.658-.038-.033-.074-.068-.107-.105-.018-.02-.041-.039-.053-.06.002.004.084.12.035.042-.05-.077-.096-.153-.135-.238l.059.14c-.05-.118-.083-.239-.1-.365l.021.155c-.014-.124-.014-.246.004-.368l-.021.155c.02-.122.05-.24.1-.354l-.06.14c.034-.076.071-.15.117-.218.013-.021.027-.04.04-.062.044-.066-.042.06-.046.058-.002 0 .084-.094.092-.102.03-.03.06-.058.092-.085.036-.031.097-.055-.049.036.018-.011.036-.025.053-.036.075-.05.155-.092.24-.126l-.142.058c.11-.043.224-.074.342-.09l-.157.022c.177-.021.361-.014.54-.014H16.001c.072 0 .143.004.216.014l-.157-.021c.117.017.231.046.341.089l-.141-.058c.08.033.157.071.23.12.004.002.063.04.063.042 0 .002-.12-.097-.06-.044.036.03.07.06.103.093.03.029.055.062.084.093.041.042-.094-.13-.039-.049l.035.05c.047.072.089.15.124.23l-.059-.14c.047.114.08.232.1.354l-.021-.155c-.004.064.002.13.002.196.002.304.269.595.589.581.316-.013.59-.256.589-.581-.006-.736-.436-1.478-1.13-1.784C16.569.058 16.259 0 15.929 0H2.1c-.196 0-.39.012-.583.052C.783.21.166.847.034 1.577c-.123.688.087 1.389.629 1.856l.269.228c.457.392.917.781 1.375 1.173l1.962 1.67c.644.548 1.288 1.098 1.934 1.646L7.47 9.23c.064.053.127.11.192.162.352.294.748.461 1.208.502.4.035.837-.078 1.174-.289.155-.097.293-.219.432-.337l.48-.409c.544-.463 1.088-.928 1.633-1.39l2.027-1.727 1.78-1.517c.306-.261.612-.52.917-.782.432-.37.681-.905.687-1.469.004-.304-.273-.595-.59-.581-.321.015-.584.258-.588.583z"/>
    </g>
</svg>
