<svg width="20" height="20" viewBox="0 0 20 20" fill="none" xmlns="http://www.w3.org/2000/svg">
<path d="M10.0001 9.79167C10.4029 9.79167 10.7467 9.64944 11.0317 9.365C11.3162 9.08 11.4584 8.73611 11.4584 8.33333C11.4584 7.93056 11.3162 7.58667 11.0317 7.30167C10.7467 7.01722 10.4029 6.875 10.0001 6.875C9.5973 6.875 9.25342 7.01722 8.96842 7.30167C8.68397 7.58667 8.54175 7.93056 8.54175 8.33333C8.54175 8.73611 8.68397 9.08 8.96842 9.365C9.25342 9.64944 9.5973 9.79167 10.0001 9.79167ZM10.0001 17.875C9.90286 17.875 9.80564 17.8611 9.70841 17.8333C9.61119 17.8056 9.52092 17.7569 9.43758 17.6875C7.46536 15.8958 5.9898 14.2361 5.01091 12.7083C4.03147 11.1806 3.54175 9.77778 3.54175 8.5C3.54175 6.48611 4.19119 4.87833 5.49008 3.67667C6.78841 2.47556 8.29175 1.875 10.0001 1.875C11.7084 1.875 13.212 2.47556 14.5109 3.67667C15.8092 4.87833 16.4584 6.48611 16.4584 8.5C16.4584 9.77778 15.969 11.1806 14.9901 12.7083C14.0106 14.2361 12.5348 15.8958 10.5626 17.6875C10.4792 17.7569 10.389 17.8056 10.2917 17.8333C10.1945 17.8611 10.0973 17.875 10.0001 17.875Z" fill="#3389F0"/>
</svg>
