<svg xmlns="http://www.w3.org/2000/svg" width="18" height="16" viewBox="0 0 18 16">
    <g fill="#3389F0">
        <path d="M7 10H18V13H7zM1.836 1.661L.687 2.897 0 1.928 1.868 0 3 0 3 7 1.836 7zM0 14.454l2.783-2.401c.142-.123.284-.263.426-.418.141-.156.212-.337.212-.545 0-.233-.088-.416-.263-.549-.176-.133-.381-.2-.618-.2-.283 0-.504.085-.662.253-.159.169-.248.376-.269.623L.091 11.11c.02-.357.098-.666.233-.929.135-.262.314-.481.536-.656.223-.175.484-.306.785-.394.3-.087.626-.131.976-.131.324 0 .628.044.911.131.284.088.53.217.74.39.208.17.372.386.49.646.118.259.177.56.177.904 0 .22-.023.42-.07.598-.048.178-.114.34-.198.486-.084.146-.184.28-.299.403-.114.123-.24.243-.374.36l-2.176 1.799H5V16H0v-1.546zM7 2H18V5H7z"/>
    </g>
</svg>
