<svg xmlns="http://www.w3.org/2000/svg" width="18" height="18" viewBox="0 0 18 18">
    <path fill="#3389F0" d="M16.458 14.111l-1.834 1.8c-1.383 1.357-6.443-.319-9.423-3.243C2.22 9.744.512 4.78 1.896 3.423l1.834-1.8c.112-.11.242-.102.337.018L6.22 4.358c.136.172.117.47-.043.627l-1.22 1.198c-.633.62-.777 1.682-.317 2.434l-.028-.05c.086.171.252.457.505.825.415.603.93 1.226 1.551 1.836.622.61 1.257 1.115 1.873 1.523.376.248.668.412.843.496l-.044-.023c.767.438 1.842.299 2.47-.317l1.22-1.198c.16-.156.465-.175.64-.041l2.77 2.113c.122.093.13.22.017.33zm-1.937-3.516c-.726-.554-1.816-.487-2.468.154l-1.221 1.198c-.184.18-.571.23-.794.103-.068-.035-.125-.064-.211-.112-.15-.085-.322-.189-.51-.314-.546-.36-1.112-.811-1.669-1.357-.556-.546-1.015-1.101-1.382-1.635-.127-.184-.233-.352-.318-.5-.05-.083-.08-.14-.091-.163l-.028-.05c-.13-.214-.08-.592.107-.775l1.221-1.198c.653-.64.723-1.708.157-2.422L5.16.807C4.553.04 3.45-.024 2.75.663l-1.833 1.8C-1.194 4.533.77 10.241 4.222 13.628c3.452 3.387 9.27 5.314 11.381 3.242l1.834-1.799c.7-.687.635-1.767-.146-2.364l-2.77-2.113z"/>
</svg>
