<svg xmlns="http://www.w3.org/2000/svg" width="18" height="18" viewBox="0 0 18 18">
    <g fill="#3389F0">
        <path d="M4.04 6.545h.819s0-1.636.818-1.636h2.455v7.364s0 .818-.818.818h-.819v.818H11.404v-.818h-.818c-.818 0-.818-.818-.818-.818V4.909h2.455c.818 0 .818 1.636.818 1.636h.818V4.091H4.041v2.454zM.818.818L1.636.818 1.636 0 0 0 0 1.636.818 1.636zM0 18L1.636 18 1.636 17.182.818 17.182.818 16.364 0 16.364zM0 3.273H1V4.909H0zM0 6.545H1V8.181H0zM0 9.818H1V11.453999999999999H0zM0 13.091H1V14.726999999999999H0zM16.364 18L18 18 18 16.364 17.182 16.364 17.182 17.182 16.364 17.182zM18 0L16.364 0 16.364.818 17.182.818 17.182 1.636 18 1.636zM17.182 13.091H18.182V14.726999999999999H17.182zM17.182 9.818H18.182V11.453999999999999H17.182zM17.182 6.545H18.182V8.181H17.182zM17.182 3.273H18.182V4.909H17.182zM3.273 17.182H4.909V18.182H3.273zM6.545 17.182H8.181V18.182H6.545zM9.818 17.182H11.453999999999999V18.182H9.818zM13.091 17.182H14.726999999999999V18.182H13.091zM3.273 0H4.909V1H3.273zM6.545 0H8.181V1H6.545zM9.818 0H11.453999999999999V1H9.818zM13.091 0H14.726999999999999V1H13.091z"/>
    </g>
</svg>
