<svg xmlns="http://www.w3.org/2000/svg" xmlns:xlink="http://www.w3.org/1999/xlink" width="20" height="20" viewBox="0 0 20 20">
    <defs>
        <circle id="apzhnqw1aa" cx="10" cy="10" r="10"/>
    </defs>
    <g fill="none" fill-rule="evenodd">
        <mask id="3tp1jg3kub" fill="#fff">
            <use xlink:href="#apzhnqw1aa"/>
        </mask>
        <g mask="url(#3tp1jg3kub)">
            <g>
                <path fill="#CC0001" fill-rule="nonzero" d="M0 2H20V22H0z" transform="translate(0 -1)"/>
                <path fill="#FFF" fill-rule="nonzero" d="M0 17.106H20V18.126H0z" transform="translate(0 -1)"/>
                <path fill="#FFF" fill-rule="nonzero" d="M0 17H20V18.02H0zM0 19H20V20.02H0zM0 15.065H20V16.085H0zM0 13.024H20V14.043999999999999H0zM0 10.983H20V12.003H0zM0 8.943H20V9.963H0zM0 6.902H20V7.922000000000001H0zM0 4.861H20V5.881H0zM0 3H20V4.02H0zM0 1H20V2.02H0z" transform="translate(0 -1)"/>
                <path fill="#010066" fill-rule="nonzero" d="M0 0H10V12H0z" transform="translate(0 -1)"/>
                <path fill="#FC0" d="M4.114 4.86c-1.187 0-2.15 1.372-2.15 3.062 0 1.69.963 3.061 2.15 3.061.429 0 .828-.179 1.164-.487-.196.096-.405.149-.624.149-1.052 0-1.906-1.216-1.906-2.715 0-1.498.854-2.714 1.906-2.714.233 0 .456.06.662.168-.343-.33-.757-.523-1.202-.523z" transform="translate(0 -1)"/>
                <path fill="#FC0" d="M7.679 9.516L6.774 8.841 7.041 10.222 6.436 9.067 6.247 10.473 6.061 9.066 5.453 10.219 5.723 8.838 4.816 9.51 5.49 8.43 4.464 8.486 5.407 7.92 4.465 7.351 5.491 7.411 4.82 6.329 5.725 7.004 5.458 5.622 6.063 6.778 6.252 5.371 6.438 6.778 7.047 5.625 6.776 7.006 7.683 6.335 7.009 7.415 8.035 7.358 7.092 7.924 8.034 8.494 7.008 8.433z" transform="translate(0 -1)"/>
            </g>
        </g>
    </g>
</svg>
