<svg xmlns="http://www.w3.org/2000/svg" xmlns:xlink="http://www.w3.org/1999/xlink" width="20" height="20" viewBox="0 0 20 20">
    <defs>
        <circle id="2r7yakiy7a" cx="10" cy="10" r="10"/>
    </defs>
    <g fill="none" fill-rule="evenodd">
        <mask id="c1n7c2az8b" fill="#fff">
            <use xlink:href="#2r7yakiy7a"/>
        </mask>
        <use fill="#D8D8D8" xlink:href="#2r7yakiy7a"/>
        <g fill-rule="nonzero" mask="url(#c1n7c2az8b)">
            <path fill="#ED1E24" d="M0 0H30V20H0z"/>
            <path fill="#2B2F84" d="M0 0H15V10H0z"/>
            <circle cx="7.498" cy="4.999" r="1.869" fill="#FFF"/>
            <path fill="#FFF" d="M7.936 2.894l-.439-1.637-.44 1.641c.232-.056.584-.069.88-.004zM6.825 2.957L5.627 1.759l.44 1.64c.172-.164.47-.35.758-.442zM5.894 3.567l-1.637-.439L5.458 4.33c.067-.228.232-.539.436-.762zM5.393 4.56L3.756 5l1.64.439c-.055-.232-.069-.583-.003-.878zM5.455 5.672L4.257 6.87l1.64-.44c-.163-.172-.35-.47-.442-.758zM6.065 6.603L5.627 8.24l1.2-1.202c-.228-.067-.538-.231-.762-.435zM7.059 7.104l.439 1.637.44-1.64c-.232.055-.584.068-.879.003zM8.17 7.041L9.368 8.24l-.44-1.641c-.171.164-.47.351-.758.442zM9.101 6.431l1.637.439-1.201-1.201c-.067.228-.232.54-.436.762zM9.603 5.438l1.636-.439-1.64-.44c.056.232.069.583.004.879zM9.54 4.326l1.198-1.198-1.64.44c.164.172.35.47.442.758zM8.93 3.395l.439-1.636-1.202 1.2c.229.068.54.232.763.436z"/>
        </g>
    </g>
</svg>
