<svg xmlns="http://www.w3.org/2000/svg" xmlns:xlink="http://www.w3.org/1999/xlink" width="20" height="20" viewBox="0 0 20 20">
    <defs>
        <circle id="9fy7thpr7a" cx="10" cy="10" r="10"/>
    </defs>
    <g fill="none" fill-rule="evenodd">
        <mask id="hn6y9x9k3b" fill="#fff">
            <use xlink:href="#9fy7thpr7a"/>
        </mask>
        <use fill="#D8D8D8" xlink:href="#9fy7thpr7a"/>
        <g fill-rule="nonzero" mask="url(#hn6y9x9k3b)">
            <g transform="translate(-5)">
                <path fill="#F93" d="M0.05 0.05H29.901V19.95H0.05z"/>
                <path fill="#FFF" d="M0.05 6.683H29.901V13.317H0.05z"/>
                <path fill="#128807" d="M0.05 13.317H29.901V19.951H0.05z"/>
                <circle cx="14.975" cy="10" r="2.653" fill="#008"/>
                <circle cx="14.975" cy="10" r="2.322" fill="#FFF"/>
                <circle cx="14.975" cy="10" r="1" fill="#008"/>
                <circle cx="17.277" cy="10.303" r="1" fill="#008"/>
                <path fill="#008" d="M14.975 12.322L15.055 10.929 14.975 10.265 14.896 10.929z"/>
                <circle cx="17.12" cy="10.888" r="1" fill="#008"/>
                <path fill="#008" d="M14.374 12.243L14.812 10.918 14.906 10.256 14.658 10.876z"/>
                <circle cx="16.817" cy="11.413" r="1" fill="#008"/>
                <path fill="#008" d="M13.814 12.011L14.58 10.844 14.843 10.23 14.442 10.764z"/>
                <circle cx="16.389" cy="11.842" r="1" fill="#008"/>
                <path fill="#008" d="M13.333 11.642L14.375 10.713 14.787 10.188 14.262 10.6z"/>
                <circle cx="15.864" cy="12.145" r="1" fill="#008"/>
                <path fill="#008" d="M12.964 11.161L14.211 10.533 14.745 10.133 14.131 10.395z"/>
                <circle cx="15.278" cy="12.302" r="1" fill="#008"/>
                <path fill="#008" d="M12.733 10.601L14.099 10.317 14.719 10.069 14.057 10.163z"/>
                <circle cx="14.672" cy="12.302" r="1" fill="#008"/>
                <path fill="#008" d="M12.653 10L14.046 10.08 14.71 10 14.046 9.92z"/>
                <circle cx="14.087" cy="12.145" r="1" fill="#008"/>
                <path fill="#008" d="M12.733 9.399L14.058 9.837 14.719 9.931 14.099 9.683z"/>
                <circle cx="13.562" cy="11.842" r="1" fill="#008"/>
                <path fill="#008" d="M12.964 8.839L14.131 9.605 14.745 9.867 14.211 9.467z"/>
                <circle cx="13.133" cy="11.413" r="1" fill="#008"/>
                <path fill="#008" d="M13.333 8.358L14.262 9.4 14.788 9.812 14.375 9.287z"/>
                <circle cx="12.83" cy="10.888" r="1" fill="#008"/>
                <path fill="#008" d="M13.814 7.989L14.442 9.236 14.842 9.77 14.58 9.156z"/>
                <circle cx="12.673" cy="10.303" r="1" fill="#008"/>
                <path fill="#008" d="M14.374 7.757L14.658 9.124 14.906 9.744 14.812 9.082z"/>
                <circle cx="12.673" cy="9.697" r="1" fill="#008"/>
                <path fill="#008" d="M14.975 7.678L14.896 9.071 14.975 9.735 15.055 9.071z"/>
                <circle cx="12.83" cy="9.111" r="1" fill="#008"/>
                <path fill="#008" d="M15.576 7.757L15.139 9.082 15.044 9.744 15.292 9.124z"/>
                <circle cx="13.133" cy="8.587" r="1" fill="#008"/>
                <path fill="#008" d="M16.136 7.989L15.371 9.156 15.108 9.77 15.508 9.236z"/>
                <circle cx="13.562" cy="8.158" r="1" fill="#008"/>
                <path fill="#008" d="M16.617 8.358L15.576 9.287 15.163 9.812 15.688 9.4z"/>
                <circle cx="14.087" cy="7.855" r="1" fill="#008"/>
                <path fill="#008" d="M16.986 8.839L15.74 9.467 15.205 9.867 15.819 9.605z"/>
                <circle cx="14.672" cy="7.698" r="1" fill="#008"/>
                <path fill="#008" d="M17.218 9.399L15.852 9.683 15.231 9.931 15.893 9.837z"/>
                <circle cx="15.278" cy="7.698" r="1" fill="#008"/>
                <path fill="#008" d="M17.297 10L15.904 9.92 15.24 10 15.904 10.08z"/>
                <circle cx="15.864" cy="7.855" r="1" fill="#008"/>
                <path fill="#008" d="M17.218 10.601L15.893 10.163 15.231 10.069 15.852 10.317z"/>
                <circle cx="16.389" cy="8.158" r="1" fill="#008"/>
                <path fill="#008" d="M16.986 11.161L15.819 10.395 15.205 10.133 15.74 10.533z"/>
                <circle cx="16.817" cy="8.587" r="1" fill="#008"/>
                <path fill="#008" d="M16.617 11.642L15.688 10.6 15.163 10.188 15.575 10.713z"/>
                <circle cx="17.12" cy="9.111" r="1" fill="#008"/>
                <path fill="#008" d="M16.136 12.011L15.508 10.764 15.108 10.23 15.371 10.844z"/>
                <circle cx="17.277" cy="9.697" r="1" fill="#008"/>
                <path fill="#008" d="M15.576 12.243L15.292 10.876 15.044 10.256 15.139 10.918z"/>
            </g>
        </g>
    </g>
</svg>
