<svg xmlns="http://www.w3.org/2000/svg" xmlns:xlink="http://www.w3.org/1999/xlink" width="20" height="20" viewBox="0 0 20 20">
    <defs>
        <circle id="d94qqdwq0a" cx="10" cy="10" r="10"/>
    </defs>
    <g fill="none" fill-rule="evenodd">
        <mask id="qjphawn9ib" fill="#fff">
            <use xlink:href="#d94qqdwq0a"/>
        </mask>
        <g mask="url(#qjphawn9ib)">
            <g>
                <path fill="#0038A8" fill-rule="nonzero" d="M5.9 9.476L13.5 0.5 22 9.476 25.5 15.5 22 21.538 5.9 21.538z" transform="translate(-4 -6)"/>
                <path fill="#CE1126" fill-rule="nonzero" d="M5.9 15.507L25 15.507 23 26.5 7 26 5.9 21.538z" transform="translate(-4 -6)"/>
                <path fill="#FFF" d="M15.196 15.507L5.9 21.538 0.5 19 5.9 9.476" transform="translate(-4 -6)"/>
                <path fill="#FCD116" d="M13.678 14.84L13.678 16.052 12.977 15.071 14.111 15.446 12.977 15.821zM7.251 20.125L6.201 19.518 7.401 19.402 6.51 20.197 6.752 19.027zM6.086 11.557L7.136 10.951 6.637 12.048 6.394 10.878 7.286 11.673zM9 16.713c.592 0 1.072-.54 1.072-1.206 0-.666-.48-1.206-1.073-1.206s-1.073.54-1.073 1.206c0 .666.48 1.206 1.073 1.206z" transform="translate(-4 -6)"/>
                <path fill="#FCD116" d="M6.973 15.507L7.136 15.69 8.998 15.507 7.136 15.324zM7.276 15.848L7.401 15.988 8.998 15.507zM7.276 15.166L7.401 15.026 8.998 15.507zM7.558 13.996L7.544 14.241 8.99 15.428 7.803 13.982zM7.531 14.452L7.52 14.639 8.99 15.428zM8.014 13.969L8.201 13.959 8.99 15.428z" transform="translate(-4 -6)"/>
                <path fill="#FCD116" d="M8.921 13.422L8.738 13.585 8.921 15.447 9.104 13.585zM8.58 13.725L8.44 13.85 8.921 15.447zM9.262 13.725L9.402 13.85 8.921 15.447zM10.431 14.007L10.186 13.993 8.999 15.439 10.445 14.252zM9.976 13.98L9.789 13.969 8.999 15.439zM10.458 14.463L10.469 14.649 8.999 15.439zM11.023 15.507L10.861 15.324 8.998 15.507 10.861 15.69zM10.72 15.166L10.595 15.026 8.998 15.507zM10.72 15.848L10.595 15.988 8.998 15.507zM10.439 17.018L10.453 16.774 9.007 15.586 10.194 17.032zM10.466 16.562L10.477 16.375 9.007 15.586zM9.983 17.045L9.797 17.056 9.007 15.586z" transform="translate(-4 -6)"/>
                <path fill="#FCD116" d="M9.076 17.593L9.259 17.43 9.076 15.567 8.893 17.43z" transform="translate(-4 -6)"/>
                <path fill="#FCD116" d="M9.417 17.289L9.557 17.165 9.076 15.568zM8.735 17.289L8.595 17.165 9.076 15.568zM7.565 17.007L7.81 17.021 8.997 15.575 7.551 16.762zM8.021 17.034L8.207 17.045 8.997 15.575zM7.538 16.552L7.527 16.365 8.997 15.575z" transform="translate(-4 -6)"/>
            </g>
        </g>
    </g>
</svg>
